<svg width="30" height="20" viewBox="0 0 30 20" fill="none" xmlns="http://www.w3.org/2000/svg">
  <defs>
    <linearGradient id="paint0_linear_1566_14471" x1="0" y1="0" x2="0" y2="16.9209" gradientUnits="userSpaceOnUse">
      <stop stop-color="#FE6587"/>
      <stop offset="1" stop-color="#F52D6A"/>
    </linearGradient>
  </defs>
  <path d="M24.583 8.42475C24.8302 7.81275 24.9173 7.15268 24.8369 6.50146C24.7565 5.85024 24.5109 5.22743 24.1214 4.68674C23.7319 4.14606 23.2102 3.70373 22.6011 3.3979C21.9921 3.09207 21.3141 2.93193 20.6256 2.93129C19.7871 2.93051 18.9673 3.16777 18.2709 3.61278C17.4945 2.32785 16.2944 1.32298 14.8569 0.754172C13.4194 0.185365 11.825 0.0844418 10.3211 0.467071C8.81722 0.849699 7.48804 1.69447 6.53992 2.87025C5.59179 4.04602 5.07777 5.48701 5.07765 6.9695C5.07765 7.08378 5.082 7.19662 5.0865 7.31018C3.67032 7.78499 2.4761 8.72151 1.71506 9.95407C0.954027 11.1866 0.675222 12.6358 0.927963 14.0453C1.1807 15.4548 1.9487 16.7337 3.09612 17.6559C4.24353 18.578 5.69642 19.084 7.19779 19.0843H23.4523C24.8534 19.0844 26.2045 18.589 27.2439 17.6942C28.2832 16.7994 28.9366 15.569 29.0774 14.2414C29.2183 12.9138 28.8364 11.5838 28.006 10.5091C27.1756 9.4344 25.9558 8.69166 24.583 8.4249V8.42475ZM18.7131 12.1559L14.0576 16.5896C13.9248 16.7149 13.7455 16.7852 13.5585 16.7852C13.3715 16.7852 13.1922 16.7149 13.0594 16.5896L8.40409 12.1559C8.30534 12.0618 8.23809 11.942 8.21083 11.8115C8.18358 11.681 8.19754 11.5458 8.25096 11.4229C8.30438 11.3 8.39485 11.1949 8.51095 11.121C8.62705 11.047 8.76356 11.0075 8.90323 11.0074H11.7919V6.29616C11.7924 6.11781 11.8671 5.94693 11.9995 5.82082C12.1319 5.69471 12.3113 5.62363 12.4986 5.6231H14.6186C14.8058 5.62363 14.9853 5.69471 15.1177 5.82082C15.2501 5.94693 15.3247 6.11781 15.3253 6.29616V11.0076H18.2139C18.3536 11.0077 18.4901 11.0472 18.6062 11.1211C18.7223 11.1951 18.8128 11.3001 18.8662 11.423C18.9196 11.5459 18.9336 11.6812 18.9063 11.8116C18.8791 11.9421 18.8118 12.0619 18.7131 12.156V12.1559Z" fill="url(#paint0_linear_1566_14471)"/>
</svg>
