<svg width="18" height="18" viewBox="0 0 18 18" fill="none" xmlns="http://www.w3.org/2000/svg">
  <defs>
    <linearGradient id="paint0_linear_1566_14471" x1="0" y1="0" x2="0" y2="16.9209" gradientUnits="userSpaceOnUse">
      <stop stop-color="#FE6587"/>
      <stop offset="1" stop-color="#F52D6A"/>
    </linearGradient>
  </defs>
  <path d="M16.4914 8.93729C16.4948 10.0594 16.2307 11.1664 15.7206 12.1679C15.1161 13.3655 14.1875 14.3726 13.0387 15.0763C11.89 15.78 10.5664 16.1526 9.21633 16.1524C8.08524 16.1558 6.96937 15.8938 5.95983 15.3878L1.08594 17.0053L2.71419 12.1679C2.20409 11.1664 1.94 10.0594 1.94348 8.93729C1.94405 7.59781 2.32047 6.28493 3.03059 5.14567C3.74071 4.00641 4.75648 3.08575 5.96417 2.48679C6.97371 1.98074 8.08959 1.71874 9.22067 1.7222H9.64836C11.4324 1.81973 13.1175 2.56672 14.381 3.82013C15.6444 5.07354 16.3974 6.74526 16.4957 8.51515L16.4914 8.93729Z" fill="url(#paint0_linear_1566_14471)"/>
</svg>
