<svg width="18" height="21" viewBox="0 0 18 21" fill="none" xmlns="http://www.w3.org/2000/svg">
<path d="M4.45496 20.583C4.0183 20.3073 3.63055 19.9678 3.30616 19.5772C2.95269 19.1723 2.62455 18.7481 2.32341 18.3068C1.61659 17.3282 1.063 16.2579 0.679839 15.1292C0.238269 13.9056 0.00937377 12.6223 0.00207852 11.3293C-0.0290613 10.081 0.290178 8.84724 0.927221 7.7539C1.3824 6.96662 2.05088 6.30832 2.86392 5.8467C3.6527 5.38332 4.55872 5.12955 5.48685 5.11205C5.83913 5.11553 6.18964 5.1597 6.5306 5.24358C6.79832 5.31416 7.12195 5.42644 7.51844 5.56439C8.02676 5.74725 8.30295 5.86114 8.39614 5.8852C8.63124 5.97558 8.8813 6.02607 9.1349 6.03437C9.33774 6.02256 9.53789 5.98424 9.72963 5.92049C9.86349 5.87718 10.1176 5.79858 10.4769 5.6494C10.8327 5.5275 11.1157 5.42163 11.341 5.34303C11.6585 5.24735 11.9823 5.17127 12.3102 5.11526C12.6608 5.0619 13.0168 5.04737 13.3709 5.07195C13.9836 5.11094 14.587 5.2347 15.1619 5.43928C16.0857 5.77677 16.8777 6.37478 17.4307 7.15238C17.1894 7.29246 16.9625 7.45356 16.7529 7.63359C16.3029 8.01201 15.9197 8.45604 15.6177 8.9489C15.2217 9.62202 15.0168 10.3808 15.0229 11.1512C15.0176 12.0414 15.2905 12.9132 15.8074 13.6567C16.1772 14.1916 16.6594 14.6487 17.224 14.9993C17.4648 15.1596 17.7254 15.2916 18 15.3923C17.8899 15.7131 17.7679 16.0339 17.6255 16.3547C17.3077 17.0602 16.9214 17.7363 16.4717 18.3742C16.0735 18.9244 15.7583 19.3366 15.5211 19.6061C15.2092 19.9752 14.8421 20.2994 14.4316 20.5685C14.0341 20.8176 13.568 20.9504 13.0913 20.9503C12.7691 20.9626 12.4469 20.9252 12.1374 20.8396C11.8697 20.7562 11.6053 20.6632 11.3478 20.5573C11.077 20.4401 10.7978 20.341 10.5124 20.2605C10.1618 20.1738 9.80064 20.1306 9.43819 20.1322C9.07704 20.1318 8.71727 20.1744 8.36733 20.2589C8.08195 20.3358 7.80231 20.4307 7.5303 20.5429C7.14228 20.7033 6.88812 20.7963 6.74071 20.8396C6.44363 20.9254 6.13726 20.9792 5.82743 21C5.33821 20.9926 4.86165 20.8517 4.45496 20.5942V20.583ZM10.7886 4.44798C10.2302 4.73174 9.59988 4.86385 8.96715 4.82974C8.88511 4.22532 8.97096 3.61109 9.21623 3.04766C9.42912 2.51021 9.74186 2.01315 10.1397 1.57997C10.5623 1.12592 11.0731 0.752912 11.6443 0.48121C12.183 0.204408 12.7781 0.0403077 13.3895 0C13.4618 0.611872 13.383 1.23128 13.1591 1.80935C12.9465 2.36836 12.6342 2.88867 12.2357 3.34762C11.8314 3.80486 11.3334 4.17974 10.7717 4.44959L10.7886 4.44798Z" fill="white"/>
</svg>
