<svg width="13" height="12" viewBox="0 0 13 12" fill="none" xmlns="http://www.w3.org/2000/svg">
<path d="M10.7145 7.6277C10.3703 7.62841 10.0308 7.70423 9.72181 7.84939C9.4128 7.99455 9.14242 8.20523 8.9312 8.46542L5.0531 6.56716C5.17049 6.18045 5.16445 5.76896 5.03576 5.38555L8.89651 3.49624C9.24381 3.93961 9.75142 4.24295 10.32 4.34688C10.8886 4.45082 11.4772 4.34788 11.9707 4.0582C12.4642 3.76852 12.827 3.31296 12.9882 2.78067C13.1493 2.24837 13.0972 1.67766 12.842 1.18022C12.5868 0.682786 12.1469 0.294423 11.6084 0.0911369C11.0699 -0.112149 10.4715 -0.115724 9.93042 0.0811099C9.3893 0.277944 8.94438 0.66102 8.68272 1.15537C8.42106 1.64972 8.3615 2.21976 8.5157 2.75394L4.64266 4.65364C4.34814 4.29399 3.94327 4.03176 3.485 3.90383C3.02673 3.7759 2.5381 3.78871 2.08783 3.94045C1.63756 4.0922 1.24829 4.37524 0.974755 4.74979C0.701223 5.12434 0.55719 5.57155 0.562908 6.02854C0.568626 6.48552 0.723808 6.9293 1.00663 7.29747C1.28946 7.66563 1.6857 7.93967 2.13964 8.08104C2.59358 8.22242 3.08239 8.22402 3.53732 8.08561C3.99226 7.94721 4.39045 7.67577 4.67589 7.30947L8.53668 9.19947C8.4711 9.39834 8.43605 9.60528 8.43262 9.81379C8.43255 10.2463 8.56644 10.669 8.81735 11.0286C9.06826 11.3883 9.42492 11.6686 9.84223 11.8341C10.2595 11.9996 10.7188 12.0429 11.1618 11.9586C11.6048 11.8742 12.0118 11.666 12.3312 11.3602C12.6506 11.0544 12.8681 10.6648 12.9562 10.2406C13.0443 9.81645 12.999 9.3768 12.8262 8.97726C12.6533 8.57773 12.3605 8.23626 11.9849 7.99604C11.6093 7.75581 11.1677 7.62763 10.716 7.6277H10.7145Z" fill="#4E4E4E"/>
</svg>
