<svg width="25" height="31" viewBox="0 0 25 31" fill="none" xmlns="http://www.w3.org/2000/svg">
<path d="M4.83948 0.56543C5.4359 0.56543 5.9346 0.763758 6.43185 1.16185C6.92911 1.55994 7.12887 2.0572 7.12887 2.65506V8.92394C7.12887 9.4212 7.22804 9.91845 7.4278 10.4171C7.62757 10.9144 7.92506 11.3125 8.22399 11.6114C8.62208 12.0095 9.02018 12.2078 9.51743 12.5068C10.0147 12.7051 10.5119 12.8057 11.0106 12.8057C11.5093 12.8057 12.0052 12.7065 12.5038 12.5068C13.0011 12.3084 13.3992 12.1087 13.6981 11.7106C14.0962 11.4117 14.3951 11.0136 14.5935 10.6155C14.7918 10.1182 14.8924 9.62096 14.8924 9.12227V2.75422C14.8924 2.1578 15.1913 1.65911 15.5894 1.16185C15.9875 0.763758 16.5839 0.56543 17.1818 0.56543C17.7797 0.56543 18.2769 0.763758 18.7742 1.16185C19.2714 1.55994 19.4712 2.0572 19.4712 2.65506V20.4672C19.4712 21.0636 19.2729 21.5623 18.7742 21.9604C18.2769 22.4577 17.7797 22.6574 17.1818 22.6574C16.5839 22.6574 16.0867 22.4591 15.5894 21.9604C15.1913 21.5623 14.8924 21.0651 14.8924 20.368V16.3871C14.3951 16.686 13.7973 16.9835 13.1017 17.0841C12.4047 17.2825 11.7091 17.2825 11.0121 17.2825C9.91696 17.2825 8.82328 17.0841 7.82733 16.686C6.83282 16.1888 5.93603 15.5909 5.14129 14.8953C4.3451 14.0991 3.74868 13.2038 3.24999 12.1087C2.85189 11.1142 2.65356 9.91989 2.65356 8.72561V2.75422C2.65356 2.1578 2.85189 1.65911 3.24999 1.16185C3.6452 0.763758 4.24306 0.56543 4.83948 0.56543Z" fill="#1C1C1C"/>
<path fill-rule="evenodd" clip-rule="evenodd" d="M22.002 20.963C22.002 20.963 18.6851 25.5116 13.0658 24.5487C7.50111 23.5327 15.2603 30.8622 22.002 20.963Z" fill="#1C1C1C"/>
<path fill-rule="evenodd" clip-rule="evenodd" d="M21.2002 25.0287C21.2002 25.0287 19.4339 26.2589 19.3276 29.0958C19.2744 31.986 16.1701 28.5066 21.2002 25.0287Z" fill="#1C1C1C"/>
<path fill-rule="evenodd" clip-rule="evenodd" d="M15.6354 28.2393C15.6354 28.2393 6.96643 29.2022 4.18409 23.4234C1.34858 17.6446 -1.54155 31.2358 15.6354 28.2393Z" fill="#1C1C1C"/>
<path fill-rule="evenodd" clip-rule="evenodd" d="M9.1065 22.5137C9.58795 22.5137 10.0162 22.8888 10.0162 23.3702C10.0162 23.9048 9.58795 24.2799 9.1065 24.2799C8.57188 24.2799 8.19678 23.9048 8.19678 23.3702C8.19678 22.8888 8.57188 22.5137 9.1065 22.5137Z" fill="#1C1C1C"/>
<path fill-rule="evenodd" clip-rule="evenodd" d="M15.5279 29.8978C15.742 29.8978 15.9562 30.112 15.9562 30.3261C15.9562 30.5402 15.742 30.7544 15.5279 30.7544C15.3137 30.7544 15.0996 30.5402 15.0996 30.3261C15.0996 30.112 15.3137 29.8978 15.5279 29.8978Z" fill="#1C1C1C"/>
<path fill-rule="evenodd" clip-rule="evenodd" d="M1.61607 17.7524C2.36483 17.7524 2.95406 18.3417 2.95406 19.0904C2.95406 19.8392 2.36483 20.4284 1.61607 20.4284C0.920486 20.4284 0.278076 19.8392 0.278076 19.0904C0.278076 18.3417 0.920486 17.7524 1.61607 17.7524Z" fill="#1C1C1C"/>
<path fill-rule="evenodd" clip-rule="evenodd" d="M24.5718 20.0533C24.786 20.0533 25.0001 20.2675 25.0001 20.4816C25.0001 20.6958 24.786 20.9099 24.5718 20.9099C24.3577 20.9099 24.1436 20.6958 24.1436 20.4816C24.1436 20.2675 24.3577 20.0533 24.5718 20.0533Z" fill="#1C1C1C"/>
</svg>
