<svg width="10" height="10" viewBox="0 0 10 10" fill="none" xmlns="http://www.w3.org/2000/svg">
<path d="M0.56543 4.54557C0.56543 5.43001 0.829964 6.29459 1.32558 7.02998C1.8212 7.76537 2.52563 8.33854 3.34981 8.677C4.17399 9.01546 5.0809 9.10402 5.95584 8.93148C6.83078 8.75893 7.63447 8.33303 8.26527 7.70763C8.89607 7.08223 9.32565 6.28543 9.49969 5.41798C9.67373 4.55053 9.5844 3.65139 9.24302 2.83427C8.90163 2.01715 8.32351 1.31874 7.58177 0.827371C6.84003 0.335999 5.96798 0.0737305 5.07589 0.0737305C4.48355 0.0736502 3.89699 0.189263 3.34972 0.413965C2.80245 0.638667 2.30518 0.968057 1.88633 1.38332C1.46748 1.79859 1.13525 2.29159 0.908603 2.83417C0.68196 3.37676 0.565349 3.95829 0.56543 4.54557ZM6.83382 3.61237C6.91251 3.53484 7.01895 3.49133 7.12989 3.49133C7.24083 3.49133 7.34726 3.53484 7.42596 3.61237C7.46473 3.65068 7.49544 3.69625 7.5163 3.74643C7.53716 3.79661 7.54776 3.8504 7.54747 3.90468C7.54731 4.01515 7.50294 4.12105 7.42411 4.19913L5.37937 6.21994C5.29999 6.2917 5.1958 6.3304 5.08841 6.32801C4.98102 6.32561 4.87869 6.28232 4.80264 6.2071L2.72737 4.15602C2.68849 4.11747 2.65765 4.07171 2.6366 4.02134C2.61556 3.97098 2.60473 3.917 2.60473 3.86248C2.60473 3.75239 2.64885 3.6468 2.72737 3.56895C2.80589 3.4911 2.91239 3.44736 3.02344 3.44736C3.13449 3.44736 3.24099 3.4911 3.31951 3.56895L5.07744 5.32986L6.83382 3.61237Z" fill="#2D2D2D"/>
</svg>
