<svg width="14" height="12" viewBox="0 0 14 12" fill="none" xmlns="http://www.w3.org/2000/svg">
<path d="M13.0527 3.6505C13.0331 2.75015 12.6566 1.89063 11.9995 1.24624C11.3424 0.601849 10.4539 0.220822 9.51425 0.18042C8.90418 0.183898 8.30555 0.339234 7.77715 0.631173C7.24875 0.923112 6.80874 1.34161 6.50034 1.84558C6.20801 1.34457 5.78213 0.926746 5.26613 0.634708C4.75013 0.34267 4.16246 0.186864 3.56306 0.183178C2.62339 0.222783 1.7346 0.602983 1.07686 1.24671C0.419126 1.89043 0.0416526 2.74951 0.0209595 3.64981C-0.027893 4.09236 0.00984237 4.53976 0.132232 4.96907C0.414653 6.08684 1.04604 7.09572 1.9423 7.86137L6.49805 11.82L11.1314 7.86212C12.0281 7.09672 12.6598 6.08777 12.9422 4.96982C13.0643 4.54046 13.1018 4.09307 13.0527 3.65056" fill="#4E4E4E"/>
</svg>
