<svg width="17" height="17" viewBox="0 0 17 17" fill="none" xmlns="http://www.w3.org/2000/svg">
<path d="M5.51131 12.8532C5.68886 12.9966 5.92782 13.0769 6.17673 13.0769C6.42564 13.0769 6.6646 12.9966 6.84215 12.8532L11.4946 9.01711C11.6652 8.87643 11.7634 8.68711 11.7687 8.48848C11.774 8.28985 11.686 8.09717 11.523 7.95046L6.93393 4.17035C6.84807 4.09423 6.74443 4.03312 6.62919 3.99066C6.51396 3.9482 6.3895 3.92526 6.26325 3.92321C6.13699 3.92116 6.01153 3.94004 5.89435 3.97873C5.77717 4.01742 5.67067 4.07512 5.58122 4.14839C5.49177 4.22166 5.42119 4.309 5.37371 4.40518C5.32622 4.50137 5.3028 4.60443 5.30484 4.70822C5.30688 4.81201 5.33434 4.9144 5.38559 5.00928C5.43683 5.10415 5.5108 5.18956 5.60309 5.26042L9.50067 8.5033L5.50656 11.7553C5.41865 11.8274 5.34898 11.9131 5.30159 12.0075C5.25421 12.1018 5.23003 12.203 5.23047 12.305C5.23092 12.4071 5.25596 12.5081 5.30416 12.6022C5.35237 12.6963 5.42277 12.7816 5.51131 12.8532Z" fill="#0E0E0E"/>
<path d="M8.5 17C10.1811 17 11.8245 16.5015 13.2223 15.5675C14.6202 14.6335 15.7096 13.306 16.353 11.7528C16.9963 10.1996 17.1646 8.49057 16.8367 6.84173C16.5087 5.1929 15.6992 3.67834 14.5104 2.48959C13.3217 1.30085 11.8071 0.491302 10.1583 0.163328C8.50943 -0.164647 6.80036 0.00368279 5.24719 0.647028C3.69402 1.29037 2.3665 2.37984 1.43251 3.77766C0.498516 5.17547 -3.20279e-07 6.81886 -2.46794e-07 8.5C-0.000191458 9.61629 0.219537 10.7217 0.646634 11.753C1.07373 12.7844 1.69983 13.7215 2.48917 14.5108C3.2785 15.3002 4.21561 15.9263 5.24696 16.3534C6.27832 16.7805 7.38371 17.0002 8.5 17ZM3.41572 3.42301C4.59176 2.2491 6.13845 1.51928 7.79226 1.3579C9.44606 1.19652 11.1047 1.61356 12.4855 2.53797C13.8662 3.46238 14.8838 4.83696 15.3647 6.4275C15.8457 8.01805 15.7602 9.72614 15.123 11.2607C14.4857 12.7954 13.3361 14.0615 11.8699 14.8435C10.4038 15.6255 8.71183 15.875 7.08238 15.5494C5.45294 15.2238 3.9868 14.3432 2.93378 13.0578C1.88076 11.7724 1.30601 10.1617 1.30747 8.5C1.30566 7.55637 1.49107 6.62176 1.85295 5.75029C2.21484 4.87881 2.74602 4.08778 3.41572 3.42301Z" fill="#0E0E0E"/>
</svg>
