<svg width="23" height="19" viewBox="0 0 23 19" fill="none" xmlns="http://www.w3.org/2000/svg">
<path d="M2.12588 3.51052H4.84107L5.28577 2.21817C5.42315 1.81317 5.64731 1.42657 5.99078 1.14675C6.3017 0.892696 6.68856 0.734375 7.16941 0.734375H15.8139C16.2948 0.734375 16.6816 0.892696 16.9925 1.14675C17.336 1.42657 17.5602 1.81317 17.6976 2.21817L18.1423 3.51052H20.8538C21.4359 3.51052 21.9674 3.75352 22.3542 4.14748C22.7375 4.54144 22.9797 5.08268 22.9797 5.67546V16.8353C22.9797 17.4317 22.7411 17.973 22.3542 18.3632C21.971 18.7572 21.4395 19.0002 20.8538 19.0002H2.12588C1.54379 19.0002 1.01232 18.7572 0.62547 18.3632C0.242234 17.9693 0 17.428 0 16.8353V5.67546C0 5.08268 0.238619 4.54144 0.62547 4.14748C1.00871 3.7572 1.54379 3.51052 2.12588 3.51052ZM5.31831 4.89122H2.12588C1.91618 4.89122 1.72456 4.97959 1.58356 5.12318C1.44617 5.26309 1.3594 5.45823 1.3594 5.67546V16.8353C1.3594 17.0525 1.44617 17.2476 1.58356 17.3875C1.72456 17.5275 1.91618 17.6158 2.12588 17.6158H20.8502C21.0599 17.6158 21.2515 17.5275 21.3925 17.3839C21.5335 17.2439 21.6203 17.0451 21.6203 16.8316V5.67178C21.6203 5.45455 21.5335 5.25941 21.3961 5.1195C21.2588 4.97959 21.0635 4.89122 20.8538 4.89122H17.6614C17.383 4.89122 17.1191 4.71081 17.0215 4.42731L16.4177 2.66736C16.3562 2.48327 16.2658 2.31759 16.1429 2.21817C16.0634 2.1519 15.9585 2.11508 15.8139 2.11508H7.16941C7.02479 2.11508 6.91994 2.15558 6.8404 2.21817C6.71748 2.31759 6.62709 2.48327 6.56563 2.66736L5.97993 4.37208C5.90401 4.67031 5.64008 4.89122 5.32192 4.89122H5.31831ZM11.4862 3.86398C13.2795 3.86398 14.9028 4.60404 16.0778 5.80065C17.2529 6.99726 17.9796 8.65043 17.9796 10.4766C17.9796 12.3029 17.2529 13.956 16.0778 15.1526C14.9028 16.3493 13.2795 17.0893 11.4862 17.0893C9.69298 17.0893 8.06965 16.3493 6.89464 15.1526C5.71962 13.956 4.99292 12.3029 4.99292 10.4766C4.99292 8.65043 5.71962 6.99726 6.89464 5.80065C8.06965 4.60404 9.69298 3.86398 11.4862 3.86398ZM15.1161 6.78003C14.187 5.83379 12.9035 5.24837 11.4862 5.24837C10.069 5.24837 8.78551 5.83379 7.85634 6.78003C6.92717 7.72627 6.35232 9.03334 6.35232 10.4766C6.35232 11.9199 6.92717 13.227 7.85634 14.1733C8.78551 15.1195 10.069 15.7049 11.4862 15.7049C12.9035 15.7049 14.187 15.1195 15.1161 14.1733C16.0453 13.227 16.6202 11.9199 16.6202 10.4766C16.6202 9.03334 16.0453 7.72627 15.1161 6.78003ZM8.49627 10.4766C8.49627 10.8596 8.19258 11.1688 7.81657 11.1688C7.44057 11.1688 7.13687 10.8596 7.13687 10.4766C7.13687 9.25794 7.62495 8.14969 8.4095 7.35072C9.19767 6.54807 10.2823 6.05102 11.479 6.05102C11.855 6.05102 12.1587 6.3603 12.1587 6.74321C12.1587 7.12613 11.855 7.43541 11.479 7.43541C10.6511 7.43541 9.90629 7.77414 9.36398 8.32642C8.82528 8.87871 8.48904 9.63717 8.48904 10.4803L8.49627 10.4766Z" fill="black"/>
</svg>
