<svg width="11" height="17" viewBox="0 0 11 17" fill="none" xmlns="http://www.w3.org/2000/svg">
<g clip-path="url(#clip0_1230_27102)">
<path d="M5.50039 0C2.83524 0 0.667236 2.19898 0.667236 4.90221C0.667236 6.46286 1.51534 8.69043 3.1199 11.3453C4.15535 13.0582 5.20255 14.4455 5.50039 14.8323C5.79762 14.4455 6.84483 13.0582 7.88027 11.3453C9.48544 8.69063 10.3335 6.46286 10.3335 4.90221C10.3335 2.19898 8.16534 0 5.50039 0ZM7.23553 6.66296C6.77245 7.13327 6.15548 7.39198 5.50039 7.39198C4.84531 7.39198 4.22814 7.13327 3.76445 6.66296C3.30076 6.19264 3.0457 5.56748 3.0457 4.90221C3.0457 4.23694 3.30076 3.61178 3.76445 3.14146C4.22814 2.67176 4.8445 2.41244 5.50039 2.41244C6.15629 2.41244 6.77265 2.67176 7.23553 3.14146C7.69922 3.61178 7.95488 4.23756 7.95488 4.90221C7.95488 5.56686 7.69922 6.19264 7.23553 6.66296Z" fill="#1C1C1C"/>
<path d="M9.14484 12.9267C8.94249 12.8572 8.72636 12.7949 8.49908 12.7388C8.23834 13.1484 7.98389 13.5309 7.74708 13.8774C8.04553 13.9342 8.32634 14.0023 8.58261 14.0814C9.41247 14.3362 9.69145 14.6161 9.73991 14.7033C9.69145 14.7913 9.41267 15.0704 8.58261 15.3264C7.74384 15.5839 6.64939 15.7266 5.50041 15.7266C4.35142 15.7266 3.25637 15.5839 2.41759 15.3264C1.58774 15.0702 1.30936 14.7911 1.2609 14.7033C1.30936 14.6159 1.58753 14.3362 2.41759 14.0814C2.67448 14.0025 2.95468 13.9342 3.25373 13.8774C3.01692 13.5307 2.76186 13.1484 2.50112 12.7388C2.27425 12.7949 2.05812 12.8572 1.85537 12.9267C0.322373 13.4487 0 14.181 0 14.7033C0 15.2257 0.322373 15.9586 1.85516 16.4811C2.8383 16.8157 4.13265 16.9998 5.5002 16.9998C6.86775 16.9998 8.16211 16.8157 9.14464 16.4811C10.6782 15.9586 10.9998 15.2259 10.9998 14.7033C10.9998 14.1808 10.678 13.4487 9.14464 12.9267H9.14484Z" fill="#1C1C1C"/>
</g>
<defs>
<clipPath id="clip0_1230_27102">
<rect width="11" height="17" fill="white"/>
</clipPath>
</defs>
</svg>
