<svg width="20" height="20" viewBox="0 0 20 20" fill="none" xmlns="http://www.w3.org/2000/svg">
  <!-- Blue Circle -->
  <path d="M19.4169 10.3327C19.4169 15.4947 15.1817 19.6927 9.97602 19.6927C4.77033 19.6927 0.535156 15.4947 0.535156 10.3327C0.535156 5.17156 4.77033 0.972656 9.97602 0.972656C15.1817 0.972656 19.4169 5.17156 19.4169 10.3327Z" fill="url(#paint0_linear)"/>

  <!-- White Tick centered -->
  <g transform="translate(5,6)">
    <path d="M3.71245 7.84301C3.47404 7.84301 3.23562 7.75116 3.05361 7.56638L0.527891 5.00215C0.16388 4.63259 0.16388 4.03395 0.527891 3.66547C0.891902 3.29591 1.48049 3.29483 1.8445 3.66439L3.71245 5.56081L8.10613 1.10017C8.47014 0.730608 9.05873 0.730608 9.42274 1.10017C9.78675 1.46973 9.78675 2.06837 9.42274 2.43793L4.37129 7.56638C4.18929 7.75116 3.95087 7.84301 3.71245 7.84301Z" fill="white" transform="scale(0.) translate(5, 4)"/>
  </g>

  <!-- Gradient -->
  <defs>
    <linearGradient id="paint0_linear" x1="0.535156" y1="10.3327" x2="19.4169" y2="10.3327" gradientUnits="userSpaceOnUse">
      <stop stop-color="#478FE4"/>
      <stop offset="1" stop-color="#5CD3C6"/>
    </linearGradient>
  </defs>
</svg>
