<svg width="20" height="20" viewBox="0 0 20 20" fill="none" xmlns="http://www.w3.org/2000/svg">
<path d="M19.4164 9.77382C19.4164 14.9363 15.1812 19.1346 9.97553 19.1346C4.76984 19.1346 0.534668 14.9363 0.534668 9.77382C0.534668 4.61231 4.76984 0.413086 9.97553 0.413086C15.1812 0.413086 19.4164 4.61231 19.4164 9.77382Z" fill="url(#paint0_linear_3_3142)"/>
<path d="M8.71294 13.2842C8.47453 13.2842 8.23611 13.1924 8.0541 13.0076L5.52838 10.4432C5.16437 10.0736 5.16437 9.47487 5.52838 9.10637C5.89239 8.73678 6.48098 8.7357 6.84499 9.10529L8.71294 11.0019L13.1066 6.54086C13.4706 6.17127 14.0592 6.17127 14.4232 6.54086C14.7872 6.91045 14.7872 7.50914 14.4232 7.87873L9.37178 13.0076C9.18977 13.1924 8.95136 13.2842 8.71294 13.2842Z" fill="white"/>
<defs>
<linearGradient id="paint0_linear_3_3142" x1="0.534668" y1="9.77382" x2="19.4164" y2="9.77382" gradientUnits="userSpaceOnUse">
<stop stop-color="#478FE4"/>
<stop offset="1" stop-color="#5CD3C6"/>
</linearGradient>
</defs>
</svg>