<svg width="15" height="15" viewBox="0 0 15 15" fill="none" xmlns="http://www.w3.org/2000/svg">
<path d="M5 5.62676H7V7.5017H5V5.62676ZM8 5.62676H10V7.5017H8V5.62676ZM11 5.62676H13V7.5017H11V5.62676ZM2 11.2496H4V13.1246H2V11.2496ZM5 11.2496H7V13.1246H5V11.2496ZM8 11.2496H10V13.1246H8V11.2496ZM5 8.43723H7V10.3122H5V8.43723ZM8 8.43723H10V10.3122H8V8.43723ZM11 8.43723H13V10.3122H11V8.43723ZM2 8.43723H4V10.3122H2V8.43723ZM13 0V0.93747H11V0H3.99793V0.93747H2V0H0V15H15V0H13ZM14 14.0625H1.00052V3.74988H14V14.0625Z" fill="#2D2D2D"/>
</svg>
