<svg width="32" height="26" viewBox="0 0 32 26" fill="none" xmlns="http://www.w3.org/2000/svg">
<path d="M9.93078 14.8155C9.93078 16.0439 10.2933 17.2447 10.9724 18.2661C11.6516 19.2875 12.6168 20.0836 13.7462 20.5536C14.8756 21.0237 16.1183 21.1467 17.3172 20.9071C18.5162 20.6674 19.6175 20.0759 20.4818 19.2073C21.3462 18.3387 21.9349 17.232 22.1734 16.0272C22.4118 14.8224 22.2894 13.5736 21.8216 12.4387C21.3538 11.3038 20.5617 10.3338 19.5452 9.65134C18.5288 8.96888 17.3339 8.60461 16.1115 8.60461C14.4722 8.60461 12.9002 9.25898 11.7411 10.4237C10.582 11.5885 9.93078 13.1683 9.93078 14.8155ZM29.4239 4.30475H22.7677C22.2922 2.39371 21.8168 0.482666 19.915 0.482666H12.3078C10.4061 0.482666 9.9306 2.39371 9.45514 4.30475H2.7992C2.29528 4.30623 1.81242 4.50805 1.4561 4.86612C1.09977 5.22418 0.898935 5.70941 0.897461 6.21579V23.4156C0.899056 23.9219 1.09994 24.407 1.45626 24.765C1.81257 25.123 2.29536 25.3247 2.7992 25.3262H29.4239C29.9278 25.3247 30.4107 25.1229 30.767 24.7648C31.1233 24.4068 31.3242 23.9215 31.3256 23.4152V6.21579C31.3242 5.70941 31.1233 5.22418 30.767 4.86612C30.4107 4.50805 29.9278 4.30623 29.4239 4.30475ZM16.1115 23.2958C14.4424 23.2958 12.8108 22.7985 11.423 21.8667C10.0353 20.9348 8.95362 19.6104 8.3149 18.0608C7.67617 16.5113 7.50906 14.8062 7.83467 13.1612C8.16029 11.5162 8.96402 10.0052 10.1442 8.81919C11.3244 7.63321 12.8281 6.82555 14.4651 6.49834C16.1021 6.17113 17.7989 6.33907 19.3409 6.98091C20.8829 7.62276 22.2009 8.70969 23.1282 10.1043C24.0555 11.4988 24.5504 13.1384 24.5504 14.8156C24.5504 17.0647 23.6613 19.2217 22.0787 20.812C20.4961 22.4024 18.3496 23.2958 16.1115 23.2958ZM29.4239 10.0379H25.6204V8.12637H29.4239V10.0379Z" fill="white" fill-opacity="0.7"/>
</svg>
