<svg width="34" height="26" viewBox="0 0 34 26" fill="none" xmlns="http://www.w3.org/2000/svg">
<g clip-path="url(#clip0_4021_7778)">
<rect x="20" y="8" width="12" height="11" fill="url(#paint0_linear_4021_7778)"/>
<path d="M34 23.1111V2.88889C34 1.29278 32.7321 0 31.1667 0H2.83333C1.26792 0 0 1.29278 0 2.88889V23.1111C0 24.7072 1.26792 26 2.83333 26H31.1667C32.7321 26 34 24.7072 34 23.1111ZM31.1667 16.6111H21.25V14.4444H31.1667V16.6111ZM31.1667 12.2778H21.25V10.1111H31.1667V12.2778Z" fill="#484848"/>
<path d="M2.83398 18.7778C2.90482 14.2133 4.8669 14.2928 7.02023 13.5561C8.37315 13.0939 9.06732 12.7689 9.06732 11.8228C9.06732 10.4217 7.50898 10.0028 7.50898 7.58333C7.50898 5.54667 8.81232 4.32611 10.6257 4.32611C12.439 4.32611 13.7423 5.53944 13.7423 7.58333C13.7423 9.99556 12.184 10.4144 12.184 11.8228C12.184 12.7689 12.8852 13.0939 14.2311 13.5561C16.3773 14.2928 18.3394 14.2133 18.4173 18.7778H2.83398Z" fill="white"/>
</g>
<defs>
<linearGradient id="paint0_linear_4021_7778" x1="20" y1="13.5" x2="32" y2="13.5" gradientUnits="userSpaceOnUse">
<stop stop-color="#478FE4"/>
<stop offset="1" stop-color="#5CD3C6"/>
</linearGradient>
<clipPath id="clip0_4021_7778">
<rect width="34" height="26" fill="white"/>
</clipPath>
</defs>
</svg>
