<svg width="28" height="18" viewBox="0 0 28 18" fill="none" xmlns="http://www.w3.org/2000/svg">
<g filter="url(#filter0_d_7038_6985)">
<path d="M21.1518 17.2093C21.0609 17.2093 20.971 17.1893 20.8883 17.1509C20.8057 17.1124 20.7323 17.0563 20.6732 16.9864C20.4492 16.722 20.2695 16.4949 20.1255 16.3126C19.7273 15.8092 19.623 15.6954 19.4231 15.6327C19.1119 15.535 18.501 15.5368 17.3917 15.5405C17.1619 15.5411 9.23596 15.542 9.23596 15.542C6.84898 15.542 4.90698 13.5797 4.90698 11.1676V8.08942C4.90985 7.15461 5.20781 6.24511 5.75753 5.49322C6.30725 4.74134 7.08005 4.18629 7.9635 3.90882C8.32854 1.86761 10.1001 0.314331 12.2237 0.314331H19.6223C22.0092 0.314331 23.9512 2.27662 23.9512 4.68882V9.38779C23.9512 9.47138 23.935 9.55414 23.9033 9.63136C23.8716 9.70858 23.8252 9.77875 23.7668 9.83785C23.7083 9.89695 23.6388 9.94383 23.5624 9.97582C23.486 10.0078 23.4041 10.0243 23.3213 10.0243C23.2386 10.0243 23.1567 10.0078 23.0803 9.97582C23.0039 9.94383 22.9344 9.89695 22.8759 9.83785C22.8175 9.77875 22.7711 9.70858 22.7394 9.63136C22.7077 9.55414 22.6915 9.47138 22.6915 9.38779V4.68882C22.6915 2.97855 21.3146 1.58725 19.6223 1.58725H12.2237C10.5311 1.58725 9.15423 2.97854 9.15423 4.68882V7.76699C9.15423 9.47699 10.5311 10.8683 12.2237 10.8683H21.1518C21.3189 10.8683 21.4791 10.9353 21.5972 11.0547C21.7153 11.1741 21.7817 11.336 21.7817 11.5048V16.5728C21.7816 16.7416 21.7152 16.9034 21.5971 17.0227C21.479 17.142 21.3189 17.2091 21.1518 17.2093M17.8962 14.2665C19.4171 14.2665 19.9494 14.3156 20.5219 14.8508V12.1412H12.2237C9.83658 12.1412 7.89447 10.1789 7.89447 7.76694V5.30149C7.37828 5.55773 6.94307 5.95442 6.63783 6.44695C6.33258 6.93947 6.16939 7.50829 6.16662 8.08942V11.1676C6.16662 12.8777 7.54352 14.2691 9.23596 14.2691C9.23596 14.2691 17.738 14.2665 17.8962 14.2665" fill="white"/>
</g>
<g filter="url(#filter1_d_7038_6985)">
<path d="M12.4246 6.23013C12.4247 6.08867 12.3832 5.95037 12.3054 5.83274C12.2277 5.7151 12.1171 5.62341 11.9878 5.56925C11.8585 5.5151 11.7161 5.50092 11.5788 5.5285C11.4415 5.55608 11.3154 5.62419 11.2164 5.72421C11.1174 5.82424 11.05 5.95168 11.0226 6.09042C10.9953 6.22916 11.0093 6.37298 11.0629 6.50367C11.1165 6.63437 11.2072 6.74607 11.3236 6.82466C11.44 6.90325 11.5769 6.94519 11.7169 6.94518C11.9046 6.94515 12.0846 6.8698 12.2173 6.73572C12.35 6.60163 12.4246 6.41978 12.4246 6.23014" fill="white"/>
</g>
<g filter="url(#filter2_d_7038_6985)">
<path d="M16.6071 6.2301C16.6071 6.08865 16.5656 5.95038 16.4879 5.83276C16.4101 5.71515 16.2996 5.62348 16.1702 5.56934C16.0409 5.51521 15.8986 5.50104 15.7613 5.52863C15.624 5.55622 15.4979 5.62434 15.3989 5.72436C15.2999 5.82438 15.2325 5.95181 15.2052 6.09054C15.1779 6.22927 15.192 6.37307 15.2455 6.50374C15.2991 6.63442 15.3899 6.7461 15.5063 6.82467C15.6227 6.90324 15.7595 6.94517 15.8995 6.94515C16.0871 6.94509 16.2671 6.86974 16.3998 6.73566C16.5325 6.60158 16.6071 6.41974 16.6072 6.23011" fill="white"/>
</g>
<g filter="url(#filter3_d_7038_6985)">
<path d="M20.7896 6.2301C20.7896 6.08865 20.7481 5.95037 20.6704 5.83276C20.5926 5.71514 20.4821 5.62347 20.3527 5.56934C20.2234 5.5152 20.0811 5.50104 19.9438 5.52863C19.8065 5.55623 19.6804 5.62434 19.5814 5.72437C19.4824 5.82439 19.415 5.95182 19.3877 6.09056C19.3604 6.22929 19.3745 6.37308 19.428 6.50376C19.4816 6.63443 19.5724 6.74612 19.6888 6.82468C19.8052 6.90325 19.942 6.94517 20.082 6.94515C20.2697 6.94512 20.4496 6.86978 20.5823 6.73569C20.715 6.6016 20.7896 6.41973 20.7896 6.2301Z" fill="white"/>
</g>
<defs>
<filter id="filter0_d_7038_6985" x="0.906982" y="0.314331" width="27.0443" height="24.895" filterUnits="userSpaceOnUse" color-interpolation-filters="sRGB">
<feFlood flood-opacity="0" result="BackgroundImageFix"/>
<feColorMatrix in="SourceAlpha" type="matrix" values="0 0 0 0 0 0 0 0 0 0 0 0 0 0 0 0 0 0 127 0" result="hardAlpha"/>
<feOffset dy="4"/>
<feGaussianBlur stdDeviation="2"/>
<feComposite in2="hardAlpha" operator="out"/>
<feColorMatrix type="matrix" values="0 0 0 0 0 0 0 0 0 0 0 0 0 0 0 0 0 0 0.25 0"/>
<feBlend mode="normal" in2="BackgroundImageFix" result="effect1_dropShadow_7038_6985"/>
<feBlend mode="normal" in="SourceGraphic" in2="effect1_dropShadow_7038_6985" result="shape"/>
</filter>
<filter id="filter1_d_7038_6985" x="7.00903" y="5.51477" width="9.41565" height="9.43042" filterUnits="userSpaceOnUse" color-interpolation-filters="sRGB">
<feFlood flood-opacity="0" result="BackgroundImageFix"/>
<feColorMatrix in="SourceAlpha" type="matrix" values="0 0 0 0 0 0 0 0 0 0 0 0 0 0 0 0 0 0 127 0" result="hardAlpha"/>
<feOffset dy="4"/>
<feGaussianBlur stdDeviation="2"/>
<feComposite in2="hardAlpha" operator="out"/>
<feColorMatrix type="matrix" values="0 0 0 0 0 0 0 0 0 0 0 0 0 0 0 0 0 0 0.25 0"/>
<feBlend mode="normal" in2="BackgroundImageFix" result="effect1_dropShadow_7038_6985"/>
<feBlend mode="normal" in="SourceGraphic" in2="effect1_dropShadow_7038_6985" result="shape"/>
</filter>
<filter id="filter2_d_7038_6985" x="11.1917" y="5.51489" width="9.41553" height="9.43024" filterUnits="userSpaceOnUse" color-interpolation-filters="sRGB">
<feFlood flood-opacity="0" result="BackgroundImageFix"/>
<feColorMatrix in="SourceAlpha" type="matrix" values="0 0 0 0 0 0 0 0 0 0 0 0 0 0 0 0 0 0 127 0" result="hardAlpha"/>
<feOffset dy="4"/>
<feGaussianBlur stdDeviation="2"/>
<feComposite in2="hardAlpha" operator="out"/>
<feColorMatrix type="matrix" values="0 0 0 0 0 0 0 0 0 0 0 0 0 0 0 0 0 0 0.25 0"/>
<feBlend mode="normal" in2="BackgroundImageFix" result="effect1_dropShadow_7038_6985"/>
<feBlend mode="normal" in="SourceGraphic" in2="effect1_dropShadow_7038_6985" result="shape"/>
</filter>
<filter id="filter3_d_7038_6985" x="15.3741" y="5.51489" width="9.41541" height="9.43024" filterUnits="userSpaceOnUse" color-interpolation-filters="sRGB">
<feFlood flood-opacity="0" result="BackgroundImageFix"/>
<feColorMatrix in="SourceAlpha" type="matrix" values="0 0 0 0 0 0 0 0 0 0 0 0 0 0 0 0 0 0 127 0" result="hardAlpha"/>
<feOffset dy="4"/>
<feGaussianBlur stdDeviation="2"/>
<feComposite in2="hardAlpha" operator="out"/>
<feColorMatrix type="matrix" values="0 0 0 0 0 0 0 0 0 0 0 0 0 0 0 0 0 0 0.25 0"/>
<feBlend mode="normal" in2="BackgroundImageFix" result="effect1_dropShadow_7038_6985"/>
<feBlend mode="normal" in="SourceGraphic" in2="effect1_dropShadow_7038_6985" result="shape"/>
</filter>
</defs>
</svg>
