<svg width="44" height="38" viewBox="0 0 44 38" fill="none" xmlns="http://www.w3.org/2000/svg">
<g clip-path="url(#clip0_4021_7783)">
<path d="M43.8797 15.4867L42.2309 15.4861C42.1868 15.2896 42.1392 15.0941 42.0892 14.8992C41.4262 12.3295 40.249 9.91979 38.6693 7.83819C37.089 5.75658 35.1068 4.00214 32.8764 2.69925C31.7621 2.04705 30.587 1.50712 29.3758 1.08796C28.1652 0.66849 26.918 0.369475 25.662 0.191519C24.4054 0.0159839 23.1352 -0.0394004 21.878 0.0274845C20.6204 0.0949747 19.3751 0.284431 18.167 0.59071C15.7494 1.20296 13.4843 2.28583 11.5294 3.73581C9.57416 5.1867 7.93004 7.00349 6.71236 9.04242C6.12515 10.0227 5.63795 11.0538 5.25384 12.1155C5.20598 12.2477 5.39251 12.3361 5.46768 12.2169C5.99138 11.3885 6.79335 10.1456 7.32319 9.4404C8.69212 7.61332 10.4163 6.07769 12.3498 4.93217C14.2844 3.78696 16.4268 3.03186 18.6097 2.71347C20.7925 2.39236 23.0113 2.51009 25.1092 3.02913C27.2077 3.5509 29.1709 4.47034 30.8625 5.71542C32.5555 6.9587 33.9762 8.52217 35.0335 10.2724C36.0115 11.8924 36.6767 13.6702 36.9979 15.4843L35.4035 15.4836C35.3117 15.4836 35.2544 15.5814 35.3004 15.6598L37.2022 18.9114L39.1384 22.2227L39.536 22.9027C39.5817 22.9811 39.6965 22.9811 39.7422 22.9027L40.0407 22.3928L42.631 17.9708L43.9831 15.6628C44.0288 15.5844 43.9717 15.4867 43.88 15.4867H43.8797Z" fill="#484848"/>
<path d="M38.5313 25.783C38.0076 26.6114 37.2059 27.8543 36.6761 28.5592C35.3072 30.3863 33.583 31.9219 31.6495 33.0674C29.7148 34.2126 27.5725 34.9677 25.3896 35.2861C23.2068 35.6072 20.988 35.4895 18.8901 34.9705C16.7916 34.4487 14.8284 33.5293 13.1367 32.2842C11.4438 31.0409 10.023 29.4774 8.96582 27.7272C7.98775 26.1072 7.32261 24.3294 7.00139 22.5157L8.59582 22.5163C8.68755 22.5163 8.74492 22.4185 8.6989 22.3401L6.79707 19.0885L4.86087 15.7772L4.46326 15.0972C4.41754 15.0188 4.3028 15.0188 4.25709 15.0972L3.95857 15.6071L1.36828 20.0291L0.0162236 22.3371C-0.029796 22.4155 0.0275752 22.5132 0.119308 22.5132L1.76804 22.5138C1.81222 22.7103 1.85946 22.9058 1.90978 23.1007C2.57277 25.6704 3.74995 28.0801 5.32965 30.1617C6.90997 32.2433 8.89219 33.9978 11.1226 35.3007C12.2369 35.9529 13.4119 36.4928 14.6232 36.9119C15.8338 37.3314 17.0809 37.6304 18.337 37.8084C19.5936 37.9839 20.8637 38.0393 22.121 37.9724C23.3786 37.9049 24.6238 37.7155 25.832 37.4092C28.2496 36.7969 30.5147 35.7141 32.4696 34.2641C34.4248 32.8132 36.0689 30.9964 37.2866 28.9575C37.8738 27.9772 38.361 26.9461 38.7448 25.8847C38.7927 25.7525 38.6062 25.6641 38.531 25.7833L38.5313 25.783Z" fill="#484848"/>
<path d="M15.93 7.53375C16.3942 7.53375 16.7823 7.68598 17.1692 7.99166C17.556 8.29733 17.7116 8.67897 17.7116 9.13778V13.9502C17.7116 14.3318 17.7889 14.7137 17.9441 15.0963C18.0997 15.4779 18.331 15.7836 18.5636 16.013C18.8734 16.3187 19.183 16.4709 19.5702 16.7003C19.957 16.8525 20.3442 16.9297 20.732 16.9297C21.1198 16.9297 21.5061 16.8535 21.8939 16.7003C22.2807 16.5481 22.5906 16.3946 22.8231 16.0893C23.133 15.8599 23.3656 15.5542 23.5199 15.2485C23.6742 14.8669 23.7524 14.4849 23.7524 14.1024V9.21405C23.7524 8.75614 23.985 8.37329 24.2949 7.99166C24.6047 7.68598 25.0689 7.53375 25.534 7.53375C25.9991 7.53375 26.3863 7.68598 26.7732 7.99166C27.16 8.29733 27.3156 8.67897 27.3156 9.13778V22.8114C27.3156 23.2693 27.1613 23.6521 26.7732 23.9575C26.3863 24.3391 25.9991 24.4926 25.534 24.4926C25.0689 24.4926 24.6817 24.3403 24.2949 23.9575C23.985 23.6518 23.7524 23.2702 23.7524 22.7351V19.679C23.3656 19.9087 22.9002 20.1369 22.359 20.214C21.8165 20.3663 21.2754 20.3663 20.7329 20.3663C19.8806 20.3663 19.0296 20.214 18.2546 19.9087C17.4806 19.527 16.7829 19.0679 16.1644 18.534C15.545 17.923 15.0808 17.2357 14.6927 16.3949C14.3828 15.6314 14.2285 14.7146 14.2285 13.7979V9.21405C14.2285 8.75614 14.3828 8.37329 14.6927 7.99166C15.0001 7.68598 15.4655 7.53375 15.9297 7.53375H15.93Z" fill="url(#paint0_linear_4021_7783)"/>
<path fill-rule="evenodd" clip-rule="evenodd" d="M29.2858 23.1918C29.2858 23.1918 26.7047 26.6834 22.332 25.9443C18.0018 25.1644 24.0396 30.7906 29.2858 23.1918Z" fill="#FFBC00"/>
<path fill-rule="evenodd" clip-rule="evenodd" d="M28.6619 26.313C28.6619 26.313 27.2875 27.2575 27.2046 29.4351C27.1632 31.6538 24.7475 28.9826 28.6619 26.313Z" fill="#EA86AE"/>
<path fill-rule="evenodd" clip-rule="evenodd" d="M24.3318 28.7777C24.3318 28.7777 17.5859 29.5168 15.4208 25.0809C13.2143 20.6447 10.9652 31.0781 24.3318 28.7777Z" fill="#803B82"/>
<path fill-rule="evenodd" clip-rule="evenodd" d="M19.2508 24.3824C19.6254 24.3824 19.9585 24.6702 19.9585 25.04C19.9585 25.4504 19.6254 25.7385 19.2508 25.7385C18.8347 25.7385 18.543 25.4507 18.543 25.04C18.543 24.6705 18.8347 24.3824 19.2508 24.3824Z" fill="#FFBC00"/>
<path fill-rule="evenodd" clip-rule="evenodd" d="M24.2472 30.0507C24.4138 30.0507 24.5804 30.215 24.5804 30.3793C24.5804 30.5437 24.4138 30.708 24.2472 30.708C24.0807 30.708 23.9141 30.5437 23.9141 30.3793C23.9141 30.215 24.0807 30.0507 24.2472 30.0507Z" fill="#EA86AE"/>
<path fill-rule="evenodd" clip-rule="evenodd" d="M13.4221 20.7274C14.0047 20.7274 14.4634 21.1798 14.4634 21.7545C14.4634 22.3293 14.0047 22.7817 13.4221 22.7817C12.8809 22.7817 12.3809 22.3293 12.3809 21.7545C12.3809 21.1798 12.8806 20.7274 13.4221 20.7274Z" fill="#803B82"/>
<path fill-rule="evenodd" clip-rule="evenodd" d="M31.2863 22.4936C31.4529 22.4936 31.6195 22.6579 31.6195 22.8223C31.6195 22.9866 31.4529 23.1509 31.2863 23.1509C31.1197 23.1509 30.9531 22.9866 30.9531 22.8223C30.9531 22.6579 31.1197 22.4936 31.2863 22.4936Z" fill="#803B82"/>
</g>
<defs>
<linearGradient id="paint0_linear_4021_7783" x1="14.2288" y1="16.0133" x2="27.3159" y2="16.0133" gradientUnits="userSpaceOnUse">
<stop stop-color="#478FE4"/>
<stop offset="1" stop-color="#5CD3C6"/>
</linearGradient>
<clipPath id="clip0_4021_7783">
<rect width="44" height="38" fill="white"/>
</clipPath>
</defs>
</svg>
