<svg width="36" height="30" viewBox="0 0 36 30" fill="none" xmlns="http://www.w3.org/2000/svg">
<g clip-path="url(#clip0_4021_7767)">
<path fill-rule="evenodd" clip-rule="evenodd" d="M2.15735 9.99593H27.9371V27.818H2.15735V9.99593ZM2.85638 25.1605L11.7027 18.4925C13.7154 20.1016 14.7278 20.9061 14.7278 20.9061C18.9461 17.7489 21.0552 16.1763 21.0552 16.1763L27.238 20.7477V27.1231H2.84433V25.1727L2.85638 25.1605ZM8.71376 0.0365692L34.4935 5.37586C35.5179 5.58309 36.1808 6.60707 35.9638 7.63104L32.3241 25.6115C32.2035 26.221 31.8058 26.6965 31.2876 26.9525V19.8578L33.7944 7.46038L8.54503 2.2308L7.66522 6.60707H5.45966L6.4841 1.53596C6.68899 0.499796 7.70137 -0.170664 8.71376 0.0487594V0.0365692ZM1.8922 7.8139H28.2022C29.2387 7.8139 30.0944 8.6794 30.0944 9.72775V28.0861C30.0944 29.1345 29.2387 30 28.2022 30H1.8922C0.855708 30 0 29.1345 0 28.0861V9.72775C0 8.6794 0.855708 7.8139 1.8922 7.8139Z" fill="#484848"/>
<path fill-rule="evenodd" clip-rule="evenodd" d="M6.50844 11.9464C7.84623 11.9464 8.93093 13.0435 8.93093 14.3966C8.93093 15.7497 7.84623 16.8468 6.50844 16.8468C5.17064 16.8468 4.08594 15.7497 4.08594 14.3966C4.08594 13.0435 5.17064 11.9464 6.50844 11.9464Z" fill="url(#paint0_linear_4021_7767)"/>
</g>
<defs>
<linearGradient id="paint0_linear_4021_7767" x1="4.08594" y1="14.3966" x2="8.93093" y2="14.3966" gradientUnits="userSpaceOnUse">
<stop stop-color="#478FE4"/>
<stop offset="1" stop-color="#5CD3C6"/>
</linearGradient>
<clipPath id="clip0_4021_7767">
<rect width="36" height="30" fill="white"/>
</clipPath>
</defs>
</svg>
