<svg width="17" height="22" viewBox="0 0 17 22" fill="none" xmlns="http://www.w3.org/2000/svg">
<path d="M0 18.8792C0 20.6236 0.856235 21.5 2.57702 21.5H10.3912C12.112 21.5 12.9682 20.6153 12.9682 18.8792V17.3351H14.423C16.1355 17.3351 17 16.4503 17 14.7142V7.9368C17 6.91017 16.7922 6.25914 16.1687 5.61645L11.9707 1.33466C11.3804 0.725358 10.6822 0.5 9.79267 0.5H6.6088C4.89633 0.5 4.03179 1.38474 4.03179 3.12083V4.66494H2.57702C0.864548 4.66494 0 5.54134 0 7.28577V18.8792ZM12.1785 10.1403L7.59804 5.45787C6.96626 4.80684 6.44254 4.66494 5.51149 4.66494H5.37017V3.14587C5.37017 2.31955 5.81076 1.8438 6.67531 1.8438H10.3496V6.1256C10.3496 7.0938 10.8152 7.55286 11.7711 7.55286H15.6616V14.6892C15.6616 15.5238 15.2127 15.9913 14.3482 15.9913H12.9682V12.3605C12.9682 11.2921 12.8435 10.8247 12.1785 10.1403ZM11.555 5.92528V2.50318L15.3125 6.34261H11.9623C11.6714 6.34261 11.555 6.21741 11.555 5.92528ZM1.33839 18.8541V7.30246C1.33839 6.4845 1.77897 6.00874 2.64352 6.00874H5.37017V10.8498C5.37017 11.9014 5.9022 12.4273 6.93301 12.4273H11.6298V18.8541C11.6298 19.6888 11.1809 20.1562 10.3247 20.1562H2.63521C1.77897 20.1562 1.33839 19.6888 1.33839 18.8541ZM7.09095 11.1669C6.75844 11.1669 6.62543 11.0334 6.62543 10.6995V6.31757L11.3721 11.1669H7.09095Z" fill="black"/>
</svg>
