<svg width="9" height="9" viewBox="0 0 9 9" fill="none" xmlns="http://www.w3.org/2000/svg">
<path d="M2.12221 3.12886C2.04389 3.21032 2 3.31996 2 3.43417C2 3.54837 2.04389 3.65801 2.12221 3.73948L4.21753 5.87411C4.29438 5.95242 4.39779 5.99746 4.50628 5.9999C4.61478 6.00233 4.72002 5.96196 4.80016 5.88718L6.86493 3.78159C6.9065 3.74219 6.93988 3.69464 6.96308 3.64177C6.98627 3.5889 6.9988 3.53179 6.99992 3.47386C7.00104 3.41593 6.99072 3.35837 6.96959 3.3046C6.94846 3.25084 6.91694 3.20198 6.87692 3.16093C6.8369 3.11989 6.78919 3.08751 6.73666 3.06572C6.68412 3.04393 6.62782 3.03319 6.57113 3.03412C6.51444 3.03506 6.45851 3.04766 6.40669 3.07117C6.35487 3.09468 6.30821 3.12862 6.26951 3.17097L4.49819 4.95927L2.72189 3.12668C2.68251 3.08634 2.63569 3.05438 2.58415 3.03263C2.53261 3.01089 2.47737 2.9998 2.42161 3C2.36585 3.00021 2.31068 3.0117 2.25929 3.03381C2.2079 3.05593 2.16131 3.08823 2.12221 3.12886Z" fill="black" fill-opacity="0.6"/>
<path d="M6.60455e-08 4.5C6.60455e-08 5.39001 0.26392 6.26004 0.758387 7.00006C1.25285 7.74009 1.95566 8.31686 2.77792 8.65746C3.60019 8.99805 4.50499 9.08716 5.37791 8.91353C6.25082 8.7399 7.05264 8.31131 7.68198 7.68198C8.31131 7.05264 8.7399 6.25082 8.91353 5.37791C9.08716 4.50499 8.99805 3.60019 8.65746 2.77792C8.31686 1.95566 7.74009 1.25285 7.00006 0.758387C6.26004 0.26392 5.39001 6.60455e-08 4.5 6.60455e-08C3.90902 -0.000101189 3.32381 0.116226 2.7778 0.342336C2.23179 0.568446 1.73568 0.89991 1.31779 1.31779C0.89991 1.73568 0.568446 2.23179 0.342336 2.7778C0.116226 3.32381 -0.000101189 3.90902 6.60455e-08 4.5ZM7.18782 1.80832C7.8093 2.43093 8.19567 3.24977 8.28111 4.12531C8.36655 5.00086 8.14576 5.87894 7.65637 6.60995C7.16697 7.34095 6.43925 7.87966 5.5972 8.13427C4.75515 8.38888 3.85087 8.34365 3.03843 8.00628C2.22599 7.66891 1.55566 7.06027 1.14166 6.28408C0.727654 5.50788 0.595594 4.61215 0.767977 3.7495C0.94036 2.88685 1.40652 2.11066 2.08703 1.55318C2.76754 0.995697 3.6203 0.691419 4.5 0.692189C4.99957 0.691231 5.49436 0.789388 5.95573 0.980975C6.4171 1.17256 6.83588 1.45377 7.18782 1.80832Z" fill="black" fill-opacity="0.6"/>
</svg>
