<svg width="15" height="15" viewBox="0 0 15 15" fill="none" xmlns="http://www.w3.org/2000/svg">
<path d="M6.74967 11.25H8.24951V6.74967H6.74967V11.25ZM7.5 0C6.01664 0 4.56659 0.439867 3.33323 1.26398C2.09986 2.08809 1.13856 3.25943 0.570907 4.62987C0.00324966 6.00032 -0.145275 7.50832 0.144114 8.96317C0.433503 10.418 1.14781 11.7544 2.1967 12.8033C3.2456 13.8522 4.58197 14.5665 6.03682 14.8559C7.49168 15.1453 8.99968 14.9968 10.3701 14.4291C11.7406 13.8614 12.9119 12.9001 13.736 11.6668C14.5601 10.4334 15 8.98336 15 7.5C14.9993 5.51108 14.209 3.6038 12.8026 2.19742C11.3962 0.79104 9.48892 0.000653499 7.5 0ZM7.5 13.5002C6.31344 13.5002 5.15353 13.1483 4.16695 12.4891C3.18036 11.8299 2.41141 10.8929 1.95733 9.79667C1.50326 8.70043 1.38445 7.49416 1.61594 6.33041C1.84742 5.16665 2.4188 4.09767 3.25783 3.25864C4.09685 2.41962 5.16583 1.84824 6.32959 1.61675C7.49335 1.38527 8.69961 1.50408 9.79585 1.95815C10.8921 2.41223 11.8291 3.18118 12.4883 4.16777C13.1475 5.15435 13.4993 6.31426 13.4993 7.50082C13.4972 9.09128 12.8644 10.616 11.7398 11.7406C10.6152 12.8652 9.09046 13.498 7.5 13.5002ZM6.74967 5.24983H8.24951V3.75H6.74967V5.24983Z" fill="#E33707"/>
</svg>
