<svg width="26" height="26" viewBox="0 0 26 26" fill="none" xmlns="http://www.w3.org/2000/svg">
<g clip-path="url(#clip0_4001_5404)">
<path d="M6.74573 10.5099H4.10166C3.7834 10.5099 3.52539 10.7713 3.52539 11.0938V12.8798C3.52539 13.2022 3.7834 13.4637 4.10166 13.4637H6.74573C7.064 13.4637 7.322 13.2022 7.322 12.8798V11.0938C7.322 10.7713 7.064 10.5099 6.74573 10.5099Z" fill="white"/>
<path d="M12.3385 10.5099H9.69443C9.37617 10.5099 9.11816 10.7713 9.11816 11.0938V12.8798C9.11816 13.2022 9.37617 13.4637 9.69443 13.4637H12.3385C12.6568 13.4637 12.9148 13.2022 12.9148 12.8798V11.0938C12.9148 10.7713 12.6568 10.5099 12.3385 10.5099Z" fill="white"/>
<path d="M18.5427 11.0938V12.3302C18.2376 12.3646 17.9325 12.4333 17.6274 12.5363C16.8817 12.7424 16.2037 13.0515 15.5936 13.4637H15.3224C15.0173 13.4637 14.7461 13.1889 14.7461 12.8798V11.0938C14.7461 10.7847 15.0173 10.5099 15.3224 10.5099H17.9664C18.2715 10.5099 18.5427 10.7847 18.5427 11.0938Z" fill="white"/>
<path d="M6.74573 15.5931H4.10166C3.7834 15.5931 3.52539 15.8546 3.52539 16.177V17.963C3.52539 18.2855 3.7834 18.5469 4.10166 18.5469H6.74573C7.064 18.5469 7.322 18.2855 7.322 17.963V16.177C7.322 15.8546 7.064 15.5931 6.74573 15.5931Z" fill="white"/>
<path d="M12.9148 16.2113V16.6578C12.6436 17.2761 12.4741 17.9286 12.4063 18.5812C12.4063 18.5812 12.3724 18.5812 12.3385 18.5812H9.69443C9.38935 18.5812 9.11816 18.3064 9.11816 17.9973V16.2113C9.11816 15.9022 9.38935 15.6274 9.69443 15.6274H12.3385C12.6436 15.6274 12.9148 15.9022 12.9148 16.2113Z" fill="white"/>
<path d="M15.3219 3.36593C15.3219 3.36593 15.3219 3.46897 15.3219 3.50331C15.3219 3.74374 15.4236 3.94981 15.627 4.0872C15.8982 4.29327 16.2033 4.32762 16.5083 4.19024C16.8473 4.01851 17.0168 3.70939 17.0168 3.33158C17.0168 2.50728 17.0168 1.71732 17.0168 0.89301C17.0168 0.755626 17.0168 0.618241 16.949 0.515203C16.8134 0.171742 16.4405 -0.0686806 16.0677 -0.0343345C15.6609 0.0343577 15.3558 0.343473 15.3219 0.755626C15.3219 1.06474 15.3219 1.37386 15.3219 1.68297C13.1185 1.68297 8.20326 1.68297 8.10156 1.68297C8.10156 1.78601 8.10156 1.8547 8.10156 1.95774C8.10156 2.40424 8.10156 2.85074 8.10156 3.33158C10.2372 3.33158 13.1185 3.33158 15.3219 3.33158V3.36593Z" fill="white"/>
<path d="M22.0339 12.708C22.0339 9.92601 22.0339 7.14398 22.0339 4.36194C22.0339 4.29325 22.0339 4.22456 22.0339 4.15587C21.9661 2.9881 21.1525 1.99206 20 1.78599C19.6271 1.71729 19.2542 1.71729 18.8814 1.71729C18.5424 1.71729 18.6441 1.71729 18.2712 1.71729V1.99206C18.2712 2.43856 18.2712 2.88506 18.2712 3.33156H19.3898C20.0339 3.33156 20.3729 3.67502 20.3729 4.3276V5.97621H1.69492V4.3276C1.69492 3.67502 2.0339 3.33156 2.67797 3.33156H5.05085C5.05085 3.33156 5.05085 3.57198 5.11864 3.67502C5.25424 4.05283 5.59322 4.29325 6.0339 4.22456C6.40678 4.19021 6.71186 3.84675 6.74576 3.46895C6.74576 3.02245 6.74576 2.5416 6.74576 2.0951C6.74576 1.6486 6.74576 1.2021 6.74576 0.755603C6.74576 0.412142 6.47458 0.103028 6.13559 -1.07475e-05C5.55932 -0.171741 5.05085 0.240412 5.05085 0.892988C5.05085 1.16776 5.05085 1.40818 5.05085 1.68295C4.67797 1.68295 3.62712 1.68295 3.38983 1.68295C2.98305 1.68295 2.54237 1.68295 2.13559 1.71729C0.847458 1.99206 0 3.05679 0 4.39629C0 9.47951 0 14.5627 0 19.6803C0 21.2259 1.11864 22.325 2.61017 22.325C6.0339 22.325 9.45763 22.325 12.8814 22.325C12.678 21.8441 12.5424 21.3289 12.4407 20.8137C12.4407 20.745 12.4407 20.6763 12.4407 20.6077C9.18644 20.6077 5.9322 20.6077 2.67797 20.6077C2.0339 20.6077 1.69492 20.2642 1.69492 19.6116C1.69492 17.07 1.69492 14.5284 1.69492 11.9868C1.69492 10.4756 1.69492 8.92998 1.69492 7.41875H20.3729C20.3729 8.92998 20.3729 10.4756 20.3729 11.9868V12.2959C20.9492 12.3646 21.5254 12.502 22.0678 12.708H22.0339Z" fill="white"/>
<path d="M25.3563 17.4134L25.2207 17.5852C24.9495 17.8943 24.7122 18.2034 24.441 18.5125C24.5088 18.8903 24.5766 19.2681 24.5766 19.6459C24.5766 22.4967 22.3054 24.7979 19.4919 24.7979C16.6783 24.7979 14.4071 22.4967 14.4071 19.6459C14.4071 16.7952 16.6783 14.494 19.4919 14.494C20.5088 14.494 21.458 14.8031 22.2377 15.3183C22.5766 15.0436 22.9156 14.8031 23.2885 14.5627C22.2377 13.7384 20.9156 13.2576 19.4919 13.2576C16.0343 13.2576 13.2207 16.1083 13.2207 19.6116C13.2207 23.1149 16.0343 25.9656 19.4919 25.9656C22.9495 25.9656 25.7631 23.1149 25.7631 19.6116C25.7631 18.8216 25.6275 18.1004 25.3563 17.4134Z" fill="white"/>
<path d="M26.0004 14.7001C26.0004 14.7001 25.8648 14.4597 25.6275 14.4597C25.6275 14.4597 25.5936 14.4597 25.5597 14.4597C25.458 14.4597 25.3902 14.4941 25.3224 14.5284H25.2546C25.2546 14.5284 25.119 14.6314 25.0512 14.6658C24.8817 14.7688 24.6783 14.8719 24.4749 15.0093C23.1529 15.9023 21.8648 16.9326 20.6444 17.9287L20.5766 17.9974C20.2715 18.2378 19.9665 18.4782 19.6953 18.7186C19.6275 18.7873 19.5258 18.856 19.458 18.9247C19.3224 18.8217 19.1868 18.7186 19.0512 18.5812C18.6783 18.2721 18.2715 17.9287 17.8987 17.6196C17.6614 17.4135 17.3902 17.3104 17.1529 17.2074C16.9495 17.1044 16.7461 17.1731 16.6105 17.3104C16.5088 17.4135 16.5088 17.5852 16.5427 17.7569C16.5427 17.8943 16.6105 18.0661 16.6783 18.2378C17.0512 19.1995 17.5936 20.1612 18.3732 21.2602C18.6105 21.6037 18.9834 21.8098 19.3902 21.8098C19.7292 21.8098 20.0343 21.6724 20.3054 21.432C20.5427 21.1916 20.78 20.9511 21.0512 20.6764C21.9665 19.749 22.8478 18.7873 23.6953 17.7913C24.1699 17.2761 24.6105 16.7266 25.0512 16.2114C25.1868 16.074 26.0343 15.1466 26.0004 14.7001Z" fill="white"/>
</g>
<defs>
<clipPath id="clip0_4001_5404">
<rect width="26" height="26" fill="white"/>
</clipPath>
</defs>
</svg>
