<svg width="20" height="20" viewBox="0 0 20 20" fill="none" xmlns="http://www.w3.org/2000/svg">
<g clip-path="url(#clip0_1566_12357)">
<path d="M20 9.99997C20 4.47717 15.5228 0 10 0C4.47718 0 0 4.47717 0 9.99997C0 14.9912 3.6569 19.1283 8.4375 19.8785V12.8909H5.89836V9.99997H8.43745V7.7969C8.43745 5.29067 9.93049 3.90621 12.2146 3.90621C13.3087 3.90621 14.4532 4.10147 14.4532 4.10147V6.56248H13.1922C11.9499 6.56248 11.5628 7.33331 11.5628 8.12398V9.99982H14.3362L13.8928 12.8905H11.5625V19.8781C16.3432 19.1283 20 14.9911 20 9.99997Z" fill="#4676ED"/>
<path d="M13.8925 12.8905L14.3359 10.0001H11.5625V8.12402C11.5625 7.3332 11.9499 6.56252 13.1919 6.56252H14.4529V4.10152C14.4529 4.10152 13.3085 3.90625 12.2144 3.90625C9.93025 3.90625 8.43721 5.29055 8.43721 7.79695V10.0001H5.89844V12.8907H8.43732V19.8783C9.4727 20.0403 10.527 20.0403 11.5624 19.8783V12.8907L13.8925 12.8905Z" fill="white"/>
</g>
<defs>
<clipPath id="clip0_1566_12357">
<rect width="20" height="20" fill="white"/>
</clipPath>
</defs>
</svg>
