<svg width="20" height="26" viewBox="0 0 20 26" fill="none" xmlns="http://www.w3.org/2000/svg">
<path d="M11.8604 7.08173V0.48267H2.07206C1.91771 0.482306 1.7648 0.51218 1.62213 0.570574C1.47946 0.628969 1.34982 0.714734 1.24068 0.822945C1.13153 0.931155 1.04503 1.05968 0.986127 1.20113C0.927228 1.34258 0.897097 1.49418 0.897464 1.64721V24.1617C0.897097 24.3147 0.927228 24.4663 0.986127 24.6077C1.04503 24.7492 1.13153 24.8777 1.24068 24.9859C1.34982 25.0941 1.47946 25.1799 1.62213 25.2383C1.7648 25.2967 1.91771 25.3266 2.07206 25.3262H18.5165C18.6708 25.3266 18.8237 25.2967 18.9664 25.2383C19.1091 25.1799 19.2387 25.0941 19.3478 24.9859C19.457 24.8777 19.5435 24.7492 19.6024 24.6077C19.6613 24.4663 19.6914 24.3147 19.6911 24.1617V8.24627H13.035C12.7238 8.24536 12.4255 8.12238 12.2054 7.90418C11.9854 7.68598 11.8613 7.39031 11.8604 7.08173V7.08173ZM8.72813 20.0858C8.72791 20.2009 8.69332 20.3134 8.62872 20.4091C8.56412 20.5048 8.47241 20.5794 8.36512 20.6235C8.25784 20.6676 8.1398 20.6793 8.02585 20.657C7.91191 20.6347 7.80717 20.5795 7.72483 20.4983L5.9874 18.7271H4.61706C4.46144 18.7267 4.31232 18.6652 4.20227 18.5561C4.09222 18.447 4.03019 18.2992 4.02973 18.1449V15.4276C4.03019 15.2733 4.09222 15.1255 4.20227 15.0164C4.31232 14.9073 4.46144 14.8458 4.61706 14.8454H5.9874L7.72483 13.0743C7.80698 12.9926 7.91176 12.937 8.02587 12.9144C8.13998 12.8918 8.25828 12.9034 8.36577 12.9475C8.47326 12.9917 8.56508 13.0666 8.62959 13.1626C8.69411 13.2586 8.7284 13.3714 8.72813 13.4868V20.0858ZM10.353 17.7761C10.5671 17.5598 10.687 17.2689 10.687 16.9658C10.687 16.6627 10.5671 16.3718 10.353 16.1555C9.2714 15.0492 10.9501 13.4285 12.0366 14.53C12.6768 15.1819 13.0351 16.0559 13.0351 16.9658C13.0351 17.8757 12.6768 18.7497 12.0366 19.4016C10.9694 20.4836 9.25177 18.897 10.353 17.7761ZM14.562 12.0941C15.8424 13.398 16.5589 15.146 16.5589 16.9658C16.5589 18.7856 15.8424 20.5336 14.562 21.8375C13.4951 22.9244 11.7723 21.3377 12.8785 20.2119C13.7316 19.3431 14.2091 18.1784 14.2091 16.9658C14.2091 15.7532 13.7316 14.5885 12.8785 13.7196C11.7968 12.6133 13.4803 10.9878 14.562 12.0941V12.0941ZM19.6911 6.39757V6.69355H13.4265V0.48267H13.7251C13.8795 0.482248 14.0324 0.512034 14.1752 0.570319C14.318 0.628605 14.4477 0.714247 14.5571 0.822337L19.3485 5.57753C19.5677 5.79508 19.6909 6.09002 19.6911 6.39757V6.39757Z" fill="white" fill-opacity="0.7"/>
</svg>
