<svg width="26" height="26" viewBox="0 0 26 26" fill="none" xmlns="http://www.w3.org/2000/svg">
<path d="M1.68053 14.4572C1.47303 14.4578 1.27421 14.5397 1.12749 14.6852C0.980763 14.8307 0.898067 15.0278 0.897461 15.2335L0.897461 16.7862C0.898067 16.992 0.980763 17.1891 1.12749 17.3345C1.27421 17.48 1.47303 17.562 1.68053 17.5626H7.16199V14.4572H1.68053ZM25.613 5.57753L20.8216 0.822337C20.7123 0.714247 20.5825 0.628605 20.4397 0.570319C20.297 0.512034 20.144 0.482248 19.9896 0.48267H19.6911V6.69355H25.9556V6.39757C25.9555 6.09002 25.8323 5.79508 25.613 5.57753ZM18.1249 7.08173V0.48267H8.3366C8.18224 0.482306 8.02934 0.51218 7.88666 0.570574C7.74399 0.628969 7.61435 0.714734 7.50521 0.822945C7.39606 0.931155 7.30956 1.05968 7.25066 1.20113C7.19176 1.34258 7.16163 1.49418 7.16199 1.64721V14.4572H13.4265V11.2935C13.4268 11.1395 13.473 10.9891 13.5595 10.8612C13.6459 10.7334 13.7687 10.6338 13.9123 10.5751C14.0558 10.5164 14.2137 10.5012 14.3659 10.5315C14.5182 10.5618 14.6579 10.6361 14.7676 10.7452L19.4464 15.4276C19.6016 15.5824 19.6887 15.7917 19.6887 16.0099C19.6887 16.2281 19.6016 16.4374 19.4464 16.5922L14.763 21.2697C14.6533 21.3788 14.5136 21.4531 14.3613 21.4834C14.2091 21.5137 14.0512 21.4985 13.9077 21.4398C13.7641 21.3811 13.6414 21.2816 13.5549 21.1537C13.4684 21.0258 13.4222 20.8754 13.4219 20.7214V17.5626H7.16199V24.1617C7.16163 24.3147 7.19176 24.4663 7.25066 24.6077C7.30956 24.7492 7.39606 24.8777 7.50521 24.9859C7.61435 25.0941 7.74399 25.1799 7.88666 25.2383C8.02934 25.2967 8.18224 25.3266 8.3366 25.3262H24.781C24.9354 25.3266 25.0883 25.2967 25.2309 25.2383C25.3736 25.1799 25.5032 25.0941 25.6124 24.9859C25.7215 24.8777 25.808 24.7492 25.8669 24.6077C25.9258 24.4663 25.956 24.3147 25.9556 24.1617V8.24627H19.2995C18.9883 8.24536 18.6901 8.12238 18.47 7.90418C18.2499 7.68598 18.1258 7.39031 18.1249 7.08173Z" fill="white" fill-opacity="0.7"/>
</svg>
