<svg width="35" height="35" viewBox="0 0 35 35" fill="none" xmlns="http://www.w3.org/2000/svg">
<path d="M29.5313 6.56262H5.46877C3.65642 6.56262 2.18752 8.03153 2.18752 9.84387V25.1564C2.18752 26.9687 3.65642 28.4376 5.46877 28.4376H29.5313C31.3436 28.4376 32.8125 26.9687 32.8125 25.1564V9.84387C32.8125 8.03153 31.3436 6.56262 29.5313 6.56262Z" fill="url(#paint0_linear_424_21014)"/>
<path d="M2.18752 20.7814V25.1564C2.18752 26.9687 3.65642 28.4376 5.46877 28.4376H29.5313C31.3436 28.4376 32.8125 26.9687 32.8125 25.1564V20.7814H16.9531L16.4063 21.8751L15.3125 20.7814H2.18752Z" fill="url(#paint1_linear_424_21014)"/>
<path d="M4.35861 13.1415C4.70861 13.4861 4.92189 13.9673 4.92189 14.4923C4.92189 15.5423 4.0633 16.4064 3.00783 16.4064H2.18752V20.7814H15.586C15.8796 20.7814 16.1574 21.4464 16.4063 21.3282C16.5993 21.2364 16.7743 20.3822 16.9253 20.2345C17.2802 19.8872 17.5 19.4027 17.5 18.8673C17.5 17.8102 16.6431 16.9532 15.586 16.9532H15.0391C14.5141 16.9532 14.0328 16.74 13.6883 16.39C13.3542 16.0613 13.1447 15.6079 13.1261 15.1108C13.0856 14.0193 14.0542 13.1251 15.1463 13.1251H19.0701C19.7767 13.1251 20.4444 12.71 20.6823 12.045C20.9147 11.3959 20.7156 10.7413 20.2995 10.3251C20.0047 10.0298 19.5891 9.84387 19.1406 9.84387H17.5C16.8985 9.84387 16.3516 9.59778 15.9578 9.19856C15.5586 8.80481 15.3125 8.25793 15.3125 7.65637C15.3125 7.25715 15.4219 6.88528 15.6133 6.56262H5.46877C3.65642 6.56262 2.18752 8.03153 2.18752 9.84387V12.5782H3.00783C3.53283 12.5782 4.01408 12.7915 4.35861 13.1415Z" fill="url(#paint2_linear_424_21014)"/>
<path d="M14.5035 18.8963C13.6767 17.7309 11.9463 17.7713 11.1785 18.9778C9.26556 21.9757 6.1872 26.7931 5.11916 28.4185C5.23455 28.4305 5.35103 28.4376 5.46916 28.4376H18.75C19.5091 28.4376 20.2003 28.1215 20.6881 27.6156L14.5035 18.8963Z" fill="url(#paint3_linear_424_21014)"/>
<path d="M8.60275 26.6493C8.84884 26.4032 9.19337 26.2501 9.57072 26.2501H12.7918C13.2238 25.5883 13.6996 24.8446 14.2028 24.0626H11.7582C11.0035 24.0626 10.391 23.4501 10.391 22.6954C10.391 22.318 10.5442 21.9735 10.7902 21.7274C11.0363 21.4813 11.3809 21.3282 11.7582 21.3282H12.5785C13.027 21.3282 13.4426 21.1422 13.7379 20.8469C14.0332 20.5516 14.2192 20.136 14.2192 19.6876C14.2192 18.8339 13.5569 18.1312 12.7224 18.0612C12.1241 18.1044 11.5427 18.4057 11.1785 18.9772C9.26556 21.9751 6.1872 26.7926 5.11916 28.4179C5.23455 28.4305 5.35103 28.4376 5.46916 28.4376H8.47697C8.30744 28.2133 8.20353 27.9235 8.20353 27.6173C8.20353 27.2399 8.35666 26.8954 8.60275 26.6493Z" fill="url(#paint4_linear_424_21014)"/>
<path d="M30.2367 27.4423C29.6461 28.0548 28.8094 28.4377 27.8906 28.4377H11.375C12.6547 26.4908 16.4008 20.6283 18.725 16.9861C19.6547 15.5259 21.7492 15.4767 22.75 16.8877L30.2367 27.4423Z" fill="url(#paint5_linear_424_21014)"/>
<path d="M29.3891 26.2501L27.8414 24.0626L26.2883 21.8751L24.7352 19.6876L23.182 17.5001H22.9688C22.668 17.5001 22.3945 17.6204 22.1977 17.8228C21.9953 18.0197 21.875 18.2931 21.875 18.5939C21.875 19.1954 22.3672 19.6876 22.9688 19.6876C23.2695 19.6876 23.543 19.8079 23.7399 20.0103C23.9422 20.2072 24.0625 20.4806 24.0625 20.7814C24.0625 21.3829 23.5703 21.8751 22.9688 21.8751H22.4219C22.1211 21.8751 21.8477 21.9954 21.6508 22.1978C21.4485 22.3947 21.3281 22.6681 21.3281 22.9689C21.3281 23.5704 21.8203 24.0626 22.4219 24.0626H24.0625C24.3633 24.0626 24.6367 24.1829 24.8336 24.3853C25.036 24.5822 25.1563 24.8556 25.1563 25.1564C25.1563 25.7579 24.6641 26.2501 24.0625 26.2501H23.5156C23.2149 26.2501 22.9414 26.3704 22.7445 26.5728C22.5422 26.7697 22.4219 27.0431 22.4219 27.3439C22.4219 27.9454 22.9141 28.4376 23.5156 28.4376H27.8906H29.5313C29.9748 28.4376 30.397 28.3485 30.7825 28.1893L29.3891 26.2501Z" fill="url(#paint6_linear_424_21014)"/>
<path d="M9.02345 9.84387C8.37077 9.84387 7.74482 10.1031 7.28331 10.5647C6.82179 11.0262 6.56252 11.6521 6.56252 12.3048C6.56252 12.9575 6.82179 13.5834 7.28331 14.045C7.74482 14.5065 8.37077 14.7657 9.02345 14.7657C9.67613 14.7657 10.3021 14.5065 10.7636 14.045C11.2251 13.5834 11.4844 12.9575 11.4844 12.3048C11.4844 11.6521 11.2251 11.0262 10.7636 10.5647C10.3021 10.1031 9.67613 9.84387 9.02345 9.84387Z" fill="url(#paint7_linear_424_21014)"/>
<path d="M28.4375 21.8751C26.697 21.8751 25.0278 22.5665 23.7971 23.7972C22.5664 25.0279 21.875 26.6971 21.875 28.4376C21.875 30.1781 22.5664 31.8473 23.7971 33.078C25.0278 34.3087 26.697 35.0001 28.4375 35.0001C30.178 35.0001 31.8472 34.3087 33.0779 33.078C34.3086 31.8473 35 30.1781 35 28.4376C35 26.6971 34.3086 25.0279 33.0779 23.7972C31.8472 22.5665 30.178 21.8751 28.4375 21.8751Z" fill="url(#paint8_linear_424_21014)"/>
<path d="M31.1719 29.5314H25.7031C25.1016 29.5314 24.6094 29.0392 24.6094 28.4376C24.6094 27.8361 25.1016 27.3439 25.7031 27.3439H31.1719C31.7735 27.3439 32.2656 27.8361 32.2656 28.4376C32.2656 29.0392 31.7735 29.5314 31.1719 29.5314Z" fill="white"/>
<path d="M29.5313 25.7032V31.172C29.5313 31.7736 29.0391 32.2657 28.4375 32.2657C27.836 32.2657 27.3438 31.7736 27.3438 31.172V25.7032C27.3438 25.1017 27.836 24.6095 28.4375 24.6095C29.0391 24.6095 29.5313 25.1017 29.5313 25.7032Z" fill="white"/>
<defs>
<linearGradient id="paint0_linear_424_21014" x1="17.5" y1="20.0775" x2="17.5" y2="6.8459" gradientUnits="userSpaceOnUse">
<stop offset="0.003" stop-color="#7ED3F4"/>
<stop offset="1" stop-color="#9CE6FC"/>
</linearGradient>
<linearGradient id="paint1_linear_424_21014" x1="17.5" y1="28.4376" x2="17.5" y2="20.7814" gradientUnits="userSpaceOnUse">
<stop stop-color="#5EB8F1"/>
<stop offset="1" stop-color="#61C3F3"/>
</linearGradient>
<linearGradient id="paint2_linear_424_21014" x1="11.4844" y1="21.3425" x2="11.4844" y2="6.56262" gradientUnits="userSpaceOnUse">
<stop stop-color="#98DCF6"/>
<stop offset="1" stop-color="#B0ECFD"/>
</linearGradient>
<linearGradient id="paint3_linear_424_21014" x1="12.9039" y1="28.4376" x2="12.9039" y2="18.047" gradientUnits="userSpaceOnUse">
<stop stop-color="#5392E9"/>
<stop offset="1" stop-color="#5EB6F0"/>
</linearGradient>
<linearGradient id="paint4_linear_424_21014" x1="9.66916" y1="28.4376" x2="9.66916" y2="18.0612" gradientUnits="userSpaceOnUse">
<stop stop-color="#569CEB"/>
<stop offset="1" stop-color="#5FBDF2"/>
</linearGradient>
<linearGradient id="paint5_linear_424_21014" x1="20.8059" y1="28.4376" x2="20.8059" y2="15.8595" gradientUnits="userSpaceOnUse">
<stop stop-color="#5AAAEE"/>
<stop offset="1" stop-color="#62C5F3"/>
</linearGradient>
<linearGradient id="paint6_linear_424_21014" x1="26.0553" y1="28.4376" x2="26.0553" y2="17.5001" gradientUnits="userSpaceOnUse">
<stop stop-color="#569EEC"/>
<stop offset="1" stop-color="#5FBBF2"/>
</linearGradient>
<linearGradient id="paint7_linear_424_21014" x1="9.02345" y1="14.7657" x2="9.02345" y2="9.84387" gradientUnits="userSpaceOnUse">
<stop stop-color="#F5FCFE"/>
<stop offset="1" stop-color="#F7FDFE"/>
</linearGradient>
<linearGradient id="paint8_linear_424_21014" x1="28.4375" y1="35.0001" x2="28.4375" y2="15.2218" gradientUnits="userSpaceOnUse">
<stop stop-color="#31995F"/>
<stop offset="0.093" stop-color="#329E62"/>
<stop offset="0.666" stop-color="#39BA71"/>
<stop offset="1" stop-color="#3BC477"/>
</linearGradient>
</defs>
</svg>
