<svg width="31" height="26" viewBox="0 0 31 26" fill="none" xmlns="http://www.w3.org/2000/svg">
<path d="M29.3598 0.482666H7.72626C7.31643 0.482666 6.92339 0.646256 6.6336 0.937447C6.34381 1.22864 6.18101 1.62358 6.18101 2.03539V6.69355H13.9073V3.58811H23.1788V19.1153H29.3598C29.7696 19.1153 30.1627 18.9517 30.4524 18.6605C30.7422 18.3693 30.905 17.9744 30.905 17.5626V2.03539C30.905 1.62358 30.7422 1.22864 30.4524 0.937447C30.1627 0.646256 29.7696 0.482666 29.3598 0.482666V0.482666ZM11.2031 5.48049C11.2031 5.59628 11.1573 5.70732 11.0759 5.78921C10.9944 5.8711 10.8839 5.91713 10.7687 5.91719H9.31959C9.26251 5.91719 9.206 5.90589 9.15327 5.88395C9.10055 5.862 9.05264 5.82983 9.01228 5.78928C8.97193 5.74873 8.93991 5.70059 8.91807 5.64761C8.89623 5.59463 8.88499 5.53784 8.88499 5.48049V4.0248C8.88499 3.96745 8.89623 3.91067 8.91807 3.85769C8.93991 3.8047 8.97193 3.75656 9.01228 3.71601C9.05264 3.67546 9.10055 3.64329 9.15327 3.62135C9.206 3.5994 9.26251 3.58811 9.31959 3.58811H10.7687C10.884 3.58811 10.9945 3.63412 11.076 3.71601C11.1575 3.79791 11.2033 3.90898 11.2033 4.0248L11.2031 5.48049ZM28.2008 15.5732C28.2008 15.689 28.1551 15.8 28.0736 15.8819C27.9922 15.9638 27.8817 16.0098 27.7665 16.0099H26.3174C26.2021 16.0099 26.0916 15.9639 26.0101 15.882C25.9286 15.8001 25.8828 15.689 25.8828 15.5732V14.1175C25.8828 14.0017 25.9286 13.8906 26.0101 13.8087C26.0916 13.7268 26.2021 13.6808 26.3174 13.6808H27.7665C27.8817 13.6808 27.9923 13.7268 28.0738 13.8087C28.1553 13.8906 28.2011 14.0017 28.2011 14.1175L28.2008 15.5732ZM28.2008 10.5268C28.2008 10.6427 28.1551 10.7537 28.0736 10.8356C27.9921 10.9175 27.8815 10.9635 27.7663 10.9635H26.3174C26.2021 10.9635 26.0916 10.9175 26.0101 10.8356C25.9286 10.7537 25.8828 10.6427 25.8828 10.5268V9.07114C25.8828 8.95533 25.9286 8.84425 26.0101 8.76235C26.0916 8.68046 26.2021 8.63445 26.3174 8.63445H27.7665C27.8817 8.63445 27.9923 8.68046 28.0738 8.76235C28.1553 8.84425 28.2011 8.95533 28.2011 9.07114L28.2008 10.5268ZM28.2008 5.48049C28.2008 5.59628 28.1551 5.70732 28.0736 5.78921C27.9922 5.8711 27.8817 5.91713 27.7665 5.91719H26.3174C26.2021 5.91719 26.0916 5.87118 26.0101 5.78928C25.9286 5.70739 25.8828 5.59631 25.8828 5.48049V4.0248C25.8828 3.90898 25.9286 3.79791 26.0101 3.71601C26.0916 3.63412 26.2021 3.58811 26.3174 3.58811H27.7665C27.8817 3.58811 27.9923 3.63412 28.0738 3.71601C28.1553 3.79791 28.2011 3.90898 28.2011 4.0248L28.2008 5.48049ZM20.0883 8.24627H1.54525C1.13543 8.24627 0.742385 8.40986 0.452594 8.70105C0.162803 8.99224 0 9.38718 0 9.79899L0 23.7735C0 24.1853 0.162803 24.5802 0.452594 24.8714C0.742385 25.1626 1.13543 25.3262 1.54525 25.3262H20.0883C20.4981 25.3262 20.8911 25.1626 21.1809 24.8714C21.4707 24.5802 21.6335 24.1853 21.6335 23.7735V9.79899C21.6335 9.38718 21.4707 8.99224 21.1809 8.70105C20.8911 8.40986 20.4981 8.24627 20.0883 8.24627ZM4.63576 11.3517C4.94138 11.3517 5.24014 11.4428 5.49425 11.6134C5.74837 11.784 5.94643 12.0265 6.06338 12.3102C6.18034 12.594 6.21094 12.9062 6.15132 13.2074C6.09169 13.5086 5.94452 13.7852 5.72841 14.0024C5.51231 14.2195 5.23697 14.3674 4.93722 14.4273C4.63747 14.4872 4.32677 14.4565 4.04441 14.339C3.76206 14.2214 3.52072 14.0224 3.35093 13.7671C3.18113 13.5117 3.0905 13.2115 3.0905 12.9044C3.0905 12.4926 3.25331 12.0977 3.5431 11.8065C3.83289 11.5153 4.22593 11.3517 4.63576 11.3517ZM18.543 22.2208H3.0905V20.668L6.18101 17.5626L7.72626 19.1153L13.9073 12.9044L18.543 17.5626V22.2208Z" fill="white" fill-opacity="0.7"/>
</svg>
