<svg width="17" height="17" viewBox="0 0 17 17" fill="none" xmlns="http://www.w3.org/2000/svg">
<path d="M8.5549 7.01958V10.2394H13.213C12.9286 11.2302 12.3151 12.0985 11.4706 12.7052C10.6261 13.3121 9.59948 13.6223 8.5549 13.5863C7.72281 13.5872 6.90283 13.3898 6.1649 13.0111C5.42695 12.6324 4.79295 12.0834 4.31694 11.411C3.84093 10.7386 3.53704 9.96281 3.43119 9.14972C3.32533 8.33662 3.42067 7.51036 3.70904 6.7414C3.99741 5.97245 4.47029 5.28361 5.08731 4.73363C5.70435 4.18366 6.44725 3.78887 7.25265 3.58292C8.05805 3.37697 8.90205 3.36598 9.71271 3.55088C10.5234 3.73579 11.2766 4.1111 11.9081 4.64481L14.3157 2.2744C13.2884 1.35201 12.0483 0.690168 10.7029 0.346141C9.35752 0.00211541 7.9473 -0.013723 6.59429 0.299996C5.24128 0.613712 3.98625 1.24753 2.93783 2.14661C1.8894 3.04567 1.07915 4.1829 0.577211 5.45988C0.075271 6.73685 -0.103242 8.1151 0.0571222 9.47534C0.217486 10.8356 0.711896 12.1369 1.49756 13.2665C2.28322 14.3961 3.33648 15.3201 4.56616 15.9585C5.79586 16.5969 7.16493 16.9304 8.5549 16.9303C15.7393 16.9303 17.3214 10.3159 16.6191 7.03113L8.5549 7.01958Z" fill="white"/>
</svg>
