<svg width="10" height="12" viewBox="0 0 10 12" fill="none" xmlns="http://www.w3.org/2000/svg">
<path d="M4.9449 0.0800781C2.43881 0.0800781 0.407227 2.09426 0.407227 4.57889C0.407227 6.35721 2.22295 8.81099 3.55702 10.374C4.2824 11.2236 5.60676 11.2236 6.33214 10.374C7.66686 8.81099 9.48258 6.35721 9.48258 4.57889C9.48258 2.09426 7.451 0.0800781 4.9449 0.0800781ZM4.9449 6.18561C4.04968 6.18561 3.3243 5.46644 3.3243 4.57889C3.3243 3.69134 4.04968 2.97217 4.9449 2.97217C5.84012 2.97217 6.5655 3.69134 6.5655 4.57889C6.5655 5.46644 5.84012 6.18561 4.9449 6.18561Z" fill="url(#paint0_linear_2166_1471)"/>
<defs>
<linearGradient id="paint0_linear_2166_1471" x1="0.407227" y1="5.54566" x2="9.48258" y2="5.54566" gradientUnits="userSpaceOnUse">
<stop stop-color="#478FE4"/>
<stop offset="1" stop-color="#5CD3C6"/>
</linearGradient>
</defs>
</svg>
