<svg width="15" height="17" viewBox="0 0 15 17" fill="none" xmlns="http://www.w3.org/2000/svg">
<path d="M14.4792 5.92427H1.16754C1.06762 5.92427 0.971796 5.88502 0.90114 5.81514C0.830483 5.74525 0.790783 5.65047 0.790771 5.55164V4.43366C0.790771 4.03833 0.949542 3.65918 1.23215 3.37964C1.51477 3.1001 1.89807 2.94305 2.29775 2.94305H3.80473V1.32824C3.80473 1.2294 3.84442 1.13461 3.91508 1.06472C3.98574 0.99483 4.08157 0.955566 4.18149 0.955566H5.43731C5.53722 0.955578 5.63304 0.994847 5.70369 1.06474C5.77434 1.13462 5.81403 1.22941 5.81403 1.32824V2.94305H9.83263V1.32824C9.83263 1.2294 9.87233 1.13461 9.94298 1.06472C10.0136 0.99483 10.1095 0.955566 10.2094 0.955566H11.4652C11.5651 0.955578 11.661 0.994847 11.7316 1.06474C11.8022 1.13462 11.8419 1.22941 11.8419 1.32824V2.94305H13.3489C13.7486 2.94305 14.1319 3.1001 14.4145 3.37964C14.6971 3.65918 14.8559 4.03833 14.8559 4.43366V5.55164C14.8559 5.65047 14.8162 5.74524 14.7455 5.81512C14.6749 5.885 14.5791 5.92426 14.4792 5.92427ZM1.16754 6.91801H14.4792C14.5791 6.91803 14.6749 6.9573 14.7456 7.02718C14.8162 7.09707 14.8559 7.19186 14.8559 7.29069V15.3648C14.8559 15.7602 14.6971 16.1393 14.4145 16.4188C14.1319 16.6984 13.7486 16.8554 13.3489 16.8554H2.29775C1.89807 16.8554 1.51477 16.6984 1.23215 16.4188C0.949542 16.1393 0.790771 15.7602 0.790771 15.3648V7.29069C0.790771 7.19185 0.830466 7.09706 0.901124 7.02717C0.971781 6.95728 1.06761 6.91801 1.16754 6.91801ZM11.6315 9.8976L10.7471 9.01591C10.7122 8.98117 10.6708 8.95355 10.6252 8.93465C10.5796 8.91574 10.5306 8.9059 10.4811 8.9057C10.4317 8.90551 10.3826 8.91495 10.3369 8.9335C10.2911 8.95204 10.2494 8.97933 10.2143 9.01379L6.88525 12.2802L5.44168 10.8408C5.37131 10.7706 5.27564 10.731 5.17571 10.7306C5.07579 10.7302 4.9798 10.7691 4.90886 10.8387L4.01735 11.7133C3.98223 11.7477 3.95431 11.7887 3.93519 11.8338C3.91608 11.879 3.90613 11.9274 3.90594 11.9763C3.90574 12.0253 3.91528 12.0738 3.93403 12.1191C3.95278 12.1643 3.98037 12.2055 4.01521 12.2403L6.60851 14.8262C6.64335 14.8609 6.68477 14.8885 6.7304 14.9074C6.77603 14.9263 6.82498 14.9362 6.87445 14.9364C6.92392 14.9366 6.97295 14.9271 7.01874 14.9086C7.06452 14.89 7.10616 14.8627 7.14128 14.8283L11.6294 10.4246C11.6645 10.3901 11.6924 10.3492 11.7115 10.304C11.7306 10.2589 11.7406 10.2105 11.7408 10.1615C11.741 10.1126 11.7314 10.0641 11.7127 10.0188C11.6939 9.97354 11.6663 9.93235 11.6315 9.8976Z" fill="url(#paint0_linear_1566_12446)"/>
<defs>
<linearGradient id="paint0_linear_1566_12446" x1="0.790771" y1="8.9055" x2="14.8559" y2="8.9055" gradientUnits="userSpaceOnUse">
<stop stop-color="#478FE4"/>
<stop offset="1" stop-color="#5CD3C6"/>
</linearGradient>
</defs>
</svg>
