<svg width="81" height="80" viewBox="0 0 81 80" fill="none" xmlns="http://www.w3.org/2000/svg">
<path d="M53.8333 40.0163C53.8333 40.8587 53.5682 41.7044 53.0379 42.3816C52.9384 42.5145 52.4744 43.062 52.1098 43.4185L51.911 43.6129C49.1269 46.5647 42.1998 51.0037 38.6866 52.4262C38.6866 52.4586 36.5985 53.3043 35.6042 53.3334H35.4716C33.947 53.3334 32.5218 52.4942 31.7926 51.1333C31.3949 50.3849 31.0303 48.2139 30.9972 48.1848C30.6989 46.2374 30.5 43.2565 30.5 39.9839C30.5 36.5525 30.6989 33.4387 31.0634 31.527C31.0634 31.4946 31.428 29.7449 31.66 29.1617C32.0246 28.3225 32.6875 27.6064 33.5161 27.1528C34.179 26.832 34.875 26.6667 35.6042 26.6667C36.3665 26.7024 37.7917 27.1852 38.3551 27.412C42.0672 28.8377 49.16 33.5035 51.8778 36.3549C52.3419 36.8085 52.839 37.3626 52.9716 37.4889C53.535 38.2018 53.8333 39.0766 53.8333 40.0163Z" fill="url(#paint0_linear_1566_12207)"/>
<circle cx="42" cy="40" r="34.5" fill="url(#paint1_linear_1566_12207)" stroke="#F8F8F8" stroke-width="5"/>
<path d="M37.2831 55C36.2983 55 35.3134 54.6206 34.5615 53.8572L24.1278 43.2643C22.6241 41.7376 22.6241 39.2646 24.1278 37.7424C25.6315 36.2157 28.063 36.2113 29.5667 37.7379L37.2831 45.5722L55.4333 27.145C56.937 25.6183 59.3685 25.6183 60.8722 27.145C62.3759 28.6717 62.3759 31.1447 60.8722 32.6714L40.0048 53.8572C39.2529 54.6206 38.268 55 37.2831 55Z" fill="white"/>
<defs>
<linearGradient id="paint0_linear_1566_12207" x1="30.5" y1="40.0001" x2="53.8333" y2="40.0001" gradientUnits="userSpaceOnUse">
<stop stop-color="#478FE4"/>
<stop offset="1" stop-color="#5CD3C6"/>
</linearGradient>
<linearGradient id="paint1_linear_1566_12207" x1="10" y1="8" x2="10" y2="72" gradientUnits="userSpaceOnUse">
<stop stop-color="#FE6587"/>
<stop offset="1" stop-color="#F52D6A"/>
</linearGradient>
</defs>
</svg>
