<svg width="79" height="79" viewBox="0 0 79 79" fill="none" xmlns="http://www.w3.org/2000/svg">
<g clip-path="url(#clip0_1566_10982)">
<path opacity="0.15" d="M39.5 79C61.3152 79 79 61.3152 79 39.5C79 17.6848 61.3152 0 39.5 0C17.6848 0 0 17.6848 0 39.5C0 61.3152 17.6848 79 39.5 79Z" fill="url(#paint0_linear_1566_10982)"/>
<path d="M39.5 72.8135C57.8985 72.8135 72.8135 57.8985 72.8135 39.5C72.8135 21.1015 57.8985 6.18652 39.5 6.18652C21.1015 6.18652 6.18652 21.1015 6.18652 39.5C6.18652 57.8985 21.1015 72.8135 39.5 72.8135Z" fill="url(#paint1_linear_1566_10982)"/>
<path d="M39.5001 44.606C43.5092 44.606 46.7584 41.3561 46.7584 37.3477V26.2349C46.7584 22.2257 43.5092 18.9766 39.5001 18.9766C35.491 18.9766 32.2418 22.2264 32.2418 26.2349V37.3477C32.2418 41.3568 35.4917 44.606 39.5001 44.606Z" fill="white"/>
<path d="M52.2934 37.3477C52.2934 36.642 51.7213 36.0706 51.0162 36.0706C50.3112 36.0706 49.7391 36.642 49.7391 37.3477C49.7391 42.9933 45.1456 47.5868 39.5 47.5868C33.8545 47.5868 29.261 42.9933 29.261 37.3477C29.261 36.642 28.6889 36.0706 27.9838 36.0706C27.2788 36.0706 26.7067 36.642 26.7067 37.3477C26.7067 43.9708 31.7659 49.4334 38.2229 50.0767V57.4699H34.2002C33.4952 57.4699 32.923 58.0414 32.923 58.7471C32.923 59.4528 33.4952 60.0242 34.2002 60.0242H44.7992C45.5049 60.0242 46.0764 59.4528 46.0764 58.7471C46.0764 58.0414 45.5049 57.4699 44.7992 57.4699H40.7765V50.0767C47.2335 49.4334 52.2934 43.9708 52.2934 37.3477Z" fill="white"/>
</g>
<defs>
<linearGradient id="paint0_linear_1566_10982" x1="0" y1="39.5" x2="79" y2="39.5" gradientUnits="userSpaceOnUse">
<stop stop-color="#478FE4"/>
<stop offset="1" stop-color="#5CD3C6"/>
</linearGradient>
<linearGradient id="paint1_linear_1566_10982" x1="6.18652" y1="39.5" x2="72.8135" y2="39.5" gradientUnits="userSpaceOnUse">
<stop stop-color="#478FE4"/>
<stop offset="1" stop-color="#5CD3C6"/>
</linearGradient>
<clipPath id="clip0_1566_10982">
<rect width="79" height="79" fill="white"/>
</clipPath>
</defs>
</svg>
