<svg width="12" height="11" viewBox="0 0 12 11" fill="none" xmlns="http://www.w3.org/2000/svg">
<g clip-path="url(#clip0_4001_5152)">
<path d="M2.47326 4.92335C2.19909 4.63573 2.21641 4.18739 2.51078 3.91951C2.80515 3.65163 3.26403 3.66855 3.5382 3.95617L5.2698 5.76929V0.710587C5.2698 0.318636 5.59592 0 5.99707 0C6.39822 0 6.72434 0.318636 6.72434 0.710587V5.76647L8.45594 3.95335C8.73011 3.66573 9.18899 3.64881 9.48336 3.91669C9.77773 4.18457 9.79505 4.63292 9.52088 4.92053C8.52232 5.96386 7.52377 7.00718 6.52809 8.05332C6.51655 8.0646 6.50501 8.0787 6.49058 8.08998C6.1962 8.35786 5.73733 8.34094 5.46316 8.05332L2.47037 4.92053L2.47326 4.92335Z" fill="url(#paint0_linear_4001_5152)"/>
<path d="M10.5426 7.59657C10.5426 7.20462 10.8687 6.88599 11.2698 6.88599C11.671 6.88599 11.9971 7.20462 11.9971 7.59657V9.15028C11.9971 10.1682 11.1457 11.0001 10.1039 11.0001H1.89322C0.851371 11.0001 0 10.1682 0 9.15028V7.59657C0 7.20462 0.326118 6.88599 0.727273 6.88599C1.12843 6.88599 1.45455 7.20462 1.45455 7.59657V9.15028C1.45455 9.38432 1.65368 9.57607 1.89033 9.57607H10.101C10.3405 9.57607 10.5368 9.3815 10.5368 9.15028V7.59657H10.5426Z" fill="url(#paint1_linear_4001_5152)"/>
</g>
<defs>
<linearGradient id="paint0_linear_4001_5152" x1="2.27832" y1="4.14022" x2="9.71582" y2="4.14022" gradientUnits="userSpaceOnUse">
<stop stop-color="#478FE4"/>
<stop offset="1" stop-color="#5CD3C6"/>
</linearGradient>
<linearGradient id="paint1_linear_4001_5152" x1="0" y1="8.94302" x2="11.9971" y2="8.94302" gradientUnits="userSpaceOnUse">
<stop stop-color="#478FE4"/>
<stop offset="1" stop-color="#5CD3C6"/>
</linearGradient>
<clipPath id="clip0_4001_5152">
<rect width="12" height="11" fill="white"/>
</clipPath>
</defs>
</svg>
