<svg width="18" height="18" viewBox="0 0 18 18" fill="none" xmlns="http://www.w3.org/2000/svg">
<path d="M0.781494 8.87307C0.781494 10.5437 1.28233 12.1768 2.22066 13.5659C3.159 14.9549 4.49269 16.0376 6.05309 16.6769C7.61348 17.3162 9.3305 17.4835 10.987 17.1576C12.6435 16.8316 14.1651 16.0272 15.3594 14.8459C16.5537 13.6646 17.367 12.1595 17.6965 10.521C18.026 8.88244 17.8569 7.18407 17.2105 5.64062C16.5642 4.09717 15.4697 2.77796 14.0653 1.84981C12.661 0.921666 11.01 0.42627 9.32103 0.42627C8.19955 0.426103 7.08903 0.644472 6.05289 1.0689C5.01675 1.49334 4.07529 2.11552 3.28229 2.89991C2.48929 3.6843 1.86028 4.61553 1.43118 5.64042C1.00209 6.66531 0.781325 7.76377 0.781494 8.87307ZM10.8195 8.87307L7.4571 5.57965C7.30844 5.4326 7.22492 5.23316 7.22492 5.0252C7.22492 4.81724 7.30844 4.61779 7.4571 4.47074C7.60577 4.32369 7.8074 4.24108 8.01765 4.24108C8.22789 4.24108 8.42952 4.32369 8.57819 4.47074L12.4949 8.35708C12.6384 8.49951 12.7211 8.69114 12.7257 8.89222C12.7303 9.0933 12.6564 9.28842 12.5195 9.43711L8.66029 13.2663C8.58696 13.3391 8.49986 13.397 8.40394 13.4365C8.30803 13.476 8.20519 13.4964 8.10129 13.4966C7.99739 13.4968 7.89447 13.4768 7.7984 13.4376C7.70233 13.3985 7.615 13.341 7.54139 13.2685C7.46778 13.196 7.40933 13.1098 7.36938 13.0149C7.32943 12.9201 7.30877 12.8183 7.30856 12.7156C7.30836 12.6128 7.32862 12.511 7.36819 12.416C7.40777 12.3209 7.46587 12.2346 7.5392 12.1617L10.8195 8.87307Z" fill="url(#paint0_linear_1566_12323)"/>
<defs>
<linearGradient id="paint0_linear_1566_12323" x1="0.781494" y1="8.87307" x2="17.8606" y2="8.87307" gradientUnits="userSpaceOnUse">
<stop stop-color="#478FE4"/>
<stop offset="1" stop-color="#5CD3C6"/>
</linearGradient>
</defs>
</svg>
