<svg width="22" height="21" viewBox="0 0 22 21" fill="none" xmlns="http://www.w3.org/2000/svg">
<path d="M21.462 10.0423L1.45193 0.370799C1.34204 0.337404 1.2239 0.333297 1.11153 0.358963C0.999163 0.384629 0.897279 0.438992 0.817965 0.515602C0.738652 0.592212 0.685237 0.687855 0.664059 0.791184C0.642881 0.894512 0.654828 1.00119 0.698483 1.09856L2.99659 8.24657C3.06305 8.45284 3.19802 8.63553 3.38309 8.76974C3.56815 8.90395 3.79433 8.98316 4.0308 8.99658L15.6568 10.4473C15.7785 10.4552 16.0473 10.5017 16.0465 10.6089C16.0457 10.7161 15.7943 10.7787 15.6717 10.7883L4.29952 11.5689C4.05155 11.5848 3.81594 11.6731 3.62807 11.8207C3.4402 11.9683 3.31021 12.1672 3.25759 12.3875L1.37226 20.2089C1.33733 20.3076 1.33382 20.4133 1.36214 20.5137C1.39046 20.6142 1.44945 20.7054 1.53234 20.7768C1.61522 20.8482 1.71864 20.8969 1.83069 20.9174C1.94275 20.9379 2.0589 20.9293 2.16579 20.8926L21.4866 11.0757C21.6028 11.035 21.7025 10.9629 21.7719 10.8691C21.8413 10.7752 21.8771 10.6642 21.8744 10.5512C21.8717 10.4382 21.8306 10.3287 21.7568 10.2377C21.683 10.1466 21.5801 10.0784 21.462 10.0423Z" fill="url(#paint0_linear_4021_8692)"/>
<defs>
<linearGradient id="paint0_linear_4021_8692" x1="-2.16309" y1="3.28754" x2="12.7234" y2="19.2962" gradientUnits="userSpaceOnUse">
<stop stop-color="#478FE4"/>
<stop offset="1" stop-color="#5CD3C6"/>
</linearGradient>
</defs>
</svg>
