<svg width="28" height="28" viewBox="0 0 28 28" fill="none" xmlns="http://www.w3.org/2000/svg">
<path d="M13.9988 7.99118e-05C11.2301 7.99118e-05 8.52355 0.821092 6.22147 2.35929C3.91938 3.8975 2.12513 6.0838 1.0656 8.64174C0.00606542 11.1997 -0.271157 14.0144 0.268988 16.7299C0.809133 19.4453 2.14239 21.9397 4.10015 23.8974C6.05791 25.8552 8.55224 27.1885 11.2677 27.7286C13.9832 28.2687 16.7979 27.9915 19.3558 26.932C21.9138 25.8725 24.1001 24.0782 25.6383 21.7761C27.1765 19.474 27.9975 16.7675 27.9975 13.9988C28.0037 12.1587 27.6459 10.3356 26.9446 8.63438C26.2433 6.93316 25.2124 5.38748 23.9113 4.08633C22.6101 2.78519 21.0644 1.75428 19.3632 1.05299C17.662 0.35169 15.8388 -0.00614781 13.9988 7.99118e-05ZM20.9981 19.0402L19.039 21L13.9988 15.9597L8.95885 21L6.99867 19.0402L12.0389 13.9999L6.99867 8.95999L8.95885 7.00017L13.9988 12.0401L19.039 7.00017L20.9988 8.95999L15.9589 13.9999L20.9981 19.0402Z" fill="url(#paint0_linear_1_2135)"/>
<defs>
<linearGradient id="paint0_linear_1_2135" x1="0" y1="13.9988" x2="27.9976" y2="13.9988" gradientUnits="userSpaceOnUse">
<stop stop-color="#478FE4"/>
<stop offset="1" stop-color="#5CD3C6"/>
</linearGradient>
</defs>
</svg>
