<svg width="9" height="14" viewBox="0 0 9 14" fill="none" xmlns="http://www.w3.org/2000/svg">
<path d="M4.14671 8.3073C5.44619 8.3073 6.49935 7.25392 6.49935 5.95466V2.35264C6.49935 1.05316 5.44619 0 4.14671 0C2.84723 0 1.79407 1.05338 1.79407 2.35264V5.95466C1.79407 7.25414 2.84745 8.3073 4.14671 8.3073Z" fill="#7D7D7D"/>
<path d="M8.29346 5.95468C8.29346 5.72594 8.10801 5.54071 7.87949 5.54071C7.65097 5.54071 7.46552 5.72594 7.46552 5.95468C7.46552 7.78458 5.97663 9.27347 4.14673 9.27347C2.31682 9.27347 0.82794 7.78458 0.82794 5.95468C0.82794 5.72594 0.642488 5.54071 0.41397 5.54071C0.185451 5.54071 0 5.72594 0 5.95468C0 8.10143 1.63984 9.87201 3.73276 10.0805V12.4769H2.42889C2.20037 12.4769 2.01492 12.6621 2.01492 12.8909C2.01492 13.1196 2.20037 13.3048 2.42889 13.3048H5.86435C6.09309 13.3048 6.27832 13.1196 6.27832 12.8909C6.27832 12.6621 6.09309 12.4769 5.86435 12.4769H4.56048V10.0805C6.6534 9.87201 8.29346 8.10143 8.29346 5.95468Z" fill="#7D7D7D"/>
</svg>
