<svg width="19" height="27" viewBox="0 0 19 27" fill="none" xmlns="http://www.w3.org/2000/svg">
<path d="M7.46768 0.238706C2.19139 1.39516 -1.1173 6.91837 0.34836 12.2181C0.704906 13.3708 1.19789 14.4399 1.75758 15.5249C3.16662 18.1481 4.76325 20.5995 6.43856 23.0833C6.97527 23.8658 7.5474 24.6717 8.11859 25.4452C8.48361 25.9247 8.86258 26.4569 9.2588 26.9134C9.41709 27.0465 9.65134 27.0237 9.78203 26.8624C10.0372 26.5474 10.279 26.2325 10.5183 25.9176C10.6941 25.6854 11.0477 25.2075 11.219 24.9728C13.2059 22.2216 15.0324 19.3906 16.7212 16.4697C17.4045 15.2504 18.0272 13.9962 18.4883 12.6905C18.5955 12.3795 18.697 12.065 18.767 11.7457C20.283 4.96807 14.1569 -1.31491 7.46768 0.238706ZM9.49539 15.5225C6.16701 15.5225 3.46879 12.7747 3.46879 9.3852C3.46879 5.99566 6.16701 3.24788 9.49539 3.24788C12.8238 3.24788 15.522 5.99566 15.522 9.3852C15.522 12.7747 12.8238 15.5225 9.49539 15.5225Z" fill="#89898F"/>
</svg>
