<svg width="23" height="23" viewBox="0 0 23 23" fill="none" xmlns="http://www.w3.org/2000/svg">
<g clip-path="url(#clip0_1615_5392)">
<path d="M11.4882 0C5.1347 0 0 5.15829 0 11.5118C0 17.8653 5.15829 23.0079 11.5118 23C17.8574 23 23 17.8496 23 11.5039C23 5.15043 17.8574 0 11.5118 0H11.4961H11.4882ZM11.4961 20.7039C6.41641 20.7039 2.29607 16.5836 2.29607 11.5039C2.29607 6.42427 6.41641 2.30393 11.5039 2.30393C16.5915 2.30393 20.7039 6.42427 20.7039 11.5039C20.7039 16.5836 16.5836 20.7039 11.5039 20.7039H11.4961Z" fill="#89898F"/>
<path d="M12.078 5.7481H10.356V12.6442L16.3949 16.2613L17.2599 14.8459L12.0859 11.7792V5.74023L12.078 5.7481Z" fill="#89898F"/>
</g>
<defs>
<clipPath id="clip0_1615_5392">
<rect width="23" height="23" fill="white"/>
</clipPath>
</defs>
</svg>
