<svg width="13" height="14" viewBox="0 0 13 14" fill="none" xmlns="http://www.w3.org/2000/svg">
<path d="M6.5 0.5C5.21442 0.5 3.95772 0.881218 2.88879 1.59544C1.81988 2.30967 0.986753 3.32483 0.494786 4.51255C0.00281617 5.70027 -0.125905 7.0072 0.124898 8.26804C0.375703 9.52898 0.994771 10.6872 1.90381 11.5962C2.81285 12.5052 3.97103 13.1243 5.23191 13.3751C6.49279 13.6259 7.79971 13.4972 8.98743 13.0052C10.1752 12.5132 11.1903 11.6801 11.9045 10.6112C12.6188 9.54229 13 8.28558 13 6.99999C12.9951 5.2776 12.3087 3.62717 11.0907 2.40924C9.8728 1.19133 8.22236 0.504928 6.5 0.5ZM5.16545 10.4651L1.83413 7.13383L2.76793 6.20004L5.16778 8.59988L10.2336 3.53406L11.1674 4.46785L5.16545 10.4651Z" fill="#0DA700"/>
</svg>
