<svg width="98" height="47" viewBox="0 0 98 47" fill="none" xmlns="http://www.w3.org/2000/svg">
<g clip-path="url(#clip0_424_13827)">
<path d="M9.6726 6.5373C10.2679 6.5373 10.7656 6.73756 11.2619 7.13953C11.7581 7.5415 11.9575 8.0436 11.9575 8.64727V14.9772C11.9575 15.4793 12.0565 15.9814 12.2559 16.4849C12.4552 16.987 12.7521 17.389 13.0505 17.6909C13.4478 18.0928 13.8451 18.2931 14.3414 18.5949C14.8377 18.7952 15.334 18.8968 15.8317 18.8968C16.3294 18.8968 16.8242 18.7966 17.322 18.5949C17.8182 18.3947 18.2156 18.193 18.5139 17.791C18.9112 17.4891 19.2096 17.0872 19.4075 16.6852C19.6054 16.1831 19.7058 15.681 19.7058 15.1775V8.7474C19.7058 8.14518 20.0042 7.64163 20.4015 7.13953C20.7988 6.73756 21.3941 6.5373 21.9907 6.5373C22.5874 6.5373 23.0837 6.73756 23.58 7.13953C24.0763 7.5415 24.2757 8.0436 24.2757 8.64727V26.6329C24.2757 27.2351 24.0777 27.7386 23.58 28.1406C23.0837 28.6427 22.5874 28.8444 21.9907 28.8444C21.3941 28.8444 20.8978 28.6441 20.4015 28.1406C20.0042 27.7386 19.7058 27.2365 19.7058 26.5327V22.513C19.2096 22.8149 18.6129 23.1153 17.9186 23.2168C17.223 23.4171 16.5288 23.4171 15.8331 23.4171C14.7401 23.4171 13.6486 23.2168 12.6546 22.8149C11.662 22.3128 10.767 21.7091 9.97382 21.0067C9.17919 20.2028 8.58394 19.2987 8.08622 18.193C7.68891 17.1888 7.49097 15.9828 7.49097 14.7769V8.7474C7.49097 8.14518 7.68891 7.64163 8.08622 7.13953C8.48353 6.73756 9.07879 6.5373 9.67547 6.5373H9.6726ZM34.699 6.5373C35.792 6.5373 36.8835 6.73756 37.8775 7.13953C38.9705 7.64163 39.8641 8.24531 40.5583 8.94766C41.353 9.7516 41.9482 10.6557 42.3455 11.6599C42.8418 12.6641 43.0412 13.87 43.0412 14.9757C43.0412 16.1817 42.8432 17.286 42.4459 18.2916C41.9496 19.2958 41.353 20.1999 40.6587 21.0038C39.8641 21.7076 38.9705 22.3099 37.9779 22.812C36.9854 23.2139 35.8924 23.4142 34.7005 23.4142C33.5085 23.4142 32.417 23.2139 31.423 22.812C30.4304 22.41 29.5368 21.8078 28.7422 21.0038C28.0466 20.3 27.4513 19.396 26.955 18.3918C26.5577 17.3876 26.3598 16.1817 26.3598 14.9757C26.3598 13.87 26.5577 12.7656 26.955 11.76C27.3523 10.7558 27.9476 9.85028 28.7422 9.04779C29.4379 8.34398 30.3315 7.74176 31.423 7.23966C32.4156 6.83769 33.5085 6.53585 34.7005 6.53585L34.699 6.5373ZM34.699 11.0591C34.2028 11.0591 33.7065 11.1592 33.2088 11.3609C32.7125 11.5612 32.3152 11.863 32.0168 12.1649C31.6195 12.5668 31.3212 12.9688 31.1232 13.4709C30.9238 13.973 30.8249 14.4751 30.8249 14.9787C30.8249 15.5809 30.9238 16.0844 31.1232 16.5865C31.3212 16.9885 31.6195 17.3905 32.0168 17.7924C32.3152 18.1944 32.7125 18.4962 33.2088 18.6965C33.705 18.8968 34.2013 18.9983 34.699 18.9983C35.1968 18.9983 35.6916 18.8982 36.1893 18.6965C36.6856 18.4962 37.0829 18.1944 37.3813 17.7924C37.7786 17.3905 38.0769 16.9885 38.2749 16.5865C38.4728 16.0844 38.5732 15.5823 38.5732 14.9787C38.5732 13.9745 38.1759 13.0689 37.3813 12.2664C36.6856 11.5626 35.792 11.1607 34.7005 11.0605L34.699 11.0591ZM47.1133 6.5373C47.7085 6.5373 48.3052 6.73756 48.7025 7.13953C49.1988 7.64163 49.3982 8.24531 49.3982 8.84753V14.9772C49.3982 15.5794 49.4972 16.083 49.7955 16.5851C49.9934 16.987 50.1928 17.389 50.5901 17.791C50.8885 18.0928 51.3848 18.3932 51.7821 18.5949C52.2784 18.7952 52.7746 18.8968 53.2724 18.8968C53.8676 18.8968 54.2649 18.7966 54.7612 18.6965C55.2575 18.4962 55.6548 18.1944 55.9531 17.8926C56.3505 17.5907 56.6488 17.1888 56.8467 16.6867C57.0447 16.1846 57.1451 15.6825 57.1451 15.1789V8.84753C57.1451 8.24531 57.343 7.74176 57.8407 7.23966C58.2381 6.73756 58.8333 6.53585 59.43 6.53585C60.0267 6.53585 60.523 6.73611 61.0192 7.13808C61.5155 7.64017 61.7149 8.14227 61.7149 8.74595V14.9757C61.7149 16.1817 61.517 17.286 61.1196 18.2916C60.6234 19.2958 60.0267 20.1999 59.2335 21.0038C58.5378 21.8078 57.6442 22.41 56.6517 22.812C55.5587 23.3141 54.4672 23.5158 53.2752 23.5158C52.1823 23.5158 51.1897 23.3155 50.0967 22.9136C49.1041 22.5116 48.2091 21.9094 47.4159 21.1054C46.7203 20.4016 46.026 19.4975 45.6287 18.4933C45.1325 17.4891 44.9331 16.3834 44.9331 15.2776V8.84753C44.9331 8.24531 45.131 7.64163 45.5283 7.23966C46.0246 6.73756 46.5209 6.53585 47.1176 6.53585L47.1133 6.5373ZM66.081 0.709473C66.7767 0.709473 67.273 0.911183 67.7693 1.41328C68.1666 1.81525 68.4649 2.41748 68.4649 3.12129V6.33704H74.4232C75.1189 6.33704 75.6151 6.5373 76.0124 7.04085C76.5087 7.44282 76.7081 8.04505 76.7081 8.64873C76.7081 9.25241 76.4098 9.7545 76.0124 10.2566C75.5162 10.7587 75.0199 10.9604 74.4232 10.9604H68.4649V14.8785C68.4649 15.3806 68.5639 15.8827 68.7633 16.3863C68.9612 16.8884 69.2596 17.2903 69.5579 17.6923C69.9552 17.9941 70.3525 18.2945 70.8488 18.4962C71.2461 18.6965 71.8414 18.7981 72.3391 18.7981C72.9343 18.7981 73.4321 18.7981 73.9283 18.5978C74.3257 18.3976 74.723 18.1959 75.0213 17.894C75.5176 17.3919 76.0139 17.1902 76.6106 17.1902C77.2073 17.1902 77.8025 17.3905 78.2988 17.894C78.4967 18.0943 78.6961 18.296 78.7951 18.5978C78.894 18.8997 78.993 19.2001 78.993 19.4018C78.993 19.7036 78.993 20.004 78.894 20.3058C78.7951 20.6077 78.5957 20.8079 78.3978 21.0096C77.6031 21.8136 76.7095 22.4158 75.717 22.8178C74.8234 23.3199 73.7304 23.5216 72.6389 23.5216C71.4469 23.5216 70.255 23.3213 69.2624 22.9194C68.1694 22.5174 67.2759 21.9152 66.4812 21.1112C65.5876 20.4074 64.9909 19.5033 64.4947 18.399C63.9984 17.2932 63.799 16.1889 63.799 14.8829V2.91958C63.799 2.21577 63.9969 1.71367 64.4947 1.3117C64.9909 0.909732 65.4872 0.709473 66.0839 0.709473H66.081ZM82.6664 0.709473C83.2616 0.709473 83.8583 0.911183 84.2556 1.3117C84.6529 1.71367 84.9513 2.3159 84.9513 2.91958V7.5415C85.4476 7.23966 86.1432 6.93927 86.8374 6.83769C87.5331 6.63743 88.2273 6.63743 88.824 6.63743C90.0159 6.63743 91.1075 6.83769 92.1015 7.23966C93.094 7.64163 93.9876 8.24385 94.7823 8.94766C95.4779 9.7516 96.0732 10.6557 96.5695 11.6599C96.9668 12.6641 97.2651 13.6697 97.2651 14.8756V21.2055C97.2651 21.9094 97.0672 22.4115 96.5695 22.8134C96.1721 23.3155 95.6759 23.5172 94.9802 23.5172C94.3849 23.5172 93.8872 23.317 93.4899 22.915C93.0926 22.513 92.7943 22.0109 92.6953 21.4073V15.0773C92.6953 14.5752 92.5963 14.0731 92.397 13.5696C92.199 13.0675 91.9007 12.6655 91.6023 12.3637C91.205 11.9617 90.8077 11.6599 90.4104 11.4596C89.9141 11.2593 89.4178 11.1578 88.8211 11.1578C87.8286 11.1578 86.935 11.5597 86.2393 12.2635C85.4447 12.9674 85.0474 13.8714 84.9484 14.8756V21.2055C84.9484 21.9094 84.749 22.4115 84.3531 22.8134C83.8569 23.3155 83.3606 23.5172 82.6649 23.5172C82.1686 23.5172 81.6724 23.317 81.275 22.915C80.7788 22.513 80.4804 22.0109 80.4804 21.4073V2.81945C80.4804 2.21722 80.6798 1.71367 81.1761 1.3117C81.5734 0.909732 82.0697 0.709473 82.6664 0.709473V0.709473Z" fill="white"/>
<path fill-rule="evenodd" clip-rule="evenodd" d="M40.3603 28.0391C40.3603 28.0391 34.2027 36.5791 23.775 34.771C13.4463 32.8627 27.8471 46.6269 40.3603 28.0391Z" fill="#FFBC00"/>
<path fill-rule="evenodd" clip-rule="evenodd" d="M38.8701 35.675C38.8701 35.675 35.5926 37.9867 35.3947 43.311C35.2957 48.7369 29.5354 42.2052 38.8701 35.675Z" fill="#EA86AE"/>
<path fill-rule="evenodd" clip-rule="evenodd" d="M28.5414 41.7031C28.5414 41.7031 12.4523 43.5112 7.2887 32.661C2.02466 21.8093 -3.33692 47.3307 28.5414 41.7031Z" fill="#803B82"/>
<path fill-rule="evenodd" clip-rule="evenodd" d="M16.4255 30.9529C17.3191 30.9529 18.1138 31.6567 18.1138 32.5608C18.1138 33.565 17.3191 34.2688 16.4255 34.2688C15.433 34.2688 14.7373 33.565 14.7373 32.5608C14.7373 31.6567 15.433 30.9529 16.4255 30.9529Z" fill="#FFBC00"/>
<path fill-rule="evenodd" clip-rule="evenodd" d="M28.3435 44.8173C28.7408 44.8173 29.1381 45.2192 29.1381 45.6212C29.1381 46.0232 28.7408 46.4251 28.3435 46.4251C27.9461 46.4251 27.5488 46.0232 27.5488 45.6212C27.5488 45.2192 27.9461 44.8173 28.3435 44.8173Z" fill="#EA86AE"/>
<path fill-rule="evenodd" clip-rule="evenodd" d="M2.5224 22.0095C3.91228 22.0095 5.00525 23.1153 5.00525 24.5215C5.00525 25.9276 3.91228 27.0334 2.5224 27.0334C1.23149 27.0334 0.0395508 25.9276 0.0395508 24.5215C0.0395508 23.1153 1.23149 22.0095 2.5224 22.0095Z" fill="#803B82"/>
<path fill-rule="evenodd" clip-rule="evenodd" d="M31.2236 26.2295C32.0183 26.2295 32.6135 26.8317 32.6135 27.5355C32.6135 28.3395 32.0183 28.8416 31.2236 28.8416C30.528 28.8416 29.9327 28.3395 29.9327 27.5355C29.9327 26.8317 30.528 26.2295 31.2236 26.2295Z" fill="#E14F9E"/>
<path fill-rule="evenodd" clip-rule="evenodd" d="M45.1268 26.3311C45.5241 26.3311 45.9214 26.733 45.9214 27.135C45.9214 27.537 45.5241 27.9389 45.1268 27.9389C44.7295 27.9389 44.3322 27.537 44.3322 27.135C44.3322 26.733 44.7295 26.3311 45.1268 26.3311Z" fill="#803B82"/>
<path d="M43.8926 38.2828V33.4528H45.9764C46.5146 33.4528 46.9309 33.5609 47.2253 33.7771C47.5243 33.9933 47.6738 34.2992 47.6738 34.6948C47.6738 34.957 47.6117 35.1778 47.4875 35.3572C47.3679 35.5366 47.2023 35.6723 46.9907 35.7643C46.7837 35.8563 46.556 35.9023 46.3076 35.9023L46.4249 35.7367C46.7331 35.7367 46.9976 35.785 47.2184 35.8816C47.4438 35.9736 47.6186 36.1139 47.7428 36.3025C47.867 36.4865 47.9291 36.7165 47.9291 36.9925C47.9291 37.4019 47.7773 37.7193 47.4737 37.9447C47.1747 38.1701 46.7216 38.2828 46.1144 38.2828H43.8926ZM44.4032 37.8619H46.1075C46.5307 37.8619 46.855 37.7906 47.0804 37.648C47.3058 37.5008 47.4185 37.2685 47.4185 36.9511C47.4185 36.6383 47.3058 36.4106 47.0804 36.268C46.855 36.1208 46.5307 36.0472 46.1075 36.0472H44.348V35.6263H45.9419C46.3283 35.6263 46.6273 35.5527 46.8389 35.4055C47.0551 35.2583 47.1632 35.0398 47.1632 34.75C47.1632 34.4556 47.0551 34.2371 46.8389 34.0945C46.6273 33.9473 46.3283 33.8737 45.9419 33.8737H44.4032V37.8619ZM50.5297 38.3173C50.1525 38.3173 49.8213 38.2391 49.5361 38.0827C49.2509 37.9217 49.0278 37.7032 48.8668 37.4272C48.7058 37.1466 48.6253 36.8269 48.6253 36.4681C48.6253 36.1093 48.7012 35.7919 48.853 35.5159C49.0094 35.2399 49.221 35.0237 49.4878 34.8673C49.7592 34.7063 50.0628 34.6258 50.3986 34.6258C50.739 34.6258 51.0403 34.704 51.3025 34.8604C51.5693 35.0122 51.7786 35.2284 51.9304 35.509C52.0822 35.785 52.1581 36.1047 52.1581 36.4681C52.1581 36.4911 52.1558 36.5164 52.1512 36.544C52.1512 36.567 52.1512 36.5923 52.1512 36.6199H48.9979V36.2542H51.889L51.6958 36.3991C51.6958 36.1369 51.6383 35.9046 51.5233 35.7022C51.4129 35.4952 51.2611 35.3342 51.0679 35.2192C50.8747 35.1042 50.6516 35.0467 50.3986 35.0467C50.1502 35.0467 49.9271 35.1042 49.7293 35.2192C49.5315 35.3342 49.3774 35.4952 49.267 35.7022C49.1566 35.9092 49.1014 36.1461 49.1014 36.4129V36.4888C49.1014 36.7648 49.1612 37.0086 49.2808 37.2202C49.405 37.4272 49.5752 37.5905 49.7914 37.7101C50.0122 37.8251 50.2629 37.8826 50.5435 37.8826C50.7643 37.8826 50.969 37.8435 51.1576 37.7653C51.3508 37.6871 51.5164 37.5675 51.6544 37.4065L51.9304 37.7239C51.7694 37.9171 51.567 38.0643 51.3232 38.1655C51.084 38.2667 50.8195 38.3173 50.5297 38.3173ZM57.1622 38.3242C56.7988 38.3242 56.463 38.2644 56.1548 38.1448C55.8466 38.0206 55.5798 37.8481 55.3544 37.6273C55.129 37.4065 54.9519 37.1466 54.8231 36.8476C54.6989 36.5486 54.6368 36.222 54.6368 35.8678C54.6368 35.5136 54.6989 35.187 54.8231 34.888C54.9519 34.589 55.129 34.3291 55.3544 34.1083C55.5844 33.8875 55.8535 33.7173 56.1617 33.5977C56.4699 33.4735 56.8057 33.4114 57.1691 33.4114C57.5187 33.4114 57.8476 33.4712 58.1558 33.5908C58.464 33.7058 58.7239 33.8806 58.9355 34.1152L58.6112 34.4395C58.4134 34.2371 58.1949 34.0922 57.9557 34.0048C57.7165 33.9128 57.4589 33.8668 57.1829 33.8668C56.8931 33.8668 56.624 33.9174 56.3756 34.0186C56.1272 34.1152 55.911 34.2555 55.727 34.4395C55.543 34.6189 55.3981 34.8305 55.2923 35.0743C55.1911 35.3135 55.1405 35.578 55.1405 35.8678C55.1405 36.1576 55.1911 36.4244 55.2923 36.6682C55.3981 36.9074 55.543 37.119 55.727 37.303C55.911 37.4824 56.1272 37.6227 56.3756 37.7239C56.624 37.8205 56.8931 37.8688 57.1829 37.8688C57.4589 37.8688 57.7165 37.8228 57.9557 37.7308C58.1949 37.6388 58.4134 37.4916 58.6112 37.2892L58.9355 37.6135C58.7239 37.8481 58.464 38.0252 58.1558 38.1448C57.8476 38.2644 57.5164 38.3242 57.1622 38.3242ZM61.2354 38.3173C60.8858 38.3173 60.5707 38.2391 60.2901 38.0827C60.0141 37.9217 59.7956 37.7032 59.6346 37.4272C59.4736 37.1466 59.3931 36.8269 59.3931 36.4681C59.3931 36.1047 59.4736 35.785 59.6346 35.509C59.7956 35.233 60.0141 35.0168 60.2901 34.8604C60.5661 34.704 60.8812 34.6258 61.2354 34.6258C61.5942 34.6258 61.9116 34.704 62.1876 34.8604C62.4682 35.0168 62.6867 35.233 62.8431 35.509C63.0041 35.785 63.0846 36.1047 63.0846 36.4681C63.0846 36.8269 63.0041 37.1466 62.8431 37.4272C62.6867 37.7032 62.4682 37.9217 62.1876 38.0827C61.907 38.2391 61.5896 38.3173 61.2354 38.3173ZM61.2354 37.8826C61.4976 37.8826 61.7299 37.8251 61.9323 37.7101C62.1347 37.5905 62.2934 37.4249 62.4084 37.2133C62.528 36.9971 62.5878 36.7487 62.5878 36.4681C62.5878 36.1829 62.528 35.9345 62.4084 35.7229C62.2934 35.5113 62.1347 35.348 61.9323 35.233C61.7299 35.1134 61.4999 35.0536 61.2423 35.0536C60.9847 35.0536 60.7547 35.1134 60.5523 35.233C60.3499 35.348 60.1889 35.5113 60.0693 35.7229C59.9497 35.9345 59.8899 36.1829 59.8899 36.4681C59.8899 36.7487 59.9497 36.9971 60.0693 37.2133C60.1889 37.4249 60.3499 37.5905 60.5523 37.7101C60.7547 37.8251 60.9824 37.8826 61.2354 37.8826ZM65.934 34.6258C66.2284 34.6258 66.486 34.6833 66.7068 34.7983C66.9322 34.9087 67.107 35.0789 67.2312 35.3089C67.36 35.5389 67.4244 35.8287 67.4244 36.1783V38.2828H66.9345V36.2266C66.9345 35.8448 66.8379 35.5573 66.6447 35.3641C66.4561 35.1663 66.1893 35.0674 65.8443 35.0674C65.5867 35.0674 65.3613 35.1203 65.1681 35.2261C64.9795 35.3273 64.8323 35.4768 64.7265 35.6746C64.6253 35.8678 64.5747 36.1024 64.5747 36.3784V38.2828H64.0848V34.6603H64.554V35.6539L64.4781 35.4676C64.5931 35.2054 64.7771 35.0007 65.0301 34.8535C65.2831 34.7017 65.5844 34.6258 65.934 34.6258ZM70.5969 34.6258C70.8913 34.6258 71.1489 34.6833 71.3697 34.7983C71.5951 34.9087 71.7699 35.0789 71.8941 35.3089C72.0229 35.5389 72.0873 35.8287 72.0873 36.1783V38.2828H71.5974V36.2266C71.5974 35.8448 71.5008 35.5573 71.3076 35.3641C71.119 35.1663 70.8522 35.0674 70.5072 35.0674C70.2496 35.0674 70.0242 35.1203 69.831 35.2261C69.6424 35.3273 69.4952 35.4768 69.3894 35.6746C69.2882 35.8678 69.2376 36.1024 69.2376 36.3784V38.2828H68.7477V34.6603H69.2169V35.6539L69.141 35.4676C69.256 35.2054 69.44 35.0007 69.693 34.8535C69.946 34.7017 70.2473 34.6258 70.5969 34.6258ZM74.9492 38.3173C74.572 38.3173 74.2408 38.2391 73.9556 38.0827C73.6704 37.9217 73.4473 37.7032 73.2863 37.4272C73.1253 37.1466 73.0448 36.8269 73.0448 36.4681C73.0448 36.1093 73.1207 35.7919 73.2725 35.5159C73.4289 35.2399 73.6405 35.0237 73.9073 34.8673C74.1787 34.7063 74.4823 34.6258 74.8181 34.6258C75.1585 34.6258 75.4598 34.704 75.722 34.8604C75.9888 35.0122 76.1981 35.2284 76.3499 35.509C76.5017 35.785 76.5776 36.1047 76.5776 36.4681C76.5776 36.4911 76.5753 36.5164 76.5707 36.544C76.5707 36.567 76.5707 36.5923 76.5707 36.6199H73.4174V36.2542H76.3085L76.1153 36.3991C76.1153 36.1369 76.0578 35.9046 75.9428 35.7022C75.8324 35.4952 75.6806 35.3342 75.4874 35.2192C75.2942 35.1042 75.0711 35.0467 74.8181 35.0467C74.5697 35.0467 74.3466 35.1042 74.1488 35.2192C73.951 35.3342 73.7969 35.4952 73.6865 35.7022C73.5761 35.9092 73.5209 36.1461 73.5209 36.4129V36.4888C73.5209 36.7648 73.5807 37.0086 73.7003 37.2202C73.8245 37.4272 73.9947 37.5905 74.2109 37.7101C74.4317 37.8251 74.6824 37.8826 74.963 37.8826C75.1838 37.8826 75.3885 37.8435 75.5771 37.7653C75.7703 37.6871 75.9359 37.5675 76.0739 37.4065L76.3499 37.7239C76.1889 37.9171 75.9865 38.0643 75.7427 38.1655C75.5035 38.2667 75.239 38.3173 74.9492 38.3173ZM79.079 38.3173C78.7202 38.3173 78.3982 38.2391 78.113 38.0827C77.8324 37.9217 77.6116 37.7032 77.4506 37.4272C77.2896 37.1466 77.2091 36.8269 77.2091 36.4681C77.2091 36.1047 77.2896 35.785 77.4506 35.509C77.6116 35.233 77.8324 35.0168 78.113 34.8604C78.3982 34.704 78.7202 34.6258 79.079 34.6258C79.3872 34.6258 79.6655 34.6856 79.9139 34.8052C80.1623 34.9248 80.3578 35.1042 80.5004 35.3434L80.1347 35.5918C80.0105 35.4078 79.8564 35.2721 79.6724 35.1847C79.4884 35.0973 79.2883 35.0536 79.0721 35.0536C78.8145 35.0536 78.5822 35.1134 78.3752 35.233C78.1682 35.348 78.0049 35.5113 77.8853 35.7229C77.7657 35.9345 77.7059 36.1829 77.7059 36.4681C77.7059 36.7533 77.7657 37.0017 77.8853 37.2133C78.0049 37.4249 78.1682 37.5905 78.3752 37.7101C78.5822 37.8251 78.8145 37.8826 79.0721 37.8826C79.2883 37.8826 79.4884 37.8389 79.6724 37.7515C79.8564 37.6641 80.0105 37.5307 80.1347 37.3513L80.5004 37.5997C80.3578 37.8343 80.1623 38.0137 79.9139 38.1379C79.6655 38.2575 79.3872 38.3173 79.079 38.3173ZM82.6486 38.3173C82.3082 38.3173 82.046 38.2253 81.862 38.0413C81.678 37.8573 81.586 37.5974 81.586 37.2616V33.8599H82.0759V37.234C82.0759 37.4456 82.1288 37.6089 82.2346 37.7239C82.345 37.8389 82.5014 37.8964 82.7038 37.8964C82.92 37.8964 83.0994 37.8343 83.242 37.7101L83.4145 38.062C83.3179 38.1494 83.2006 38.2138 83.0626 38.2552C82.9292 38.2966 82.7912 38.3173 82.6486 38.3173ZM80.9374 35.0674V34.6603H83.1799V35.0674H80.9374ZM85.717 38.3173C85.3398 38.3173 85.0086 38.2391 84.7234 38.0827C84.4382 37.9217 84.2151 37.7032 84.0541 37.4272C83.8931 37.1466 83.8126 36.8269 83.8126 36.4681C83.8126 36.1093 83.8885 35.7919 84.0403 35.5159C84.1967 35.2399 84.4083 35.0237 84.6751 34.8673C84.9465 34.7063 85.2501 34.6258 85.5859 34.6258C85.9263 34.6258 86.2276 34.704 86.4898 34.8604C86.7566 35.0122 86.9659 35.2284 87.1177 35.509C87.2695 35.785 87.3454 36.1047 87.3454 36.4681C87.3454 36.4911 87.3431 36.5164 87.3385 36.544C87.3385 36.567 87.3385 36.5923 87.3385 36.6199H84.1852V36.2542H87.0763L86.8831 36.3991C86.8831 36.1369 86.8256 35.9046 86.7106 35.7022C86.6002 35.4952 86.4484 35.3342 86.2552 35.2192C86.062 35.1042 85.8389 35.0467 85.5859 35.0467C85.3375 35.0467 85.1144 35.1042 84.9166 35.2192C84.7188 35.3342 84.5647 35.4952 84.4543 35.7022C84.3439 35.9092 84.2887 36.1461 84.2887 36.4129V36.4888C84.2887 36.7648 84.3485 37.0086 84.4681 37.2202C84.5923 37.4272 84.7625 37.5905 84.9787 37.7101C85.1995 37.8251 85.4502 37.8826 85.7308 37.8826C85.9516 37.8826 86.1563 37.8435 86.3449 37.7653C86.5381 37.6871 86.7037 37.5675 86.8417 37.4065L87.1177 37.7239C86.9567 37.9171 86.7543 38.0643 86.5105 38.1655C86.2713 38.2667 86.0068 38.3173 85.717 38.3173ZM89.7847 38.3173C89.4397 38.3173 89.1292 38.2391 88.8532 38.0827C88.5818 37.9263 88.3679 37.7101 88.2115 37.4341C88.0551 37.1535 87.9769 36.8315 87.9769 36.4681C87.9769 36.1001 88.0551 35.7781 88.2115 35.5021C88.3679 35.2261 88.5818 35.0122 88.8532 34.8604C89.1292 34.704 89.4397 34.6258 89.7847 34.6258C90.1021 34.6258 90.385 34.6971 90.6334 34.8397C90.8864 34.9823 91.0865 35.1916 91.2337 35.4676C91.3855 35.739 91.4614 36.0725 91.4614 36.4681C91.4614 36.8591 91.3878 37.1926 91.2406 37.4686C91.0934 37.7446 90.8933 37.9562 90.6403 38.1034C90.3919 38.246 90.1067 38.3173 89.7847 38.3173ZM89.8192 37.8826C90.0768 37.8826 90.3068 37.8251 90.5092 37.7101C90.7162 37.5905 90.8772 37.4249 90.9922 37.2133C91.1118 36.9971 91.1716 36.7487 91.1716 36.4681C91.1716 36.1829 91.1118 35.9345 90.9922 35.7229C90.8772 35.5113 90.7162 35.348 90.5092 35.233C90.3068 35.1134 90.0768 35.0536 89.8192 35.0536C89.5662 35.0536 89.3385 35.1134 89.1361 35.233C88.9337 35.348 88.7727 35.5113 88.6531 35.7229C88.5335 35.9345 88.4737 36.1829 88.4737 36.4681C88.4737 36.7487 88.5335 36.9971 88.6531 37.2133C88.7727 37.4249 88.9337 37.5905 89.1361 37.7101C89.3385 37.8251 89.5662 37.8826 89.8192 37.8826ZM91.1854 38.2828V37.1926L91.2337 36.4612L91.1647 35.7298V33.163H91.6546V38.2828H91.1854ZM93.0672 38.3173C92.966 38.3173 92.8786 38.2805 92.805 38.2069C92.736 38.1333 92.7015 38.0436 92.7015 37.9378C92.7015 37.8274 92.736 37.7377 92.805 37.6687C92.8786 37.5997 92.966 37.5652 93.0672 37.5652C93.1684 37.5652 93.2535 37.5997 93.3225 37.6687C93.3961 37.7377 93.4329 37.8274 93.4329 37.9378C93.4329 38.0436 93.3961 38.1333 93.3225 38.2069C93.2535 38.2805 93.1684 38.3173 93.0672 38.3173ZM94.5294 38.3173C94.4282 38.3173 94.3408 38.2805 94.2672 38.2069C94.1982 38.1333 94.1637 38.0436 94.1637 37.9378C94.1637 37.8274 94.1982 37.7377 94.2672 37.6687C94.3408 37.5997 94.4282 37.5652 94.5294 37.5652C94.6306 37.5652 94.7157 37.5997 94.7847 37.6687C94.8583 37.7377 94.8952 37.8274 94.8952 37.9378C94.8952 38.0436 94.8583 38.1333 94.7847 38.2069C94.7157 38.2805 94.6306 38.3173 94.5294 38.3173ZM95.9917 38.3173C95.8905 38.3173 95.8031 38.2805 95.7295 38.2069C95.6605 38.1333 95.626 38.0436 95.626 37.9378C95.626 37.8274 95.6605 37.7377 95.7295 37.6687C95.8031 37.5997 95.8905 37.5652 95.9917 37.5652C96.0929 37.5652 96.178 37.5997 96.247 37.6687C96.3206 37.7377 96.3574 37.8274 96.3574 37.9378C96.3574 38.0436 96.3206 38.1333 96.247 38.2069C96.178 38.2805 96.0929 38.3173 95.9917 38.3173Z" fill="white"/>
</g>
<defs>
<clipPath id="clip0_424_13827">
<rect width="97.2256" height="45.7156" fill="white" transform="translate(0.0395508 0.709473)"/>
</clipPath>
</defs>
</svg>
