<svg width="36" height="28" viewBox="0 0 36 28" fill="none" xmlns="http://www.w3.org/2000/svg">
<path d="M2.99401 8.69213C5.11531 8.69213 7.14221 9.11823 8.99498 9.89049C10.9215 10.6934 12.6515 11.8659 14.0954 13.3188C15.5393 14.7713 16.705 16.5115 17.5031 18.4499C18.2705 20.3139 18.694 22.353 18.694 24.4871H18.6719C18.6719 24.8405 18.8144 25.1602 19.0444 25.3916C19.2744 25.6229 19.5925 25.7663 19.9434 25.7663C20.2944 25.7663 20.6125 25.6229 20.8425 25.3916C21.0725 25.1602 21.215 24.8405 21.215 24.4871C21.215 21.999 20.7248 19.6306 19.8371 17.4743C18.9159 15.2365 17.5614 13.2187 15.878 11.5252C14.1946 9.83159 12.1889 8.46917 9.96483 7.54216C7.82143 6.6491 5.46716 6.15599 2.99401 6.15599V6.08959C2.18457 6.08959 1.45158 5.75935 0.920815 5.22568C0.390343 4.69201 0.0620804 3.9546 0.0620804 3.13998C0.0620804 2.32535 0.390343 1.58794 0.920815 1.05427C1.45129 0.520603 2.18457 0.190364 2.99401 0.190364C6.25989 0.190364 9.3782 0.845433 12.2265 2.03237C14.2424 2.87254 16.119 3.97714 17.8135 5.3026C19.5077 3.97714 21.3843 2.87254 23.4002 2.03267C26.2485 0.845132 29.3668 0.190063 32.6327 0.190063C33.4421 0.190063 34.1754 0.520302 34.7059 1.05397C35.2363 1.58794 35.5646 2.32535 35.5646 3.13967C35.5646 3.954 35.2363 4.69141 34.7059 5.22538C34.1754 5.75905 33.4424 6.08929 32.6327 6.08929C30.1502 6.08929 27.7876 6.58389 25.6362 7.48056C24.3476 8.01753 23.1322 8.70054 22.0098 9.50886C22.5414 10.1916 23.0373 10.904 23.4955 11.6435C24.4632 10.9467 25.514 10.3562 26.6314 9.89049C28.4842 9.11853 30.5114 8.69213 32.6324 8.69213C33.4418 8.69213 34.1751 9.02237 34.7056 9.55604C35.2363 10.09 35.5646 10.8274 35.5646 11.6417C35.5646 12.4561 35.2363 13.1938 34.7059 13.7274C34.2253 14.2109 33.5786 14.5276 32.8594 14.5829C32.7874 14.6034 32.7112 14.6145 32.6327 14.6145C31.2984 14.6145 30.0302 14.8798 28.8772 15.36C27.8267 15.7978 26.8656 16.418 26.0313 17.1822C26.336 18.1543 26.5812 19.1522 26.7634 20.1718C26.9847 19.8668 27.2282 19.5801 27.4916 19.3151C28.1583 18.6444 28.9597 18.102 29.8548 17.7288C30.7145 17.3706 31.653 17.1729 32.6324 17.1729C33.0908 17.1729 33.4627 17.547 33.4627 18.0079C33.4627 18.4689 33.0908 18.8433 32.6324 18.8433C31.8671 18.8433 31.1419 18.9944 30.4842 19.2685C29.8032 19.5521 29.1864 19.9722 28.6658 20.496C28.1451 21.0197 27.7276 21.6403 27.4456 22.3254C27.3022 22.6736 27.1932 23.0408 27.1215 23.4228C27.1368 23.7755 27.1448 24.1301 27.1448 24.4868C27.1448 24.948 26.773 25.3219 26.3145 25.3219C25.856 25.3219 25.4844 24.9477 25.4844 24.4868C25.4844 21.417 24.8793 18.4938 23.7831 15.8315C22.6454 13.0685 20.9739 10.5774 18.8968 8.4878C16.8194 6.39819 14.3436 4.71665 11.5969 3.57208C8.95048 2.46928 6.04513 1.86049 2.99342 1.86049C2.64216 1.86049 2.32436 2.00382 2.09436 2.2352C1.86437 2.46658 1.7219 2.7866 1.7219 3.13967C1.7219 3.49275 1.86437 3.81277 2.09436 4.04415C2.32436 4.27553 2.64216 4.41886 2.99342 4.41886C5.68999 4.41886 8.26588 4.96004 10.619 5.94054C13.0655 6.95981 15.263 8.44994 17.0987 10.2964C18.9342 12.1433 20.4151 14.354 21.4285 16.8153C22.4031 19.1825 22.9411 21.774 22.9411 24.4868C22.9411 24.6229 22.9085 24.7518 22.8512 24.8654C22.7666 25.5286 22.4632 26.1227 22.0163 26.5725C21.4859 27.1062 20.7526 27.4364 19.9431 27.4364C19.1337 27.4364 18.4007 27.1062 17.8699 26.5725C17.3395 26.0388 17.0112 25.3011 17.0112 24.4868C17.0112 22.5715 16.6343 20.749 15.9518 19.0909C15.2436 17.3709 14.2017 15.8189 12.906 14.515C11.6103 13.2115 10.0673 12.1631 8.35758 11.4506C6.70941 10.7637 4.89786 10.3848 2.99401 10.3848V10.3626C2.64276 10.3626 2.32495 10.5059 2.09496 10.7373C1.86497 10.9686 1.7225 11.2887 1.7225 11.6417C1.7225 11.9948 1.86497 12.3148 2.09496 12.5462C2.32495 12.7776 2.64276 12.9209 2.99401 12.9209C4.54601 12.9209 6.03019 13.2331 7.38774 13.7987C8.80024 14.3873 10.067 15.2455 11.1231 16.3084C12.1793 17.3709 13.0327 18.6456 13.6178 20.0663C14.1799 21.432 14.4906 22.9251 14.4906 24.4865H14.4679C14.4679 25.3008 14.1396 26.0382 13.6091 26.5722C13.0787 27.1059 12.3457 27.4361 11.5359 27.4361C10.7262 27.4361 9.9935 27.1059 9.46303 26.5722C8.93256 26.0385 8.6043 25.3008 8.6043 24.4865C8.6043 23.7166 8.45376 22.9867 8.18135 22.3254C7.89939 21.6403 7.48182 21.0197 6.96121 20.496C6.44059 19.9722 5.8238 19.5521 5.14279 19.2685C4.48507 18.9944 3.75986 18.8433 2.99432 18.8433C2.53583 18.8433 2.16426 18.4692 2.16426 18.0079C2.16426 17.5467 2.53613 17.1729 2.99432 17.1729C3.97372 17.1729 4.9122 17.3706 5.77183 17.7288C6.667 18.1017 7.46838 18.6444 8.13506 19.3151C8.80173 19.9858 9.34086 20.7923 9.71184 21.6925C10.0679 22.5573 10.2644 23.5015 10.2644 24.4868C10.2644 24.8402 10.4069 25.1599 10.6369 25.3913C10.8669 25.6226 11.185 25.766 11.5359 25.766C11.8869 25.766 12.205 25.6226 12.4353 25.3913C12.6656 25.1599 12.8075 24.8402 12.8075 24.4868C12.8075 23.1445 12.544 21.8683 12.0664 20.7087C11.5712 19.5062 10.8415 18.4199 9.93316 17.5061C9.02485 16.5923 7.94509 15.8582 6.74973 15.36C5.59679 14.8795 4.32856 14.6145 2.99432 14.6145C2.91576 14.6145 2.83989 14.6034 2.76791 14.5829C2.04866 14.5276 1.402 14.2109 0.92141 13.7274C0.390938 13.1938 0.0626793 12.4561 0.0626793 11.6417C0.0626793 10.8274 0.390938 10.09 0.92141 9.55604C1.45188 9.02237 2.18516 8.69213 2.99461 8.69213H2.99401ZM28.2389 13.799C29.5965 13.2334 31.0807 12.9212 32.6327 12.9212C32.9839 12.9212 33.3017 12.7779 33.5317 12.5465C33.7617 12.3151 33.9042 11.9951 33.9042 11.642C33.9042 11.289 33.7617 10.9689 33.5317 10.7376C33.3017 10.5062 32.9836 10.3629 32.6327 10.3629C30.7258 10.3629 28.9116 10.7427 27.2607 11.4305C26.2147 11.8665 25.2314 12.4281 24.3282 13.0967C24.6884 13.7785 25.0179 14.4799 25.3139 15.1986C25.3518 15.2909 25.3891 15.3834 25.4262 15.4763C26.2712 14.7927 27.2168 14.2251 28.2389 13.799ZM20.9402 8.22848C22.1926 7.31649 23.5558 6.54543 25.0071 5.94084C27.3602 4.96034 29.9361 4.41916 32.6327 4.41916C32.9839 4.41916 33.3017 4.27583 33.5317 4.04445C33.7617 3.81307 33.9042 3.49305 33.9042 3.13998C33.9042 2.7869 33.7617 2.46688 33.5317 2.2355C33.3017 2.00412 32.9836 1.86079 32.6327 1.86079C29.5812 1.86079 26.6756 2.46958 24.0292 3.57238C22.2699 4.30558 20.6218 5.25963 19.1182 6.39939C19.444 6.69327 19.7618 6.99586 20.0713 7.30687C20.3688 7.60616 20.6585 7.91386 20.9405 8.22878L20.9402 8.22848Z" fill="white"/>
</svg>
