<svg width="14" height="21" viewBox="0 0 14 21" fill="none" xmlns="http://www.w3.org/2000/svg">
<g clip-path="url(#clip0_769_1705)">
<path d="M5.21569 20.8712C5.21569 20.8712 5.62745 20.4847 5.62745 20.227L5.62745 18.2945L11.2549 18.2945C12.7647 18.2945 14 17.135 14 15.7178L14 5.92639L11.2549 8.11658L11.2549 15.7178L5.62745 15.7178L5.62745 13.7853C5.62745 13.7853 5.4902 13.2699 5.21569 13.1411C4.94118 13.1411 4.66667 13.1411 4.52941 13.1411L0.411764 16.362C0.411764 16.362 0.137254 16.6196 0.137254 16.8773C0.137254 17.135 0.137254 17.2638 0.411764 17.3926L4.52941 20.6135C4.52941 20.6135 5.07843 20.8712 5.21569 20.6135L5.21569 20.8712Z" fill="white"/>
<path d="M2.88235 5.28218L8.5098 5.28218L8.5098 7.21469C8.5098 7.21469 8.64706 7.73003 8.92157 7.85886C9.19608 7.85886 9.47059 7.85886 9.60784 7.85886L13.7255 4.38034C13.7255 4.38034 14 4.12267 14 3.865C14 3.60733 14 3.47849 13.7255 3.34966L9.60784 0.128801C9.60784 0.128801 9.05882 -0.128867 8.92157 0.128801C8.64706 0.128801 8.5098 0.515304 8.5098 0.772973L8.5098 2.70549L2.88235 2.70549C1.37255 2.70549 0.137255 3.865 0.137254 5.28217L0.137254 15.0736L2.88235 12.8834L2.88235 5.28218Z" fill="white"/>
</g>
<defs>
<clipPath id="clip0_769_1705">
<rect width="21" height="14" fill="white" transform="translate(14) rotate(90)"/>
</clipPath>
</defs>
</svg>
