<svg width="30" height="30" viewBox="0 0 30 30" fill="none" xmlns="http://www.w3.org/2000/svg">
<g clip-path="url(#clip0_4021_3601)">
<path d="M22.1496 16.1001H16.0996V22.1501H13.1496V16.1001H7.09961V13.1501H13.1496V7.1001H16.0996V13.1501H22.1496V16.1001Z" fill="black"/>
<path d="M14.62 2.95C21.06 2.95 26.28 8.18 26.28 14.62C26.28 21.06 21.05 26.28 14.61 26.28C8.17 26.28 2.95 21.05 2.95 14.61C2.95 11.52 4.18 8.55 6.37 6.37C8.56 4.18 11.53 2.95 14.63 2.95M14.63 0C6.55 0 0 6.55 0 14.62C0 22.69 6.55 29.24 14.62 29.24C22.69 29.24 29.24 22.69 29.24 14.62C29.25 6.55 22.71 0 14.63 0Z" fill="black"/>
</g>
<defs>
<clipPath id="clip0_4021_3601">
<rect width="29.25" height="29.25" fill="white"/>
</clipPath>
</defs>
</svg>
