<svg width="18" height="18" viewBox="0 0 18 18" fill="none" xmlns="http://www.w3.org/2000/svg">
<path fill-rule="evenodd" clip-rule="evenodd" d="M0.0356445 9.10909C0.0356445 4.41768 3.81702 0.190063 9.03549 0.190063C14.1372 0.190063 17.9994 4.33741 17.9994 9.08234C17.9994 14.5854 13.4725 18.0014 9.01753 18.0014C7.5445 18.0014 5.9098 17.6089 4.59844 16.8419C4.14037 16.5654 3.75415 16.3603 3.26014 16.5208L1.4458 17.056C0.987724 17.1987 0.574558 16.8419 0.709286 16.3603L1.31107 14.3624C1.40987 14.0859 1.39191 13.7916 1.2482 13.5597C0.475757 12.1505 0.0356445 10.6075 0.0356445 9.10909ZM7.85021 9.10904C7.85021 9.74229 8.36218 10.2507 8.99989 10.2596C9.63761 10.2596 10.1496 9.74229 10.1496 9.11796C10.1496 8.4847 9.63761 7.97632 8.99989 7.97632C8.37116 7.9674 7.85021 8.4847 7.85021 9.10904ZM11.9897 9.11823C11.9897 9.74257 12.5017 10.2599 13.1394 10.2599C13.7771 10.2599 14.2891 9.74257 14.2891 9.11823C14.2891 8.48498 13.7771 7.9766 13.1394 7.9766C12.5017 7.9766 11.9897 8.48498 11.9897 9.11823ZM4.85873 10.2599C4.23 10.2599 3.70905 9.74256 3.70905 9.11822C3.70905 8.48497 4.22102 7.97659 4.85873 7.97659C5.49644 7.97659 6.00841 8.48497 6.00841 9.11822C6.00841 9.74256 5.49644 10.2509 4.85873 10.2599Z" fill="#B6B6B6"/>
</svg>
