<svg width="19" height="18" viewBox="0 0 19 18" fill="none" xmlns="http://www.w3.org/2000/svg">
<path d="M17.2847 1.51787L2.57948 5.76616C2.50897 5.79992 2.44971 5.85304 2.40872 5.91921C2.36773 5.98538 2.34673 6.06183 2.34822 6.13948C2.3497 6.21713 2.37361 6.29273 2.4171 6.35731C2.46059 6.42189 2.52184 6.47274 2.59359 6.50382L7.42189 9.21002C7.56129 9.28804 7.72156 9.32153 7.88084 9.30592C8.04012 9.29031 8.19068 9.22637 8.312 9.12279L14.6882 4.44914C14.7512 4.39637 14.9053 4.29514 14.9607 4.35222C15.016 4.40929 14.927 4.56006 14.8728 4.62251L9.7796 10.358C9.66791 10.4824 9.59992 10.6394 9.58583 10.8054C9.57174 10.9714 9.6123 11.1375 9.70144 11.2787L12.857 16.2991C12.8914 16.3677 12.9447 16.4252 13.0106 16.4651C13.0765 16.505 13.1525 16.5256 13.2297 16.5246C13.3069 16.5236 13.3822 16.501 13.4471 16.4594C13.5119 16.4178 13.5636 16.3589 13.5962 16.2894L17.834 2.05308C17.8691 1.97718 17.8798 1.89238 17.8645 1.81025C17.8493 1.72812 17.8089 1.65265 17.7488 1.59413C17.6888 1.53561 17.612 1.49689 17.5289 1.48324C17.4459 1.46959 17.3606 1.48169 17.2847 1.51787Z" fill="white"/>
</svg>
