<svg width="18" height="17" viewBox="0 0 18 17" fill="none" xmlns="http://www.w3.org/2000/svg">
<path fill-rule="evenodd" clip-rule="evenodd" d="M12.4399 0.000142198C13.0067 0.000142198 13.5725 0.0794025 14.1106 0.258406C17.4258 1.32708 18.6204 4.93387 17.6225 8.08647C17.0566 9.69751 16.1315 11.1678 14.9198 12.3692C13.1854 14.0346 11.2822 15.5129 9.23339 16.7864L9.00885 16.9209L8.77532 16.7775C6.71936 15.5129 4.80532 14.0346 3.05475 12.3603C1.85118 11.1589 0.925149 9.69751 0.350308 8.08647C-0.664645 4.93387 0.529946 1.32708 3.88109 0.239704C4.14156 0.150648 4.41012 0.0883082 4.67958 0.0535761H4.78736C5.03975 0.0170629 5.29035 0.000142198 5.54184 0.000142198H5.64064C6.2065 0.0170629 6.75439 0.115025 7.28522 0.294029H7.33821C7.37414 0.310949 7.40109 0.329651 7.41905 0.346572C7.61755 0.409802 7.80527 0.481047 7.98491 0.57901L8.32622 0.730406C8.4087 0.774019 8.50127 0.840658 8.58127 0.898251C8.63196 0.934741 8.67761 0.9676 8.71244 0.98867C8.7271 0.997244 8.742 1.00587 8.75702 1.01456C8.83403 1.05913 8.91425 1.10557 8.9819 1.15699C9.97979 0.400897 11.1914 -0.00876345 12.4399 0.000142198ZM14.8288 6.41232C15.197 6.40253 15.5114 6.10953 15.5384 5.7346V5.62863C15.5653 4.38095 14.8027 3.25082 13.6432 2.81444C13.2749 2.68887 12.8707 2.88569 12.736 3.25972C12.6103 3.63376 12.8079 4.04342 13.1851 4.17612C13.7608 4.38985 14.1462 4.9518 14.1462 5.5743V5.60191C14.1291 5.80585 14.1911 6.00266 14.3168 6.15406C14.4426 6.30546 14.6312 6.39362 14.8288 6.41232Z" fill="#B6B6B6"/>
<defs>
<linearGradient id="paint0_linear_1566_14471" x1="0" y1="0" x2="0" y2="16.9209" gradientUnits="userSpaceOnUse">
<stop stop-color="#FFFFFF"/>
<stop offset="1" stop-color="#FFFFFF"/>
</linearGradient>
</defs>
</svg>
