<svg width="20" height="20" viewBox="0 0 20 20" fill="none" xmlns="http://www.w3.org/2000/svg">
<g clip-path="url(#clip0_1566_12431)">
<path d="M20 10C20 11.9778 19.4135 13.9112 18.3147 15.5557C17.2159 17.2002 15.6541 18.4819 13.8268 19.2388C11.9996 19.9957 9.98891 20.1937 8.0491 19.8079C6.10929 19.422 4.32746 18.4696 2.92894 17.0711C1.53041 15.6725 0.578004 13.8907 0.192152 11.9509C-0.193701 10.0111 0.00433286 8.00043 0.761209 6.17317C1.51809 4.3459 2.79981 2.78412 4.4443 1.6853C6.08879 0.58649 8.02219 0 10 0C12.6522 0 15.1957 1.05357 17.0711 2.92893C18.9464 4.8043 20 7.34784 20 10Z" fill="#4467AD"/>
<path d="M10.7738 8.63573C10.9381 8.45113 11.0734 8.26387 11.2421 8.10491C11.4863 7.86672 11.7755 7.67956 12.0928 7.55434C12.4101 7.42911 12.7492 7.36835 13.0902 7.37558C13.4823 7.36926 13.8734 7.41687 14.2525 7.51706C15.1203 7.76802 15.6248 8.3655 15.8654 9.21335C16.0261 9.84822 16.0984 10.5023 16.0802 11.1569C16.0825 12.5384 16.0762 13.9197 16.0791 15.3011C16.0791 15.4304 16.0431 15.464 15.9162 15.464C15.2051 15.4582 14.4934 15.4582 13.7812 15.464C13.6559 15.4651 13.6289 15.4262 13.6294 15.3079C13.6332 13.9935 13.6332 12.6791 13.6294 11.3646C13.637 11.0346 13.5985 10.7051 13.515 10.3858C13.3448 9.79572 12.9224 9.49528 12.3043 9.52787C11.4599 9.57232 11.0217 9.99024 10.914 10.8485C10.8885 11.053 10.876 11.2589 10.8763 11.4651C10.8774 12.7434 10.875 14.0218 10.8797 15.3C10.8797 15.4276 10.8483 15.4651 10.7181 15.464C10.0013 15.4577 9.28442 15.4577 8.56758 15.464C8.45262 15.4649 8.41943 15.4344 8.41943 15.3177C8.4225 12.7867 8.4225 10.2558 8.41943 7.72491C8.41943 7.59973 8.46032 7.57069 8.57869 7.57158C9.25938 7.57661 9.94013 7.57661 10.6209 7.57158C10.7462 7.57039 10.7785 7.61098 10.7759 7.72965C10.7689 8.03202 10.7735 8.33469 10.7735 8.63721" fill="#FEFEFE"/>
<path d="M6.87418 11.5282C6.87418 12.7804 6.8721 14.0319 6.87714 15.2845C6.87714 15.4236 6.84307 15.4657 6.69936 15.4641C5.98825 15.4564 5.27714 15.4582 4.56514 15.463C4.45121 15.4639 4.41699 15.4353 4.41699 15.3176C4.42035 12.7824 4.42035 10.2473 4.41699 7.71222C4.41699 7.60734 4.44233 7.57 4.55373 7.57059C5.27551 7.57534 5.99714 7.57667 6.71892 7.56985C6.85744 7.56837 6.8764 7.62215 6.8761 7.74111C6.87255 9.00343 6.87181 10.2658 6.87388 11.5282" fill="#FEFEFE"/>
<path d="M7.07057 5.05846C7.07198 5.33991 6.98978 5.61545 6.83438 5.85012C6.67899 6.08479 6.45741 6.26804 6.19774 6.37661C5.93807 6.48519 5.652 6.51421 5.37582 6.45999C5.09963 6.40577 4.84576 6.27076 4.64641 6.07207C4.44706 5.87339 4.3112 5.61997 4.25605 5.34397C4.20091 5.06797 4.22897 4.78181 4.33668 4.52177C4.44439 4.26174 4.62689 4.03955 4.86104 3.88337C5.09519 3.72719 5.37045 3.64407 5.65191 3.64453C6.02674 3.64639 6.38577 3.79578 6.65128 4.06038C6.91679 4.32497 7.06742 4.68348 7.07057 5.05831" fill="#FEFEFE"/>
</g>
<defs>
<clipPath id="clip0_1566_12431">
<rect width="20" height="20" fill="white"/>
</clipPath>
</defs>
</svg>
