<svg width="33" height="25" viewBox="0 0 33 25" fill="none" xmlns="http://www.w3.org/2000/svg">
<path d="M16.3239 0.640651L16.5001 0.557922L16.6763 0.640651C17.5777 1.06405 18.3425 1.74851 18.8791 2.61204C19.4157 3.47558 19.7013 4.48155 19.7018 5.50945V7.53178L21.7712 9.90134V13.6844L19.7018 12.5728V13.7789H19.0237L18.6236 15.7557H14.3767L13.9765 13.7789H13.2983V12.573L11.2289 13.6845V9.90127L13.2983 7.53178V5.50945C13.2995 4.48172 13.5855 3.47608 14.122 2.6127C14.6585 1.74932 15.4229 1.0647 16.3239 0.640651ZM20.9151 12.2232V10.2447L19.7018 8.85522V11.572L20.9151 12.2232ZM15.0713 14.8663H17.9288L18.1489 13.779H14.8513L15.0713 14.8663ZM12.085 10.2447V12.2232L13.2983 11.572V8.85544L12.085 10.2447ZM14.1545 12.8895H18.846V5.50945C18.8456 4.68727 18.6263 3.88123 18.2124 3.18051C17.7985 2.4798 17.2061 1.91172 16.5007 1.53912C15.7957 1.91213 15.2035 2.48029 14.7896 3.18091C14.3757 3.88153 14.1561 4.68735 14.1551 5.50945L14.1545 12.8895Z" fill="white"/>
<path d="M17.408 3.87765C17.6181 4.09593 17.7489 4.38315 17.778 4.69037C17.8072 4.9976 17.7329 5.30581 17.5678 5.5625C17.4028 5.81919 17.1572 6.00848 16.8729 6.0981C16.5886 6.18773 16.2832 6.17215 16.0087 6.05402C15.7342 5.9359 15.5076 5.72253 15.3676 5.45028C15.2275 5.17802 15.1826 4.86373 15.2406 4.56095C15.2985 4.25817 15.4557 3.98564 15.6854 3.78979C15.915 3.59394 16.2029 3.48689 16.5 3.48688C16.6687 3.48639 16.8359 3.52067 16.9917 3.58775C17.1476 3.65482 17.2891 3.75336 17.408 3.87765ZM16.072 4.82116C16.072 4.90913 16.0971 4.99512 16.1441 5.06827C16.1912 5.14141 16.258 5.19842 16.3362 5.23208C16.4144 5.26575 16.5005 5.27456 16.5835 5.25739C16.6666 5.24023 16.7428 5.19787 16.8027 5.13567C16.8626 5.07346 16.9033 4.99421 16.9199 4.90793C16.9364 4.82165 16.9279 4.73222 16.8955 4.65095C16.8631 4.56967 16.8082 4.50021 16.7378 4.45134C16.6675 4.40246 16.5847 4.37638 16.5 4.37638C16.4437 4.37598 16.3879 4.38721 16.3358 4.40942C16.2837 4.43163 16.2363 4.46438 16.1965 4.50576C16.1567 4.54714 16.1252 4.59633 16.1038 4.65048C16.0824 4.70462 16.0716 4.76264 16.072 4.82116Z" fill="white"/>
<path d="M18.6187 21.7534V16.4971H17.7625V21.7534C17.7625 21.8714 17.8076 21.9845 17.8879 22.0679C17.9682 22.1513 18.077 22.1982 18.1906 22.1982C18.3041 22.1982 18.413 22.1513 18.4932 22.0679C18.5735 21.9845 18.6186 21.8714 18.6186 21.7534M14.8094 22.1984C14.923 22.1983 15.0318 22.1515 15.1121 22.0681C15.1923 21.9846 15.2374 21.8715 15.2374 21.7536V16.4973H14.3817V21.7536C14.3817 21.8715 14.4268 21.9846 14.5071 22.0681C14.5873 22.1515 14.6962 22.1983 14.8097 22.1984M16.9585 22.4296V16.4971H16.1024V22.4296C16.1024 22.5475 16.1475 22.6607 16.2278 22.7441C16.3081 22.8275 16.417 22.8744 16.5305 22.8744C16.644 22.8744 16.7529 22.8275 16.8332 22.7441C16.9134 22.6607 16.9585 22.5475 16.9585 22.4296Z" fill="white"/>
<path d="M26.4172 0.376569C26.3023 0.495971 26.2111 0.637726 26.1489 0.793738C26.0867 0.949751 26.0547 1.11697 26.0547 1.28584C26.0547 1.45471 26.0867 1.62192 26.1489 1.77793C26.2111 1.93395 26.3023 2.0757 26.4172 2.1951C31.8943 7.88627 31.8943 17.1135 26.4172 22.8048C26.1852 23.0459 26.0548 23.373 26.0548 23.714C26.0548 24.055 26.1852 24.3821 26.4172 24.6232C26.6493 24.8644 26.9641 24.9999 27.2923 24.9999C27.6204 24.9999 27.9352 24.8644 28.1673 24.6232C34.6109 17.9277 34.6109 7.0721 28.1673 0.376569C27.9352 0.135438 27.6204 -2.75245e-05 27.2923 -2.75245e-05C26.9641 -2.75245e-05 26.6493 0.135438 26.4172 0.376569ZM4.83279 0.376569C-1.61084 7.0721 -1.61084 17.9277 4.83279 24.6232C5.06531 24.8622 5.37939 24.9958 5.7064 24.9948C6.03341 24.9939 6.34677 24.8585 6.578 24.6182C6.80924 24.378 6.93956 24.0523 6.94048 23.7126C6.94139 23.3728 6.81284 23.0464 6.58291 22.8048C1.10578 17.1135 1.10578 7.88627 6.58291 2.1951C6.69782 2.0757 6.78898 1.93394 6.85117 1.77793C6.91336 1.62192 6.94537 1.4547 6.94537 1.28584C6.94537 1.11697 6.91336 0.949757 6.85117 0.793744C6.78898 0.637732 6.69782 0.495976 6.58291 0.376569C6.468 0.257163 6.33157 0.162444 6.18143 0.097822C6.03129 0.0331997 5.87037 -6.10364e-05 5.70785 -6.10352e-05C5.54534 -6.10339e-05 5.38442 0.0331997 5.23427 0.097822C5.08413 0.162444 4.94771 0.257163 4.83279 0.376569ZM21.7503 5.22592C21.5183 5.46708 21.3879 5.79415 21.3879 6.13519C21.3879 6.47622 21.5183 6.80329 21.7503 7.04445C22.4398 7.76088 22.9867 8.6114 23.3599 9.54745C23.733 10.4835 23.925 11.4868 23.925 12.4999C23.925 13.5131 23.733 14.5164 23.3599 15.4524C22.9867 16.3885 22.4398 17.239 21.7503 17.9554C21.6354 18.0748 21.5443 18.2166 21.4821 18.3726C21.4199 18.5286 21.3879 18.6958 21.3879 18.8647C21.3879 19.0335 21.4199 19.2007 21.4821 19.3567C21.5443 19.5127 21.6354 19.6545 21.7503 19.7739C21.8652 19.8933 22.0016 19.988 22.1518 20.0526C22.3019 20.1173 22.4628 20.1505 22.6253 20.1505C22.7878 20.1505 22.9488 20.1173 23.0989 20.0526C23.249 19.988 23.3855 19.8933 23.5004 19.7739C24.4197 18.8187 25.1489 17.6846 25.6464 16.4366C26.1439 15.1885 26.4 13.8508 26.4 12.4999C26.4 11.149 26.1439 9.81132 25.6464 8.56325C25.1489 7.31518 24.4197 6.18115 23.5004 5.22592C23.2683 4.98479 22.9535 4.84932 22.6253 4.84932C22.2971 4.84932 21.9824 4.98479 21.7503 5.22592ZM9.4997 5.22592C7.64311 7.1551 6.60008 9.77164 6.60008 12.4999C6.60008 15.2282 7.64311 17.8447 9.4997 19.7739C9.61438 19.8944 9.75085 19.9902 9.90127 20.0557C10.0517 20.1212 10.2131 20.1552 10.3762 20.1556C10.5393 20.1561 10.7008 20.1231 10.8516 20.0584C11.0024 19.9938 11.1394 19.8989 11.2547 19.779C11.37 19.6592 11.4614 19.5169 11.5236 19.3602C11.5858 19.2035 11.6176 19.0356 11.6172 18.8662C11.6167 18.6967 11.584 18.529 11.521 18.3727C11.4579 18.2164 11.3658 18.0746 11.2498 17.9554C10.5603 17.239 10.0134 16.3885 9.64028 15.4524C9.26714 14.5164 9.07509 13.5131 9.07509 12.4999C9.07509 11.4868 9.26714 10.4835 9.64028 9.54745C10.0134 8.6114 10.5603 7.76088 11.2498 7.04445C11.4819 6.8033 11.6123 6.47623 11.6123 6.13519C11.6123 5.79414 11.4819 5.46707 11.2498 5.22592C11.0177 4.98477 10.703 4.84929 10.3748 4.84929C10.0466 4.84929 9.73178 4.98477 9.4997 5.22592Z" fill="white"/>
</svg>
