<svg width="60" height="60" viewBox="0 0 60 60" fill="none" xmlns="http://www.w3.org/2000/svg">
<path fill-rule="evenodd" clip-rule="evenodd" d="M39.0815 0C45.105 0 48.116 0 51.3585 1.025C54.8985 2.3135 57.6865 5.1015 58.975 8.6415C60 11.8835 60 14.8955 60 20.9185V39.0815C60 45.105 60 48.116 58.975 51.3585C57.6865 54.8985 54.8985 57.6865 51.3585 58.9745C48.116 60 45.105 60 39.0815 60H20.9185C14.895 60 11.8835 60 8.6415 58.9745C5.1015 57.6865 2.3135 54.8985 1.025 51.3585C0 48.116 0 45.105 0 39.0815V20.9185C0 14.8955 0 11.8835 1.025 8.6415C2.3135 5.1015 5.1015 2.3135 8.6415 1.025C11.8835 0 14.895 0 20.9185 0H39.0815Z" fill="url(#paint0_linear_1596_3160)"/>
<path fill-rule="evenodd" clip-rule="evenodd" d="M49.2585 42.9662C49.1762 42.9883 49.0898 43 49.0007 43H10.9982C10.909 43 10.8225 42.9883 10.7402 42.9664L22.5876 31.1252L25.1032 33.7024C27.8055 36.4707 32.1932 36.4709 34.8956 33.7024L37.4112 31.1252L49.2585 42.9662ZM49.9992 41.7017V18.2135C49.9992 18.0936 49.9781 17.9787 49.9394 17.8722C49.8803 18.009 38.1094 30.1106 38.1094 30.1106L49.9653 41.9602C49.9874 41.8778 49.9992 41.7911 49.9992 41.7017ZM10 41.8016V18.3133C10 18.1935 10.0212 18.0787 10.06 17.9722C10.119 18.1089 21.8898 30.2105 21.8898 30.2105L10.0338 42.0602C10.0118 41.9777 10 41.891 10 41.8016ZM49.3078 17.019L34.1808 32.5036C31.8708 34.8701 28.1298 34.8699 25.82 32.5036C25.82 32.5036 15.7369 22.1821 10.6954 17.0214C10.6497 16.9747 49.3078 17.019 49.3078 17.019Z" fill="white"/>
<defs>
<linearGradient id="paint0_linear_1596_3160" x1="0" y1="0" x2="0" y2="60" gradientUnits="userSpaceOnUse">
<stop stop-color="#1E51EE"/>
<stop offset="1" stop-color="#19E6FF"/>
</linearGradient>
</defs>
</svg>
