<svg width="31" height="30" viewBox="0 0 31 30" fill="none" xmlns="http://www.w3.org/2000/svg">
<path d="M4.95411 8.39906C7.23788 8.39906 9.08925 6.56341 9.08925 4.29902C9.08925 2.03463 7.23788 0.198975 4.95411 0.198975C2.67033 0.198975 0.81897 2.03463 0.81897 4.29902C0.81897 6.56341 2.67033 8.39906 4.95411 8.39906Z" fill="white"/>
<path d="M4.95411 18.942C7.23788 18.942 9.08925 17.1064 9.08925 14.842C9.08925 12.5776 7.23788 10.7419 4.95411 10.7419C2.67033 10.7419 0.81897 12.5776 0.81897 14.842C0.81897 17.1064 2.67033 18.942 4.95411 18.942Z" fill="white"/>
<path d="M4.95411 29.485C7.23788 29.485 9.08925 27.6493 9.08925 25.385C9.08925 23.1206 7.23788 21.2849 4.95411 21.2849C2.67033 21.2849 0.81897 23.1206 0.81897 25.385C0.81897 27.6493 2.67033 29.485 4.95411 29.485Z" fill="white"/>
<path d="M15.587 8.39906C17.8708 8.39906 19.7222 6.56341 19.7222 4.29902C19.7222 2.03463 17.8708 0.198975 15.587 0.198975C13.3033 0.198975 11.4519 2.03463 11.4519 4.29902C11.4519 6.56341 13.3033 8.39906 15.587 8.39906Z" fill="white"/>
<path d="M15.587 18.942C17.8708 18.942 19.7222 17.1064 19.7222 14.842C19.7222 12.5776 17.8708 10.7419 15.587 10.7419C13.3033 10.7419 11.4519 12.5776 11.4519 14.842C11.4519 17.1064 13.3033 18.942 15.587 18.942Z" fill="white"/>
<path d="M15.587 29.485C17.8708 29.485 19.7222 27.6493 19.7222 25.385C19.7222 23.1206 17.8708 21.2849 15.587 21.2849C13.3033 21.2849 11.4519 23.1206 11.4519 25.385C11.4519 27.6493 13.3033 29.485 15.587 29.485Z" fill="white"/>
<path d="M26.2206 8.39906C28.5044 8.39906 30.3557 6.56341 30.3557 4.29902C30.3557 2.03463 28.5044 0.198975 26.2206 0.198975C23.9368 0.198975 22.0854 2.03463 22.0854 4.29902C22.0854 6.56341 23.9368 8.39906 26.2206 8.39906Z" fill="white"/>
<path d="M26.2206 18.942C28.5044 18.942 30.3557 17.1064 30.3557 14.842C30.3557 12.5776 28.5044 10.7419 26.2206 10.7419C23.9368 10.7419 22.0854 12.5776 22.0854 14.842C22.0854 17.1064 23.9368 18.942 26.2206 18.942Z" fill="white"/>
<path d="M26.2206 29.485C28.5044 29.485 30.3557 27.6493 30.3557 25.385C30.3557 23.1206 28.5044 21.2849 26.2206 21.2849C23.9368 21.2849 22.0854 23.1206 22.0854 25.385C22.0854 27.6493 23.9368 29.485 26.2206 29.485Z" fill="white"/>
<path d="M26.2206 27.1421C27.1993 27.1421 27.9928 26.3554 27.9928 25.385C27.9928 24.4145 27.1993 23.6278 26.2206 23.6278C25.2418 23.6278 24.4484 24.4145 24.4484 25.385C24.4484 26.3554 25.2418 27.1421 26.2206 27.1421Z" fill="url(#paint0_linear_956_16747)"/>
<defs>
<linearGradient id="paint0_linear_956_16747" x1="24.4484" y1="25.385" x2="27.9928" y2="25.385" gradientUnits="userSpaceOnUse">
<stop stop-color="#478FE4"/>
<stop offset="1" stop-color="#5CD3C6"/>
</linearGradient>
</defs>
</svg>
