<svg width="60" height="60" viewBox="0 0 60 60" xmlns="http://www.w3.org/2000/svg">
  <!-- Background -->
  <path fill-rule="evenodd" clip-rule="evenodd" d="M39.0815 0C45.105 0 48.116 0 51.3585 1.025C54.8985 2.3135 57.6865 5.1015 58.975 8.6415C60 11.8835 60 14.8955 60 20.9185V39.0815C60 45.105 60 48.116 58.975 51.3585C57.6865 54.8985 54.8985 57.6865 51.3585 58.9745C48.116 60 45.105 60 39.0815 60H20.9185C14.895 60 11.8835 60 8.6415 58.9745C5.1015 57.6865 2.3135 54.8985 1.025 51.3585C0 48.116 0 45.105 0 39.0815V20.9185C0 14.8955 0 11.8835 1.025 8.6415C2.3135 5.1015 5.1015 2.3135 8.6415 1.025C11.8835 0 14.895 0 20.9185 0H39.0815Z" fill="#F1F1F1"/>
  
  <!-- Icon (Centered) -->
  <g transform="translate(4.5, 4.5)">
    <path fill-rule="evenodd" clip-rule="evenodd" d="M25.5 6.07617C14.2774 6.07617 5.57812 14.2967 5.57812 25.4004C5.57812 31.2083 7.95839 36.2271 11.8347 39.6935C12.1601 39.9848 12.3565 40.3928 12.3699 40.8295L12.4784 44.3732C12.513 45.5036 13.6806 46.2391 14.715 45.7825L18.6692 44.0369C19.0044 43.8891 19.38 43.8616 19.7332 43.9588C21.5503 44.4585 23.4842 44.7246 25.5 44.7246C36.7226 44.7246 45.4219 36.504 45.4219 25.4004C45.4219 14.2967 36.7226 6.07617 25.5 6.07617Z" fill="url(#paint0_radial)"/>
    <path fill-rule="evenodd" clip-rule="evenodd" d="M13.5366 31.0516L19.3887 21.7672C20.3195 20.2902 22.3129 19.9225 23.7096 20.97L28.3641 24.4608C28.7911 24.7811 29.3787 24.7794 29.8039 24.4567L36.09 19.686C36.929 19.0493 38.0242 20.0534 37.4627 20.9444L31.6106 30.2289C30.6797 31.7058 28.6863 32.0736 27.2897 31.0261L22.6351 27.5351C22.2081 27.2149 21.6205 27.2166 21.1953 27.5393L14.9092 32.31C14.0702 32.9467 12.975 31.9426 13.5366 31.0516Z" fill="white"/>
    <defs>
      <radialGradient id="paint0_radial" cx="0" cy="0" r="1" gradientUnits="userSpaceOnUse" gradientTransform="translate(13.247 45.7068) scale(43.4136 43.4135)">
        <stop stop-color="#0099FF"/>
        <stop offset="0.609754" stop-color="#A033FF"/>
        <stop offset="0.934823" stop-color="#FF5280"/>
        <stop offset="1" stop-color="#FF7061"/>
      </radialGradient>
    </defs>
  </g>
</svg>
