<svg width="60" height="60" viewBox="0 0 60 60" fill="none" xmlns="http://www.w3.org/2000/svg">
<path fill-rule="evenodd" clip-rule="evenodd" d="M39.0815 0C45.105 0 48.116 0 51.3585 1.025C54.8985 2.3135 57.6865 5.1015 58.975 8.6415C60 11.8835 60 14.8955 60 20.9185V39.0815C60 45.105 60 48.116 58.975 51.3585C57.6865 54.8985 54.8985 57.6865 51.3585 58.9745C48.116 60 45.105 60 39.0815 60H20.9185C14.895 60 11.8835 60 8.6415 58.9745C5.1015 57.6865 2.3135 54.8985 1.025 51.3585C0 48.116 0 45.105 0 39.0815V20.9185C0 14.8955 0 11.8835 1.025 8.6415C2.3135 5.1015 5.1015 2.3135 8.6415 1.025C11.8835 0 14.895 0 20.9185 0H39.0815Z" fill="url(#paint0_linear_1596_3152)"/>
<path fill-rule="evenodd" clip-rule="evenodd" d="M30 47.5C42.1503 47.5 52 39.3292 52 29.25C52 19.1708 42.1503 11 30 11C17.8497 11 8 19.1708 8 29.25C8 35.8322 12.2006 41.6005 18.4994 44.8109V45.5C18.4994 46.9883 16.6244 48.845 15.8355 49.6262C15.5972 49.8622 15.458 50 15.4994 50C17.697 50 19.4849 49.044 20.8757 48.3003C21.4965 47.9684 22.0382 47.6787 22.5019 47.5353C23.7563 47.1473 24.4829 47.034 25.7072 47.1527C27.0956 47.3806 28.531 47.5 30 47.5Z" fill="white"/>
<defs>
<linearGradient id="paint0_linear_1596_3152" x1="0" y1="0" x2="0" y2="60" gradientUnits="userSpaceOnUse">
<stop stop-color="#67FF81"/>
<stop offset="1" stop-color="#01B41F"/>
</linearGradient>
</defs>
</svg>
