<svg width="19" height="27" viewBox="0 0 19 27" fill="none" xmlns="http://www.w3.org/2000/svg">
<path d="M6.62987 15.3973C6.62977 15.6525 6.53014 15.8972 6.35289 16.0776C6.17563 16.258 5.93525 16.3594 5.68457 16.3595H1.90339V25.0206L17.0291 25.0206V16.3597H13.2479C12.9972 16.3597 12.7567 16.2583 12.5794 16.0779C12.4021 15.8974 12.3025 15.6526 12.3025 15.3974C12.3025 15.1422 12.4021 14.8974 12.5794 14.7169C12.7567 14.5364 12.9972 14.4351 13.2479 14.4351H17.9746C18.2252 14.4352 18.4656 14.5366 18.6429 14.717C18.8201 14.8974 18.9198 15.1421 18.9199 15.3973V25.983C18.9198 26.2382 18.8201 26.4829 18.6429 26.6633C18.4656 26.8437 18.2252 26.9451 17.9746 26.9453L0.957523 26.9453C0.706846 26.9451 0.466463 26.8437 0.289207 26.6633C0.111952 26.4829 0.0123253 26.2382 0.0122261 25.983V15.3975C0.0123253 15.1423 0.111952 14.8976 0.289207 14.7172C0.466463 14.5368 0.706846 14.4354 0.957523 14.4353H5.68439C5.93506 14.4354 6.17544 14.5368 6.3527 14.7172C6.52996 14.8976 6.62958 15.1423 6.62968 15.3975" fill="white"/>
<path d="M18.9199 0.96242V11.5481C18.9198 11.8033 18.8201 12.048 18.6429 12.2284C18.4656 12.4089 18.2252 12.5103 17.9746 12.5104H13.2475C12.9968 12.5104 12.7563 12.409 12.579 12.2285C12.4017 12.048 12.3021 11.8033 12.3021 11.548C12.3021 11.2928 12.4017 11.048 12.579 10.8676C12.7563 10.6871 12.9968 10.5857 13.2475 10.5857H17.0287V1.92484L1.90301 1.92484V10.5857H5.6842C5.93493 10.5857 6.1754 10.6871 6.35272 10.8675C6.53003 11.048 6.62966 11.2927 6.62968 11.548C6.62971 11.8032 6.53013 12.048 6.35285 12.2284C6.17557 12.4089 5.93512 12.5104 5.68439 12.5104H0.957523C0.706846 12.5103 0.466463 12.4089 0.289207 12.2284C0.111952 12.048 0.0123253 11.8033 0.0122261 11.5481V0.96261C0.0123253 0.707441 0.111952 0.462752 0.289207 0.28232C0.466463 0.101889 0.706846 0.000477791 0.957523 0.000375748L17.9746 0.000375748C18.2252 0.000477791 18.4656 0.101862 18.6428 0.282253C18.8201 0.462644 18.9197 0.707283 18.9199 0.96242" fill="white"/>
<path d="M9.46614 22.1337C9.21546 22.1336 8.97508 22.0322 8.79782 21.8518C8.62056 21.6714 8.52094 21.4267 8.52084 21.1715L8.52084 7.13111L8.24675 7.41988C8.1144 7.55571 7.94527 7.64829 7.76098 7.68581C7.57669 7.72333 7.38559 7.70408 7.2121 7.63052C7.06738 7.57004 6.93963 7.47404 6.84024 7.35108C6.74085 7.22811 6.67291 7.08201 6.64249 6.92582C6.61207 6.76962 6.62011 6.60819 6.6659 6.45593C6.71169 6.30367 6.7938 6.16532 6.9049 6.05322L8.79474 4.12875C8.92709 3.99292 9.09621 3.90033 9.28051 3.86281C9.4648 3.82529 9.6559 3.84455 9.82939 3.91811C9.94447 3.96695 10.0489 4.03855 10.1366 4.12875L12.0281 6.05322C12.2044 6.23479 12.303 6.47999 12.3022 6.73528C12.3015 6.99057 12.2016 7.23519 12.0242 7.41571C11.8469 7.59622 11.6066 7.69797 11.3558 7.69871C11.105 7.69946 10.8641 7.59915 10.6857 7.41969L10.4116 7.13092L10.4116 21.1715C10.4115 21.4267 10.3119 21.6714 10.1346 21.8518C9.95738 22.0322 9.717 22.1336 9.46632 22.1337" fill="white"/>
</svg>
