<svg width="19" height="27" viewBox="0 0 19 27" fill="none" xmlns="http://www.w3.org/2000/svg">
<path d="M6.62993 15.3972C6.62983 15.6524 6.53021 15.8971 6.35295 16.0775C6.17569 16.258 5.93531 16.3594 5.68463 16.3595H1.90345V25.0205L17.0291 25.0205V16.3597H13.248C12.9972 16.3597 12.7568 16.2583 12.5795 16.0778C12.4022 15.8973 12.3026 15.6526 12.3026 15.3973C12.3026 15.1421 12.4022 14.8973 12.5795 14.7169C12.7568 14.5364 12.9972 14.435 13.248 14.435H17.9746C18.2253 14.4351 18.4657 14.5365 18.6429 14.7169C18.8202 14.8974 18.9198 15.1421 18.9199 15.3972V25.983C18.9198 26.2381 18.8202 26.4828 18.6429 26.6632C18.4657 26.8437 18.2253 26.9451 17.9746 26.9452L0.957584 26.9452C0.706907 26.9451 0.466524 26.8437 0.289268 26.6632C0.112013 26.4828 0.0123863 26.2381 0.0122871 25.983V15.3974C0.0123863 15.1423 0.112013 14.8976 0.289268 14.7171C0.466524 14.5367 0.706907 14.4353 0.957584 14.4352H5.68445C5.93512 14.4353 6.17551 14.5367 6.35276 14.7171C6.53002 14.8976 6.62964 15.1423 6.62974 15.3974" fill="white"/>
<path d="M18.9199 0.96242V11.5481C18.9198 11.8033 18.8202 12.048 18.6429 12.2284C18.4657 12.4089 18.2253 12.5103 17.9746 12.5104H13.2476C12.9968 12.5104 12.7564 12.409 12.5791 12.2285C12.4018 12.048 12.3022 11.8033 12.3022 11.548C12.3022 11.2928 12.4018 11.048 12.5791 10.8676C12.7564 10.6871 12.9968 10.5857 13.2476 10.5857H17.0288V1.92484L1.90307 1.92484V10.5857H5.68426C5.93499 10.5857 6.17546 10.6871 6.35278 10.8675C6.53009 11.048 6.62972 11.2927 6.62974 11.548C6.62977 11.8032 6.53019 12.048 6.35291 12.2284C6.17563 12.4089 5.93518 12.5104 5.68445 12.5104H0.957584C0.706907 12.5103 0.466524 12.4089 0.289268 12.2284C0.112013 12.048 0.0123863 11.8033 0.0122871 11.5481V0.96261C0.0123863 0.707441 0.112013 0.462752 0.289268 0.28232C0.466524 0.101889 0.706907 0.000477791 0.957584 0.000375748L17.9746 0.000375748C18.2253 0.000477791 18.4656 0.101862 18.6429 0.282253C18.8201 0.462644 18.9198 0.707283 18.9199 0.96242" fill="white"/>
<path d="M9.46662 22.1337C9.21595 22.1336 8.97556 22.0322 8.79831 21.8517C8.62105 21.6713 8.52143 21.4266 8.52133 21.1714L8.52133 7.13105L8.24724 7.41982C8.11489 7.55565 7.94576 7.64823 7.76147 7.68575C7.57717 7.72327 7.38608 7.70402 7.21258 7.63045C7.06787 7.56998 6.94012 7.47398 6.84073 7.35101C6.74134 7.22805 6.6734 7.08195 6.64298 6.92576C6.61256 6.76956 6.6206 6.60813 6.66639 6.45587C6.71218 6.30361 6.79428 6.16525 6.90539 6.05316L8.79523 4.12869C8.92758 3.99286 9.0967 3.90027 9.281 3.86275C9.46529 3.82523 9.65639 3.84448 9.82988 3.91805C9.94496 3.96689 10.0494 4.03848 10.1371 4.12869L12.0286 6.05316C12.2049 6.23472 12.3035 6.47993 12.3027 6.73522C12.302 6.99051 12.202 7.23513 12.0247 7.41565C11.8474 7.59616 11.6071 7.69791 11.3563 7.69865C11.1055 7.6994 10.8646 7.59908 10.6862 7.41962L10.4121 7.13086L10.4121 21.1714C10.412 21.4266 10.3124 21.6713 10.1351 21.8517C9.95787 22.0322 9.71749 22.1336 9.46681 22.1337" fill="white"/>
</svg>
