<svg width="27" height="27" viewBox="0 0 27 27" fill="none" xmlns="http://www.w3.org/2000/svg">
<path d="M7.5162 23.0596C9.12163 23.4974 11.2382 23.7528 13.5 23.7528C15.7619 23.7528 17.8785 23.4974 19.4839 23.0596C21.4541 22.5123 22.4393 21.7096 22.4393 20.6879C22.4393 19.6662 21.4541 18.8636 19.4839 18.3163C18.4679 18.0445 17.4302 17.8614 16.3825 17.7689C18.6082 13.8649 20.8705 9.52306 20.8705 7.37034C20.8705 5.41561 20.094 3.54093 18.7118 2.15872C17.3296 0.776516 15.4549 0 13.5001 0C11.5454 0 9.67073 0.776516 8.28853 2.15872C6.90632 3.54093 6.1298 5.41561 6.1298 7.37034C6.1298 9.52306 8.3555 13.9014 10.6177 17.7325C9.5692 17.8184 8.53091 18.0016 7.5163 18.2798C5.54607 18.8271 4.56091 19.6299 4.56091 20.6515C4.56091 21.7096 5.54604 22.5123 7.5163 23.0596M13.5 1.5687C15.028 1.57194 16.4924 2.18035 17.5729 3.26078C18.6533 4.34121 19.2617 5.80566 19.265 7.33361C19.265 8.97548 17.2578 13.2445 13.8649 18.7905C13.8297 18.8566 13.7771 18.9119 13.7128 18.9505C13.6486 18.9891 13.575 19.0094 13.5 19.0094C13.4251 19.0094 13.3515 18.9891 13.2873 18.9505C13.223 18.9119 13.1704 18.8566 13.1352 18.7905C9.7419 13.2447 7.73514 8.97567 7.73514 7.3338C7.73833 5.80582 8.34672 4.34132 9.42715 3.26085C10.5076 2.18038 11.9721 1.57194 13.5 1.5687ZM8.24599 19.7393C9.19461 19.4839 10.3257 19.3379 11.5295 19.2284C11.6063 19.3674 11.6917 19.5014 11.785 19.6299C11.9671 19.9202 12.22 20.1596 12.52 20.3255C12.8199 20.4914 13.1571 20.5785 13.4999 20.5785C13.8426 20.5785 14.1798 20.4914 14.4797 20.3255C14.7797 20.1596 15.0326 19.9202 15.2147 19.6299C15.2915 19.4909 15.3768 19.3568 15.4702 19.2284C16.5789 19.2896 17.6788 19.4607 18.7537 19.7393C20.2132 20.1042 20.724 20.5055 20.8335 20.6879C20.724 20.834 20.2132 21.2717 18.7537 21.6366C17.3312 22.0014 15.4702 22.2203 13.4997 22.2203C11.5291 22.2203 9.66853 22.0014 8.2456 21.6366C6.78612 21.2717 6.27527 20.8704 6.16586 20.6879C6.27527 20.5055 6.78612 20.1042 8.2456 19.7393M27.0001 21.892C27.0001 22.9501 26.2704 24.4826 22.7312 25.6866C20.2501 26.5258 16.9663 27.0001 13.5 27.0001C10.0338 27.0001 6.74998 26.5258 4.2689 25.6866C0.729687 24.4826 0 22.9501 0 21.892C0 20.5055 1.24054 19.5203 2.29868 18.9366C2.38876 18.8845 2.48866 18.8517 2.59207 18.8401C2.69548 18.8285 2.80017 18.8384 2.89955 18.8693C2.99893 18.9001 3.09085 18.9512 3.16953 19.0193C3.24821 19.0874 3.31194 19.171 3.35672 19.265C3.4088 19.3551 3.44167 19.455 3.45326 19.5584C3.46485 19.6618 3.45491 19.7665 3.42407 19.8659C3.39323 19.9653 3.34215 20.0572 3.27405 20.1359C3.20595 20.2146 3.1223 20.2783 3.02836 20.3231C2.07974 20.8339 1.53245 21.4177 1.53245 21.8918C1.53245 22.4756 2.37165 23.3877 4.70677 24.1905C7.04189 24.9932 10.1436 25.431 13.4272 25.431C16.7107 25.431 19.8488 24.9931 22.1476 24.1905C24.4827 23.3877 25.3219 22.4756 25.3219 21.8918C25.3219 21.4175 24.7746 20.8337 23.826 20.3231C23.6421 20.2263 23.5042 20.0605 23.4426 19.8621C23.381 19.6636 23.4008 19.4489 23.4976 19.265C23.5943 19.0811 23.7602 18.9433 23.9586 18.8817C24.157 18.8201 24.3718 18.8398 24.5557 18.9366C25.7598 19.5203 27.0003 20.5053 27.0003 21.892M16.4554 6.85939C16.4554 6.27487 16.2821 5.70348 15.9574 5.21747C15.6326 4.73146 15.1711 4.35266 14.631 4.12897C14.091 3.90529 13.4968 3.84676 12.9235 3.9608C12.3502 4.07483 11.8236 4.3563 11.4103 4.76962C10.997 5.18294 10.7155 5.70954 10.6014 6.28283C10.4874 6.85612 10.5459 7.45035 10.7696 7.99037C10.9933 8.5304 11.3721 8.99197 11.8581 9.31671C12.3441 9.64145 12.9155 9.81478 13.5 9.81478C13.8886 9.8164 14.2736 9.74107 14.6329 9.59312C14.9922 9.44518 15.3187 9.22755 15.5934 8.95279C15.8682 8.67803 16.0858 8.35159 16.2338 7.99229C16.3817 7.63299 16.4571 7.24796 16.4554 6.85939ZM12.1136 6.85939C12.1136 6.58517 12.1949 6.31711 12.3472 6.0891C12.4996 5.86109 12.7161 5.68338 12.9695 5.57844C13.2228 5.4735 13.5016 5.44604 13.7705 5.49954C14.0395 5.55304 14.2865 5.68509 14.4804 5.879C14.6744 6.0729 14.8064 6.31995 14.8599 6.5889C14.9134 6.85786 14.8859 7.13663 14.781 7.38998C14.6761 7.64333 14.4984 7.85987 14.2703 8.01222C14.0423 8.16457 13.7743 8.24589 13.5 8.24589C13.1342 8.23987 12.785 8.09186 12.5263 7.83314C12.2676 7.57441 12.1196 7.22524 12.1136 6.85939Z" fill="white"/>
</svg>
