<svg width="19" height="19" viewBox="0 0 19 19" fill="none" xmlns="http://www.w3.org/2000/svg">
<g clip-path="url(#clip0_956_16701)">
<g clip-path="url(#clip1_956_16701)">
<path d="M6.37593 2.88098L5.22561 1.71489C4.24328 2.46935 3.43706 3.43411 2.86435 4.54047C2.29163 5.64683 1.96651 6.86759 1.91211 8.11586H3.5209C3.57792 7.08178 3.86424 6.07406 4.35855 5.16771C4.85287 4.26135 5.54244 3.47972 6.37593 2.88098ZM16.3405 8.11602H17.9493C17.8914 6.8685 17.5648 5.64897 16.9924 4.54313C16.4199 3.43729 15.6156 2.47198 14.6358 1.71504L13.4935 2.88098C14.3235 3.48267 15.01 4.26519 15.5027 5.17108C15.9953 6.07698 16.2816 7.08325 16.3405 8.11602ZM14.7564 8.52373C14.7564 6.02039 13.4373 3.92469 11.1373 3.37017V2.81573C11.1373 2.49134 11.0102 2.18022 10.7839 1.95084C10.5577 1.72146 10.2509 1.59259 9.93091 1.59259C9.61096 1.59259 9.30411 1.72146 9.07788 1.95084C8.85164 2.18022 8.72454 2.49134 8.72454 2.81573V3.37025C6.41612 3.92469 5.10522 6.0122 5.10522 8.52373V12.6009L3.49643 14.232V15.0475H16.3646V14.2318L14.7558 12.6006L14.7564 8.52373ZM9.93068 17.4935C10.0388 17.4952 10.1467 17.4842 10.2524 17.4609C10.5071 17.4059 10.7452 17.2898 10.9467 17.1224C11.1482 16.955 11.3072 16.7411 11.4105 16.4987C11.492 16.2969 11.533 16.0807 11.5311 15.8627H8.31411C8.31718 16.2956 8.48874 16.7099 8.79147 17.0153C9.0942 17.3207 9.50362 17.4926 9.93068 17.4935Z" fill="white"/>
</g>
</g>
<defs>
<clipPath id="clip0_956_16701">
<rect width="17.901" height="17.749" fill="white" transform="translate(0.909302 0.598694)"/>
</clipPath>
<clipPath id="clip1_956_16701">
<rect width="17.8915" height="17.3701" fill="white" transform="translate(0.990479 1.67316)"/>
</clipPath>
</defs>
</svg>
