<svg width="20" height="20" viewBox="0 0 20 20" fill="none" xmlns="http://www.w3.org/2000/svg">
<path d="M14.5634 0.784119H14.5178C13.6522 0.788372 12.8012 1.01505 12.0418 1.44364C11.2824 1.87224 10.6386 2.48925 10.1686 3.23888C9.69858 2.48927 9.05477 1.87227 8.2954 1.44368C7.53603 1.0151 6.68504 0.788431 5.81937 0.784186H5.7738C4.41001 0.797453 3.10642 1.36521 2.14633 2.36406C1.18625 3.36292 0.64726 4.71214 0.646515 6.1185C0.646515 7.86516 1.38816 10.3435 2.83474 12.3825C5.59071 16.2678 10.1686 19.6667 10.1686 19.6667C10.1686 19.6667 14.7466 16.2678 17.5025 12.3827C18.9491 10.3434 19.6907 7.86509 19.6907 6.11877C19.69 4.71235 19.1511 3.36304 18.191 2.36412C17.2309 1.36519 15.9273 0.797387 14.5634 0.784119ZM16.4678 11.6038C14.5176 14.3559 11.5466 16.8956 10.1686 18.005C8.79066 16.8957 5.81937 14.3512 3.86938 11.5991C2.52815 9.71085 1.92837 7.48744 1.92837 6.11843C1.9276 5.06097 2.33241 4.0461 3.05449 3.29522C3.77657 2.54434 4.75732 2.11839 5.78278 2.11029H5.82399C6.48326 2.11078 7.13129 2.28637 7.70563 2.62014C8.26795 2.94631 8.74542 3.40789 9.09732 3.96552C9.21429 4.14968 9.37388 4.30092 9.56169 4.40559C9.74951 4.51025 9.95964 4.56506 10.1731 4.56506C10.3866 4.56506 10.5968 4.51025 10.7846 4.40559C10.9724 4.30092 11.132 4.14968 11.249 3.96552C11.6021 3.40894 12.0792 2.94762 12.6406 2.62014C13.215 2.28637 13.863 2.11078 14.5223 2.11029H14.5635C15.589 2.11839 16.5697 2.54434 17.2918 3.29522C18.0139 4.0461 18.4187 5.06097 18.4179 6.11843C18.4089 7.48744 17.8092 9.71085 16.4678 11.6038Z" fill="#333333"/>
</svg>
