<svg width="26" height="18" viewBox="0 0 26 18" fill="none" xmlns="http://www.w3.org/2000/svg">
<path d="M21.16 7.94985C21.3698 7.43025 21.4438 6.86983 21.3755 6.31694C21.3072 5.76404 21.0988 5.23526 20.7681 4.77621C20.4374 4.31716 19.9944 3.94161 19.4774 3.68195C18.9603 3.4223 18.3847 3.28634 17.8002 3.28579C17.0883 3.28513 16.3923 3.48657 15.8011 3.86439C15.1419 2.77346 14.123 1.92031 12.9026 1.43738C11.6822 0.954451 10.3285 0.868765 9.05177 1.19362C7.77499 1.51848 6.64653 2.23571 5.84158 3.23397C5.03663 4.23222 4.60023 5.45565 4.60013 6.71432C4.60013 6.81133 4.60382 6.90714 4.60764 7.00355C3.40532 7.40668 2.39144 8.2018 1.74533 9.24827C1.09922 10.2947 0.862518 11.5251 1.07709 12.7218C1.29167 13.9185 1.94369 15.0043 2.91783 15.7872C3.89197 16.5702 5.12546 16.9998 6.4001 17H20.2C21.3895 17.0001 22.5366 16.5795 23.419 15.8198C24.3014 15.0601 24.8561 14.0154 24.9757 12.8883C25.0952 11.7612 24.7711 10.6319 24.0661 9.71949C23.3611 8.80706 22.3255 8.17646 21.16 7.94997V7.94985ZM16.1765 11.1176L12.224 14.882C12.1113 14.9884 11.959 15.0481 11.8003 15.0481C11.6416 15.0481 11.4893 14.9884 11.3765 14.882L7.42424 11.1176C7.34041 11.0378 7.28331 10.936 7.26017 10.8253C7.23703 10.7145 7.24889 10.5997 7.29424 10.4953C7.33959 10.391 7.4164 10.3018 7.51497 10.239C7.61353 10.1762 7.72943 10.1427 7.848 10.1426H10.3004V6.14263C10.3009 5.99121 10.3643 5.84613 10.4767 5.73906C10.5891 5.63199 10.7414 5.57164 10.9004 5.57119H12.7003C12.8593 5.57164 13.0116 5.63199 13.124 5.73906C13.2364 5.84613 13.2998 5.99121 13.3003 6.14263V10.1427H15.7527C15.8713 10.1428 15.9872 10.1763 16.0857 10.2391C16.1843 10.3019 16.2611 10.3911 16.3065 10.4955C16.3518 10.5998 16.3637 10.7146 16.3405 10.8254C16.3174 10.9361 16.2603 11.0379 16.1765 11.1178V11.1176Z" stroke="#333333" stroke-width="1.5" stroke-linejoin="round"/>
</svg>
