<svg width="15" height="12" viewBox="0 0 15 12" fill="none" xmlns="http://www.w3.org/2000/svg">
<path d="M7.5005 9.37516C6.6514 9.3741 5.83414 9.05187 5.21281 8.47318C4.59149 7.89449 4.21209 7.10218 4.15081 6.25535L1.69189 4.35525C1.36216 4.75977 1.0738 5.1963 0.831128 5.65832C0.77754 5.76436 0.749621 5.88152 0.749621 6.00033C0.749621 6.11915 0.77754 6.2363 0.831128 6.34235C1.45102 7.58317 2.40212 8.62831 3.5792 9.36213C4.75628 10.096 6.11343 10.4898 7.5005 10.5002C8.11704 10.4962 8.73057 10.4139 9.32636 10.2552L8.1099 9.31416C7.90904 9.35301 7.70507 9.37354 7.5005 9.3755V9.37516ZM14.8563 10.7369L12.265 8.73347C13.0522 8.07012 13.6996 7.25686 14.1695 6.34102C14.2231 6.23497 14.251 6.11782 14.251 5.999C14.251 5.88018 14.2231 5.76303 14.1695 5.65698C13.5496 4.41634 12.5985 3.37137 11.4215 2.63767C10.2445 1.90398 8.88744 1.51016 7.5005 1.49978C6.29374 1.50129 5.10658 1.80511 4.04747 2.38349L1.06649 0.0787108C1.02755 0.0485085 0.983049 0.0262742 0.935518 0.0132787C0.887987 0.000283094 0.838361 -0.00321898 0.789476 0.00297258C0.74059 0.00916414 0.693405 0.024928 0.650615 0.0493631C0.607825 0.0737982 0.570271 0.106426 0.540097 0.145381L0.0787153 0.736743C0.0485113 0.775674 0.0262757 0.820176 0.0132794 0.867704C0.00028311 0.915232 -0.00321917 0.964856 0.00297275 1.01374C0.00916466 1.06262 0.0249294 1.1098 0.0493659 1.15259C0.0738024 1.19538 0.106432 1.23293 0.145389 1.2631L13.9345 11.9213C13.9734 11.9515 14.018 11.9737 14.0655 11.9867C14.113 11.9997 14.1626 12.0032 14.2115 11.997C14.2604 11.9908 14.3076 11.9751 14.3504 11.9506C14.3932 11.9262 14.4307 11.8936 14.4609 11.8546L14.9213 11.2623C14.9515 11.2233 14.9737 11.1788 14.9867 11.1313C14.9997 11.0838 15.0032 11.0341 14.997 10.9853C14.9908 10.9364 14.9751 10.8892 14.9506 10.8464C14.9262 10.8036 14.8936 10.7661 14.8546 10.7359L14.8563 10.7369ZM10.5502 7.40874L9.62873 6.6967C9.76184 6.31162 9.78647 5.89734 9.6999 5.4992C9.61334 5.10106 9.41892 4.7344 9.13793 4.43934C8.85693 4.14428 8.50018 3.9322 8.10672 3.8263C7.71326 3.72039 7.29825 3.72475 6.9071 3.83889C7.04854 4.03044 7.12504 4.26217 7.12546 4.50026C7.12192 4.57911 7.10985 4.65735 7.08946 4.7336L5.36394 3.40021C5.96339 2.89961 6.7195 2.62521 7.5005 2.62484C7.94383 2.62457 8.38287 2.71169 8.7925 2.88122C9.20214 3.05074 9.57434 3.29935 9.88782 3.61281C10.2013 3.92628 10.4499 4.29846 10.6195 4.70807C10.789 5.11768 10.8761 5.55669 10.8759 6C10.8729 6.4879 10.7617 6.96906 10.5502 7.40874Z" fill="#2D2D2D"/>
</svg>
