<svg width="14" height="9" viewBox="0 0 14 9" fill="none" xmlns="http://www.w3.org/2000/svg">
<path d="M13.4182 4.15767C12.7984 2.91696 11.8474 1.8719 10.6705 1.13812C9.49364 0.404338 8.1367 0.0104375 6.74983 0C5.36296 0.0105815 4.00604 0.404579 2.82917 1.13841C1.65229 1.87224 0.701342 2.9173 0.0814985 4.158C0.0279163 4.26404 0 4.38119 0 4.5C0 4.61881 0.0279163 4.73596 0.0814985 4.842C0.701252 6.08277 1.65218 7.12789 2.82907 7.86174C4.00597 8.59558 5.36293 8.98953 6.74983 9C8.13671 8.98942 9.49363 8.59542 10.6705 7.86159C11.8474 7.12776 12.7983 6.0827 13.4182 4.842C13.4718 4.73592 13.4997 4.61871 13.4997 4.49983C13.4997 4.38096 13.4718 4.26375 13.4182 4.15767ZM6.74983 7.875C6.08232 7.875 5.4298 7.67706 4.87478 7.30621C4.31977 6.93536 3.88718 6.40826 3.63174 5.79156C3.37629 5.17486 3.30946 4.49626 3.43968 3.84157C3.56991 3.18688 3.89134 2.58552 4.36335 2.11351C4.83535 1.64151 5.43672 1.32007 6.0914 1.18985C6.74609 1.05962 7.42469 1.12646 8.04139 1.38191C8.65809 1.63735 9.18519 2.06993 9.55604 2.62495C9.92689 3.17997 10.1248 3.83249 10.1248 4.5C10.1248 5.39511 9.76925 6.25355 9.13632 6.88649C8.50338 7.51942 7.64494 7.875 6.74983 7.875ZM6.74983 2.25C6.54897 2.25274 6.34939 2.28256 6.1565 2.33867C6.31395 2.55467 6.38906 2.81981 6.3683 3.08629C6.34753 3.35278 6.23226 3.60308 6.04325 3.79209C5.85425 3.98109 5.60394 4.09637 5.33746 4.11713C5.07097 4.1379 4.80583 4.06278 4.58983 3.90533C4.46676 4.35854 4.48892 4.83894 4.65318 5.2789C4.81744 5.71885 5.11553 6.09622 5.5055 6.35789C5.89547 6.61955 6.35768 6.75234 6.82707 6.73755C7.29646 6.72276 7.74939 6.56114 8.12212 6.27545C8.49484 5.98975 8.76859 5.59437 8.90483 5.14494C9.04107 4.69551 9.03294 4.21468 8.88158 3.77012C8.73023 3.32555 8.44327 2.93965 8.0611 2.66672C7.67892 2.39379 7.22079 2.24758 6.75116 2.24867L6.74983 2.25Z" fill="#2D2D2D"/>
</svg>
