<svg width="16" height="16" viewBox="0 0 16 16" fill="none" xmlns="http://www.w3.org/2000/svg">
<path d="M7.87453 0.721191C6.38016 0.721191 4.91935 1.16093 3.67682 1.98479C2.4343 2.80865 1.46586 3.97964 0.893993 5.34968C0.322121 6.71971 0.172494 8.22726 0.464031 9.68168C0.755569 11.1361 1.47518 12.4721 2.53186 13.5207C3.58854 14.5692 4.93483 15.2833 6.40049 15.5726C7.86615 15.8619 9.38535 15.7135 10.766 15.146C12.1466 14.5785 13.3266 13.6175 14.1569 12.3845C14.9871 11.1515 15.4302 9.70186 15.4302 8.21895C15.4295 6.23064 14.6332 4.32398 13.2164 2.91803C11.7996 1.51209 9.8782 0.721917 7.87453 0.721191ZM11.6523 8.9687H8.63008V11.9678H7.11899V8.9687H4.09665V7.46919H7.11899V4.47003H8.63016V7.46919H11.6524L11.6523 8.9687Z" fill="url(#paint0_linear_1566_14476)"/>
<defs>
<linearGradient id="paint0_linear_1566_14476" x1="0.318848" y1="0.721191" x2="0.318848" y2="15.7167" gradientUnits="userSpaceOnUse">
<stop stop-color="#FE6587"/>
<stop offset="1" stop-color="#F52D6A"/>
</linearGradient>
</defs>
</svg>
