<svg width="7" height="6" viewBox="0 0 7 6" fill="none" xmlns="http://www.w3.org/2000/svg">
<path fill-rule="evenodd" clip-rule="evenodd" d="M4.48214 1.05362L4.52893 1.06089L4.57572 1.07542L4.61894 1.09722L4.65496 1.12629L4.68735 1.15896L4.78456 1.2861L4.87094 1.41683L4.94629 1.55117L5.01112 1.68918L5.0685 1.83445L5.11529 1.97972L5.15488 2.1286L5.18038 2.28114L5.19479 2.43728V2.74595L5.18038 2.89123L5.15877 3.0365L5.12638 3.17798L5.08679 3.31598L5.03637 3.45399L4.979 3.58472L4.91059 3.71546L4.83499 3.83893L4.74867 3.95893L4.71629 3.99527L4.68027 4.02793L4.63705 4.04974L4.59026 4.06787L4.54346 4.07514H4.47863L4.43547 4.0606L4.39589 4.04607L4.3563 4.02427L4.32028 3.9952L4.28426 3.95527L4.25188 3.91533L4.22638 3.87173L4.2084 3.82453L4.2012 3.77366V3.72286L4.2084 3.67566L4.22638 3.62845L4.25188 3.58485L4.32748 3.47225L4.39225 3.35965L4.44963 3.23978L4.49642 3.11991L4.53244 2.99277L4.55794 2.86563L4.57234 2.73489L4.57955 2.60415V2.47721L4.56157 2.35374L4.53996 2.23027L4.50757 2.1104L4.46435 1.99419L4.41393 1.88159L4.35655 1.76899L4.29172 1.66365L4.21573 1.56211L4.18692 1.51851L4.16894 1.4713L4.15817 1.42063V1.36976L4.16537 1.31889L4.17978 1.27169L4.20528 1.22449L4.2413 1.18089L4.28088 1.14095L4.3169 1.11189L4.35649 1.08616L4.39971 1.07163L4.4465 1.06436H4.49693L4.48214 1.05362ZM3.18613 0.389063L3.24012 0.39633L3.29055 0.414465L3.33734 0.440188L3.37693 0.476522L3.40931 0.520123L3.43481 0.567325L3.44922 0.618193V4.56529L3.43124 4.61976L3.40574 4.66696L3.37336 4.71056L3.33377 4.74323L3.28698 4.7723L3.24739 4.78683L3.2078 4.7941H3.11779L3.071 4.77957L3.02421 4.75777L2.98462 4.7287L1.43654 3.44325H0.612084L0.55471 3.43598L0.500714 3.42145L0.453922 3.39238L0.410766 3.35971L0.374748 3.31611L0.349247 3.26891L0.331271 3.21444V3.15997L0.327637 2.02693V1.96905L0.349247 1.91458L0.374748 1.86371L0.410766 1.82011L0.453922 1.78744L0.500714 1.76172L0.55471 1.74719H0.612084L1.43648 1.74358L2.98449 0.454336L3.02771 0.425269L3.07814 0.403469L3.13213 0.3926H3.18613V0.389063ZM5.44697 0.0694525L5.49377 0.0767192L5.54056 0.0875873L5.58378 0.105722L5.6198 0.131445L5.65582 0.164114L5.77821 0.309386L5.88984 0.461924L5.99783 0.618065L6.09504 0.781471L6.18142 0.944878L6.2606 1.11555L6.33257 1.28989L6.39377 1.46783L6.44777 1.64577L6.49099 1.82738L6.52701 2.01258L6.55251 2.20146L6.56328 2.39033L6.57048 2.5792L6.56328 2.77894L6.54887 2.97508L6.52006 3.17122L6.48404 3.3637L6.43725 3.55257L6.38325 3.74144L6.31848 3.92305L6.23931 4.10465L6.15293 4.27899L6.05552 4.44922L5.9511 4.61642L5.83954 4.77982L5.71714 4.93596L5.68112 4.96863L5.64154 4.99436L5.60195 5.01616L5.55516 5.03069H5.50837L5.49396 5.03429H5.45074L5.40758 5.02342L5.36799 5.00529L5.33197 4.98349L5.29595 4.95442L5.25994 4.91809L5.22392 4.87449L5.19842 4.82728L5.18401 4.77642L5.17681 4.72195V4.67108L5.19122 4.62021L5.21283 4.56934L5.24164 4.52574L5.3532 4.38774L5.45399 4.24247L5.54757 4.09359L5.63044 3.93745L5.70242 3.77405L5.76725 3.61064L5.82462 3.44344L5.87141 3.27277L5.90743 3.09843L5.93293 2.92409L5.94734 2.74975V2.40094L5.93293 2.23027L5.91132 2.06307L5.87894 1.89587L5.83935 1.73246L5.78535 1.57265L5.72798 1.41651L5.65958 1.26397L5.58378 1.11195L5.50091 0.966679L5.40726 0.825201L5.30647 0.690861L5.19848 0.560123L5.16967 0.523789L5.14806 0.480188L5.13365 0.436587L5.12645 0.385719V0.338517L5.13722 0.291315L5.15163 0.247714L5.17713 0.204114L5.20951 0.167779L5.24553 0.127844L5.28155 0.0987769L5.32113 0.0769766L5.36429 0.0588416L5.41108 0.0479736H5.45788L5.44697 0.0694525Z" fill="url(#paint0_linear_1_2015)"/>
<defs>
<linearGradient id="paint0_linear_1_2015" x1="0.327637" y1="0.0479736" x2="0.327637" y2="5.03429" gradientUnits="userSpaceOnUse">
<stop stop-color="#FE6587"/>
<stop offset="1" stop-color="#F52D6A"/>
</linearGradient>
</defs>
</svg>
