<svg width="20" height="20" viewBox="0 0 20 20" fill="none" xmlns="http://www.w3.org/2000/svg">
<g clip-path="url(#clip0_1566_12386)">
<path d="M9.99179 0C7.66292 0.000462064 5.40731 0.81415 3.61448 2.30055C1.82165 3.78695 0.60414 5.85275 0.172208 8.14122C-0.259724 10.4297 0.121032 12.7971 1.24873 14.8348C2.37642 16.8724 4.18026 18.4523 6.34874 19.3016C6.25822 18.5121 6.18427 17.295 6.38157 16.4322C6.56246 15.651 7.55002 11.4651 7.55002 11.4651C7.34909 10.9978 7.24832 10.4936 7.25421 9.98491C7.25421 8.59461 8.06015 7.55927 9.06339 7.55927C9.91872 7.55927 10.3299 8.20059 10.3299 8.96541C10.3299 9.82074 9.78708 11.1037 9.49926 12.2961C9.26069 13.2912 10.001 14.1052 10.9795 14.1052C12.7558 14.1052 14.121 12.2303 14.121 9.53292C14.121 7.13982 12.4022 5.47041 9.94327 5.47041C7.09788 5.47041 5.42847 7.60024 5.42847 9.80403C5.42847 10.6592 5.75742 11.5802 6.168 12.0818C6.20308 12.1199 6.2276 12.1664 6.23914 12.2169C6.25069 12.2674 6.24885 12.32 6.23382 12.3696C6.15986 12.6821 5.98711 13.3647 5.95428 13.5045C5.91316 13.6853 5.80637 13.7263 5.61705 13.6361C4.36681 13.051 3.58558 11.2335 3.58558 9.76173C3.58558 6.61135 5.87175 3.71729 10.1891 3.71729C13.6514 3.71729 16.3487 6.18435 16.3487 9.49032C16.3487 12.9365 14.1776 15.7074 11.1678 15.7074C10.1563 15.7074 9.20227 15.1811 8.88161 14.5561C8.88161 14.5561 8.37992 16.464 8.25657 16.9327C8.03471 17.8044 7.42593 18.89 7.01416 19.5561C8.38846 19.9806 9.83814 20.1035 11.2643 19.9167C12.6904 19.7299 14.0595 19.2376 15.2781 18.4735C16.4967 17.7093 17.5361 16.6914 18.3254 15.4889C19.1148 14.2865 19.6355 12.928 19.852 11.5061C20.0685 10.0841 19.9757 8.63219 19.58 7.24935C19.1843 5.86651 18.495 4.5853 17.559 3.49313C16.6231 2.40096 15.4625 1.52353 14.1566 0.920697C12.8507 0.317868 11.4301 0.00382676 9.99179 0" fill="#C40027"/>
</g>
<defs>
<clipPath id="clip0_1566_12386">
<rect width="19.9672" height="20" fill="white"/>
</clipPath>
</defs>
</svg>
