<svg width="29" height="29" viewBox="0 0 29 29" fill="none" xmlns="http://www.w3.org/2000/svg">
<g clip-path="url(#clip0_4001_2327)">
<path d="M0.418001 12.3744L3.32512 11.6474C3.61527 10.5757 4.03327 9.55735 4.59691 8.61351L3.05275 6.05102C2.90711 5.83313 2.9438 5.54186 3.12501 5.36065L5.35954 3.12612C5.54075 2.9438 5.83202 2.90823 6.04991 3.05386L8.61129 4.59802C9.55624 4.0355 10.5734 3.6175 11.6462 3.32623L12.3733 0.436901C12.4278 0.18232 12.6646 0 12.918 0H16.0619C16.3343 0 16.5522 0.18232 16.6256 0.436901L17.3337 3.32623C18.4243 3.6175 19.4415 4.0355 20.3687 4.59802L22.9312 3.05386C23.1669 2.90823 23.4581 2.94491 23.6393 3.12612L25.8561 5.36065C26.0373 5.54186 26.074 5.83313 25.9473 6.05102L24.3853 8.61351C24.9489 9.55846 25.3847 10.5757 25.6571 11.6474L28.5642 12.3744C28.8188 12.4289 29 12.6657 29 12.9192V16.0631C29 16.3354 28.8188 16.5533 28.5642 16.6267L25.6571 17.3349C25.3847 18.4254 24.9489 19.4427 24.3853 20.3687L25.9473 22.949C26.0751 23.1669 26.0384 23.4581 25.8561 23.6393L23.6393 25.8561C23.4581 26.0384 23.1669 26.074 22.9312 25.9473L20.3687 24.4031C19.4415 24.9478 18.4243 25.3847 17.3337 25.6571L16.6256 28.5642C16.5533 28.8188 16.3343 29 16.0619 29H12.918C12.6635 29 12.4278 28.8188 12.3733 28.5642L11.6462 25.6571C10.5746 25.3847 9.55624 24.9478 8.61129 24.4031L6.04991 25.9473C5.83202 26.0751 5.54075 26.0384 5.35954 25.8561L3.12501 23.6393C2.9438 23.4581 2.90711 23.1669 3.05275 22.949L4.59691 20.3687C4.03327 19.4427 3.61527 18.4243 3.32512 17.3349L0.418001 16.6267C0.16342 16.5544 0 16.3365 0 16.0631V12.9192C0 12.6646 0.16342 12.4289 0.418001 12.3744ZM14.5 22.6766C19.0058 22.6766 22.6766 19.0058 22.6766 14.5C22.6766 9.99425 19.0058 6.3056 14.5 6.3056C9.99425 6.3056 6.3056 9.97646 6.3056 14.5C6.3056 19.0235 9.97535 22.6766 14.5 22.6766Z" fill="white"/>
<path d="M10.6481 16.4077L11.7932 15.8986C12.538 16.5534 13.483 16.9525 14.5013 16.9525C15.5196 16.9525 16.4457 16.5522 17.1905 15.8986L18.3356 16.4077C19.0627 16.7346 19.6619 17.2982 20.0254 17.9708C18.8803 19.8062 16.827 21.0413 14.5013 21.0413C12.1756 21.0413 10.1045 19.8062 8.95945 17.9708C9.32298 17.2982 9.92219 16.7346 10.6492 16.4077H10.6481Z" fill="white"/>
<path d="M14.4946 15.6817C12.8237 15.6817 11.4696 14.1042 11.4696 12.1598C11.4696 10.2155 12.8237 8.63794 14.4946 8.63794C16.1655 8.63794 17.5195 10.2155 17.5195 12.1598C17.5195 14.1042 16.1655 15.6817 14.4946 15.6817Z" fill="white"/>
</g>
<defs>
<clipPath id="clip0_4001_2327">
<rect width="29" height="29" fill="white" transform="matrix(-1 0 0 1 29 0)"/>
</clipPath>
</defs>
</svg>
