<svg width="12" height="12" viewBox="0 0 12 12" fill="none" xmlns="http://www.w3.org/2000/svg">
<path d="M5.72944 0.0800781C6.81977 0.0800877 7.88561 0.400646 8.79217 1.00122C9.69874 1.60179 10.4053 2.4554 10.8226 3.4541C11.2398 4.45281 11.349 5.55175 11.1363 6.61196C10.9235 7.67218 10.3985 8.64605 9.62751 9.41042C8.85653 10.1748 7.87424 10.6953 6.80487 10.9062C5.73549 11.1171 4.62706 11.0089 3.61973 10.5952C2.6124 10.1815 1.75143 9.48097 1.14567 8.58216C0.539924 7.68335 0.216606 6.62664 0.216606 5.54565C0.217149 4.09625 0.79814 2.70636 1.83188 1.68149C2.86562 0.656607 4.26752 0.0806036 5.72944 0.0800781ZM6.2806 9.87987C7.34623 9.74814 8.32659 9.23489 9.03726 8.43669C9.74794 7.63849 10.1399 6.61034 10.1395 5.54565C10.1377 5.21629 10.0989 4.88815 10.0237 4.5673L7.3831 7.18534V7.73177C7.38223 8.02141 7.2658 8.29895 7.05921 8.50377C6.85263 8.70858 6.5727 8.82402 6.28055 8.82487L6.2806 9.87987ZM2.47677 8.4916C2.54668 8.27069 2.68607 8.07776 2.87454 7.94106C3.06302 7.80435 3.29068 7.73105 3.5242 7.73186H4.07535V6.09223C4.07582 5.94745 4.13403 5.80873 4.23729 5.70635C4.34055 5.60398 4.48047 5.54626 4.62651 5.5458H7.93454V4.45255H6.83199C6.68596 4.45209 6.54604 4.39437 6.44278 4.292C6.33952 4.18962 6.2813 4.0509 6.28084 3.90612V2.81287H5.17829C4.88614 2.81201 4.60621 2.69657 4.39963 2.49176C4.19304 2.28695 4.07661 2.00941 4.07574 1.71976V1.49568C3.41598 1.75912 2.83045 2.17721 2.36933 2.71411C1.90821 3.25102 1.58524 3.89074 1.42807 4.57849C1.27091 5.26623 1.28424 5.9815 1.46692 6.66302C1.64961 7.34454 1.9962 7.972 2.47701 8.49165L2.47677 8.4916Z" fill="url(#paint0_linear_2166_1466)"/>
<defs>
<linearGradient id="paint0_linear_2166_1466" x1="11.2422" y1="5.54566" x2="0.216606" y2="5.54566" gradientUnits="userSpaceOnUse">
<stop stop-color="#478FE4"/>
<stop offset="1" stop-color="#5CD3C6"/>
</linearGradient>
</defs>
</svg>
