<svg width="15" height="16" viewBox="0 0 15 16" fill="none" xmlns="http://www.w3.org/2000/svg">
<path d="M3.65933 5.36303C3.53281 5.5197 3.46191 5.73054 3.46191 5.95017C3.46191 6.1698 3.53281 6.38064 3.65933 6.53731L7.04408 10.6424C7.16822 10.793 7.33526 10.8796 7.51053 10.8843C7.68579 10.8889 7.8558 10.8113 7.98525 10.6675L11.3206 6.61829C11.3878 6.54253 11.4417 6.45108 11.4792 6.3494C11.5167 6.24773 11.5369 6.13791 11.5387 6.02651C11.5405 5.91511 11.5239 5.8044 11.4897 5.70101C11.4556 5.59761 11.4047 5.50365 11.34 5.42472C11.2754 5.34579 11.1983 5.28352 11.1134 5.24162C11.0286 5.19972 10.9376 5.17906 10.846 5.18086C10.7545 5.18266 10.6641 5.20689 10.5804 5.2521C10.4967 5.29732 10.4213 5.36259 10.3588 5.44402L7.49745 8.88306L4.62804 5.35885C4.56443 5.28127 4.48881 5.2198 4.40555 5.17799C4.32229 5.13618 4.23304 5.11485 4.14297 5.11524C4.0529 5.11563 3.96378 5.13773 3.88077 5.18026C3.79776 5.22279 3.7225 5.28491 3.65933 5.36303Z" fill="#FF0000"/>
<path d="M1.10076e-07 8C1.10076e-07 9.48336 0.439867 10.9334 1.26398 12.1668C2.08809 13.4001 3.25943 14.3614 4.62987 14.9291C6.00032 15.4967 7.50832 15.6453 8.96317 15.3559C10.418 15.0665 11.7544 14.3522 12.8033 13.3033C13.8522 12.2544 14.5665 10.918 14.8559 9.46317C15.1453 8.00832 14.9967 6.50032 14.4291 5.12987C13.8614 3.75943 12.9001 2.58809 11.6668 1.76398C10.4334 0.939867 8.98336 0.5 7.5 0.5C6.51504 0.499831 5.53969 0.693709 4.62967 1.07056C3.71966 1.44741 2.8928 1.99985 2.19632 2.69632C1.49985 3.3928 0.94741 4.21966 0.57056 5.12967C0.193709 6.03969 -0.000168649 7.01504 1.10076e-07 8ZM11.9797 3.51387C13.0155 4.55155 13.6595 5.91628 13.8019 7.37552C13.9442 8.83476 13.5763 10.2982 12.7606 11.5166C11.945 12.7349 10.7321 13.6328 9.32867 14.0571C7.92525 14.4815 6.41811 14.4061 5.06404 13.8438C3.70998 13.2815 2.59276 12.2671 1.90276 10.9735C1.21276 9.6798 0.992657 8.18691 1.27996 6.74916C1.56727 5.31141 2.3442 4.01776 3.47838 3.08863C4.61257 2.1595 6.03383 1.65237 7.5 1.65365C8.33261 1.65205 9.15727 1.81565 9.92622 2.13496C10.6952 2.45427 11.3931 2.92296 11.9797 3.51387Z" fill="#FF0000"/>
</svg>
