<svg width="20" height="20" viewBox="0 0 20 20" fill="none" xmlns="http://www.w3.org/2000/svg">
<g clip-path="url(#clip0_1566_12423)">
<path d="M20 10C20 11.9778 19.4135 13.9112 18.3147 15.5557C17.2159 17.2002 15.6541 18.4819 13.8268 19.2388C11.9996 19.9957 9.98891 20.1937 8.0491 19.8079C6.10929 19.422 4.32746 18.4696 2.92894 17.0711C1.53041 15.6725 0.578004 13.8907 0.192152 11.9509C-0.193701 10.0111 0.00433286 8.00043 0.761209 6.17317C1.51809 4.3459 2.79981 2.78412 4.4443 1.6853C6.08879 0.58649 8.02219 0 10 0C12.6522 0 15.1957 1.05357 17.0711 2.92893C18.9464 4.8043 20 7.34784 20 10Z" fill="#DC4711"/>
<path d="M16.665 9.9999C16.6652 9.71372 16.5812 9.43381 16.4233 9.19509C16.2655 8.95636 16.0409 8.7694 15.7775 8.65752C15.5141 8.54564 15.2236 8.5138 14.9422 8.56596C14.6608 8.61813 14.401 8.75199 14.1952 8.95086C13.1985 8.23145 11.8248 7.76686 10.2952 7.71353L10.9595 4.5876L13.13 5.04893C13.1418 5.3025 13.2457 5.54307 13.4221 5.72554C13.5986 5.90801 13.8356 6.01984 14.0886 6.04008C14.3416 6.06031 14.5934 5.98756 14.7966 5.83545C14.9998 5.68335 15.1406 5.46234 15.1925 5.21387C15.2444 4.96539 15.2039 4.70651 15.0786 4.48576C14.9533 4.26501 14.7518 4.09755 14.5118 4.01477C14.2718 3.93199 14.0099 3.93958 13.7751 4.03612C13.5404 4.13266 13.3489 4.31152 13.2365 4.53916L10.8131 4.02449C10.7796 4.01727 10.7451 4.01674 10.7114 4.02292C10.6776 4.02911 10.6455 4.04188 10.6167 4.06052C10.588 4.07916 10.5632 4.10329 10.5438 4.13153C10.5244 4.15977 10.5108 4.19156 10.5037 4.22508L9.76292 7.71249C8.21018 7.7556 6.81477 8.22079 5.80514 8.94804C5.65183 8.80095 5.46821 8.68916 5.26714 8.62049C5.06608 8.55182 4.85243 8.52795 4.64117 8.55053C4.42991 8.57312 4.22614 8.64162 4.04413 8.75124C3.86213 8.86086 3.70629 9.00894 3.58754 9.18512C3.46879 9.3613 3.38999 9.56132 3.35666 9.77115C3.32334 9.98099 3.33629 10.1956 3.39462 10.3999C3.45295 10.6042 3.55524 10.7933 3.69433 10.9539C3.83342 11.1145 4.00594 11.2427 4.19981 11.3297C4.17687 11.4756 4.16523 11.623 4.16499 11.7707C4.16499 14.0144 6.7767 15.8332 9.99833 15.8332C13.22 15.8332 15.8317 14.0147 15.8317 11.7707C15.8315 11.624 15.82 11.4775 15.7974 11.3325C16.0557 11.2182 16.2751 11.0313 16.4291 10.7946C16.5831 10.5579 16.6651 10.2815 16.665 9.99916M6.66662 11.0417C6.66656 10.8356 6.72761 10.6342 6.84203 10.4628C6.95645 10.2915 7.11912 10.1579 7.30946 10.079C7.49979 10.0001 7.70925 9.97942 7.91135 10.0196C8.11345 10.0597 8.2991 10.1589 8.44484 10.3045C8.59058 10.4502 8.68985 10.6358 8.7301 10.8378C8.77036 11.0399 8.74979 11.2494 8.67099 11.4398C8.5922 11.6302 8.45871 11.7929 8.28743 11.9074C8.11614 12.0219 7.91474 12.0831 7.7087 12.0832C7.43252 12.0828 7.16774 11.973 6.9724 11.7778C6.77705 11.5826 6.66709 11.3178 6.66662 11.0417ZM12.4751 13.7943C11.764 14.5042 10.401 14.5593 10.001 14.5593C9.60099 14.5593 8.23803 14.5042 7.52781 13.7941C7.47899 13.7431 7.45209 13.675 7.45287 13.6044C7.45365 13.5338 7.48206 13.4663 7.53199 13.4164C7.58193 13.3665 7.64944 13.3381 7.72004 13.3373C7.79065 13.3366 7.85874 13.3635 7.90973 13.4123C8.35773 13.8605 9.31714 14.0197 10.001 14.0197C10.6848 14.0197 11.6445 13.8608 12.0934 13.4123C12.1441 13.3618 12.2128 13.3334 12.2844 13.3334C12.356 13.3335 12.4246 13.362 12.4752 13.4126C12.5258 13.4633 12.5542 13.532 12.5541 13.6036C12.5541 13.6752 12.5256 13.7438 12.4749 13.7944M12.2917 12.0835C12.0856 12.0835 11.8842 12.0224 11.7128 11.9079C11.5415 11.7935 11.4079 11.6308 11.3291 11.4404C11.2502 11.25 11.2296 11.0406 11.2697 10.8385C11.3099 10.6364 11.4092 10.4507 11.5549 10.305C11.7006 10.1593 11.8862 10.0601 12.0883 10.0199C12.2904 9.97971 12.4999 10.0004 12.6903 10.0792C12.8806 10.1581 13.0433 10.2916 13.1578 10.463C13.2722 10.6343 13.3333 10.8358 13.3333 11.0418C13.333 11.318 13.2231 11.5827 13.0279 11.778C12.8326 11.9733 12.5678 12.0831 12.2917 12.0835Z" fill="white"/>
</g>
<defs>
<clipPath id="clip0_1566_12423">
<rect width="20" height="20" fill="white"/>
</clipPath>
</defs>
</svg>
