<svg width="77" height="19" viewBox="0 0 77 19" fill="none" xmlns="http://www.w3.org/2000/svg">
<rect x="0.5" y="1.40295" width="76" height="16.1942" rx="8.09709" fill="#EAEAEA" stroke="#7D7D7D"/>
<g clip-path="url(#clip0_5522_6909)">
<path d="M10.1541 12.0201L9.5338 10.363C9.35581 9.88764 8.97821 9.51266 8.49921 9.33597L6.82992 8.72017C6.69412 8.67004 6.69412 8.47948 6.82992 8.42935L8.49921 7.81355C8.97808 7.63685 9.35581 7.26201 9.5338 6.78651L10.1541 5.12941C10.2046 4.9946 10.3966 4.9946 10.4471 5.12941L11.0674 6.78651C11.2454 7.26187 11.623 7.63685 12.102 7.81355L13.7713 8.42935C13.9071 8.47948 13.9071 8.67004 13.7713 8.72017L12.102 9.33597C11.6232 9.51266 11.2454 9.88751 11.0674 10.363L10.4471 12.0201C10.3966 12.1549 10.2046 12.1549 10.1541 12.0201Z" fill="#7D7D7D"/>
<path d="M15.067 14.2871L14.6244 13.1046C14.4974 12.7653 14.228 12.4978 13.8862 12.3718L12.695 11.9324C12.5981 11.8967 12.5981 11.7607 12.695 11.7249L13.8862 11.2856C14.228 11.1595 14.4974 10.892 14.6244 10.5528L15.067 9.37024C15.103 9.27404 15.24 9.27404 15.276 9.37024L15.7186 10.5528C15.8456 10.892 16.1151 11.1595 16.4568 11.2856L17.648 11.7249C17.7449 11.7607 17.7449 11.8967 17.648 11.9324L16.4568 12.3718C16.1151 12.4978 15.8456 12.7653 15.7186 13.1046L15.276 14.2871C15.24 14.3833 15.103 14.3833 15.067 14.2871Z" fill="#7D7D7D"/>
<path d="M15.9694 7.60119L15.6405 6.72231C15.5461 6.47023 15.3458 6.27142 15.0919 6.17771L14.2065 5.85116C14.1345 5.82459 14.1345 5.72355 14.2065 5.69698L15.0919 5.37043C15.3458 5.27672 15.5461 5.0779 15.6405 4.82582L15.9694 3.94695C15.9962 3.87549 16.098 3.87549 16.1248 3.94695L16.4537 4.82582C16.5481 5.0779 16.7484 5.27672 17.0023 5.37043L17.8877 5.69698C17.9596 5.72355 17.9596 5.82459 17.8877 5.85116L17.0023 6.17771C16.7484 6.27142 16.5481 6.47023 16.4537 6.72231L16.1248 7.60119C16.098 7.67265 15.9962 7.67265 15.9694 7.60119Z" fill="#7D7D7D"/>
</g>
<path d="M25.8317 11.136H24.9917L24.1337 9.90599C24.0797 9.91199 24.0257 9.91199 23.9717 9.91199H23.0237V11.136H22.2437V6.93599H23.9717C25.0757 6.93599 25.7597 7.49999 25.7597 8.42999C25.7597 9.06599 25.4357 9.53399 24.8657 9.75599L25.8317 11.136ZM24.9737 8.42999C24.9737 7.90199 24.6197 7.59599 23.9357 7.59599H23.0237V9.26999H23.9357C24.6197 9.26999 24.9737 8.95799 24.9737 8.42999ZM29.5724 9.55199C29.5724 9.61199 29.5664 9.70199 29.5604 9.77399H27.0464C27.1364 10.242 27.5264 10.542 28.0844 10.542C28.4444 10.542 28.7264 10.428 28.9544 10.194L29.3564 10.656C29.0684 10.998 28.6184 11.178 28.0664 11.178C26.9924 11.178 26.2964 10.488 26.2964 9.53399C26.2964 8.57999 26.9984 7.89599 27.9524 7.89599C28.8884 7.89599 29.5724 8.54999 29.5724 9.55199ZM27.9524 8.49599C27.4664 8.49599 27.1124 8.80799 27.0404 9.27599H28.8584C28.7984 8.81399 28.4444 8.49599 27.9524 8.49599ZM34.5662 7.93199H35.2322L34.0502 11.136H33.3302L32.5022 8.92799L31.6622 11.136H30.9422L29.7662 7.93199H30.4742L31.3202 10.296L32.2022 7.93199H32.8322L33.6962 10.308L34.5662 7.93199ZM36.4619 8.39999C36.6779 8.06399 37.0679 7.89599 37.6019 7.89599V8.60999C37.5359 8.59799 37.4819 8.59199 37.4279 8.59199C36.8579 8.59199 36.4979 8.92799 36.4979 9.58199V11.136H35.7479V7.93199H36.4619V8.39999ZM38.6161 7.40399C38.3401 7.40399 38.1361 7.20599 38.1361 6.95399C38.1361 6.70199 38.3401 6.50399 38.6161 6.50399C38.8921 6.50399 39.0961 6.68999 39.0961 6.93599C39.0961 7.19999 38.8981 7.40399 38.6161 7.40399ZM38.2381 11.136V7.93199H38.9881V11.136H38.2381ZM41.6885 10.428L41.8985 10.962C41.7185 11.106 41.4485 11.178 41.1785 11.178C40.4765 11.178 40.0745 10.806 40.0745 10.098V8.55599H39.5465V7.95599H40.0745V7.22399H40.8245V7.95599H41.6825V8.55599H40.8245V10.08C40.8245 10.392 40.9805 10.56 41.2685 10.56C41.4245 10.56 41.5745 10.518 41.6885 10.428ZM45.422 9.55199C45.422 9.61199 45.416 9.70199 45.41 9.77399H42.896C42.986 10.242 43.376 10.542 43.934 10.542C44.294 10.542 44.576 10.428 44.804 10.194L45.206 10.656C44.918 10.998 44.468 11.178 43.916 11.178C42.842 11.178 42.146 10.488 42.146 9.53399C42.146 8.57999 42.848 7.89599 43.802 7.89599C44.738 7.89599 45.422 8.54999 45.422 9.55199ZM43.802 8.49599C43.316 8.49599 42.962 8.80799 42.89 9.27599H44.708C44.648 8.81399 44.294 8.49599 43.802 8.49599ZM52.1326 7.93199H52.7986L51.6166 11.136H50.8966L50.0686 8.92799L49.2286 11.136H48.5086L47.3326 7.93199H48.0406L48.8866 10.296L49.7686 7.93199H50.3986L51.2626 10.308L52.1326 7.93199ZM53.6923 7.40399C53.4163 7.40399 53.2123 7.20599 53.2123 6.95399C53.2123 6.70199 53.4163 6.50399 53.6923 6.50399C53.9683 6.50399 54.1723 6.68999 54.1723 6.93599C54.1723 7.19999 53.9743 7.40399 53.6923 7.40399ZM53.3143 11.136V7.93199H54.0643V11.136H53.3143ZM56.7646 10.428L56.9746 10.962C56.7946 11.106 56.5246 11.178 56.2546 11.178C55.5526 11.178 55.1506 10.806 55.1506 10.098V8.55599H54.6226V7.95599H55.1506V7.22399H55.9006V7.95599H56.7586V8.55599H55.9006V10.08C55.9006 10.392 56.0566 10.56 56.3446 10.56C56.5006 10.56 56.6506 10.518 56.7646 10.428ZM59.4096 7.89599C60.1776 7.89599 60.7476 8.33399 60.7476 9.29999V11.136H59.9976V9.39599C59.9976 8.82599 59.7156 8.54999 59.2356 8.54999C58.7016 8.54999 58.3416 8.87399 58.3416 9.51599V11.136H57.5916V6.68399H58.3416V8.30399C58.5876 8.03999 58.9656 7.89599 59.4096 7.89599ZM66.5732 11.136L66.1532 10.164H64.0532L63.6392 11.136H62.8352L64.7252 6.93599H65.4932L67.3892 11.136H66.5732ZM64.3172 9.55199H65.8952L65.1032 7.71599L64.3172 9.55199ZM67.9234 11.136V6.93599H68.7034V11.136H67.9234Z" fill="#7D7D7D"/>
<defs>
<clipPath id="clip0_5522_6909">
<rect width="11.2136" height="10.466" fill="white" transform="matrix(-1 0 0 -1 17.9418 14.3593)"/>
</clipPath>
</defs>
</svg>
