<svg width="19" height="19" viewBox="0 0 19 19" fill="none" xmlns="http://www.w3.org/2000/svg">
<g clip-path="url(#clip0_956_16718)">
<path d="M18.4858 16.3L14.9998 12.8441C14.9214 12.7667 14.8283 12.7053 14.7259 12.6637C14.6235 12.6221 14.5137 12.601 14.403 12.6016H13.8351C14.9738 11.1551 15.513 9.3326 15.3429 7.5056C15.1727 5.6786 14.306 3.98472 12.9195 2.76935C11.533 1.55398 9.73113 0.908653 7.88121 0.964943C6.0313 1.02123 4.2727 1.77491 2.964 3.07228C1.6553 4.36966 0.895046 6.11305 0.838264 7.94695C0.781482 9.78086 1.43245 11.5672 2.65842 12.9417C3.8844 14.3162 5.59306 15.1754 7.43601 15.344C9.27896 15.5127 11.1174 14.9781 12.5765 13.8493V14.4133C12.5759 14.5231 12.5971 14.6318 12.6391 14.7334C12.6811 14.8349 12.743 14.9272 12.8212 15.0049L16.3072 18.4608C16.3848 18.5382 16.4772 18.5997 16.5789 18.6416C16.6807 18.6835 16.7898 18.7051 16.8999 18.7051C17.0101 18.7051 17.1192 18.6835 17.2209 18.6416C17.3227 18.5997 17.415 18.5382 17.4927 18.4608L18.4823 17.4797C18.6393 17.3233 18.7278 17.1117 18.7284 16.8911C18.7291 16.6704 18.6419 16.4583 18.4858 16.301V16.3ZM8.10087 12.6026C7.21568 12.6026 6.35036 12.3424 5.61435 11.8548C4.87834 11.3673 4.30469 10.6744 3.96594 9.86362C3.62719 9.05288 3.53856 8.16077 3.71125 7.3001C3.88394 6.43943 4.3102 5.64885 4.93613 5.02834C5.56206 4.40783 6.35954 3.98525 7.22772 3.81406C8.0959 3.64286 8.9958 3.73072 9.81361 4.06654C10.6314 4.40236 11.3304 4.97105 11.8222 5.70069C12.314 6.43033 12.5765 7.28816 12.5765 8.16569C12.5767 8.74836 12.461 9.32536 12.2362 9.8637C12.0113 10.402 11.6816 10.8912 11.266 11.3031C10.8503 11.7151 10.3569 12.0418 9.81377 12.2646C9.27068 12.4874 8.68862 12.6019 8.10087 12.6016V12.6026Z" fill="white"/>
</g>
<defs>
<clipPath id="clip0_956_16718">
<rect width="17.901" height="17.749" fill="white" transform="translate(0.828491 0.955505)"/>
</clipPath>
</defs>
</svg>
