<svg width="32" height="33" viewBox="0 0 32 33" fill="none" xmlns="http://www.w3.org/2000/svg">
<path d="M24.0002 19.1667C23.2124 19.1719 22.4356 19.3515 21.7255 19.6927C21.0155 20.0339 20.3898 20.5282 19.8935 21.14L13.0935 18.0067C13.4132 17.0277 13.4132 15.9723 13.0935 14.9933L19.8935 11.86C20.6957 12.8279 21.814 13.4814 23.0511 13.7051C24.2881 13.9288 25.5645 13.7083 26.6548 13.0825C27.7451 12.4568 28.5794 11.466 29.0103 10.285C29.4412 9.104 29.4411 7.80877 29.0099 6.62787C28.5788 5.44697 27.7444 4.45631 26.654 3.83075C25.5635 3.20518 24.2871 2.98491 23.0501 3.20882C21.8131 3.43273 20.6949 4.08642 19.8929 5.05452C19.0909 6.02262 18.6567 7.24289 18.6669 8.49999C18.6709 8.81763 18.7021 9.13435 18.7602 9.44666L11.7202 12.6867C10.9696 11.9528 10.0192 11.4567 8.98794 11.2606C7.95669 11.0644 6.89049 11.177 5.92293 11.5842C4.95537 11.9913 4.12948 12.6749 3.54873 13.5494C2.96798 14.4239 2.6582 15.4503 2.6582 16.5C2.6582 17.5497 2.96798 18.5761 3.54873 19.4506C4.12948 20.325 4.95537 21.0087 5.92293 21.4158C6.89049 21.823 7.95669 21.9355 8.98794 21.7394C10.0192 21.5433 10.9696 21.0472 11.7202 20.3133L18.7602 23.5533C18.7021 23.8656 18.6709 24.1823 18.6669 24.5C18.6669 25.5548 18.9797 26.586 19.5657 27.463C20.1517 28.3401 20.9847 29.0237 21.9592 29.4273C22.9338 29.831 24.0061 29.9366 25.0407 29.7308C26.0752 29.5251 27.0256 29.0171 27.7714 28.2712C28.5173 27.5253 29.0253 26.575 29.2311 25.5405C29.4368 24.5059 29.3312 23.4336 28.9276 22.459C28.5239 21.4845 27.8403 20.6515 26.9632 20.0655C26.0862 19.4795 25.055 19.1667 24.0002 19.1667ZM24.0002 5.83332C24.5276 5.83332 25.0432 5.98972 25.4817 6.28274C25.9203 6.57576 26.262 6.99223 26.4639 7.4795C26.6657 7.96677 26.7185 8.50295 26.6156 9.02023C26.5127 9.53751 26.2588 10.0127 25.8858 10.3856C25.5129 10.7585 25.0377 11.0125 24.5204 11.1154C24.0032 11.2183 23.467 11.1655 22.9797 10.9637C22.4924 10.7618 22.076 10.42 21.7829 9.98151C21.4899 9.54298 21.3335 9.02741 21.3335 8.49999C21.3335 7.79275 21.6145 7.11447 22.1146 6.61437C22.6147 6.11427 23.293 5.83332 24.0002 5.83332ZM8.0002 19.1667C7.47278 19.1667 6.95721 19.0103 6.51868 18.7172C6.08015 18.4242 5.73835 18.0077 5.53652 17.5205C5.33469 17.0332 5.28188 16.497 5.38477 15.9797C5.48767 15.4625 5.74164 14.9873 6.11458 14.6144C6.48752 14.2414 6.96268 13.9875 7.47996 13.8846C7.99724 13.7817 8.53342 13.8345 9.02069 14.0363C9.50796 14.2381 9.92443 14.5799 10.2175 15.0185C10.5105 15.457 10.6669 15.9726 10.6669 16.5C10.6669 17.2072 10.3859 17.8855 9.88582 18.3856C9.38572 18.8857 8.70744 19.1667 8.0002 19.1667ZM24.0002 27.1667C23.4728 27.1667 22.9572 27.0103 22.5187 26.7172C22.0801 26.4242 21.7384 26.0077 21.5365 25.5205C21.3347 25.0332 21.2819 24.497 21.3848 23.9797C21.4877 23.4625 21.7416 22.9873 22.1146 22.6144C22.4875 22.2414 22.9627 21.9875 23.48 21.8846C23.9972 21.7817 24.5334 21.8345 25.0207 22.0363C25.508 22.2381 25.9244 22.5799 26.2175 23.0185C26.5105 23.457 26.6669 23.9726 26.6669 24.5C26.6669 25.2072 26.3859 25.8855 25.8858 26.3856C25.3857 26.8857 24.7074 27.1667 24.0002 27.1667Z" fill="white"/>
</svg>
