<svg width="20" height="20" viewBox="0 0 20 20" fill="none" xmlns="http://www.w3.org/2000/svg">
<g clip-path="url(#clip0_1566_12414)">
<path fill-rule="evenodd" clip-rule="evenodd" d="M20 10C20 11.9778 19.4135 13.9112 18.3147 15.5557C17.2159 17.2002 15.6541 18.4819 13.8268 19.2388C11.9996 19.9957 9.98891 20.1937 8.0491 19.8079C6.10929 19.422 4.32746 18.4696 2.92894 17.0711C1.53041 15.6725 0.578004 13.8907 0.192152 11.9509C-0.193701 10.0111 0.00433286 8.00043 0.761209 6.17317C1.51809 4.3459 2.79981 2.78412 4.4443 1.6853C6.08879 0.58649 8.02219 0 10 0C12.6522 0 15.1957 1.05357 17.0711 2.92893C18.9464 4.8043 20 7.34784 20 10Z" fill="#FEFB00"/>
<path d="M5.78764 7.66357C5.78764 7.62669 5.78764 7.59883 5.78764 7.57098C5.78956 7.3932 5.78764 7.21543 5.79415 7.03765C5.80386 6.65046 5.85265 6.26525 5.93978 5.88787C6.05968 5.39163 6.28503 4.92702 6.60052 4.52565C7.15098 3.82051 7.91906 3.31707 8.78527 3.09365C9.25083 2.97009 9.73253 2.91833 10.2137 2.94017C10.7267 2.95518 11.2333 3.05811 11.7115 3.24446C12.5086 3.54911 13.1869 4.10146 13.6467 4.82031C13.9013 5.2223 14.0731 5.67099 14.1522 6.14017C14.2193 6.53436 14.252 6.93364 14.2499 7.3335C14.2506 7.43957 14.2499 7.5455 14.2499 7.64713C14.2716 7.66906 14.2893 7.65439 14.3059 7.65098C14.4555 7.61817 14.6086 7.60438 14.7617 7.60994C14.9622 7.61708 15.1583 7.67047 15.3347 7.76594C15.4858 7.84608 15.6174 7.9584 15.7203 8.09496C15.8232 8.23153 15.8949 8.38902 15.9303 8.55631C15.9773 8.74841 15.9781 8.94891 15.9327 9.14139C15.8873 9.33386 15.797 9.51286 15.6691 9.66372C15.5406 9.82139 15.3886 9.95835 15.2185 10.0698C15.0789 10.1645 14.937 10.2554 14.7961 10.348L14.6236 10.4608C14.6054 10.4728 14.587 10.4846 14.5699 10.4981C14.53 10.5213 14.5002 10.5584 14.4861 10.6023C14.472 10.6462 14.4747 10.6938 14.4936 10.7359C14.5058 10.7713 14.5206 10.8057 14.538 10.8388C14.7218 11.2089 14.9701 11.5433 15.271 11.8264C15.5983 12.1358 15.9687 12.3962 16.3706 12.5994C16.4787 12.6553 16.587 12.7108 16.6933 12.7701C16.7865 12.8213 16.8721 12.8854 16.9475 12.9605C17.0903 13.1011 17.1791 13.2874 17.1983 13.4869C17.2175 13.6865 17.1658 13.8863 17.0524 14.0516C16.9414 14.2226 16.7928 14.366 16.618 14.471C16.4762 14.5562 16.3285 14.6312 16.1759 14.6953C16.0178 14.7618 15.8557 14.8186 15.6906 14.8654C15.6339 14.8819 15.5777 14.9014 15.5225 14.9224C15.4916 14.9339 15.4634 14.9517 15.4397 14.9747C15.416 14.9976 15.3972 15.0252 15.3847 15.0557C15.3682 15.0928 15.3525 15.1298 15.3379 15.168C15.2769 15.338 15.173 15.4894 15.0362 15.6073C14.8994 15.7253 14.7344 15.8058 14.5573 15.8411C14.4169 15.8715 14.274 15.8891 14.1305 15.8938C13.9713 15.9021 13.8121 15.9058 13.6531 15.9159C13.4005 15.9309 13.1506 15.9766 12.909 16.0519C12.805 16.0855 12.705 16.1305 12.6109 16.1861C12.4842 16.2602 12.359 16.3359 12.2333 16.4122C12.0164 16.5479 11.7899 16.6676 11.5556 16.7704C11.2278 16.9096 10.8818 17.0015 10.5281 17.0434C10.2178 17.0807 9.90429 17.0839 9.59327 17.0531C9.11983 17.0067 8.65956 16.8706 8.23712 16.6519C8.06215 16.5616 7.89341 16.4608 7.72571 16.3582C7.65371 16.3138 7.58112 16.2716 7.50971 16.2268C7.29787 16.0996 7.06431 16.0126 6.82082 15.9702C6.57488 15.9261 6.32577 15.902 6.07593 15.8981C5.91047 15.8956 5.74534 15.8824 5.58156 15.8587C5.45823 15.8396 5.33841 15.8024 5.22601 15.7482C4.9985 15.6383 4.81952 15.4484 4.72334 15.2148C4.70364 15.1691 4.68615 15.1222 4.66823 15.0757C4.65454 15.0373 4.63219 15.0025 4.60291 14.9741C4.57362 14.9457 4.53818 14.9244 4.49934 14.9119C4.44912 14.8948 4.3986 14.8787 4.34778 14.8642C4.05936 14.783 3.78104 14.6695 3.51815 14.5258C3.34373 14.4334 3.18947 14.3072 3.06438 14.1545C2.97366 14.0466 2.90758 13.9202 2.87075 13.7842C2.83305 13.6463 2.83123 13.5011 2.86546 13.3623C2.89968 13.2235 2.96882 13.0958 3.0663 12.9913C3.1338 12.9173 3.21165 12.8535 3.29741 12.8018C3.38772 12.7461 3.48088 12.6951 3.57652 12.6492C3.91928 12.4822 4.24153 12.276 4.53682 12.0348C4.8855 11.7538 5.17978 11.4113 5.40512 11.0243C5.44527 10.9541 5.47993 10.8805 5.51771 10.8088C5.53889 10.767 5.55268 10.7219 5.55845 10.6754C5.56211 10.6522 5.56044 10.6284 5.55356 10.6059C5.54669 10.5834 5.53478 10.5627 5.51875 10.5455C5.48622 10.5117 5.44941 10.4823 5.40927 10.4581C5.22112 10.3351 5.03312 10.2117 4.84527 10.0877C4.72504 10.0089 4.61258 9.91881 4.50941 9.81869C4.35207 9.67026 4.22989 9.48854 4.15178 9.28683C4.06762 9.06174 4.04989 8.8172 4.10071 8.58233C4.15153 8.34745 4.26876 8.13211 4.43845 7.96194C4.62128 7.78436 4.85485 7.66807 5.10675 7.6292C5.3044 7.59609 5.50663 7.60203 5.70201 7.64669C5.72615 7.65217 5.75045 7.65646 5.78838 7.66402" fill="black"/>
<path d="M13.4443 7.64797C13.4414 7.92293 13.4278 8.1973 13.4073 8.47152C13.4039 8.51819 13.4026 8.56515 13.4018 8.61197C13.4003 8.71374 13.4587 8.75523 13.56 8.7453C13.5973 8.74125 13.6339 8.73269 13.6691 8.71982C13.7691 8.68471 13.8683 8.64767 13.9673 8.60989C14.1321 8.54359 14.3012 8.48836 14.4734 8.44456C14.5881 8.41277 14.7086 8.408 14.8255 8.43063C14.8877 8.44316 14.9463 8.46946 14.997 8.50759C15.0476 8.54572 15.0891 8.59472 15.1184 8.65099C15.1477 8.70725 15.164 8.76936 15.1661 8.83275C15.1682 8.89614 15.1561 8.9592 15.1307 9.0173C15.1026 9.0836 15.0632 9.14447 15.0141 9.19715C14.9446 9.27339 14.866 9.34081 14.78 9.39789C14.6793 9.46619 14.5772 9.53256 14.4756 9.59967C14.3063 9.71123 14.1362 9.82189 13.9676 9.93478C13.8975 9.9816 13.8292 10.0312 13.7626 10.0829C13.7256 10.1117 13.6914 10.1437 13.6602 10.1786C13.6293 10.212 13.6057 10.2514 13.5907 10.2944C13.5758 10.3373 13.5699 10.3829 13.5734 10.4283C13.5793 10.5186 13.595 10.608 13.6202 10.6949C13.7026 10.9735 13.8211 11.2401 13.9728 11.4878C14.2493 11.9426 14.6035 12.3452 15.0193 12.6774C15.3723 12.9613 15.7566 13.204 16.1646 13.4007C16.2011 13.4185 16.2366 13.438 16.2716 13.4585C16.2987 13.4744 16.322 13.496 16.3399 13.5217C16.3535 13.5391 16.3615 13.5602 16.3629 13.5822C16.3643 13.6042 16.359 13.6261 16.3478 13.645C16.3272 13.6801 16.3 13.7108 16.2678 13.7355C16.2211 13.7723 16.171 13.8044 16.1181 13.8314C15.8865 13.9543 15.6412 14.0495 15.3873 14.1149C15.279 14.1446 15.1712 14.1752 15.0635 14.2071C14.9891 14.2305 14.9172 14.261 14.8486 14.2982C14.794 14.3256 14.7468 14.3657 14.7107 14.415C14.6746 14.4643 14.6508 14.5215 14.6412 14.5819C14.6275 14.6523 14.6192 14.7238 14.6064 14.7943C14.605 14.866 14.5761 14.9343 14.5257 14.9853C14.4753 15.0362 14.4072 15.0657 14.3356 15.0678C14.274 15.0781 14.2119 15.0849 14.1495 15.0881C13.9935 15.0967 13.8374 15.1009 13.6815 15.1097C13.3288 15.1258 12.9798 15.1879 12.6432 15.2945C12.5007 15.341 12.3635 15.4021 12.2335 15.4767C12.0956 15.5558 11.9595 15.6383 11.8233 15.7207C11.6095 15.8556 11.3844 15.9717 11.1506 16.0677C10.8883 16.1687 10.613 16.2322 10.3329 16.2563C10.0962 16.2776 9.85798 16.2749 9.62183 16.2481C9.27059 16.2085 8.92953 16.1051 8.61546 15.9429C8.4682 15.8675 8.32612 15.7829 8.18494 15.6969C8.08104 15.6334 7.97679 15.5706 7.8722 15.5084C7.62352 15.364 7.35303 15.2611 7.07131 15.2035C6.81486 15.1484 6.55405 15.1159 6.2919 15.1065C6.15457 15.1013 6.01723 15.0955 5.88005 15.0875C5.80206 15.0837 5.72464 15.0722 5.64894 15.053C5.59948 15.0433 5.55415 15.0188 5.519 14.9827C5.48385 14.9466 5.46054 14.9006 5.4522 14.8509C5.44005 14.7897 5.43042 14.7281 5.4199 14.6666C5.41783 14.6543 5.41723 14.6417 5.41546 14.6293C5.40844 14.5527 5.38076 14.4794 5.33536 14.4173C5.28996 14.3552 5.22855 14.3065 5.15768 14.2766C5.06384 14.2343 4.96692 14.1992 4.86775 14.1717C4.69664 14.1241 4.52375 14.0828 4.3562 14.0223C4.20917 13.9702 4.06646 13.9066 3.92938 13.8321C3.88835 13.8097 3.84835 13.7852 3.80968 13.758C3.78378 13.7408 3.75975 13.721 3.73798 13.6988C3.71934 13.6852 3.7045 13.667 3.69489 13.646C3.68527 13.625 3.6812 13.6019 3.68306 13.5789C3.68491 13.5559 3.69264 13.5338 3.7055 13.5146C3.71835 13.4954 3.73591 13.4799 3.75649 13.4694C3.8024 13.437 3.85155 13.4093 3.90316 13.3869C4.25998 13.214 4.59847 13.0055 4.91353 12.7647C5.3635 12.4252 5.74725 12.0059 6.04568 11.5277C6.20694 11.2711 6.33263 10.9939 6.41931 10.7035C6.44737 10.6108 6.46403 10.5151 6.46894 10.4183C6.47104 10.373 6.46392 10.3277 6.44801 10.2852C6.43209 10.2427 6.40771 10.2039 6.37635 10.1711C6.33785 10.1301 6.29554 10.0928 6.24998 10.0598C6.12005 9.96249 5.98464 9.87286 5.84879 9.78382C5.67649 9.67093 5.5036 9.55908 5.33116 9.44649C5.24417 9.39105 5.16235 9.32788 5.08672 9.25774C5.03162 9.20684 4.98377 9.14862 4.94449 9.08471C4.9053 9.02218 4.88241 8.95083 4.8779 8.87718C4.8734 8.80352 4.88743 8.72991 4.91872 8.66308C4.93865 8.61544 4.9682 8.57244 5.00552 8.53675C5.04284 8.50106 5.08713 8.47346 5.1356 8.45567C5.2445 8.41539 5.36236 8.40575 5.47635 8.42782C5.61136 8.45265 5.74381 8.48979 5.87205 8.53878C6.00405 8.58649 6.13457 8.63804 6.26583 8.68693C6.32653 8.71144 6.38964 8.72951 6.45412 8.74086C6.46931 8.7444 6.48477 8.74658 6.50035 8.74737C6.5759 8.745 6.63842 8.72041 6.63783 8.61908C6.63783 8.53493 6.63338 8.45049 6.62775 8.36723C6.59477 7.9123 6.58666 7.45592 6.60346 7.00011C6.61249 6.70974 6.64824 6.42082 6.71027 6.137C6.79748 5.74586 6.96786 5.37808 7.20983 5.05863C7.64997 4.47907 8.27194 4.06406 8.97605 3.88012C9.36539 3.77443 9.7687 3.72946 10.1718 3.74678C10.5969 3.75808 11.0171 3.84196 11.414 3.99478C11.7918 4.13706 12.1388 4.35044 12.4362 4.62337C12.8155 4.96202 13.0994 5.39429 13.2593 5.877C13.3287 6.10056 13.3767 6.33017 13.4029 6.56278C13.44 6.92324 13.4537 7.28573 13.4439 7.64797" fill="white"/>
</g>
<defs>
<clipPath id="clip0_1566_12414">
<rect width="20" height="20" fill="white"/>
</clipPath>
</defs>
</svg>
