<svg width="14" height="15" viewBox="0 0 14 15" fill="none" xmlns="http://www.w3.org/2000/svg">
<path d="M12.9426 6.99424L0.895748 0.574437C0.82959 0.552271 0.758467 0.549544 0.690817 0.566581C0.623166 0.583618 0.561828 0.619703 0.514078 0.670556C0.466328 0.721409 0.434171 0.784895 0.421421 0.853484C0.408671 0.922072 0.415863 0.992883 0.442145 1.05752L1.8257 5.80227C1.86571 5.93919 1.94696 6.06046 2.05838 6.14955C2.1698 6.23864 2.30597 6.29121 2.44833 6.30012L9.44762 7.26311C9.52088 7.26837 9.68271 7.29921 9.68224 7.37035C9.68177 7.4415 9.53043 7.48305 9.45663 7.48943L2.61011 8.00762C2.46082 8.01812 2.31898 8.07676 2.20587 8.17473C2.09277 8.27271 2.0145 8.40473 1.98283 8.55099L0.847782 13.7427C0.826753 13.8083 0.824642 13.8784 0.841691 13.9451C0.858739 14.0117 0.894255 14.0723 0.944156 14.1197C0.994056 14.1671 1.05632 14.1994 1.12378 14.213C1.19124 14.2266 1.26117 14.2209 1.32552 14.1965L12.9574 7.68018C13.0274 7.65323 13.0874 7.60534 13.1292 7.54304C13.1709 7.48075 13.1925 7.40708 13.1909 7.33208C13.1892 7.25708 13.1645 7.18439 13.1201 7.12394C13.0757 7.06348 13.0137 7.01819 12.9426 6.99424Z" fill="black"/>
</svg>
