<svg width="15" height="14" viewBox="0 0 15 14" fill="none" xmlns="http://www.w3.org/2000/svg">
<g clip-path="url(#clip0_1816_1843)">
<path d="M4.58281 10.871L3.75301 8.65433C3.51492 8.01846 3.00981 7.51686 2.36908 7.28051L0.136125 6.45677C-0.0455313 6.38972 -0.0455313 6.13481 0.136125 6.06775L2.36908 5.24402C3.00963 5.00766 3.51492 4.50624 3.75301 3.87019L4.58281 1.65355C4.65036 1.47322 4.90714 1.47322 4.97469 1.65355L5.80449 3.87019C6.04258 4.50607 6.54769 5.00766 7.18842 5.24402L9.42138 6.06775C9.60303 6.13481 9.60303 6.38972 9.42138 6.45677L7.18842 7.28051C6.54786 7.51686 6.04258 8.01828 5.80449 8.65433L4.97469 10.871C4.90714 11.0513 4.65036 11.0513 4.58281 10.871Z" fill="#7D7D7D"/>
<path d="M11.1545 13.9035L10.5624 12.3217C10.3926 11.8679 10.0321 11.51 9.57496 11.3414L7.98151 10.7537C7.85188 10.7059 7.85188 10.524 7.98151 10.4762L9.57496 9.88846C10.0321 9.71986 10.3926 9.362 10.5624 8.9082L11.1545 7.32639C11.2026 7.19771 11.3859 7.19771 11.434 7.32639L12.0261 8.9082C12.1959 9.362 12.5564 9.71986 13.0135 9.88846L14.607 10.4762C14.7366 10.524 14.7366 10.7059 14.607 10.7537L13.0135 11.3414C12.5564 11.51 12.1959 11.8679 12.0261 12.3217L11.434 13.9035C11.3859 14.0322 11.2026 14.0322 11.1545 13.9035Z" fill="#7D7D7D"/>
<path d="M12.3617 4.95992L11.9217 3.78428C11.7954 3.44709 11.5275 3.18114 11.1878 3.05579L10.0036 2.61897C9.90726 2.58343 9.90726 2.44827 10.0036 2.41273L11.1878 1.97592C11.5275 1.85056 11.7954 1.58462 11.9217 1.24742L12.3617 0.0717835C12.3975 -0.023808 12.5337 -0.023808 12.5695 0.0717835L13.0095 1.24742C13.1358 1.58462 13.4037 1.85056 13.7434 1.97592L14.9277 2.41273C15.024 2.44827 15.024 2.58343 14.9277 2.61897L13.7434 3.05579C13.4037 3.18114 13.1358 3.44709 13.0095 3.78428L12.5695 4.95992C12.5337 5.05551 12.3975 5.05551 12.3617 4.95992Z" fill="#7D7D7D"/>
</g>
<defs>
<clipPath id="clip0_1816_1843">
<rect width="15" height="14" fill="white" transform="matrix(-1 0 0 -1 15 14)"/>
</clipPath>
</defs>
</svg>
