<svg width="22" height="23" viewBox="0 0 22 23" fill="none" xmlns="http://www.w3.org/2000/svg">
<g clip-path="url(#clip0_1596_4756)">
<path d="M10.9977 0.678955C4.92796 0.678955 0.00146484 5.60545 0.00146484 11.6752C0.00146484 17.7449 4.92796 22.6714 10.9977 22.6714C17.0674 22.6714 21.9939 17.7449 21.9939 11.6752C22.0015 5.60545 17.0825 0.678955 11.0052 0.678955H10.9977ZM18.5792 14.6386C18.1505 14.5032 17.3232 14.4581 17.0223 14.0896C16.8719 13.9015 16.9697 13.2096 16.9697 13.2096C17.5338 13.2396 18.0979 13.1343 18.6093 12.8861C18.8124 12.7658 18.7221 12.7432 18.6093 12.5627C18.0302 11.5925 18.2934 10.3665 18.2633 9.30596C18.331 8.39588 17.9324 7.50836 17.2028 6.9593C16.6914 6.69605 16.1198 6.57571 15.5406 6.59827C15.0818 6.59075 14.6305 6.65844 14.2018 6.81639C11.9604 7.71896 13.2842 10.6899 12.517 12.3897C12.3816 12.6755 12.1936 12.7733 12.5245 12.9463C13.0059 13.1569 13.5249 13.2697 14.0514 13.2772C14.0514 13.2772 14.0664 13.9466 14.0514 14.0143C13.9912 14.2701 13.4271 14.4506 13.2165 14.5107C12.9232 14.5935 12.6298 14.6913 12.3516 14.8116C12.2463 14.8567 12.1936 14.9771 12.2387 15.0899C12.2688 15.1576 12.3215 15.2027 12.3967 15.2178C12.5998 15.2554 12.8028 15.3005 13.0059 15.3682C13.916 15.6013 14.7509 16.0602 15.4353 16.6919C16.0671 17.3237 16.4432 18.1586 16.4958 19.0537C16.5184 19.2943 16.4056 19.5275 16.2025 19.6629L15.9016 19.8509C15.8264 19.896 15.7362 19.866 15.6986 19.7983C15.6835 19.7757 15.676 19.7531 15.676 19.7231C15.691 18.1737 14.7133 16.7897 13.2466 16.2858C12.5321 16.0376 11.7574 16.0225 11.0504 15.7743C10.8322 15.6991 10.4035 15.6089 10.3133 15.3607C10.2456 15.1049 10.208 14.8417 10.2155 14.5784C10.208 14.3754 10.2004 14.1798 10.2004 13.9767C10.2004 13.8413 10.5389 13.5631 10.6141 13.4427C10.8548 12.9237 10.9751 12.3596 10.9827 11.788C11.4415 11.9159 11.5016 11.066 11.5844 10.8027C11.6445 10.6222 11.8476 9.69707 11.449 9.55417C11.5693 9.31349 11.6445 9.05024 11.6746 8.77947C11.81 8.0875 11.795 7.38049 11.6145 6.70357C11.1481 5.37229 9.88454 4.49229 8.47805 4.51485C7.04899 4.39451 5.69514 5.1993 5.11599 6.51554C4.89788 7.19246 4.84523 7.90699 4.96557 8.60648C4.98813 8.93742 5.07087 9.26084 5.21377 9.56169C4.87531 9.71212 4.97309 10.4943 5.03326 10.6899C5.11599 10.9607 5.19121 11.9309 5.67258 11.7955C5.70266 12.2318 5.77035 12.6605 5.87565 13.0817C5.96591 13.3525 6.10882 13.6082 6.31189 13.8188C6.40967 13.9241 6.4548 13.9391 6.44728 14.0745C6.46232 14.4957 6.43223 14.9169 6.3495 15.3306C6.2442 15.7292 5.3642 15.9022 5.00317 15.9774C4.25104 16.0752 3.50642 16.2783 2.81446 16.5866C0.129328 12.0362 1.61104 6.19212 6.13138 3.49947C7.57548 2.63451 9.23018 2.17571 10.915 2.16066C13.4421 2.1381 15.8716 3.11588 17.6767 4.8834C20.4821 7.63622 21.3095 11.8256 19.7676 15.4359C19.4592 15.0598 19.0531 14.7815 18.5868 14.6311L18.5792 14.6386Z" fill="url(#paint0_linear_1596_4756)"/>
</g>
<defs>
<linearGradient id="paint0_linear_1596_4756" x1="0.00146484" y1="11.6752" x2="21.994" y2="11.6752" gradientUnits="userSpaceOnUse">
<stop stop-color="#478FE4"/>
<stop offset="1" stop-color="#5CD3C6"/>
</linearGradient>
<clipPath id="clip0_1596_4756">
<rect width="22" height="22" fill="white" transform="translate(0.00146484 0.678955)"/>
</clipPath>
</defs>
</svg>
