<svg width="17" height="16" viewBox="0 0 17 16" fill="none" xmlns="http://www.w3.org/2000/svg">
<g clip-path="url(#clip0_1596_4763)">
<path d="M16.0807 1.60488C16.0826 1.08791 15.6587 0.668213 15.1384 0.668213C15.042 0.668213 14.9456 0.682623 14.8528 0.711444L5.40207 3.47461C5.00912 3.5971 4.73988 3.95736 4.73988 4.36625V12.0109C4.43062 11.937 4.11226 11.8974 3.7939 11.8956C2.22939 11.8956 0.959595 12.7332 0.959595 13.7672C0.959595 14.8011 2.22939 15.6387 3.79572 15.6387C5.36205 15.6387 6.63184 14.8011 6.63184 13.7672V6.93308L14.1924 4.73912V10.1376C13.8832 10.0637 13.5648 10.0241 13.2464 10.0223C11.6801 10.0223 10.4103 10.8599 10.4103 11.8938C10.4103 12.9278 11.6801 13.7654 13.2464 13.7654C14.8128 13.7654 16.0826 12.9278 16.0826 11.8938V1.60308L16.0807 1.60488Z" fill="url(#paint0_linear_1596_4763)"/>
</g>
<defs>
<linearGradient id="paint0_linear_1596_4763" x1="0.959595" y1="8.15345" x2="16.0826" y2="8.15345" gradientUnits="userSpaceOnUse">
<stop stop-color="#478FE4"/>
<stop offset="1" stop-color="#5CD3C6"/>
</linearGradient>
<clipPath id="clip0_1596_4763">
<rect width="15.123" height="14.9723" fill="white" transform="translate(0.959595 0.668213)"/>
</clipPath>
</defs>
</svg>
