<svg width="19" height="24" viewBox="0 0 19 24" fill="none" xmlns="http://www.w3.org/2000/svg">
<g clip-path="url(#clip0_1596_4739)">
<path d="M17.9203 13.6652C17.1684 13.6412 16.4579 13.3188 15.9453 12.7687C15.416 12.2346 15.1232 11.5116 15.1313 10.7598C15.1353 12.3154 13.9102 13.5971 12.3543 13.6652C13.9102 13.7333 15.1353 15.0151 15.1313 16.5706C15.1172 15.8183 15.4113 15.0926 15.9453 14.5618C16.4573 14.0117 17.1684 13.6893 17.9203 13.6652ZM16.5348 6.39241C15.027 6.32097 13.7458 5.73482 12.6925 4.63462C11.6391 3.53441 11.1125 2.23126 11.1125 0.713135C11.1125 2.23126 10.5858 3.53441 9.53251 4.63462C8.47919 5.73482 7.19864 6.30829 5.67814 6.39241C6.65059 6.43046 7.59563 6.72287 8.41904 7.24093C9.24111 7.75298 9.92082 8.46464 10.394 9.30915C10.8712 10.1597 11.1185 11.1197 11.1118 12.095C11.1118 10.5769 11.6385 9.26175 12.6918 8.16155C13.7451 7.04999 15.0257 6.46384 16.5341 6.39241H16.5348ZM12.5608 19.2684C11.458 19.235 10.4147 18.761 9.66417 17.9532C8.88889 17.1675 8.46248 16.1033 8.47919 15.0004C8.49657 16.1033 8.06949 17.1675 7.29421 17.9532C6.50422 18.7784 5.54648 19.2203 4.40962 19.2684C5.54648 19.3165 6.50422 19.7584 7.29421 20.5836C8.06949 21.3693 8.4959 22.4335 8.47919 23.5364C8.46181 22.4335 8.88889 21.3693 9.66417 20.5836C10.4194 19.7818 11.4594 19.3098 12.5608 19.2684ZM7.75136 12.2666C6.6145 12.2186 5.65675 11.7766 4.86677 10.9514C4.07678 10.1263 3.69381 9.14626 3.69381 7.98664C3.71119 9.08951 3.28412 10.1537 2.50883 10.9394C1.75828 11.7472 0.714983 12.2212 -0.387793 12.2546C1.89662 12.3581 3.69448 14.2387 3.69381 16.5226C3.67777 15.4217 4.0995 14.3602 4.86677 13.5698C5.65675 12.7566 6.6145 12.3147 7.75136 12.2666Z" fill="url(#paint0_linear_1596_4739)"/>
</g>
<defs>
<linearGradient id="paint0_linear_1596_4739" x1="17.9203" y1="12.1248" x2="-0.387793" y2="12.1248" gradientUnits="userSpaceOnUse">
<stop stop-color="#478FE4"/>
<stop offset="1" stop-color="#5CD3C6"/>
</linearGradient>
<clipPath id="clip0_1596_4739">
<rect width="18.3067" height="22.8232" fill="white" transform="matrix(-1 0 0 1 18.5983 0.713867)"/>
</clipPath>
</defs>
</svg>
