<svg width="21" height="22" viewBox="0 0 21 22" fill="none" xmlns="http://www.w3.org/2000/svg">
<g clip-path="url(#clip0_1596_4767)">
<path d="M12.4935 19.7074C11.964 19.8299 11.4251 19.9027 10.8879 19.926L10.8716 19.5384C11.3848 19.5166 11.9004 19.4461 12.4043 19.3298L12.4221 19.3259L12.509 19.7035L12.4935 19.7074Z" fill="url(#paint0_linear_1596_4767)"/>
<path d="M14.045 19.1932L13.8892 18.8381C14.3613 18.6311 14.8164 18.3784 15.2412 18.0876L15.4599 18.4078C15.0149 18.7117 14.5388 18.9761 14.045 19.1932Z" fill="url(#paint1_linear_1596_4767)"/>
<path d="M9.27157 19.8437C8.73818 19.767 8.20866 19.639 7.69775 19.4646L7.82335 19.0979C8.31178 19.2646 8.81803 19.3863 9.32739 19.46L9.27157 19.8437Z" fill="url(#paint2_linear_1596_4767)"/>
<path d="M16.7056 17.3751L16.4319 17.1007C16.7963 16.7363 17.1296 16.3362 17.4211 15.9114L17.7406 16.1308C17.4351 16.575 17.0862 16.9937 16.7056 17.3743V17.3751Z" fill="url(#paint3_linear_1596_4767)"/>
<path d="M6.22011 18.8034C5.75029 18.539 5.30218 18.2297 4.88818 17.8839L5.13705 17.5862C5.53244 17.9165 5.96117 18.2118 6.41006 18.4653L6.22011 18.8034Z" fill="url(#paint4_linear_1596_4767)"/>
<path d="M18.5323 14.7198L18.178 14.5624C18.3881 14.0911 18.5555 13.598 18.6749 13.0972L19.0517 13.1871C18.9261 13.7112 18.7517 14.2268 18.5315 14.7198H18.5323Z" fill="url(#paint5_linear_1596_4767)"/>
<path d="M3.74689 16.7372C3.40267 16.3209 3.09643 15.8712 2.83594 15.399L3.17551 15.2114C3.42437 15.6619 3.71743 16.0921 4.04615 16.4899L3.74767 16.7372H3.74689Z" fill="url(#paint6_linear_1596_4767)"/>
<path d="M19.282 11.5847L18.8951 11.5661C18.9199 11.0521 18.8975 10.5327 18.8269 10.021L19.2107 9.96826C19.2843 10.5032 19.3084 11.0475 19.282 11.5847Z" fill="url(#paint7_linear_1596_4767)"/>
<path d="M2.1886 13.9167C2.10409 13.6608 2.03044 13.3964 1.9692 13.1329C1.90872 12.8716 1.85988 12.6049 1.82422 12.3413L2.20876 12.2886C2.24364 12.5413 2.29016 12.7956 2.34753 13.046C2.40568 13.2988 2.47623 13.5507 2.55763 13.7957L2.18938 13.9174L2.1886 13.9167Z" fill="url(#paint8_linear_1596_4767)"/>
<path d="M18.4764 8.51372C18.3136 8.02374 18.1051 7.54695 17.8562 7.09729L18.195 6.90967C18.4555 7.38026 18.6741 7.87877 18.8447 8.392L18.4764 8.51372Z" fill="url(#paint9_linear_1596_4767)"/>
<path d="M2.14126 10.7427L1.75439 10.7234C1.78153 10.1853 1.85906 9.64649 1.98543 9.12085L2.36221 9.21156C2.24205 9.71316 2.16762 10.2287 2.14203 10.7427H2.14126Z" fill="url(#paint10_linear_1596_4767)"/>
<path d="M16.9832 5.82042C16.6545 5.42426 16.287 5.056 15.8909 4.72495L16.139 4.42725C16.5537 4.77302 16.9383 5.15834 17.2817 5.57311L16.9832 5.82042Z" fill="url(#paint11_linear_1596_4767)"/>
<path d="M2.86061 7.74788L2.50708 7.58972C2.72726 7.09742 2.99396 6.62295 3.29942 6.17871L3.61883 6.39889C3.32578 6.82374 3.07071 7.27728 2.86061 7.74788Z" fill="url(#paint12_linear_1596_4767)"/>
<path d="M14.6171 3.84735C14.1667 3.59461 13.6915 3.38218 13.2046 3.21705L13.3294 2.85034C13.8395 3.024 14.3365 3.24573 14.8071 3.5101L14.6171 3.84813V3.84735Z" fill="url(#paint13_linear_1596_4767)"/>
<path d="M4.60986 5.2104L4.33618 4.93595C4.71839 4.55451 5.13782 4.20796 5.58283 3.90405L5.80146 4.22424C5.37661 4.5142 4.97579 4.84602 4.60986 5.2104Z" fill="url(#paint14_linear_1596_4767)"/>
<path d="M11.6996 2.85655C11.1895 2.7829 10.6693 2.75731 10.1545 2.7798L10.1375 2.39293C10.6763 2.36967 11.2205 2.39603 11.7547 2.47279L11.6996 2.85655Z" fill="url(#paint15_linear_1596_4767)"/>
<path d="M7.15432 3.47597L6.99927 3.12089C7.49157 2.90614 8.00791 2.7348 8.5351 2.6123L8.6227 2.98987C8.11877 3.10693 7.62414 3.27052 7.15432 3.47597Z" fill="url(#paint16_linear_1596_4767)"/>
<path d="M20.2503 12.0141C20.241 12.0141 20.2317 12.0141 20.2224 12.0141C19.789 16.9883 15.6025 20.9042 10.5174 20.9042C5.14553 20.9042 0.774504 16.534 0.774504 11.1613C0.77528 6.07621 4.69122 1.8897 9.66541 1.45632C9.66541 1.44624 9.66541 1.43693 9.66541 1.42686V1.41833V0.678711C4.26326 1.11442 0 5.64825 0 11.1613C0 16.9611 4.71835 21.6795 10.5182 21.6795C16.3181 21.6795 20.5651 17.4162 21.0008 12.0141H20.2511H20.2503Z" fill="url(#paint17_linear_1596_4767)"/>
<path d="M10.3633 1.18579C10.3633 6.78098 14.8987 11.3164 20.4939 11.3164C19.9651 6.64143 15.039 1.71453 10.3633 1.18579Z" fill="url(#paint18_linear_1596_4767)"/>
</g>
<defs>
<linearGradient id="paint0_linear_1596_4767" x1="10.8716" y1="19.626" x2="12.509" y2="19.626" gradientUnits="userSpaceOnUse">
<stop stop-color="#478FE4"/>
<stop offset="1" stop-color="#5CD3C6"/>
</linearGradient>
<linearGradient id="paint1_linear_1596_4767" x1="13.8892" y1="18.6404" x2="15.4599" y2="18.6404" gradientUnits="userSpaceOnUse">
<stop stop-color="#478FE4"/>
<stop offset="1" stop-color="#5CD3C6"/>
</linearGradient>
<linearGradient id="paint2_linear_1596_4767" x1="7.69775" y1="19.4708" x2="9.32739" y2="19.4708" gradientUnits="userSpaceOnUse">
<stop stop-color="#478FE4"/>
<stop offset="1" stop-color="#5CD3C6"/>
</linearGradient>
<linearGradient id="paint3_linear_1596_4767" x1="16.4319" y1="16.6432" x2="17.7406" y2="16.6432" gradientUnits="userSpaceOnUse">
<stop stop-color="#478FE4"/>
<stop offset="1" stop-color="#5CD3C6"/>
</linearGradient>
<linearGradient id="paint4_linear_1596_4767" x1="4.88818" y1="18.1948" x2="6.41006" y2="18.1948" gradientUnits="userSpaceOnUse">
<stop stop-color="#478FE4"/>
<stop offset="1" stop-color="#5CD3C6"/>
</linearGradient>
<linearGradient id="paint5_linear_1596_4767" x1="18.178" y1="13.9085" x2="19.0517" y2="13.9085" gradientUnits="userSpaceOnUse">
<stop stop-color="#478FE4"/>
<stop offset="1" stop-color="#5CD3C6"/>
</linearGradient>
<linearGradient id="paint6_linear_1596_4767" x1="2.83594" y1="15.9743" x2="4.04615" y2="15.9743" gradientUnits="userSpaceOnUse">
<stop stop-color="#478FE4"/>
<stop offset="1" stop-color="#5CD3C6"/>
</linearGradient>
<linearGradient id="paint7_linear_1596_4767" x1="18.8269" y1="10.7765" x2="19.2923" y2="10.7765" gradientUnits="userSpaceOnUse">
<stop stop-color="#478FE4"/>
<stop offset="1" stop-color="#5CD3C6"/>
</linearGradient>
<linearGradient id="paint8_linear_1596_4767" x1="1.82422" y1="13.103" x2="2.55763" y2="13.103" gradientUnits="userSpaceOnUse">
<stop stop-color="#478FE4"/>
<stop offset="1" stop-color="#5CD3C6"/>
</linearGradient>
<linearGradient id="paint9_linear_1596_4767" x1="17.8562" y1="7.71169" x2="18.8447" y2="7.71169" gradientUnits="userSpaceOnUse">
<stop stop-color="#478FE4"/>
<stop offset="1" stop-color="#5CD3C6"/>
</linearGradient>
<linearGradient id="paint10_linear_1596_4767" x1="1.75439" y1="9.93179" x2="2.36221" y2="9.93179" gradientUnits="userSpaceOnUse">
<stop stop-color="#478FE4"/>
<stop offset="1" stop-color="#5CD3C6"/>
</linearGradient>
<linearGradient id="paint11_linear_1596_4767" x1="15.8909" y1="5.12384" x2="17.2817" y2="5.12384" gradientUnits="userSpaceOnUse">
<stop stop-color="#478FE4"/>
<stop offset="1" stop-color="#5CD3C6"/>
</linearGradient>
<linearGradient id="paint12_linear_1596_4767" x1="2.50708" y1="6.96329" x2="3.61883" y2="6.96329" gradientUnits="userSpaceOnUse">
<stop stop-color="#478FE4"/>
<stop offset="1" stop-color="#5CD3C6"/>
</linearGradient>
<linearGradient id="paint13_linear_1596_4767" x1="13.2046" y1="3.34923" x2="14.8071" y2="3.34923" gradientUnits="userSpaceOnUse">
<stop stop-color="#478FE4"/>
<stop offset="1" stop-color="#5CD3C6"/>
</linearGradient>
<linearGradient id="paint14_linear_1596_4767" x1="4.33618" y1="4.55723" x2="5.80146" y2="4.55723" gradientUnits="userSpaceOnUse">
<stop stop-color="#478FE4"/>
<stop offset="1" stop-color="#5CD3C6"/>
</linearGradient>
<linearGradient id="paint15_linear_1596_4767" x1="10.1375" y1="2.62066" x2="11.7547" y2="2.62066" gradientUnits="userSpaceOnUse">
<stop stop-color="#478FE4"/>
<stop offset="1" stop-color="#5CD3C6"/>
</linearGradient>
<linearGradient id="paint16_linear_1596_4767" x1="6.99927" y1="3.04414" x2="8.6227" y2="3.04414" gradientUnits="userSpaceOnUse">
<stop stop-color="#478FE4"/>
<stop offset="1" stop-color="#5CD3C6"/>
</linearGradient>
<linearGradient id="paint17_linear_1596_4767" x1="0" y1="11.1791" x2="21.0008" y2="11.1791" gradientUnits="userSpaceOnUse">
<stop stop-color="#478FE4"/>
<stop offset="1" stop-color="#5CD3C6"/>
</linearGradient>
<linearGradient id="paint18_linear_1596_4767" x1="10.3633" y1="6.25108" x2="20.4939" y2="6.25108" gradientUnits="userSpaceOnUse">
<stop stop-color="#478FE4"/>
<stop offset="1" stop-color="#5CD3C6"/>
</linearGradient>
<clipPath id="clip0_1596_4767">
<rect width="21" height="21" fill="white" transform="translate(0 0.678711)"/>
</clipPath>
</defs>
</svg>
