<svg width="30" height="31" viewBox="0 0 30 31" fill="none" xmlns="http://www.w3.org/2000/svg">
<g clip-path="url(#clip0_4532_7426)">
<path d="M24.8463 20.2423C26.774 19.7894 27.9806 17.873 27.5415 15.9619C27.1023 14.0508 25.1837 12.8687 23.256 13.3216C21.3283 13.7745 20.1216 15.6909 20.5608 17.602C20.9999 19.5131 22.9186 20.6952 24.8463 20.2423Z" fill="#2C2C2C"/>
<path d="M7.44478 25.315C8.31499 27.0709 10.4596 27.7812 12.2348 26.9015C14.01 26.0217 14.7437 23.885 13.8735 22.129C13.0033 20.3731 10.8587 19.6628 9.08348 20.5425C7.30824 21.4223 6.57456 23.559 7.44478 25.315Z" fill="#2C2C2C"/>
<path d="M9.42309 13.0826C11.2937 13.7021 13.3289 12.6935 13.9689 10.8298C14.6088 8.96605 13.6112 6.95293 11.7406 6.33337C9.86995 5.7138 7.83473 6.72241 7.19477 8.58615C6.55482 10.4499 7.55247 12.463 9.42309 13.0826Z" fill="#2C2C2C"/>
<path d="M21.7934 12.2258C21.7934 12.2258 22.6544 11.6478 23.5917 11.7886C23.5917 11.7886 21.1415 6.948 15.0625 7.13522C15.0625 7.13522 19.6657 7.88148 21.7934 12.2258Z" fill="#2C2C2C"/>
<path d="M7.7889 13.7123C7.7889 13.7123 6.86109 13.2651 6.52192 12.3868C6.52192 12.3868 3.50854 16.9509 6.66545 22.0863C6.66545 22.0863 5.04864 17.7471 7.78853 13.7115L7.7889 13.7123Z" fill="#2C2C2C"/>
<path d="M15.3909 24.7331C15.3909 24.7331 15.4839 25.7564 14.9035 26.5073C14.9035 26.5073 20.3734 26.6477 23.1614 21.256C23.1614 21.256 20.2651 24.9215 15.3909 24.7331Z" fill="#2C2C2C"/>
</g>
<defs>
<clipPath id="clip0_4532_7426">
<rect width="21.4008" height="22.2568" fill="white" transform="translate(20.2197 0.970825) rotate(63.6381)"/>
</clipPath>
</defs>
</svg>
