<svg width="12" height="10" viewBox="0 0 12 10" fill="none" xmlns="http://www.w3.org/2000/svg">
<path d="M11.4806 6.44815L9.92488 4.87245C9.82233 4.7687 9.70062 4.68645 9.5667 4.6304C9.43279 4.57435 9.2893 4.5456 9.14443 4.54578H7.77821C7.70579 4.54571 7.63407 4.56011 7.56715 4.58818C7.50023 4.61625 7.43942 4.65742 7.38821 4.70934C7.337 4.76126 7.2964 4.82292 7.26872 4.89078C7.24104 4.95863 7.22683 5.03136 7.22691 5.10479V6.48833C7.22673 6.63496 7.25509 6.78018 7.31037 6.91568C7.36565 7.05117 7.44676 7.17427 7.54905 7.27792L9.10478 8.85362C9.20831 8.95849 9.34867 9.0174 9.49501 9.0174C9.64135 9.0174 9.78171 8.95849 9.88524 8.85362L11.4789 7.23774C11.5304 7.18616 11.5713 7.12474 11.5993 7.05705C11.6273 6.98935 11.6418 6.91671 11.6419 6.84331C11.6421 6.76991 11.6279 6.6972 11.6002 6.62938C11.5725 6.56155 11.5319 6.49996 11.4806 6.44814L11.4806 6.44815ZM8.33125 6.0813C8.24947 6.0813 8.16953 6.05672 8.10153 6.01065C8.03354 5.96458 7.98054 5.8991 7.94924 5.82249C7.91795 5.74588 7.90976 5.66158 7.92571 5.58026C7.94167 5.49893 7.98105 5.42422 8.03888 5.36559C8.0967 5.30696 8.17038 5.26703 8.25059 5.25085C8.3308 5.23467 8.41393 5.24297 8.48949 5.27471C8.56504 5.30644 8.62962 5.36018 8.67505 5.42912C8.72049 5.49807 8.74474 5.57913 8.74474 5.66205C8.74487 5.71714 8.73426 5.77172 8.71353 5.82265C8.6928 5.87357 8.66234 5.91985 8.62392 5.9588C8.5855 5.99776 8.53987 6.02864 8.48964 6.04966C8.43942 6.07068 8.38559 6.08144 8.33125 6.0813ZM4.47551 4.54405C5.69356 4.54405 6.68076 3.54308 6.68076 2.30802C6.68076 1.0747 5.69357 0.0737305 4.47551 0.0737305C3.25746 0.0737305 2.27027 1.0747 2.27027 2.30976C2.27027 3.54306 3.25746 4.54404 4.47551 4.54404V4.54405ZM6.67731 6.48658V5.2096C6.46713 5.14671 6.24833 5.10131 6.01919 5.10131H5.73147C5.33767 5.28546 4.90917 5.38082 4.47551 5.38082C4.04186 5.38082 3.61336 5.28546 3.21956 5.10131H2.93184C1.65349 5.10307 0.616333 6.15467 0.616333 7.45087V8.17758C0.616381 8.39996 0.703524 8.61321 0.8586 8.77045C1.01368 8.92769 1.22399 9.01605 1.4433 9.0161H7.50773C7.77477 9.0161 8.00908 8.88507 8.16069 8.68593L7.16144 7.67272C7.00739 7.5173 6.88529 7.33243 6.80219 7.12883C6.71909 6.92523 6.67665 6.70693 6.67732 6.48658H6.67731Z" fill="url(#paint0_linear_2166_1476)"/>
<defs>
<linearGradient id="paint0_linear_2166_1476" x1="0.616333" y1="4.54557" x2="11.6419" y2="4.54557" gradientUnits="userSpaceOnUse">
<stop stop-color="#478FE4"/>
<stop offset="1" stop-color="#5CD3C6"/>
</linearGradient>
</defs>
</svg>
