<svg width="20" height="20" viewBox="0 0 20 20" fill="none" xmlns="http://www.w3.org/2000/svg">
<g clip-path="url(#clip0_1566_12364)">
<path d="M20 10C20 11.9778 19.4135 13.9112 18.3147 15.5557C17.2159 17.2002 15.6541 18.4819 13.8268 19.2388C11.9996 19.9957 9.98891 20.1937 8.0491 19.8079C6.10929 19.422 4.32746 18.4696 2.92894 17.0711C1.53041 15.6725 0.578004 13.8907 0.192152 11.9509C-0.193701 10.0111 0.00433286 8.00043 0.761209 6.17317C1.51809 4.3459 2.79981 2.78412 4.4443 1.6853C6.08879 0.58649 8.02219 0 10 0C12.6522 0 15.1957 1.05357 17.0711 2.92893C18.9464 4.8043 20 7.34784 20 10Z" fill="#010201"/>
<path d="M7.33109 14.0135L7.36694 14.0462C7.47776 14.1254 7.55776 14.2369 7.66324 14.3219C7.98198 14.5823 8.37548 14.7342 8.7865 14.7556C9.27129 14.7813 9.7476 14.6209 10.1182 14.3073C10.4887 13.9937 10.7256 13.5504 10.7804 13.068C10.7844 13.0195 10.7856 12.9708 10.7841 12.9221V3.94773C10.7841 3.74595 10.7841 3.7458 10.9852 3.7458C11.4395 3.7458 11.8941 3.7458 12.3489 3.7458C12.3918 3.7385 12.4359 3.74515 12.4748 3.76477C12.4773 3.76708 12.48 3.76912 12.4829 3.77084C12.502 3.79388 12.5139 3.82191 12.5175 3.85158C12.678 4.63371 13.1299 5.32554 13.7816 5.78684C13.8231 5.81721 13.8579 5.85514 13.8978 5.88743L13.9847 5.96151C14.0838 6.03201 14.1764 6.11134 14.2612 6.19854C14.6236 6.50187 15.0498 6.7196 15.508 6.83558C15.5489 6.8461 15.5955 6.84551 15.6252 6.88417C15.6272 6.88676 15.6297 6.88892 15.6326 6.89054C15.6429 6.90483 15.6502 6.92105 15.6541 6.93823C15.658 6.95542 15.6584 6.97321 15.6552 6.99054C15.6552 7.51795 15.6552 8.04536 15.6552 8.57277C15.6552 8.69336 15.6389 8.69958 15.517 8.69973C15.1328 8.69722 14.7501 8.65109 14.3763 8.56225C13.7368 8.41431 13.1291 8.15245 12.5824 7.78921C12.5536 7.77025 12.5231 7.72995 12.4924 7.74373C12.4533 7.76151 12.4739 7.81173 12.4739 7.84743C12.4729 9.33217 12.4794 10.8171 12.4708 12.3018C12.4712 13.3433 12.0889 14.3487 11.3966 15.1268C10.7042 15.9048 9.75005 16.4014 8.71554 16.522C7.88524 16.6232 7.04361 16.4745 6.29835 16.0947C6.17444 16.0341 6.05649 15.9619 5.94605 15.8793L5.84235 15.7867C5.59222 15.5622 5.38325 15.2957 5.22487 14.9993C4.81777 14.2978 4.61885 13.4949 4.65139 12.6845C4.69003 11.8272 4.98755 11.0018 5.50472 10.317C6.02189 9.63218 6.73444 9.12018 7.54842 8.84847C7.86371 8.74043 8.19168 8.6738 8.52413 8.65025C8.58565 8.64116 8.64772 8.63621 8.70991 8.63543C8.73966 8.63239 8.76959 8.63921 8.79509 8.65484C8.79781 8.65738 8.80091 8.65948 8.80428 8.66106C8.81731 8.69096 8.82187 8.72386 8.81746 8.75617C8.81746 9.29128 8.81746 9.82649 8.81746 10.3618C8.81746 10.3806 8.81746 10.3996 8.81598 10.4184C8.81346 10.4722 8.78635 10.4901 8.73539 10.4756C8.58908 10.436 8.43882 10.413 8.28739 10.4068C8.05437 10.3936 7.82112 10.4282 7.60205 10.5088C6.8665 10.7802 6.41998 11.307 6.32665 12.0833C6.23479 12.8482 6.53657 13.4602 7.17302 13.9008C7.2262 13.9377 7.28102 13.9722 7.3308 14.0138" fill="white"/>
<path d="M5.94561 15.8792C5.97405 15.8715 5.99005 15.894 6.00991 15.9062C6.48341 16.196 7.0092 16.3901 7.55746 16.4774C7.83509 16.5234 8.11682 16.5398 8.39791 16.5263C9.3014 16.4876 10.1687 16.1605 10.8728 15.5929C11.5768 15.0253 12.0804 14.2471 12.3099 13.3724C12.3823 13.0952 12.4255 12.8112 12.4386 12.525C12.4471 12.3601 12.4463 12.1952 12.4463 12.0303C12.4469 10.6153 12.4469 9.20035 12.4463 7.78544V7.689C12.4834 7.67907 12.5 7.70662 12.5204 7.72055C13.0201 8.06429 13.5738 8.32198 14.1585 8.48292C14.4812 8.57202 14.8114 8.63152 15.1449 8.6607C15.2855 8.673 15.4263 8.67137 15.5662 8.68144C15.6277 8.68588 15.6284 8.68366 15.6292 8.61937C15.6301 8.55181 15.6292 8.48411 15.6292 8.41655C15.6292 7.93754 15.6292 7.45853 15.6292 6.97951C15.6292 6.94988 15.6311 6.92025 15.632 6.89062C15.7581 6.90544 15.8823 6.93211 16.0092 6.94159C16.0873 6.94933 16.1658 6.95294 16.2443 6.9524C16.2831 6.95122 16.2994 6.96485 16.2949 7.00381C16.2941 7.02 16.2941 7.03622 16.2949 7.0524V9.13003C16.2949 9.14351 16.2949 9.15714 16.2949 9.17062C16.2933 9.23092 16.2933 9.23211 16.2296 9.23196C16.0131 9.23154 15.7969 9.21714 15.5822 9.18885C14.7235 9.07733 13.9037 8.76332 13.1902 8.2727C13.1686 8.25788 13.1458 8.24425 13.1127 8.22277V8.31981C13.1127 9.83211 13.1127 11.3443 13.1127 12.8564C13.1136 13.4361 12.9949 14.0097 12.764 14.5415C12.5332 15.0732 12.1952 15.5517 11.7712 15.9469C11.3472 16.3422 10.8462 16.6458 10.2996 16.8388C9.75295 17.0317 9.1724 17.1099 8.5942 17.0684C7.62447 17.0045 6.70723 16.605 5.99998 15.9385C5.98028 15.9203 5.96353 15.8991 5.94531 15.8792" fill="#CB1C54"/>
<path d="M12.4748 3.7653C12.4452 3.76678 12.4155 3.7693 12.3859 3.76944H10.9246C10.8115 3.76944 10.8115 3.76944 10.8115 3.87878C10.8115 6.85468 10.8118 9.83048 10.8123 12.8062C10.8183 13.0116 10.7913 13.2167 10.7323 13.4136C10.6407 13.7415 10.4608 14.0379 10.2121 14.2704C9.96352 14.5029 9.65576 14.6627 9.3225 14.7321C8.55642 14.9069 7.90605 14.6729 7.38842 14.0803C7.38039 14.0696 7.37321 14.0584 7.36694 14.0466C7.51306 14.1101 7.66472 14.1601 7.81998 14.1958C8.07547 14.2487 8.33901 14.2494 8.59477 14.1978C8.85052 14.1462 9.09321 14.0435 9.30824 13.8957C9.52328 13.748 9.70622 13.5583 9.84607 13.338C9.98592 13.1178 10.0798 12.8715 10.1221 12.614C10.1395 12.5045 10.1472 12.3937 10.1449 12.2828C10.1443 9.30144 10.1443 6.32006 10.1449 3.33863C10.1449 3.19967 10.1255 3.217 10.2634 3.217C10.9508 3.21641 11.6383 3.21641 12.3258 3.217C12.3421 3.217 12.3582 3.217 12.3745 3.217C12.4449 3.21818 12.4461 3.21818 12.4458 3.28944C12.4392 3.44872 12.4488 3.60826 12.4745 3.76559" fill="#6ABAC5"/>
<path d="M8.79517 8.65455C8.37716 8.66601 7.96299 8.73787 7.56554 8.86789C6.90899 9.08511 6.3157 9.45998 5.83761 9.95966C5.35952 10.4593 5.01121 11.0686 4.82317 11.7341C4.74659 12.007 4.69867 12.2871 4.68021 12.57C4.63782 13.152 4.71758 13.7365 4.91439 14.2859C5.11119 14.8354 5.42069 15.3376 5.82303 15.7603C5.82977 15.7685 5.83586 15.7773 5.84125 15.7864C5.76186 15.7461 5.68822 15.6953 5.62229 15.6354C5.0807 15.2127 4.65061 14.6641 4.36946 14.0372C4.0883 13.4104 3.9646 12.7243 4.0091 12.0387C4.06394 11.2214 4.35571 10.4379 4.84874 9.78376C5.34176 9.12966 6.01469 8.63338 6.78525 8.35559C7.14655 8.2254 7.52399 8.14535 7.90703 8.11766C8.18489 8.09706 8.46409 8.10311 8.7408 8.13574C8.77829 8.14018 8.80006 8.14774 8.80006 8.19218C8.79725 8.34626 8.79725 8.50048 8.79621 8.65455" fill="#6ABAC5"/>
<path d="M7.33116 14.0134C7.16464 13.9352 7.01288 13.8287 6.88257 13.6989C6.55346 13.3906 6.34626 12.9743 6.29886 12.5258C6.26374 12.2123 6.30602 11.895 6.42201 11.6017C6.538 11.3083 6.72415 11.0479 6.96417 10.8432C7.20418 10.6385 7.49072 10.4958 7.7987 10.4275C8.10668 10.3593 8.4267 10.3676 8.73071 10.4518C8.75045 10.4602 8.77213 10.4631 8.79338 10.4601C8.80144 10.4312 8.80351 10.4009 8.79945 10.3712C8.79945 9.83013 8.79945 9.28914 8.79945 8.7482C8.79945 8.71857 8.80242 8.68895 8.8039 8.65932C9.01172 8.64991 9.21996 8.65918 9.42612 8.68702C9.45871 8.69058 9.46745 8.70583 9.46657 8.73413C9.46657 8.75043 9.46657 8.76658 9.46657 8.78287C9.46657 9.49961 9.46657 10.2163 9.46657 10.9329C9.47171 10.9607 9.4682 10.9894 9.45649 11.0152C9.36227 10.9975 9.26953 10.9691 9.17338 10.9559C8.9108 10.9137 8.64229 10.9273 8.38531 10.9958C8.12832 11.0643 7.88863 11.186 7.68183 11.3532C7.30382 11.6434 7.05229 12.0682 6.9796 12.5392C6.93599 12.7848 6.94151 13.0367 6.99585 13.2802C7.05019 13.5237 7.15228 13.754 7.2962 13.9578C7.3082 13.9756 7.31886 13.9941 7.33027 14.0124" fill="#CB1C54"/>
<path d="M13.8978 5.88773C13.6922 5.76282 13.5043 5.61095 13.339 5.43618C12.8952 4.98456 12.5971 4.41017 12.4833 3.78729C12.4828 3.78192 12.4828 3.77651 12.4833 3.77114C12.6777 3.76003 12.8722 3.76981 13.0667 3.76596C13.1012 3.76596 13.1165 3.77899 13.1132 3.81366C13.1119 3.82714 13.1132 3.84077 13.1132 3.85425C13.1121 4.38659 13.2564 4.90912 13.5307 5.36536C13.6268 5.53163 13.738 5.68869 13.8629 5.83455C13.8765 5.8507 13.8959 5.86418 13.8984 5.88729" fill="#CB1C54"/>
<path d="M15.6252 6.88404C15.0799 6.76913 14.5746 6.51228 14.1604 6.13945C14.0956 6.08672 14.0368 6.02712 13.9849 5.96167C14.0038 5.96239 14.022 5.96937 14.0366 5.98152C14.3698 6.17191 14.7344 6.30102 15.1132 6.36271C15.262 6.38882 15.4127 6.40196 15.5638 6.40197C15.6268 6.40197 15.6287 6.40374 15.6286 6.46389C15.6286 6.60389 15.6265 6.74404 15.6252 6.88419" fill="#6ABAC5"/>
</g>
<defs>
<clipPath id="clip0_1566_12364">
<rect width="20" height="20" fill="white"/>
</clipPath>
</defs>
</svg>
