<svg width="43" height="32" viewBox="0 0 43 32" fill="none" xmlns="http://www.w3.org/2000/svg">
<g clip-path="url(#clip0_1566_10119)">
<path d="M37.8771 3.96253H30.8455L29.8524 1.96851C29.8197 1.9001 29.7794 1.83479 29.7334 1.77322C28.9821 0.761905 27.4586 0 26.1897 0H16.8116C15.5414 0 14.0185 0.761905 13.2679 1.77322C13.2225 1.83479 13.1822 1.9001 13.1483 1.96789L12.1552 3.9619H5.12417C2.29781 3.9619 0 6.196 0 8.94196V27.0206C0 29.7665 2.29781 32 5.12289 32H37.8765C40.7015 32 42.9994 29.7659 42.9994 27.0206V8.94196C42.9994 6.196 40.7015 3.96253 37.8765 3.96253H37.8771ZM40.3125 27.0206C40.3125 28.3261 39.2202 29.3878 37.8771 29.3878H5.12289C3.77978 29.3878 2.6875 28.3261 2.6875 27.0206V8.94196C2.6875 7.63646 3.77978 6.57477 5.12289 6.57477H12.9966C13.5117 6.57477 13.9814 6.28867 14.206 5.83775L15.503 3.23359C15.7891 2.92074 16.4251 2.61287 16.811 2.61287H26.189C26.5743 2.61287 27.2116 2.92074 27.497 3.23359L28.7934 5.83775C29.018 6.28805 29.4883 6.57477 30.0034 6.57477H37.8771C39.2202 6.57477 40.3125 7.63646 40.3125 8.94196V27.0206Z" fill="white"/>
<path d="M27.8097 10.454C26.0808 8.80891 23.8015 7.90271 21.3789 7.90271C18.9563 7.90271 16.6118 8.83254 14.8745 10.5218C13.614 11.7471 12.752 13.287 12.3822 14.9744C12.228 15.6797 12.6906 16.3738 13.4169 16.5244C13.5116 16.5436 13.6056 16.553 13.6978 16.553C14.3185 16.553 14.8764 16.1325 15.0108 15.5186C15.2725 14.3257 15.8823 13.2367 16.775 12.369C18.0048 11.1736 19.6397 10.5156 21.3789 10.5156C23.1181 10.5156 24.6858 11.1518 25.908 12.3031L24.0837 14.0763L31.672 16.0517L29.6391 8.67643L27.8097 10.4546V10.454Z" fill="white"/>
<path d="M29.5836 18.1346C28.8573 17.9847 28.1439 18.4337 27.989 19.1396C27.7273 20.332 27.1169 21.4216 26.2249 22.2893C24.9944 23.4847 23.3601 24.1433 21.6209 24.1433C19.8817 24.1433 18.3127 23.5071 17.0912 22.3546L18.9155 20.5814L11.3271 18.606L13.36 25.9812L15.1888 24.2037C16.9178 25.8488 19.197 26.7556 21.6203 26.7556C24.0435 26.7556 26.3874 25.8251 28.1253 24.1359C29.3852 22.9106 30.2472 21.3713 30.617 19.6845C30.7719 18.9792 30.3092 18.2851 29.583 18.1346H29.5836Z" fill="white"/>
</g>
<defs>
<clipPath id="clip0_1566_10119">
<rect width="43" height="32" fill="white"/>
</clipPath>
</defs>
</svg>
