<svg width="10" height="17" viewBox="0 0 10 17" fill="none" xmlns="http://www.w3.org/2000/svg">
<g clip-path="url(#clip0_956_16727)">
<path d="M3.0362 9.75353C3.0362 7.4556 6.25582 5.93879 6.25582 3.43181C6.25582 1.96549 5.21424 0.691551 5.05778 0.616821C5.07019 0.720332 5.07615 0.824348 5.07615 0.928363C5.07615 3.79637 0.570068 5.72066 0.570068 9.29253C0.570068 10.8432 1.55652 11.7591 2.60705 12.665C4.60131 14.1192 4.99966 14.8882 4.99966 15.3618C4.99966 15.6764 4.85264 15.891 4.85264 16.0561C5.25397 15.536 5.3856 15.0629 5.38858 14.611C5.38858 13.689 4.72399 12.8578 4.03457 11.9172C3.54432 11.2229 3.0362 10.5907 3.0362 9.75303V9.75353ZM9.32495 8.53918C8.95441 6.45886 6.93581 4.66535 6.4242 4.46287L6.54689 4.68706C6.6199 4.8547 6.65567 5.03648 6.6512 5.21977C6.6512 6.61186 4.99072 8.68258 4.91721 8.85375C4.85214 9.00927 4.81837 9.1769 4.81936 9.34555C4.81936 9.97166 5.28477 10.6563 5.36772 10.6563C5.44123 10.6563 7.10171 8.931 7.1474 7.92518C7.32671 8.24177 7.42258 8.59977 7.42605 8.96534C7.42605 10.2484 6.14555 11.9828 6.14555 11.9828C6.14555 12.3438 7.12257 13.6395 7.23284 13.6395C7.26363 13.6395 7.30039 13.5961 7.33069 13.5647C8.49148 12.3408 9.3925 10.9179 9.3925 9.30465C9.3925 9.04764 9.36965 8.79164 9.32495 8.53867V8.53918Z" fill="url(#paint0_linear_956_16727)"/>
</g>
<defs>
<linearGradient id="paint0_linear_956_16727" x1="0.570068" y1="8.33645" x2="9.3925" y2="8.33645" gradientUnits="userSpaceOnUse">
<stop stop-color="#478FE4"/>
<stop offset="1" stop-color="#5CD3C6"/>
</linearGradient>
<clipPath id="clip0_956_16727">
<rect width="8.82243" height="15.4393" fill="white" transform="translate(0.570068 0.616821)"/>
</clipPath>
</defs>
</svg>
