<svg width="20" height="20" viewBox="0 0 20 20" fill="none" xmlns="http://www.w3.org/2000/svg">
<g clip-path="url(#clip0_1566_12406)">
<path fill-rule="evenodd" clip-rule="evenodd" d="M19.9944 9.99722C19.9944 15.5185 15.5185 19.9944 9.99722 19.9944C4.47595 19.9944 0 15.5185 0 9.99722C0 4.47595 4.47595 0 9.99722 0C15.5185 0 19.9944 4.47595 19.9944 9.99722Z" fill="#5A99EC"/>
<path d="M7.9772 15.7549C12.86 15.7549 15.5302 11.7096 15.5302 8.20185C15.5302 8.08692 15.5277 7.97253 15.5227 7.85869C16.0421 7.48273 16.4905 7.01733 16.8469 6.48425C16.3625 6.69896 15.8486 6.83979 15.3224 6.90206C15.8767 6.57029 16.2916 6.04842 16.4898 5.43358C15.9687 5.74279 15.3987 5.96072 14.8042 6.07799C14.5558 5.81293 14.2557 5.60171 13.9223 5.45744C13.589 5.31316 13.2295 5.2389 12.8663 5.23926C11.4002 5.23926 10.2113 6.42811 10.2113 7.89364C10.211 8.09738 10.2341 8.30049 10.2802 8.49895C8.07401 8.38802 6.11761 7.3317 4.80855 5.7255C4.46898 6.30989 4.36493 7.00175 4.5176 7.66017C4.67026 8.31859 5.06815 8.89406 5.63025 9.2694C5.20867 9.25646 4.79634 9.14255 4.42791 8.93723C4.42732 8.94833 4.42732 8.95944 4.42732 8.97114C4.42732 10.2569 5.34262 11.3302 6.5571 11.5737C6.16622 11.6802 5.75614 11.6957 5.35832 11.6191C5.6963 12.6738 6.67617 13.4413 7.83823 13.4629C6.89787 14.2009 5.73662 14.6011 4.54127 14.5992C4.32963 14.5994 4.11816 14.5871 3.90796 14.5624C5.12179 15.3423 6.53445 15.7562 7.9772 15.7549Z" fill="white"/>
</g>
<defs>
<clipPath id="clip0_1566_12406">
<rect width="20" height="20" fill="white"/>
</clipPath>
</defs>
</svg>
