<svg width="60" height="60" viewBox="0 0 60 60" xmlns="http://www.w3.org/2000/svg">
  <!-- Background -->
  <path fill-rule="evenodd" clip-rule="evenodd" d="M0 14.0006C0 5.82058 5.82123 0 14.0006 0H45.9994C54.1794 0 60 5.82123 60 14.0006V46.9994C60 54.1794 54.1788 60 46.9994 60H13.0006C5.82058 60 0 54.1788 0 46.9994V14.0006Z" fill="url(#paint0_linear)"/>

  <!-- Twitter Icon -->
  <g transform="translate(12, 15)"> <!-- Adjusted for centering -->
    <path fill-rule="evenodd" clip-rule="evenodd" d="M35.4704 3.93029C34.1672 4.51443 32.7621 4.90696 31.289 5.08511C32.7929 4.18093 33.9469 2.74439 34.4915 1.03546C33.0863 1.87543 31.5278 2.48546 29.8694 2.81171C28.5404 1.38761 26.6504 0.5 24.5576 0.5C20.5368 0.5 17.2776 3.77907 17.2776 7.8225C17.2776 8.39318 17.3435 8.95557 17.4691 9.48896C11.4193 9.18136 6.055 6.26893 2.46647 1.83814C1.84162 2.92254 1.48338 4.18093 1.48338 5.51804C1.48338 8.06071 2.76397 10.302 4.72088 11.6132C3.52882 11.577 2.40471 11.2466 1.42162 10.6987V10.7919C1.42162 14.3403 3.93132 17.2972 7.26044 17.9715C6.64897 18.1351 6.00559 18.2242 5.34676 18.2242C4.87632 18.2242 4.42029 18.1817 3.97559 18.0968C4.90206 21.0061 7.59088 23.12 10.7738 23.178C8.28265 25.1407 5.14603 26.3131 1.73662 26.3131C1.14779 26.3131 0.566176 26.2789 0 26.2095C3.21897 28.2851 7.04529 29.499 11.1568 29.499C24.5453 29.499 31.8654 18.3443 31.8654 8.66764C31.8654 8.35175 31.8551 8.03482 31.8438 7.72307C33.2624 6.69254 34.4956 5.40307 35.4704 3.93029Z" fill="white"/>
  </g>

  <defs>
    <linearGradient id="paint0_linear" x1="0" y1="0" x2="0" y2="60" gradientUnits="userSpaceOnUse">
      <stop stop-color="#55ACEE"/>
      <stop offset="1" stop-color="#3B88C4"/>
    </linearGradient>
  </defs>
</svg>
