<svg width="15" height="15" viewBox="0 0 15 15" fill="none" xmlns="http://www.w3.org/2000/svg">
<path d="M8.04707 0.0438592C7.86006 -0.0389102 7.6422 -0.00258154 7.49164 0.136366L3.61663 3.7138H0.514908C0.2305 3.7138 0 3.94601 0 4.23214V10.7676C0 11.0541 0.2305 11.2863 0.514908 11.2863H3.617L7.49201 14.8633C7.58904 14.9528 7.71359 14.9997 7.83999 14.9997C7.90988 14.9997 7.98052 14.9851 8.04744 14.9558C8.23444 14.8731 8.3549 14.6866 8.3549 14.481V0.518754C8.3549 0.313141 8.23407 0.127003 8.04707 0.0438592Z" fill="white"/>
<path d="M10.111 12.2217C9.96159 12.2217 9.81103 12.1779 9.6783 12.0865C9.32846 11.8454 9.23849 11.3637 9.47792 11.0113C10.9037 8.91097 10.9037 6.08857 9.47792 3.98824C9.23849 3.63544 9.32809 3.15418 9.6783 2.91299C10.0281 2.6718 10.5062 2.76206 10.7457 3.11486C12.5261 5.73764 12.5261 9.26189 10.7457 11.8847C10.597 12.1038 10.356 12.2217 10.111 12.2217Z" fill="white"/>
<path d="M12.1674 14.352C12.003 14.352 11.8376 14.2992 11.6974 14.1899C11.3621 13.9281 11.3007 13.4423 11.5606 13.1045C14.0983 9.80459 14.0983 5.19534 11.5606 1.89542C11.3007 1.5576 11.3621 1.07185 11.6974 0.810057C12.0328 0.54864 12.515 0.610062 12.7748 0.947881C15.7416 4.80584 15.7412 10.1945 12.7748 14.0524C12.6235 14.249 12.3967 14.352 12.1674 14.352Z" fill="white"/>
</svg>
