<svg width="50" height="46" viewBox="0 0 50 46" fill="none" xmlns="http://www.w3.org/2000/svg">
<g clip-path="url(#clip0_2166_1443)">
<path d="M12.9711 13.3338C13.7376 12.5189 14.2169 11.4432 14.2169 10.2367C14.2169 9.03026 13.7376 7.92184 12.9711 7.13966C12.2045 6.32481 11.1183 5.83569 9.93594 5.83569C8.75361 5.83569 7.66735 6.32481 6.90082 7.13966C6.10226 7.92184 5.62292 9.03026 5.62292 10.2367C5.62292 11.4432 6.10226 12.5189 6.90082 13.3338C7.69937 14.1486 8.75361 14.6051 9.93594 14.6051C11.1183 14.6051 12.2045 14.116 12.9711 13.3338ZM7.22055 10.2367C7.22055 9.45455 7.50826 8.76989 8.0191 8.28077C8.49844 7.75897 9.16941 7.46592 9.93594 7.46592C10.7025 7.46592 11.3734 7.7595 11.8528 8.28077C12.3321 8.76989 12.6513 9.45455 12.6513 10.2367C12.6513 11.0189 12.3316 11.6714 11.8528 12.1927C11.3734 12.6818 10.6704 13.0075 9.93594 13.0075C9.20144 13.0075 8.49844 12.6813 8.0191 12.1927C7.50774 11.6709 7.22055 10.9862 7.22055 10.2367Z" fill="#787878"/>
<path d="M46.9649 28.0369C45.9385 26.9717 44.6865 26.1369 43.2908 25.6035V3.09706C43.2908 2.24953 42.9396 1.46683 42.3962 0.912885C41.8528 0.358934 41.0863 0 40.2557 0H3.03512C2.17252 0 1.4375 0.358407 0.894628 0.912885C0.319731 1.46683 0 2.24953 0 3.09706V41.1098C0 41.9574 0.319731 42.7401 0.894628 43.294C1.43802 43.8485 2.17252 44.2069 3.03512 44.2069H33.8957C35.5537 45.338 37.5449 46 39.6808 46C42.5243 46 45.1121 44.8262 46.9649 42.9356C48.8497 41.0123 50 38.4039 50 35.4702C50 32.5365 48.8497 29.9281 46.9649 28.0375V28.0369ZM1.5656 3.09706C1.5656 2.70598 1.72521 2.31489 1.98089 2.05399C2.26859 1.79309 2.61983 1.63023 3.03512 1.63023H40.2557C40.671 1.63023 41.0222 1.79309 41.2779 2.05399C41.5656 2.31489 41.7252 2.70598 41.7252 3.09706V25.1465C41.064 25.0105 40.3802 24.9394 39.6803 24.9394C38.7887 24.9394 37.922 25.0548 37.094 25.2725L31.501 18.0606C31.3734 17.8977 31.2454 17.7343 31.1178 17.6368C30.6064 17.1804 30.0315 16.9848 29.4881 16.9848C28.9447 16.9848 28.4339 17.1477 28.1142 17.4413C28.0181 17.5066 27.9225 17.5714 27.8585 17.6695L16.5165 30.8404L16.4845 30.9058C16.4525 30.9385 16.3569 30.9385 16.2929 30.9385H16.2288L10.8295 23.9295C10.6699 23.7013 10.4783 23.5057 10.2546 23.375C9.90341 23.1141 9.48812 22.9839 9.10434 22.9839C8.68905 22.9839 8.27376 23.1141 7.922 23.375C7.7624 23.5052 7.6343 23.6359 7.50672 23.8315L1.56405 31.3717V3.09706H1.5656ZM3.03512 42.5767C2.61983 42.5767 2.26859 42.4138 1.98089 42.1529C1.72521 41.892 1.5656 41.5009 1.5656 41.1098V33.9306L8.75413 24.8097L8.78616 24.777C8.81818 24.7117 8.85021 24.679 8.88223 24.6468C8.94628 24.6142 9.00981 24.5815 9.07386 24.5815C9.16994 24.5815 9.2655 24.6142 9.36157 24.6795C9.45765 24.7449 9.52118 24.8097 9.58523 24.9077L15.0486 31.9821C15.1126 32.0801 15.1761 32.1449 15.2722 32.2103C15.5599 32.4385 15.9432 32.5687 16.3264 32.5365C16.7097 32.5365 17.125 32.4063 17.4447 32.1781C17.5408 32.0801 17.6364 31.9826 17.7004 31.8845L29.0424 18.7136H29.0744C29.1384 18.6156 29.298 18.5834 29.4576 18.5834C29.6493 18.5834 29.8729 18.6488 30.0646 18.8443C30.1606 18.9097 30.2242 18.9745 30.2882 19.0399L35.5269 25.8285C34.3435 26.3598 33.2722 27.1114 32.3647 28.0375C30.5119 29.9281 29.3616 32.5692 29.3616 35.4702C29.3616 38.3712 30.376 40.694 32.0346 42.5772H3.03512V42.5767ZM45.8466 41.7945C44.281 43.3921 42.0764 44.4025 39.6803 44.4025C37.2841 44.4025 35.0795 43.3921 33.4819 41.7945C31.9163 40.1643 30.9261 37.9474 30.9261 35.4702C30.9261 32.993 31.9163 30.7756 33.4819 29.178C35.0795 27.5478 37.2521 26.5701 39.6803 26.5701C42.1085 26.5701 44.281 27.5483 45.8466 29.178C47.4442 30.7756 48.4344 33.0251 48.4344 35.4702C48.4344 37.9153 47.4442 40.1648 45.8466 41.7945Z" fill="#787878"/>
<path d="M40.5113 30.4167C40.4152 30.3187 40.3197 30.2538 40.1916 30.1885C40.0955 30.1558 39.9679 30.1231 39.8403 30.0905H39.5206L39.1373 30.1885C39.0413 30.2538 38.9457 30.3187 38.8496 30.4167L35.1756 34.1658C34.9519 34.3613 34.8558 34.6549 34.8558 34.9158C34.8558 35.2094 34.9519 35.4703 35.1756 35.6979C35.3672 35.8935 35.6549 35.9915 35.9106 35.9915C36.1983 35.9915 36.454 35.8935 36.6771 35.6979L38.4664 33.8395L38.626 33.6766V39.8054C38.626 40.099 38.7536 40.3599 38.9457 40.5554C39.1373 40.751 39.393 40.8817 39.6807 40.8817C39.9684 40.8817 40.2241 40.7515 40.4158 40.5554C40.6074 40.3594 40.7355 40.099 40.7355 39.8054V33.6766L40.8951 33.8395L42.6843 35.6979C42.908 35.8935 43.1637 35.9915 43.4509 35.9915C43.7066 35.9915 43.9622 35.8935 44.1859 35.6979C44.3775 35.4697 44.5056 35.2088 44.5056 34.9158C44.5056 34.6549 44.378 34.3613 44.1859 34.1658L40.5118 30.4167H40.5113Z" fill="#787878"/>
</g>
<defs>
<clipPath id="clip0_2166_1443">
<rect width="50" height="46" fill="white"/>
</clipPath>
</defs>
</svg>
