<svg width="28" height="27" viewBox="0 0 28 27" fill="none" xmlns="http://www.w3.org/2000/svg">
<path d="M13.8308 14.9727C13.5613 14.9727 13.2979 14.8928 13.0739 14.743C12.8499 14.5932 12.6753 14.3803 12.5722 14.1312C12.4692 13.8821 12.4423 13.6081 12.4949 13.3437C12.5476 13.0793 12.6774 12.8365 12.868 12.646C13.0586 12.4555 13.3015 12.3258 13.5658 12.2733C13.8301 12.2209 14.104 12.248 14.3528 12.3514C14.6017 12.4547 14.8144 12.6295 14.9639 12.8538C15.1134 13.0781 15.1931 13.3416 15.1929 13.6112C15.1926 13.9724 15.0489 14.3187 14.7935 14.574C14.5381 14.8293 14.1918 14.9727 13.8308 14.9727Z" fill="white" stroke="white" stroke-width="1.5" stroke-linecap="round" stroke-linejoin="round"/>
<path d="M13.8308 24.5092C13.5613 24.5092 13.2979 24.4293 13.0739 24.2795C12.8499 24.1297 12.6753 23.9168 12.5722 23.6678C12.4692 23.4187 12.4423 23.1446 12.4949 22.8803C12.5476 22.6159 12.6774 22.3731 12.868 22.1825C13.0586 21.992 13.3015 21.8623 13.5658 21.8099C13.8301 21.7574 14.104 21.7846 14.3528 21.8879C14.6017 21.9912 14.8144 22.1661 14.9639 22.3903C15.1134 22.6146 15.1931 22.8782 15.1929 23.1477C15.1926 23.5089 15.0489 23.8552 14.7935 24.1105C14.5381 24.3658 14.1918 24.5092 13.8308 24.5092Z" fill="white" stroke="white" stroke-width="1.5" stroke-linecap="round" stroke-linejoin="round"/>
<path d="M13.8308 5.43617C13.5613 5.43617 13.2979 5.35622 13.0739 5.20643C12.8499 5.05664 12.6753 4.84374 12.5722 4.59467C12.4692 4.3456 12.4423 4.07154 12.4949 3.80717C12.5476 3.5428 12.6774 3.29999 12.868 3.10946C13.0586 2.91893 13.3015 2.78924 13.5658 2.7368C13.8301 2.68435 14.104 2.71151 14.3528 2.81483C14.6017 2.91816 14.8144 3.09301 14.9639 3.31726C15.1134 3.54151 15.1931 3.8051 15.1929 4.07466C15.1926 4.43587 15.0489 4.78217 14.7935 5.03747C14.5381 5.29276 14.1918 5.43617 13.8308 5.43617Z" fill="white" stroke="white" stroke-width="1.5" stroke-linecap="round" stroke-linejoin="round"/>
</svg>
