<svg width="34" height="35" viewBox="0 0 34 35" fill="none" xmlns="http://www.w3.org/2000/svg">
<path d="M16.8779 34.1507C26.1994 34.1507 33.7559 26.5058 33.7559 17.0753C33.7559 7.64489 26.1994 0 16.8779 0C7.55651 0 0 7.64489 0 17.0753C0 26.5058 7.55651 34.1507 16.8779 34.1507Z" fill="#BBBBBB"/>
<path d="M20.8883 23.6208H10.2016C8.12051 23.6208 6.43359 21.9142 6.43359 19.8088V12.3176C6.43359 11.4156 7.15668 10.6841 8.0482 10.6841H18.7349C20.816 10.6841 22.5029 12.3907 22.5029 14.4961V21.9874C22.5029 22.8893 21.7798 23.6208 20.8883 23.6208Z" fill="#242424"/>
<path d="M23.25 17.1529V19.4189C23.25 19.7294 23.4008 20.0202 23.6539 20.1969L26.5145 22.189C27.1996 22.6663 28.1335 22.1693 28.1335 21.3281V12.9786C28.1335 12.1365 27.2005 11.6404 26.5145 12.1177L23.6539 14.1099C23.4008 14.2856 23.25 14.5764 23.25 14.8878V17.1538V17.1529Z" fill="#242424"/>
</svg>
