<svg width="34" height="35" viewBox="0 0 34 35" fill="none" xmlns="http://www.w3.org/2000/svg">
<path d="M16.8779 34.1507C26.1994 34.1507 33.7559 26.5058 33.7559 17.0753C33.7559 7.64489 26.1994 0 16.8779 0C7.55651 0 0 7.64489 0 17.0753C0 26.5058 7.55651 34.1507 16.8779 34.1507Z" fill="#BBBBBB"/>
<path d="M8.80344 7.95161C9.90659 8.11576 12.291 8.73133 13.8942 11.9323C14.0996 12.3427 14.0035 12.8432 13.6658 13.1527C13.4047 13.3918 13.1411 13.6452 12.9374 13.845C12.6852 14.0921 12.582 14.4561 12.6693 14.8005C12.8483 15.5062 13.4947 16.6124 14.8571 17.9907C16.2195 19.3691 17.313 20.023 18.0105 20.2041C18.3509 20.2924 18.7106 20.188 18.9549 19.9329C19.1515 19.7268 19.4029 19.4601 19.6392 19.196C19.9443 18.8543 20.439 18.7571 20.8455 18.9649C24.0095 20.5868 24.6726 23.0536 24.834 24.1696C24.886 24.53 24.7061 24.8717 24.3975 25.06C22.4919 26.2233 19.5034 27.83 12.3175 20.5601C5.07424 13.2321 6.77438 10.3211 7.92427 8.39321C8.10945 8.08186 8.44718 7.89987 8.80344 7.95161Z" fill="#242424"/>
</svg>
