<svg width="36" height="32" viewBox="0 0 36 32" fill="none" xmlns="http://www.w3.org/2000/svg">
<g clip-path="url(#clip0_1596_4308)">
<path d="M36 7.875V28.125C35.9997 29.02 35.6441 29.8783 35.0112 30.5112C34.3783 31.1441 33.52 31.4997 32.625 31.5H3.375C2.47998 31.4997 1.62169 31.1441 0.988807 30.5112C0.35593 29.8783 0.000265075 29.02 0 28.125L0 7.875C0.000265075 6.97998 0.35593 6.12169 0.988807 5.48881C1.62169 4.85593 2.47998 4.50027 3.375 4.5H9.563L10.428 2.187C10.6689 1.54452 11.1001 0.990876 11.6641 0.600066C12.228 0.209256 12.8979 -9.40369e-05 13.584 3.17865e-07H22.408C23.0943 -0.000297692 23.7644 0.208958 24.3285 0.599781C24.8927 0.990605 25.3241 1.54436 25.565 2.187L26.437 4.5H32.625C33.52 4.50027 34.3783 4.85593 35.0112 5.48881C35.6441 6.12169 35.9997 6.97998 36 7.875ZM26.438 18C26.438 16.3311 25.9431 14.6997 25.0159 13.3121C24.0888 11.9245 22.7709 10.843 21.2291 10.2043C19.6872 9.56565 17.9906 9.39855 16.3538 9.72413C14.717 10.0497 13.2135 10.8534 12.0334 12.0334C10.8534 13.2135 10.0497 14.717 9.72413 16.3538C9.39855 17.9906 9.56565 19.6872 10.2043 21.2291C10.843 22.7709 11.9245 24.0888 13.3121 25.0159C14.6997 25.9431 16.3311 26.438 18 26.438C20.2374 26.4364 22.3827 25.5469 23.9648 23.9648C25.5469 22.3827 26.4364 20.2374 26.438 18ZM24.188 18C24.1882 19.2239 23.8254 20.4204 23.1456 21.4381C22.4658 22.4559 21.4994 23.2492 20.3687 23.7177C19.238 24.1862 17.9938 24.3089 16.7934 24.0702C15.593 23.8316 14.4903 23.2423 13.6248 22.3769C12.7593 21.5116 12.1698 20.409 11.931 19.2086C11.6921 18.0082 11.8146 16.764 12.2829 15.6332C12.7513 14.5024 13.5444 13.5359 14.562 12.8559C15.5797 12.1759 16.7761 11.813 18 11.813C19.64 11.8162 21.212 12.469 22.3717 13.6286C23.5315 14.7881 24.1846 16.36 24.188 18Z" fill="#EFEFEF"/>
</g>
<defs>
<clipPath id="clip0_1596_4308">
<rect width="36" height="31.5" fill="white"/>
</clipPath>
</defs>
</svg>
