<svg width="31" height="31" viewBox="0 0 31 31" fill="none" xmlns="http://www.w3.org/2000/svg">
<g clip-path="url(#clip0_1552_8772)">
<path fill-rule="evenodd" clip-rule="evenodd" d="M14.2957 2.77028C15.135 2.69461 15.9708 2.70493 16.7928 2.79092C17.3765 2.85284 17.9498 2.61549 18.309 2.15457L18.8305 1.48038C19.3106 0.861221 20.1567 0.658276 20.8682 0.988492L23.1857 2.06513C23.8971 2.39535 24.284 3.17273 24.1182 3.93636L23.9386 4.76534C23.8142 5.33978 24.0077 5.93141 24.4325 6.34074C24.802 6.69504 25.1508 7.07341 25.4755 7.47242C25.8485 7.92991 26.4218 8.17413 27.009 8.09845L27.8551 7.99182C28.6322 7.89207 29.3782 8.34612 29.6442 9.07878L30.518 11.4728C30.7874 12.209 30.5076 13.0311 29.8479 13.4541L29.1296 13.9151C28.6391 14.2315 28.3525 14.7784 28.3628 15.3598C28.3732 15.886 28.349 16.4089 28.2937 16.9249C28.2316 17.5062 28.4699 18.0772 28.9327 18.4349L29.6096 18.9543C30.2313 19.4324 30.4351 20.2752 30.1035 20.9838L29.0225 23.2918C28.6909 24.0004 27.9104 24.3857 27.1437 24.2206L26.3113 24.0417C25.7345 23.9179 25.1405 24.1105 24.7295 24.5336C24.3738 24.9016 23.9938 25.2456 23.5932 25.5724C23.1339 25.9439 22.8886 26.5149 22.9646 27.0996L23.0717 27.9424C23.1719 28.7163 22.716 29.4593 21.9803 29.7242L19.5765 30.5944C18.8374 30.8627 18.012 30.5841 17.5872 29.9271L17.1243 29.2116C16.8066 28.7232 16.2575 28.4377 15.6738 28.448C15.1454 28.4583 14.6204 28.4343 14.1023 28.3792C13.5186 28.3173 12.9453 28.5546 12.5861 29.0156L12.0646 29.6898C11.5845 30.3089 10.7384 30.5119 10.0269 30.1816L7.70945 29.105C6.99798 28.7748 6.61116 27.9974 6.77694 27.2338L6.95653 26.4048C7.08087 25.8304 6.88746 25.2387 6.46265 24.8294C6.0931 24.4751 5.74773 24.0967 5.41962 23.6977C5.04662 23.2402 4.47329 22.996 3.88616 23.0717L3.03999 23.1783C2.2629 23.2781 1.51689 22.824 1.25095 22.0914L0.377157 19.6973C0.107765 18.9612 0.387518 18.1391 1.04718 17.716L1.76556 17.2551C2.25599 16.9386 2.54265 16.3917 2.53229 15.8104C2.52193 15.2841 2.54611 14.7612 2.60137 14.2453C2.66353 13.664 2.42523 13.093 1.96242 12.7352L1.28549 12.2158C0.663818 11.7377 0.460047 10.895 0.791606 10.1864L1.87263 7.87831C2.20419 7.16972 2.98473 6.78447 3.75146 6.94958L4.58381 7.12845C5.16059 7.25228 5.75463 7.05965 6.16563 6.63656C6.52136 6.26851 6.90127 5.92453 7.30191 5.59776C7.76126 5.22626 8.00647 4.65526 7.93049 4.07051L7.82342 3.22777C7.72327 2.45383 8.17916 1.71084 8.91481 1.44598L11.3186 0.572283C12.0577 0.303982 12.8832 0.582602 13.308 1.23959L14.2957 2.76684V2.77028ZM13.8088 7.17316C8.30004 8.42179 5.48179 14.4379 8.06173 19.4427C9.81969 22.8515 13.7708 24.6884 17.525 23.8387C23.0337 22.5901 25.852 16.574 23.272 11.5692C21.5141 8.16037 17.5595 6.32354 13.8088 7.17316Z" fill="white"/>
</g>
<defs>
<clipPath id="clip0_1552_8772">
<rect width="30.348" height="30.2251" fill="white" transform="translate(0.270508 0.472515)"/>
</clipPath>
</defs>
</svg>
