<svg width="116" height="37" viewBox="0 0 116 37" fill="none" xmlns="http://www.w3.org/2000/svg">
<path d="M2.81425 8.34162C3.58211 8.34162 4.22415 8.59889 4.86434 9.11531C5.50453 9.63173 5.76171 10.2768 5.76171 11.0523V19.1845C5.76171 19.8296 5.88938 20.4746 6.14657 21.1216C6.40375 21.7666 6.78676 22.283 7.17161 22.6708C7.68413 23.1872 8.19666 23.4445 8.83685 23.8323C9.47704 24.0896 10.1172 24.2201 10.7593 24.2201C11.4013 24.2201 12.0396 24.0914 12.6817 23.8323C13.3219 23.575 13.8344 23.3159 14.2193 22.7994C14.7318 22.4117 15.1166 21.8952 15.372 21.3788C15.6273 20.7338 15.7568 20.0887 15.7568 19.4418V11.181C15.7568 10.4073 16.1417 9.76037 16.6542 9.11531C17.1667 8.59889 17.9346 8.34162 18.7043 8.34162C19.474 8.34162 20.1142 8.59889 20.7544 9.11531C21.3946 9.63173 21.6518 10.2768 21.6518 11.0523V34.1588C21.6518 34.9325 21.3964 35.5794 20.7544 36.0958C20.1142 36.7409 19.474 37 18.7043 37C17.9346 37 17.2944 36.7427 16.6542 36.0958C16.1417 35.5794 15.7568 34.9343 15.7568 34.0301V28.866C15.1166 29.2537 14.3469 29.6397 13.4514 29.7702C12.554 30.0274 11.6585 30.0274 10.7611 30.0274C9.35122 30.0274 7.94317 29.7702 6.66094 29.2537C5.38056 28.6087 4.226 27.8331 3.2028 26.9308C2.17776 25.898 1.4099 24.7365 0.767858 23.3159C0.255336 22.0258 0 20.4765 0 18.9272V11.181C0 10.4073 0.255336 9.76037 0.767858 9.11531C1.28038 8.59889 2.04824 8.34162 2.81795 8.34162H2.81425ZM35.0976 8.34162C36.5075 8.34162 37.9156 8.59889 39.1978 9.11531C40.6077 9.76037 41.7604 10.5359 42.6559 11.4383C43.681 12.4711 44.4488 13.6326 44.9613 14.9227C45.6015 16.2128 45.8587 17.762 45.8587 19.1827C45.8587 20.7319 45.6034 22.1507 45.0909 23.4426C44.4507 24.7327 43.681 25.8942 42.7854 26.9271C41.7604 27.8313 40.6077 28.6049 39.3273 29.25C38.0469 29.7664 36.637 30.0237 35.0995 30.0237C33.5619 30.0237 32.1538 29.7664 30.8716 29.25C29.5912 28.7336 28.4385 27.9599 27.4135 26.9271C26.5161 26.0229 25.7482 24.8614 25.108 23.5713C24.5955 22.2812 24.3402 20.7319 24.3402 19.1827C24.3402 17.762 24.5955 16.3433 25.108 15.0513C25.6206 13.7612 26.3884 12.5979 27.4135 11.5669C28.3108 10.6627 29.4636 9.889 30.8716 9.24395C32.152 8.72753 33.5619 8.33975 35.0995 8.33975L35.0976 8.34162ZM35.0976 14.1508C34.4574 14.1508 33.8172 14.2795 33.1752 14.5386C32.535 14.7959 32.0225 15.1837 31.6376 15.5715C31.1251 16.0879 30.7402 16.6043 30.4849 17.2494C30.2277 17.8944 30.1 18.5395 30.1 19.1864C30.1 19.9601 30.2277 20.607 30.4849 21.2521C30.7402 21.7685 31.1251 22.2849 31.6376 22.8013C32.0225 23.3177 32.535 23.7055 33.1752 23.9628C33.8154 24.2201 34.4556 24.3506 35.0976 24.3506C35.7396 24.3506 36.378 24.2219 37.02 23.9628C37.6602 23.7055 38.1727 23.3177 38.5576 22.8013C39.0701 22.2849 39.455 21.7685 39.7103 21.2521C39.9656 20.607 40.0952 19.9619 40.0952 19.1864C40.0952 17.8963 39.5826 16.7329 38.5576 15.702C37.6602 14.7978 36.5075 14.2814 35.0995 14.1527L35.0976 14.1508ZM51.1116 8.34162C51.8795 8.34162 52.6492 8.59889 53.1617 9.11531C53.8019 9.76037 54.0591 10.5359 54.0591 11.3096V19.1845C54.0591 19.9582 54.1867 20.6051 54.5716 21.2502C54.8269 21.7666 55.0841 22.283 55.5966 22.7994C55.9815 23.1872 56.6217 23.5731 57.1342 23.8323C57.7744 24.0896 58.4146 24.2201 59.0566 24.2201C59.8245 24.2201 60.337 24.0914 60.9772 23.9628C61.6174 23.7055 62.1299 23.3177 62.5148 22.9299C63.0273 22.5422 63.4121 22.0258 63.6675 21.3807C63.9228 20.7356 64.0523 20.0906 64.0523 19.4437V11.3096C64.0523 10.5359 64.3077 9.889 64.9497 9.24395C65.4622 8.59889 66.2301 8.33975 66.9998 8.33975C67.7695 8.33975 68.4097 8.59703 69.0499 9.11345C69.6901 9.7585 69.9473 10.4036 69.9473 11.1791V19.1827C69.9473 20.7319 69.6919 22.1507 69.1794 23.4426C68.5392 24.7327 67.7695 25.8942 66.7463 26.9271C65.8489 27.9599 64.6962 28.7336 63.4158 29.25C62.0059 29.8951 60.5979 30.1542 59.0603 30.1542C57.6504 30.1542 56.37 29.8969 54.9602 29.3805C53.6798 28.8641 52.5252 28.0904 51.502 27.0576C50.6046 26.1534 49.7091 24.9919 49.1966 23.7018C48.5564 22.4117 48.2992 20.9911 48.2992 19.5704V11.3096C48.2992 10.5359 48.5546 9.76037 49.0671 9.24395C49.7073 8.59889 50.3475 8.33975 51.1172 8.33975L51.1116 8.34162ZM75.5795 0.854492C76.4768 0.854492 77.117 1.11363 77.7572 1.75869C78.2697 2.27511 78.6546 3.0488 78.6546 3.953V8.08434H86.3406C87.238 8.08434 87.8781 8.34162 88.3907 8.98854C89.0309 9.50495 89.288 10.2786 89.288 11.0542C89.288 11.8298 88.9032 12.4748 88.3907 13.1199C87.7505 13.7649 87.1103 14.0241 86.3406 14.0241H78.6546V19.0577C78.6546 19.7028 78.7823 20.3479 79.0395 20.9948C79.2948 21.6398 79.6796 22.1563 80.0645 22.6727C80.577 23.0604 81.0895 23.4464 81.7297 23.7055C82.2423 23.9628 83.0101 24.0933 83.6522 24.0933C84.42 24.0933 85.062 24.0933 85.7022 23.836C86.2148 23.5787 86.7273 23.3196 87.1121 22.9318C87.7523 22.2868 88.3925 22.0276 89.1622 22.0276C89.9319 22.0276 90.6998 22.2849 91.34 22.9318C91.5953 23.1891 91.8525 23.4482 91.9802 23.836C92.1078 24.2238 92.2355 24.6097 92.2355 24.8688C92.2355 25.2566 92.2355 25.6425 92.1078 26.0303C91.9802 26.4181 91.723 26.6754 91.4677 26.9345C90.4426 27.9674 89.2899 28.741 88.0095 29.2575C86.8568 29.9025 85.4469 30.1617 84.0389 30.1617C82.5013 30.1617 80.9637 29.9044 79.6833 29.388C78.2734 28.8715 77.1207 28.0979 76.0957 27.065C74.943 26.1608 74.1733 24.9993 73.5331 23.5806C72.8929 22.16 72.6357 20.7412 72.6357 19.0633V3.69386C72.6357 2.78966 72.891 2.1446 73.5331 1.62819C74.1733 1.11177 74.8135 0.854492 75.5832 0.854492H75.5795ZM96.974 0.854492C97.7419 0.854492 98.5116 1.11363 99.0241 1.62819C99.5366 2.1446 99.9215 2.9183 99.9215 3.69386V9.63173C100.562 9.24395 101.459 8.85803 102.355 8.72753C103.252 8.47025 104.147 8.47025 104.917 8.47025C106.455 8.47025 107.863 8.72753 109.145 9.24395C110.425 9.76037 111.578 10.5341 112.603 11.4383C113.501 12.4711 114.268 13.6326 114.909 14.9227C115.421 16.2128 115.806 17.5048 115.806 19.054V27.1862C115.806 28.0904 115.551 28.7355 114.909 29.2519C114.396 29.8969 113.756 30.1561 112.859 30.1561C112.091 30.1561 111.449 29.8988 110.936 29.3824C110.424 28.866 110.039 28.2209 109.911 27.4453V19.3132C109.911 18.6681 109.783 18.023 109.526 17.3761C109.271 16.7311 108.886 16.2147 108.501 15.8269C107.989 15.3105 107.476 14.9227 106.964 14.6654C106.323 14.4081 105.683 14.2776 104.913 14.2776C103.633 14.2776 102.48 14.794 101.583 15.6982C100.558 16.6024 100.045 17.7639 99.9178 19.054V27.1862C99.9178 28.0904 99.6606 28.7355 99.1499 29.2519C98.5098 29.8969 97.8696 30.1561 96.9722 30.1561C96.332 30.1561 95.6918 29.8988 95.1793 29.3824C94.5391 28.866 94.1542 28.2209 94.1542 27.4453V3.56522C94.1542 2.79152 94.4114 2.1446 95.0516 1.62819C95.5641 1.11177 96.2043 0.854492 96.974 0.854492V0.854492Z" fill="white"/>
</svg>
