<svg width="20" height="20" viewBox="0 0 20 20" fill="none" xmlns="http://www.w3.org/2000/svg">
<g clip-path="url(#clip0_1566_12378)">
<path d="M20 10C20 11.9778 19.4135 13.9112 18.3147 15.5557C17.2159 17.2002 15.6541 18.4819 13.8268 19.2388C11.9996 19.9957 9.98891 20.1937 8.0491 19.8079C6.10929 19.422 4.32746 18.4696 2.92894 17.0711C1.53041 15.6725 0.578004 13.8907 0.192152 11.9509C-0.193701 10.0111 0.00433286 8.00043 0.761209 6.17317C1.51809 4.3459 2.79981 2.78412 4.4443 1.6853C6.08879 0.58649 8.02219 0 10 0C12.6522 0 15.1957 1.05357 17.0711 2.92893C18.9464 4.8043 20 7.34784 20 10Z" fill="#DA0000"/>
<path d="M16.3879 6.79073C16.312 6.50818 16.1631 6.25055 15.9562 6.04366C15.7493 5.83676 15.4917 5.68788 15.2091 5.61192C14.1694 5.33325 9.99992 5.33325 9.99992 5.33325C9.99992 5.33325 5.83044 5.33325 4.79073 5.61192C4.50818 5.68788 4.25055 5.83676 4.04366 6.04366C3.83676 6.25055 3.68788 6.50818 3.61192 6.79073C3.33325 7.83044 3.33325 9.99992 3.33325 9.99992C3.33325 9.99992 3.33325 12.1694 3.61192 13.2091C3.68788 13.4917 3.83676 13.7493 4.04366 13.9562C4.25055 14.1631 4.50818 14.312 4.79073 14.3879C5.83044 14.6666 9.99992 14.6666 9.99992 14.6666C9.99992 14.6666 14.1694 14.6666 15.2091 14.3879C15.4917 14.312 15.7493 14.1631 15.9562 13.9562C16.1631 13.7493 16.312 13.4917 16.3879 13.2091C16.6666 12.1694 16.6666 9.99992 16.6666 9.99992C16.6666 9.99992 16.6666 7.83044 16.3879 6.79073ZM8.66659 11.9999V7.99992L12.1306 9.99992L8.66659 11.9999Z" fill="white"/>
</g>
<defs>
<clipPath id="clip0_1566_12378">
<rect width="20" height="20" fill="white"/>
</clipPath>
</defs>
</svg>
