<svg width="88" height="24" viewBox="0 0 88 24" fill="none" xmlns="http://www.w3.org/2000/svg">
<path d="M2.04132 5.17846C2.59828 5.17846 3.06399 5.35641 3.52835 5.71359C3.99271 6.07077 4.17926 6.51692 4.17926 7.05333V12.6779C4.17926 13.1241 4.27187 13.5702 4.45842 14.0177C4.64497 14.4638 4.92278 14.821 5.20194 15.0892C5.57369 15.4464 5.94545 15.6244 6.40982 15.8926C6.87418 16.0705 7.33854 16.1608 7.80425 16.1608C8.26995 16.1608 8.73297 16.0718 9.19868 15.8926C9.66304 15.7146 10.0348 15.5354 10.314 15.1782C10.6857 14.91 10.9649 14.5528 11.1501 14.1956C11.3353 13.7495 11.4292 13.3033 11.4292 12.8559V7.1423C11.4292 6.60718 11.7084 6.15974 12.0801 5.71359C12.4519 5.35641 13.0089 5.17846 13.5672 5.17846C14.1255 5.17846 14.5898 5.35641 15.0542 5.71359C15.5186 6.07077 15.7051 6.51692 15.7051 7.05333V23.0349C15.7051 23.57 15.5199 24.0174 15.0542 24.3746C14.5898 24.8208 14.1255 25 13.5672 25C13.0089 25 12.5445 24.8221 12.0801 24.3746C11.7084 24.0174 11.4292 23.5713 11.4292 22.9459V19.3741C10.9649 19.6423 10.4066 19.9092 9.75699 19.9995C9.10607 20.1774 8.4565 20.1774 7.80559 20.1774C6.78292 20.1774 5.76159 19.9995 4.83152 19.6423C3.90279 19.1962 3.06533 18.6597 2.32316 18.0356C1.57964 17.3213 1.02267 16.518 0.556967 15.5354C0.185208 14.6431 0 13.5715 0 12.5V7.1423C0 6.60718 0.185208 6.15974 0.556967 5.71359C0.928725 5.35641 1.48569 5.17846 2.044 5.17846H2.04132ZM25.4581 5.17846C26.4808 5.17846 27.5021 5.35641 28.4322 5.71359C29.4548 6.15974 30.2909 6.69615 30.9405 7.32025C31.684 8.03461 32.241 8.83794 32.6128 9.73025C33.0771 10.6226 33.2637 11.6941 33.2637 12.6767C33.2637 13.7482 33.0785 14.7295 32.7067 15.6231C32.2423 16.5154 31.684 17.3187 31.0345 18.0331C30.2909 18.6584 29.4548 19.1936 28.5261 19.6397C27.5974 19.9969 26.5747 20.1749 25.4594 20.1749C24.3442 20.1749 23.3228 19.9969 22.3928 19.6397C21.464 19.2825 20.6279 18.7474 19.8844 18.0331C19.2335 17.4077 18.6765 16.6043 18.2121 15.712C17.8404 14.8197 17.6552 13.7482 17.6552 12.6767C17.6552 11.6941 17.8404 10.7128 18.2121 9.81922C18.5839 8.92691 19.1409 8.12229 19.8844 7.40922C20.5353 6.78384 21.3714 6.24871 22.3928 5.80256C23.3215 5.44538 24.3442 5.17717 25.4594 5.17717L25.4581 5.17846ZM25.4581 9.19641C24.9937 9.19641 24.5294 9.28538 24.0637 9.46462C23.5993 9.64256 23.2275 9.91077 22.9484 10.179C22.5766 10.5362 22.2975 10.8933 22.1123 11.3395C21.9257 11.7856 21.8331 12.2318 21.8331 12.6792C21.8331 13.2144 21.9257 13.6618 22.1123 14.108C22.2975 14.4651 22.5766 14.8223 22.9484 15.1795C23.2275 15.5367 23.5993 15.8049 24.0637 15.9828C24.528 16.1608 24.9924 16.251 25.4581 16.251C25.9238 16.251 26.3868 16.1621 26.8525 15.9828C27.3169 15.8049 27.6886 15.5367 27.9678 15.1795C28.3395 14.8223 28.6187 14.4651 28.8039 14.108C28.9891 13.6618 29.0831 13.2156 29.0831 12.6792C29.0831 11.7869 28.7113 10.9823 27.9678 10.2692C27.3169 9.64385 26.4808 9.28667 25.4594 9.1977L25.4581 9.19641ZM37.0739 5.17846C37.6308 5.17846 38.1891 5.35641 38.5609 5.71359C39.0253 6.15974 39.2118 6.69615 39.2118 7.23128V12.6779C39.2118 13.2131 39.3044 13.6605 39.5836 14.1067C39.7688 14.4638 39.9553 14.821 40.3271 15.1782C40.6062 15.4464 41.0706 15.7133 41.4424 15.8926C41.9067 16.0705 42.3711 16.1608 42.8368 16.1608C43.3938 16.1608 43.7655 16.0718 44.2299 15.9828C44.6942 15.8049 45.066 15.5367 45.3452 15.2685C45.7169 15.0003 45.9961 14.6431 46.1813 14.1969C46.3665 13.7508 46.4604 13.3046 46.4604 12.8572V7.23128C46.4604 6.69615 46.6456 6.24871 47.1113 5.80256C47.4831 5.35641 48.0401 5.17717 48.5984 5.17717C49.1567 5.17717 49.6211 5.35512 50.0854 5.7123C50.5498 6.15845 50.7363 6.6046 50.7363 7.14102V12.6767C50.7363 13.7482 50.5511 14.7295 50.1794 15.6231C49.715 16.5154 49.1567 17.3187 48.4145 18.0331C47.7636 18.7474 46.9275 19.2825 45.9988 19.6397C44.9761 20.0859 43.9548 20.2651 42.8395 20.2651C41.8168 20.2651 40.8881 20.0872 39.8654 19.73C38.9367 19.3728 38.0992 18.8377 37.357 18.1233C36.7061 17.4979 36.0566 16.6946 35.6848 15.8023C35.2204 14.91 35.0339 13.9274 35.0339 12.9449V7.23128C35.0339 6.69615 35.2191 6.15974 35.5909 5.80256C36.0552 5.35641 36.5196 5.17717 37.0779 5.17717L37.0739 5.17846ZM54.8216 0C55.4726 0 55.9369 0.179235 56.4013 0.625387C56.773 0.982567 57.0522 1.51769 57.0522 2.14308V5.00052H62.6272C63.2781 5.00052 63.7425 5.17846 64.1143 5.6259C64.5786 5.98308 64.7652 6.51821 64.7652 7.05462C64.7652 7.59104 64.486 8.03719 64.1143 8.48334C63.6499 8.92949 63.1855 9.10873 62.6272 9.10873H57.0522V12.5903C57.0522 13.0364 57.1448 13.4826 57.3314 13.93C57.5166 14.3762 57.7957 14.7333 58.0749 15.0905C58.4466 15.3587 58.8184 15.6256 59.2827 15.8049C59.6545 15.9828 60.2115 16.0731 60.6772 16.0731C61.2341 16.0731 61.6999 16.0731 62.1642 15.8951C62.536 15.7172 62.9077 15.538 63.1869 15.2698C63.6512 14.8236 64.1156 14.6444 64.6739 14.6444C65.2322 14.6444 65.7892 14.8223 66.2536 15.2698C66.4388 15.4477 66.6253 15.6269 66.7179 15.8951C66.8105 16.1633 66.9031 16.4303 66.9031 16.6095C66.9031 16.8777 66.9031 17.1446 66.8105 17.4128C66.7179 17.681 66.5314 17.859 66.3462 18.0382C65.6026 18.7526 64.7665 19.2877 63.8378 19.6449C63.0017 20.091 61.979 20.2703 60.9577 20.2703C59.8424 20.2703 58.7271 20.0923 57.7984 19.7351C56.7757 19.378 55.9396 18.8428 55.1961 18.1285C54.36 17.5031 53.8017 16.6998 53.3373 15.7185C52.8729 14.7359 52.6864 13.7546 52.6864 12.5941V1.96384C52.6864 1.33846 52.8716 0.892305 53.3373 0.535125C53.8017 0.177945 54.266 0 54.8243 0H54.8216ZM70.3402 0C70.8972 0 71.4555 0.179235 71.8273 0.535125C72.199 0.892305 72.4782 1.42743 72.4782 1.96384V6.07077C72.9425 5.80256 73.5934 5.53564 74.243 5.44538C74.8939 5.26743 75.5435 5.26743 76.1018 5.26743C77.2171 5.26743 78.2384 5.44538 79.1685 5.80256C80.0972 6.15974 80.9333 6.69486 81.6768 7.32025C82.3278 8.03461 82.8847 8.83794 83.3491 9.73025C83.7208 10.6226 84 11.5161 84 12.5877V18.2123C84 18.8377 83.8148 19.2838 83.3491 19.641C82.9773 20.0872 82.513 20.2664 81.862 20.2664C81.3051 20.2664 80.8394 20.0885 80.4676 19.7313C80.0959 19.3741 79.8167 18.9279 79.7241 18.3915V12.7669C79.7241 12.3208 79.6315 11.8746 79.445 11.4272C79.2597 10.981 78.9806 10.6238 78.7014 10.3556C78.3297 9.99845 77.9579 9.73025 77.5862 9.5523C77.1218 9.37436 76.6574 9.28409 76.0991 9.28409C75.1704 9.28409 74.3343 9.64127 73.6834 10.2667C72.9398 10.892 72.5681 11.6954 72.4755 12.5877V18.2123C72.4755 18.8377 72.2889 19.2838 71.9185 19.641C71.4542 20.0872 70.9898 20.2664 70.3389 20.2664C69.8745 20.2664 69.4101 20.0885 69.0384 19.7313C68.574 19.3741 68.2949 18.9279 68.2949 18.3915V1.87487C68.2949 1.33975 68.4814 0.892305 68.9458 0.535125C69.3175 0.177945 69.7819 0 70.3402 0V0Z" fill="url(#paint0_linear_1_1250)"/>
<defs>
<linearGradient id="paint0_linear_1_1250" x1="0" y1="12.5" x2="84" y2="12.5" gradientUnits="userSpaceOnUse">
<stop stop-color="#478FE4"/>
<stop offset="1" stop-color="#5CD3C6"/>
</linearGradient>
</defs>
</svg>
