<svg width="24" height="28" viewBox="0 0 24 28" fill="none" xmlns="http://www.w3.org/2000/svg">
<g clip-path="url(#clip0_4532_7366)">
<path d="M23.531 10.7787C25.732 19.6516 19.8651 26.897 12.5938 27.0147C6.94638 27.106 2.041 22.6944 0.579803 17.1444C-0.89174 11.5551 1.20064 5.08302 6.20138 2.17821C12.6663 -1.57766 21.3056 1.80776 23.531 10.7787Z" fill="#E4B372"/>
<path d="M23.4865 10.7737C25.6839 19.63 19.8435 26.8648 12.5952 26.9841C6.96327 27.0769 2.06675 22.6699 0.606297 17.1236C-0.863767 11.5388 1.22197 5.07428 6.21013 2.17627C12.6543 -1.56754 21.2648 1.81864 23.4865 10.773V10.7737Z" fill="#E4B473"/>
<path d="M23.4416 10.7684C25.6353 19.608 19.8215 26.8316 12.5969 26.953C6.97972 27.0474 2.09281 22.6449 0.633091 17.1031C-0.836234 11.5221 1.24359 5.0659 6.21845 2.17542C12.6427 -1.55631 21.2236 1.83138 23.4416 10.7684Z" fill="#E5B574"/>
<path d="M23.3967 10.7631C25.5866 19.5869 19.7995 26.7984 12.5985 26.9221C6.99685 27.0187 2.11881 22.62 0.660573 17.082C-0.807274 11.5055 1.26589 5.05611 6.22745 2.17394C12.631 -1.54648 21.1831 1.84272 23.3967 10.7631Z" fill="#E5B675"/>
<path d="M23.3518 10.7568C25.538 19.564 19.7775 26.7642 12.6001 26.8902C7.0133 26.9883 2.14487 22.5941 0.687371 17.0606C-0.779737 11.4887 1.28752 5.04678 6.23577 2.1714C12.6186 -1.53694 21.1411 1.853 23.3518 10.7568Z" fill="#E6B676"/>
<path d="M23.3076 10.7516C25.4901 19.5422 19.7562 26.7318 12.6018 26.8593C7.03044 26.9589 2.17014 22.5693 0.714856 17.0396C-0.750774 11.4714 1.30983 5.03705 6.24478 2.16997C12.6069 -1.5263 21.1006 1.86515 23.3076 10.7516Z" fill="#E6B777"/>
<path d="M23.2637 10.7462C25.4425 19.5202 19.7352 26.6984 12.6044 26.8282C7.04786 26.9293 2.19717 22.5442 0.742628 17.0183C-0.722263 11.4546 1.33242 5.02784 6.25481 2.1683C12.5963 -1.5159 21.0611 1.87631 23.2637 10.7462Z" fill="#E6B878"/>
<path d="M23.2188 10.7411C25.394 19.4985 19.7133 26.6655 12.6061 26.7968C7.0644 26.8994 2.22331 22.5188 0.76951 16.9974C-0.694641 11.4375 1.35339 5.01902 6.26322 2.16628C12.584 -1.50585 21.0193 1.88787 23.2188 10.7404V10.7411Z" fill="#E7B979"/>
<path d="M23.1729 10.7356C25.3444 19.4764 19.6903 26.632 12.6068 26.7656C7.08057 26.8697 2.24835 22.4936 0.796024 16.976C-0.66665 11.4206 1.37473 5.00895 6.27125 2.1645C12.5713 -1.49555 20.9778 1.89892 23.1737 10.7348L23.1729 10.7356Z" fill="#E7BA7A"/>
<path d="M23.1288 10.7301C25.2966 19.4543 19.6691 26.5994 12.6085 26.7344C7.09703 26.8408 2.27442 22.4685 0.822831 16.9554C-0.639103 11.4038 1.39637 5.00044 6.27959 2.16354C12.5597 -1.48519 20.9366 1.91079 23.128 10.7301H23.1288Z" fill="#E8BB7B"/>
<path d="M23.0846 10.7251C25.2487 19.4327 19.6478 26.5664 12.6108 26.7038C7.11491 26.8117 2.30117 22.4439 0.850325 16.9346C-0.610131 11.3875 1.41869 4.9909 6.2886 2.16154C12.548 -1.47513 20.8961 1.92237 23.0838 10.7243L23.0846 10.7251Z" fill="#E8BB7C"/>
<path d="M23.0399 10.7189C25.2011 19.4099 19.626 26.5324 12.6128 26.6719C7.13161 26.7813 2.32748 22.4181 0.878106 16.9133C-0.581611 11.37 1.4413 4.98172 6.29865 2.15991C12.5374 -1.46469 20.8559 1.93356 23.0407 10.7189H23.0399Z" fill="#E8BC7D"/>
<path d="M22.9948 10.7136C25.1522 19.3881 19.6038 26.4992 12.6141 26.641C7.14852 26.7519 2.35326 22.3932 0.904626 16.8922C-0.553612 11.3534 1.46265 4.97268 6.30669 2.15841C12.5247 -1.45411 20.8144 1.94564 22.9948 10.7136Z" fill="#E9BD7E"/>
<path d="M22.9489 10.7087C25.1026 19.3666 19.5808 26.4664 12.6141 26.6105C7.16327 26.7229 2.37762 22.3687 0.930466 16.8722C-0.527034 11.3372 1.48331 4.964 6.31405 2.15728C12.5114 -1.44317 20.7723 1.95733 22.9489 10.7087Z" fill="#E9BE7F"/>
<path d="M22.9061 10.7028C25.0561 19.344 19.5609 26.4332 12.6178 26.5781C7.18251 26.692 2.40573 22.3431 0.959317 16.8496C-0.497443 11.3192 1.50625 4.9535 6.32442 2.15432C12.5011 -1.43406 20.7324 1.96721 22.9061 10.702V10.7028Z" fill="#EABF80"/>
<path d="M22.8599 10.6981C25.0063 19.3227 19.5377 26.4006 12.6183 26.5478C7.19771 26.6632 2.43054 22.3188 0.984867 16.8299C-0.470416 11.3032 1.52662 4.94507 6.33149 2.15419C12.4882 -1.42212 20.6899 1.98066 22.8592 10.6981H22.8599Z" fill="#EAC081"/>
<path d="M22.8163 10.6925C24.9589 19.3012 19.5169 26.3671 12.6212 26.5165C7.2154 26.6342 2.45783 22.2936 1.01363 16.8084C-0.440909 11.2862 1.55022 4.93566 6.34252 2.15157C12.4785 -1.41341 20.6514 1.99087 22.817 10.6917L22.8163 10.6925Z" fill="#EAC182"/>
<path d="M22.7718 10.6873C24.9108 19.2795 19.4954 26.334 12.6226 26.4857C7.23232 26.6049 2.48362 22.2688 1.04016 16.7882C-0.412901 11.2698 1.57157 4.92751 6.35057 2.15097C12.4659 -1.40195 20.61 2.00384 22.7718 10.6873Z" fill="#EBC182"/>
<path d="M22.7272 10.6812C24.8625 19.2568 19.4737 26.3008 12.6245 26.454C7.24903 26.5747 2.50994 22.2431 1.06797 16.7662C-0.38436 11.2524 1.59421 4.9169 6.3599 2.14866C12.4545 -1.39219 20.569 2.01435 22.7272 10.6812Z" fill="#EBC283"/>
<path d="M22.682 10.6761C24.8136 19.2351 19.4515 26.2678 12.6259 26.4232C7.26596 26.5454 2.53574 22.2184 1.0945 16.7461C-0.356349 11.236 1.61556 4.90878 6.36796 2.14733C12.4419 -1.38145 20.5276 2.02585 22.682 10.6761Z" fill="#EBC384"/>
<path d="M22.6382 10.6707C24.766 19.2131 19.4305 26.2344 12.6286 26.3921C7.28342 26.5158 2.56281 22.1933 1.12231 16.7248C-0.327803 11.2192 1.6382 4.8988 6.37729 2.14564C12.4305 -1.37106 20.4874 2.03775 22.6382 10.6707Z" fill="#ECC485"/>
<path d="M22.5936 10.6652C24.7178 19.191 19.4081 26.201 12.6306 26.361C7.30096 26.4862 2.58921 22.1683 1.15019 16.7035C-0.299181 11.2024 1.66017 4.88957 6.38743 2.14396C12.4207 -1.36067 20.448 2.0489 22.5944 10.6652H22.5936Z" fill="#ECC586"/>
<path d="M22.5473 10.66C24.6677 19.1692 19.3846 26.1687 12.63 26.3294C7.31519 26.4569 2.61306 22.1427 1.17478 16.6824C-0.273116 11.1851 1.67958 4.88058 6.39354 2.14177C12.4061 -1.35155 20.4039 2.06028 22.5473 10.6593V10.66Z" fill="#EDC687"/>
<path d="M22.5043 10.6546C24.6211 19.1472 19.3647 26.1353 12.6337 26.2983C7.33437 26.4273 2.64111 22.1176 1.20357 16.6611C-0.243587 11.1684 1.70319 4.87062 6.40385 2.1401C12.3957 -1.34114 20.3647 2.07144 22.5043 10.6538V10.6546Z" fill="#EDC788"/>
<path d="M22.4575 10.6495C24.5706 19.1255 19.3407 26.1023 12.6334 26.2675C7.34886 26.3981 2.6652 22.0929 1.22913 16.6409C-0.216543 11.152 1.72359 4.86252 6.41094 2.13954C12.3821 -1.32962 20.3222 2.08371 22.4575 10.6495Z" fill="#EDC789"/>
<path d="M22.4146 10.6435C24.524 19.1029 19.3207 26.0684 12.6371 26.2359C7.3673 26.3679 2.69325 22.0673 1.25793 16.6191C-0.18701 11.1347 1.74721 4.85274 6.42126 2.13656C12.3717 -1.32054 20.2823 2.09431 22.4146 10.6427V10.6435Z" fill="#EEC88A"/>
<path d="M22.3685 10.6379C24.4741 19.0807 19.2975 26.0357 12.6368 26.2047C7.38252 26.3382 2.71734 22.0421 1.2835 16.5984C-0.159961 11.1178 1.7676 4.84341 6.42835 2.13553C12.3581 -1.3095 20.2399 2.1061 22.3685 10.6379Z" fill="#EEC98B"/>
<path d="M22.3246 10.6329C24.4273 19.0591 19.2765 26.0027 12.6395 26.174C7.39999 26.309 2.74442 22.0175 1.31131 16.5776C-0.131408 11.1014 1.79024 4.83461 6.43843 2.13427C12.3482 -1.29868 20.2004 2.11842 22.3246 10.6329Z" fill="#EFCA8C"/>
<path d="M22.2807 10.6277C24.3797 19.0381 19.2556 25.9696 12.6421 26.1431C7.41821 26.2805 2.7715 21.9927 1.33913 16.5573C-0.102845 11.0849 1.81289 4.82564 6.44777 2.13284C12.3369 -1.28879 20.1602 2.12983 22.2807 10.6277Z" fill="#EFCB8D"/>
<path d="M22.2359 10.6225C24.3312 19.0162 19.2337 25.9364 12.6439 26.1115C7.43474 26.2503 2.79764 21.967 1.36675 16.5354C-0.0737544 11.0676 1.8346 4.81586 6.45691 2.13062C12.3253 -1.27895 20.1191 2.14043 22.2366 10.6217L22.2359 10.6225Z" fill="#EFCC8E"/>
<path d="M22.1918 10.6174C24.2834 18.9946 19.2125 25.9035 12.6456 26.0808C7.45198 26.2211 2.82375 21.9424 1.3936 16.5153C-0.0461628 11.0513 1.85627 4.80782 6.46528 2.13012C12.313 -1.26737 20.078 2.1535 22.1911 10.6174H22.1918Z" fill="#F0CC8F"/>
<path d="M22.1457 10.6116C24.2336 18.9721 19.1893 25.8705 12.6461 26.0493C7.46721 26.1911 2.84859 21.9169 1.41918 16.4936C-0.0191038 11.0341 1.87668 4.79744 6.47239 2.12728C12.2994 -1.25814 20.0356 2.1635 22.1449 10.6116H22.1457Z" fill="#F0CD90"/>
<path d="M22.1011 10.6058C24.1853 18.9498 19.1676 25.8368 12.648 26.0179C7.48395 26.1613 2.87494 21.8916 1.447 16.4728C0.00946003 11.017 1.89933 4.78868 6.48247 2.12607C12.2888 -1.24728 19.9954 2.17586 22.1018 10.6066L22.1011 10.6058Z" fill="#F1CE91"/>
<path d="M22.056 10.6006C24.1365 18.928 19.1454 25.8037 12.6495 25.987C7.50091 26.1319 2.90076 21.8667 1.47357 16.4517C0.0374994 11.0005 1.92072 4.77894 6.49056 2.12387C12.277 -1.2374 19.954 2.18649 22.056 10.6006Z" fill="#F1CF92"/>
<path d="M20.4999 10.529C22.5243 17.0848 19.0047 22.9827 13.7763 23.6172C9.47774 24.1386 5.3351 20.8173 3.86947 16.2526C2.39497 11.66 3.80147 6.34306 7.59525 4.05543C12.2213 1.26606 18.457 3.91585 20.4999 10.529Z" fill="#E6AB66"/>
<path d="M20.4903 10.6182C22.5147 17.1733 18.9966 23.0651 13.7682 23.6944C9.46815 24.2119 5.32329 20.8861 3.85692 16.3199C2.38169 11.7251 3.78966 6.41115 7.58567 4.12956C12.2124 1.34849 18.4482 4.00657 20.4903 10.619V10.6182Z" fill="url(#paint0_radial_4532_7366)"/>
<path d="M20.479 10.707C22.5034 17.2613 18.9868 23.1464 13.7584 23.7703C9.4576 24.2834 5.30978 20.9538 3.84342 16.3853C2.36744 11.7889 3.7769 6.47654 7.57438 4.20174C12.2019 1.42897 18.4369 4.09536 20.479 10.707Z" fill="url(#paint1_radial_4532_7366)"/>
<path d="M20.4714 10.7967C22.495 17.3495 18.9806 23.2292 13.7522 23.8479C9.44996 24.3572 5.30067 21.0231 3.83282 16.4524C2.35611 11.8537 3.76705 6.54435 7.56674 4.27558C12.1957 1.51187 18.43 4.18655 20.4714 10.7967Z" fill="url(#paint2_radial_4532_7366)"/>
<path d="M20.4611 10.8853C22.4847 17.4374 18.971 23.3104 13.7434 23.9245C9.43964 24.43 5.28813 21.0914 3.82028 16.5191C2.34283 11.9182 3.75524 6.61112 7.55716 4.34915C12.1869 1.59373 18.4204 4.27672 20.4618 10.8861L20.4611 10.8853Z" fill="url(#paint3_radial_4532_7366)"/>
<path d="M20.4519 10.9743C22.4756 17.5248 18.9634 23.3925 13.735 24.0014C9.42975 24.5024 5.27676 21.16 3.80743 16.5855C2.32998 11.9831 3.74313 6.6782 7.54653 4.42151C12.1777 1.67439 18.4098 4.36567 20.4512 10.9743H20.4519Z" fill="url(#paint4_radial_4532_7366)"/>
<path d="M20.4416 11.0634C22.4645 17.6131 18.9545 23.4748 13.7261 24.0784C9.42016 24.5756 5.26422 21.2287 3.79489 16.6527C2.3167 12.048 3.73133 6.7454 7.53694 4.4955C12.1689 1.75668 18.4009 4.45702 20.4416 11.0634Z" fill="url(#paint5_radial_4532_7366)"/>
<path d="M20.431 11.153C22.4539 17.702 18.9454 23.5569 13.7171 24.1552C9.4096 24.6486 5.25143 21.2972 3.78137 16.7189C2.30244 12.1127 3.71855 6.81237 7.52637 4.5685C12.159 1.83799 18.3904 4.54662 20.431 11.1522V11.153Z" fill="url(#paint6_radial_4532_7366)"/>
<path d="M20.4217 11.242C22.4446 17.7895 18.9368 23.6391 13.7092 24.2321C9.40026 24.7211 5.24062 21.3658 3.76982 16.786C2.29014 12.1776 3.70773 6.87951 7.51704 4.64243C12.1512 1.92096 18.381 4.63714 20.4217 11.242Z" fill="url(#paint7_radial_4532_7366)"/>
<path d="M20.4121 11.3309C22.4343 17.8776 18.9287 23.7204 13.7011 24.309C9.39067 24.7941 5.22881 21.4343 3.75727 16.8523C2.27686 12.2423 3.69593 6.94651 7.50745 4.71547C12.1423 2.00231 18.3722 4.72679 20.4121 11.3309Z" fill="url(#paint8_radial_4532_7366)"/>
<path d="M20.4027 11.4201C22.4249 17.9654 18.9208 23.8029 13.6932 24.3861C9.38206 24.8668 5.21799 21.5032 3.74571 16.9197C2.26455 12.3074 3.6851 7.01465 7.49884 4.78964C12.1345 2.08478 18.3636 4.81831 20.4035 11.4209L20.4027 11.4201Z" fill="url(#paint9_radial_4532_7366)"/>
<path d="M20.3929 11.5091C22.4151 18.0536 18.9125 23.8843 13.6841 24.463C9.37151 24.9399 5.20522 21.5718 3.7322 16.986C2.25031 12.3715 3.67233 7.08096 7.48755 4.86199C12.1247 2.16542 18.3523 4.90726 20.3922 11.5091H20.3929Z" fill="url(#paint10_radial_4532_7366)"/>
<g filter="url(#filter0_d_4532_7366)">
<path d="M6.90222 10.7244C7.10178 10.5855 7.3139 10.5372 7.5711 10.5576C7.82831 10.578 8.00865 10.701 8.14464 10.9054L9.57332 13.0459C9.6864 13.2157 9.83274 13.3628 10.0138 13.4866C10.1942 13.6095 10.3841 13.6767 10.5526 13.7091C10.7766 13.7521 10.9547 13.7272 11.189 13.7137C11.4004 13.6654 11.5896 13.5846 11.7566 13.4685C11.9236 13.3523 12.067 13.2036 12.1882 13.0188C12.3095 12.8354 12.3974 12.6747 12.4063 12.4687C12.4713 12.2741 12.4809 12.0689 12.4565 11.8863C12.4092 11.6705 12.3302 11.4773 12.2163 11.3068L10.7655 9.13237C10.6295 8.92866 10.6162 8.68872 10.6361 8.42616C10.679 8.19755 10.8327 7.99082 11.033 7.85199C11.2333 7.71316 11.4447 7.66488 11.7019 7.68525C11.9591 7.70562 12.1387 7.8286 12.2755 8.03307L16.3338 14.1158C16.4698 14.3195 16.5171 14.5361 16.441 14.7881C16.3878 15.0733 16.2673 15.2574 16.067 15.3962C15.8667 15.535 15.6553 15.5833 15.3752 15.5282C15.1513 15.4852 14.9384 15.3849 14.7795 15.1464L13.8726 13.7869C13.7743 14.0049 13.642 14.2456 13.4321 14.4418C13.2444 14.6719 13.0116 14.8333 12.778 14.9956C12.4114 15.2506 12.0005 15.4369 11.577 15.5328C11.1313 15.5946 10.6945 15.5984 10.2703 15.5463C9.82239 15.4596 9.41884 15.2928 9.00273 15.0348C8.64279 14.7881 8.30428 14.4259 8.0323 14.0185L6.67162 11.9791C6.53563 11.7754 6.48832 11.5588 6.50828 11.2963C6.54967 11.0684 6.70488 10.8617 6.90443 10.7228L6.90222 10.7244Z" fill="white"/>
<path fill-rule="evenodd" clip-rule="evenodd" d="M17.2911 13.6981C17.2911 13.6981 17.2179 16.0227 15.1189 17.0013C13.0258 17.9489 17.2919 18.6469 17.2911 13.6981Z" fill="white"/>
<path fill-rule="evenodd" clip-rule="evenodd" d="M17.9495 15.2737C17.9495 15.2737 17.6391 16.1044 18.2496 17.0981C18.8904 18.097 17.0589 17.6315 17.9495 15.2737Z" fill="white"/>
<path fill-rule="evenodd" clip-rule="evenodd" d="M16.819 17.6635C16.819 17.6635 14.1383 20.0084 11.8907 18.6828C9.62537 17.3692 11.7554 22.6824 16.819 17.6635Z" fill="white"/>
<path fill-rule="evenodd" clip-rule="evenodd" d="M13.3314 17.2275C13.4925 17.1158 13.7209 17.1437 13.831 17.3082C13.953 17.4908 13.8953 17.7186 13.7342 17.8303C13.5553 17.9548 13.3447 17.9141 13.2227 17.7315C13.1134 17.567 13.1533 17.352 13.3321 17.2275H13.3314Z" fill="white"/>
<path fill-rule="evenodd" clip-rule="evenodd" d="M17.1606 18.2553C17.2323 18.2055 17.3527 18.2289 17.4015 18.3021C17.4503 18.3753 17.4274 18.4982 17.3557 18.548C17.284 18.5978 17.1635 18.5745 17.1147 18.5013C17.066 18.4281 17.0889 18.3051 17.1606 18.2553Z" fill="white"/>
<path fill-rule="evenodd" clip-rule="evenodd" d="M9.74082 17.3436C9.99137 17.1693 10.3225 17.2334 10.4932 17.4892C10.6639 17.745 10.6011 18.083 10.3506 18.2573C10.1178 18.4187 9.7689 18.3674 9.59817 18.1117C9.42744 17.8559 9.508 17.505 9.74082 17.3436Z" fill="white"/>
<path fill-rule="evenodd" clip-rule="evenodd" d="M17.9438 12.7896C18.0155 12.7398 18.1359 12.7632 18.1847 12.8364C18.2335 12.9096 18.2106 13.0325 18.1389 13.0823C18.0672 13.1321 17.9467 13.1088 17.8979 13.0356C17.8492 12.9624 17.8721 12.8394 17.9438 12.7896Z" fill="white"/>
</g>
</g>
<defs>
<filter id="filter0_d_4532_7366" x="5.50391" y="7.68079" width="15.8848" height="17.1857" filterUnits="userSpaceOnUse" color-interpolation-filters="sRGB">
<feFlood flood-opacity="0" result="BackgroundImageFix"/>
<feColorMatrix in="SourceAlpha" type="matrix" values="0 0 0 0 0 0 0 0 0 0 0 0 0 0 0 0 0 0 127 0" result="hardAlpha"/>
<feOffset dx="1" dy="3"/>
<feGaussianBlur stdDeviation="1"/>
<feColorMatrix type="matrix" values="0 0 0 0 0.556863 0 0 0 0 0.270588 0 0 0 0 0.0352941 0 0 0 0.3 0"/>
<feBlend mode="normal" in2="BackgroundImageFix" result="effect1_dropShadow_4532_7366"/>
<feBlend mode="normal" in="SourceGraphic" in2="effect1_dropShadow_4532_7366" result="shape"/>
</filter>
<radialGradient id="paint0_radial_4532_7366" cx="0" cy="0" r="1" gradientUnits="userSpaceOnUse" gradientTransform="translate(19.9623 5.92265) rotate(-0.296042) scale(19.402 19.8062)">
<stop stop-color="#E7AF6D"/>
<stop offset="1" stop-color="#E7AD6A"/>
</radialGradient>
<radialGradient id="paint1_radial_4532_7366" cx="0" cy="0" r="1" gradientUnits="userSpaceOnUse" gradientTransform="translate(19.9221 5.96876) rotate(-0.581874) scale(19.4087 19.813)">
<stop stop-color="#E8B273"/>
<stop offset="1" stop-color="#E7AF6E"/>
</radialGradient>
<radialGradient id="paint2_radial_4532_7366" cx="0" cy="0" r="1" gradientUnits="userSpaceOnUse" gradientTransform="translate(19.8713 6.01732) rotate(-0.867706) scale(19.4125 19.8167)">
<stop stop-color="#E9B67A"/>
<stop offset="1" stop-color="#E8B171"/>
</radialGradient>
<radialGradient id="paint3_radial_4532_7366" cx="0" cy="0" r="1" gradientUnits="userSpaceOnUse" gradientTransform="translate(19.823 6.0505) rotate(-1.16374) scale(19.4155 19.8197)">
<stop stop-color="#EABA81"/>
<stop offset="1" stop-color="#E9B375"/>
</radialGradient>
<radialGradient id="paint4_radial_4532_7366" cx="0" cy="0" r="1" gradientUnits="userSpaceOnUse" gradientTransform="translate(19.7795 6.09499) rotate(-1.44957) scale(19.4208 19.8249)">
<stop stop-color="#EBBE88"/>
<stop offset="1" stop-color="#E9B579"/>
</radialGradient>
<radialGradient id="paint5_radial_4532_7366" cx="0" cy="0" r="1" gradientUnits="userSpaceOnUse" gradientTransform="translate(19.7272 6.12526) rotate(-1.7456) scale(19.4238 19.8278)">
<stop stop-color="#EDC18E"/>
<stop offset="1" stop-color="#EAB87D"/>
</radialGradient>
<radialGradient id="paint6_radial_4532_7366" cx="0" cy="0" r="1" gradientUnits="userSpaceOnUse" gradientTransform="translate(19.6778 6.16741) rotate(-2.03142) scale(19.4277 19.8314)">
<stop stop-color="#EEC595"/>
<stop offset="1" stop-color="#EABA81"/>
</radialGradient>
<radialGradient id="paint7_radial_4532_7366" cx="0" cy="0" r="1" gradientUnits="userSpaceOnUse" gradientTransform="translate(19.6217 6.19723) rotate(-2.32745) scale(19.43 19.8335)">
<stop stop-color="#EFC99C"/>
<stop offset="1" stop-color="#EBBC85"/>
</radialGradient>
<radialGradient id="paint8_radial_4532_7366" cx="0" cy="0" r="1" gradientUnits="userSpaceOnUse" gradientTransform="translate(19.5554 6.24017) rotate(-2.61326) scale(19.4317 19.8348)">
<stop stop-color="#F0CDA3"/>
<stop offset="1" stop-color="#ECBE88"/>
</radialGradient>
<radialGradient id="paint9_radial_4532_7366" cx="0" cy="0" r="1" gradientUnits="userSpaceOnUse" gradientTransform="translate(19.5009 6.2792) rotate(-2.89907) scale(19.4348 19.8377)">
<stop stop-color="#F1D0A9"/>
<stop offset="1" stop-color="#ECC08C"/>
</radialGradient>
<radialGradient id="paint10_radial_4532_7366" cx="0" cy="0" r="1" gradientUnits="userSpaceOnUse" gradientTransform="translate(19.4376 6.30707) rotate(-3.19507) scale(19.4358 19.8382)">
<stop stop-color="#F2D4B0"/>
<stop offset="0.97" stop-color="#EDC290"/>
<stop offset="1" stop-color="#EDC290"/>
</radialGradient>
<clipPath id="clip0_4532_7366">
<rect width="24" height="28" fill="white"/>
</clipPath>
</defs>
</svg>
