<svg width="24" height="27" viewBox="0 0 24 27" fill="none" xmlns="http://www.w3.org/2000/svg">
<path d="M13.6091 19.2857H10.2068C8.93916 19.2841 7.72384 18.7552 6.82746 17.8152C5.93107 16.8752 5.4268 15.6008 5.42526 14.2714V5.01428C5.53931 2.23032 7.72591 0 10.2988 0H13.701C16.2436 0 18.3906 2.29591 18.3906 5.01428V14.3669C18.3906 17.0332 16.2004 19.286 13.6091 19.286M10.2988 1.92907C8.69612 1.92907 7.33424 3.33214 7.26357 5.05624L7.2648 14.2714C7.27485 15.0867 7.58817 15.8657 8.13797 16.4422C8.68778 17.0188 9.43058 17.3474 10.2081 17.3579H13.6091C15.2033 17.3579 16.5523 15.9886 16.5523 14.3678V5.01428C16.5523 3.3413 15.2466 1.92778 13.701 1.92778L10.2988 1.92907Z" fill="white"/>
<path d="M8.27655 6.75042H6.43701C6.31623 6.75042 6.19662 6.72547 6.08503 6.67699C5.97344 6.62852 5.87205 6.55748 5.78664 6.46791C5.70123 6.37835 5.63348 6.27202 5.58726 6.15499C5.54103 6.03797 5.51724 5.91255 5.51724 5.78588C5.51724 5.65922 5.54103 5.53379 5.58726 5.41677C5.63348 5.29975 5.70123 5.19342 5.78664 5.10386C5.87205 5.01429 5.97344 4.94324 6.08503 4.89477C6.19662 4.8463 6.31623 4.82135 6.43701 4.82135H8.27655C8.39734 4.82135 8.51694 4.8463 8.62853 4.89477C8.74012 4.94324 8.84152 5.01429 8.92693 5.10386C9.01233 5.19342 9.08008 5.29975 9.12631 5.41677C9.17253 5.53379 9.19632 5.65922 9.19632 5.78588C9.19632 5.91255 9.17253 6.03797 9.12631 6.15499C9.08008 6.27202 9.01233 6.37835 8.92693 6.46791C8.84152 6.55748 8.74012 6.62852 8.62853 6.67699C8.51694 6.72547 8.39734 6.75042 8.27655 6.75042Z" fill="white"/>
<path d="M8.27655 10.6076H6.43701C6.19307 10.6076 5.95913 10.506 5.78664 10.3251C5.61415 10.1442 5.51724 9.89887 5.51724 9.64306C5.51724 9.38725 5.61415 9.14192 5.78664 8.96103C5.95913 8.78015 6.19307 8.67853 6.43701 8.67853H8.27655C8.52049 8.67853 8.75444 8.78015 8.92693 8.96103C9.09942 9.14192 9.19632 9.38725 9.19632 9.64306C9.19632 9.89887 9.09942 10.1442 8.92693 10.3251C8.75444 10.506 8.52049 10.6076 8.27655 10.6076Z" fill="white"/>
<path d="M17.4712 10.6076H11.9542C11.7103 10.6076 11.4764 10.506 11.3039 10.3251C11.1314 10.1442 11.0345 9.89887 11.0345 9.64306C11.0345 9.38725 11.1314 9.14192 11.3039 8.96103C11.4764 8.78015 11.7103 8.67853 11.9542 8.67853H17.4712C17.7151 8.67853 17.9491 8.78015 18.1215 8.96103C18.294 9.14192 18.3909 9.38725 18.3909 9.64306C18.3909 9.89887 18.294 10.1442 18.1215 10.3251C17.9491 10.506 17.7151 10.6076 17.4712 10.6076Z" fill="white"/>
<path d="M8.27655 14.4648H6.43701C6.19307 14.4648 5.95913 14.3632 5.78664 14.1823C5.61415 14.0014 5.51724 13.756 5.51724 13.5002C5.51724 13.2444 5.61415 12.9991 5.78664 12.8182C5.95913 12.6373 6.19307 12.5357 6.43701 12.5357H8.27655C8.52049 12.5357 8.75444 12.6373 8.92693 12.8182C9.09942 12.9991 9.19632 13.2444 9.19632 13.5002C9.19632 13.756 9.09942 14.0014 8.92693 14.1823C8.75444 14.3632 8.52049 14.4648 8.27655 14.4648Z" fill="white"/>
<path d="M17.4712 6.75042H11.9542C11.8335 6.75042 11.7138 6.72547 11.6023 6.67699C11.4907 6.62852 11.3893 6.55748 11.3039 6.46791C11.2185 6.37835 11.1507 6.27202 11.1045 6.15499C11.0583 6.03797 11.0345 5.91255 11.0345 5.78588C11.0345 5.65922 11.0583 5.53379 11.1045 5.41677C11.1507 5.29975 11.2185 5.19342 11.3039 5.10386C11.3893 5.01429 11.4907 4.94324 11.6023 4.89477C11.7138 4.8463 11.8335 4.82135 11.9542 4.82135H17.4712C17.592 4.82135 17.7116 4.8463 17.8231 4.89477C17.9347 4.94324 18.0361 5.01429 18.1215 5.10386C18.207 5.19342 18.2747 5.29975 18.3209 5.41677C18.3671 5.53379 18.3909 5.65922 18.3909 5.78588C18.3909 5.91255 18.3671 6.03797 18.3209 6.15499C18.2747 6.27202 18.207 6.37835 18.1215 6.46791C18.0361 6.55748 17.9347 6.62852 17.8231 6.67699C17.7116 6.72547 17.592 6.75042 17.4712 6.75042Z" fill="white"/>
<path d="M17.4712 14.4648H11.9542C11.8335 14.4648 11.7138 14.4398 11.6023 14.3914C11.4907 14.3429 11.3893 14.2718 11.3039 14.1823C11.2185 14.0927 11.1507 13.9864 11.1045 13.8693C11.0583 13.7523 11.0345 13.6269 11.0345 13.5002C11.0345 13.3736 11.0583 13.2481 11.1045 13.1311C11.1507 13.0141 11.2185 12.9078 11.3039 12.8182C11.3893 12.7286 11.4907 12.6576 11.6023 12.6091C11.7138 12.5607 11.8335 12.5357 11.9542 12.5357H17.4712C17.7151 12.5357 17.9491 12.6373 18.1215 12.8182C18.294 12.9991 18.3909 13.2444 18.3909 13.5002C18.3909 13.756 18.294 14.0014 18.1215 14.1823C17.9491 14.3632 17.7151 14.4648 17.4712 14.4648Z" fill="white"/>
<path d="M13.701 23.1428H10.2988C8.056 23.1401 5.90582 22.2045 4.31995 20.5413C2.73409 18.8782 1.84205 16.6233 1.83954 14.2714V10.6076H0.919769C0.675831 10.6076 0.441884 10.506 0.269394 10.3251C0.096904 10.1442 0 9.89887 0 9.64306C0 9.38725 0.096904 9.14192 0.269394 8.96103C0.441884 8.78015 0.675831 8.67853 0.919769 8.67853H2.75931C3.00325 8.67853 3.23719 8.78015 3.40968 8.96103C3.58217 9.14192 3.67908 9.38725 3.67908 9.64306V14.2714C3.68111 16.1119 4.37916 17.8765 5.62014 19.178C6.86111 20.4796 8.54368 21.2119 10.2988 21.2142H13.701C15.4562 21.2121 17.139 20.4799 18.38 19.1783C19.621 17.8767 20.319 16.112 20.3208 14.2714V9.64306C20.3208 9.38725 20.4177 9.14192 20.5902 8.96103C20.7627 8.78015 20.9966 8.67853 21.2405 8.67853H23.0801C23.324 8.67853 23.558 8.78015 23.7305 8.96103C23.9029 9.14192 23.9998 9.38725 23.9998 9.64306C23.9998 9.89887 23.9029 10.1442 23.7305 10.3251C23.558 10.506 23.324 10.6076 23.0801 10.6076H22.1603V14.2714C22.1579 16.6233 21.2659 18.8781 19.6801 20.5413C18.0944 22.2044 15.9442 23.14 13.7015 23.1428" fill="white"/>
<path d="M17.4712 27C17.3608 26.9995 17.2513 26.9789 17.1476 26.9392C14.1922 25.7734 9.71767 25.7734 6.76046 26.9392C6.53189 27.0292 6.27858 27.0204 6.05625 26.9145C5.83393 26.8087 5.6608 26.6146 5.57495 26.3749C5.48911 26.1352 5.49758 25.8695 5.5985 25.6364C5.69942 25.4033 5.88453 25.2217 6.1131 25.1317C9.47485 23.8096 14.4349 23.8096 17.7942 25.1317C17.9961 25.211 18.165 25.3621 18.2715 25.5587C18.3779 25.7553 18.4151 25.9849 18.3766 26.2074C18.338 26.4298 18.2262 26.631 18.0606 26.7758C17.895 26.9206 17.6862 26.9998 17.4706 26.9995" fill="white"/>
</svg>
